<?xml version="1.0" encoding="UTF-8"?><svg xmlns="http://www.w3.org/2000/svg" viewBox="0 0 300 176"><defs><style>.d{fill:none;stroke:#fff;stroke-miterlimit:10;}</style></defs><g id="a"/><g id="b"><g id="c"><g><rect class="d" x=".5" y=".5" width="299" height="175" rx="20" ry="20"/><path d="M96.21,51.95c-.09,.13-.04,.36-.13,.5-.09,.13-.04,.22,0,.4-.23,.5-.54,1.04-.72,1.62-.09,.13-.27,.13-.27,.27-.04,.04,0,.18-.09,.22-.41,.18-.5,.63-.86,.85-.09,.09-.22,.18-.45,.09-.04,.13-.09,.22-.18,.36-.36-.09-.5,.13-.76,.23-.27,.13-.58,.27-.95,.22-.18,.27-.67,.32-.67,.85,.27,.41,.18,.95,.45,1.49-.04,.18,.18,.5,.09,.67-.04,.23,.18,.45,.13,.67-.13,.27-.04,.68-.09,.99,0,.09,0,.13-.04,.22-.09,.36-.22,.77-.31,1.22,0,.04,0,.13,.09,.22-.09,.09-.14,.22-.23,.22-.22,.04-.31,.14-.36,.32-.32,.13-.45,.5-.72,.72-.04,.04-.18,.04-.18,.18-.22,0-.54-.04-.72,0-.32,.05-.67,.14-1.04,.09-.27,0-.54-.09-.85-.18-.5-.09-.81-.5-1.17-.81-.14-.18-.32-.32-.45-.5-.41-.58-.45-.95-.32-1.39,.09-.23,.04-.54,.32-.68,.04,0,0-.09,.04-.09,.09-.13,.04-.36,.27-.45,.09-.05,.14-.27,.18-.36,.13-.18,.36-.36,.31-.63,0-.04,.09-.09,.13-.13,.04-.18,.23-.27,.41-.45,.04-.18,.23-.32,.32-.45,.4-.41,.81-.72,1.3-.99,0-.09,.13-.04,.22-.09,.18-.18,.14-.45,.09-.76-.18-.41-.31-.86-.45-1.26-.23-.45-.23-.9-.18-1.31,.04-.22,0-.45-.09-.67-.22-.72-.5-1.44-.67-2.16-.09-.09-.18-.09-.27-.22,.04,.27,0,.5-.09,.63-.18,.32-.13,.63-.18,.95-.04,.18-.04,.36-.18,.45-.09,.18-.32,1.44-.5,1.53-.13,.09-.41,.67-.63,1.08h.04c0,.22-.18,.41-.36,.58v.09s-.09,0-.13,0c.04,.09,.04,.23-.09,.36-.27,.27-1.35,.13-2.16,.36-.41,.09-.76,.13-1.12,.27-.09,0-.18,.04-.22,.04-.45-.09-.9-.13-1.35-.13-.22,0-.45,.13-.72,.09-.09,.13-.22,.22-.36,.41,.09,.18-.04,.4-.09,.63-.04,.22,.05,.45-.09,.67-.04,.09,0,.27,0,.45v.99c0,.09,0,.18-.09,.23,.09,.31,.27,.63,.54,.9,.18,.18,.22,.45,.32,.68,.13,.31,.27,.63,.36,.99,.04,.14,0,.32,.09,.45,.09,.18,.09,.36,.18,.5,.04,.13,0,.31,0,.5v.31c0,.23,.04,.45,0,.72-.04,.22,.13,.4,.13,.63-.04,.22,0,.45,0,.67s0,.5-.04,.72c0,.18,.18,.27,.13,.45-.04,.13-.18,.27-.09,.45,.09,.13-.04,.31-.04,.5,.04,.18,.04,.31,.04,.49-.04,.14,0,.23,.09,.27-.04,.13-.13,.18-.09,.27,.04,.36-.13,.72-.13,1.12,.04,.13-.09,.27-.09,.41l-.14,.67c-.13,.5-.5,.9-.76,1.3-.13,.27-.36,.45-.32,.77,0,.04-.09,.09-.13,.13-.27,.04-.63,.09-.9,.27l.22,.09c-.04,.09-.09,.09-.18,.18-.32-.09-.45-.36-.67-.58-.27-.18-.58-.32-.77-.63,.04-.18-.04-.41-.13-.58-.18-.5-.32-.95-.36-1.49,0-.13-.13-.18-.09-.36,0-.09,.04-.27-.09-.36-.04-.72-.04-1.44,0-2.16,.13-.09,.09-.22,.09-.36v-.9c-.09-.67,.13-1.3,.09-1.93,.14-.27,.04-.54,.14-.77,.09-.27,.04-.5,.09-.72,.04-.18,.13-.36,.18-.58,.04-.31,.04-.63,.13-.9,.09-.32,0-.63,.09-.95,.09-.41,.14-.81,.18-1.21v-1.26q-.27-.14-.41-.5c-.13-.09-.31-.09-.31-.32-.18,0-.18-.22-.27-.27-.13-.09-.27-.23-.41-.18l-.4,.41h-.36c-.18-.13-.32-.31-.45-.45v-.22c.18-.18,.36-.41,.67-.54,.23,.09,.5-.13,.77-.09h.81s.09-.04,.18-.04q.14-.09,.32,.04c.22-.18,.32-.41,.27-.67-.04-.36,.14-.68,.09-.99v-1.08c.13-.22,.22-.41,.22-.67-.04-.32-.04-.58,.09-.86v-.27c-.31,0-.58,.18-.9,.04-.14-.09-.27-.22-.27-.54,.04-.18,.32-.18,.5-.22,.32,0,.54-.18,.81-.27,.18-.67,.23-1.3,.45-1.93,.09-.18,.09-.45,.09-.72,.04-.23,.18-.41,.14-.63,.13-.13,.04-.31,.09-.49l.13-.45c.04-.36,.13-.67,.18-1.04l.27-1.08c.04-.18,.13-.36,.18-.54,0-.04,.04-.09,.04-.13-.04-.41,.09-.81,.23-1.17,.13-.45,.27-.86,.45-1.26,.09-.23,.18-.41,.23-.63,.31-.77,.9-1.4,1.53-1.89,.5-.45,1.08-.54,1.71-.22,.36,.13,.68,.36,.81,.76,.04,.09,.13,.14,.18,.23,.09,.22-.04,.5,.09,.72,.13,.13,0,.36,.13,.58,.05,.18,.09,.41-.09,.63-.09,.13-.13,.32-.09,.5,.04,.27-.13,.5-.13,.76,0,.09-.13,.18-.18,.27,0,.09,.04,.13,.09,.18-.13,.58-.5,1.08-.72,1.67-.22,.54-.58,.99-.76,1.53-.13,.31-.27,.58-.63,.67,0,.4-.13,.72-.41,.99-.18,.22-.36,.49-.49,.81-.05,.09-.09,.18-.14,.22-.36,.23-.58,.54-.9,.77-.09,.09-.14,.13-.18,.22-.13,.27-.31,.5-.54,.67,.09,.23-.27,.45,.09,.67-.32,.18-.04,.54-.27,.77,.18,.09,.13,.31,.09,.4-.09,.09-.09,.23-.09,.32,.09,.58-.13,1.12-.09,1.67-.18,.45-.09,.85-.13,1.26,.09,.04,.13,.09,.18,.13,.41,.14,.72-.27,1.17-.18,.41,.04,.76,.04,1.17,.13,.04-.18,.27-.09,.27-.22,.13-.04,.18,.09,.27,.09,.18-.18,1.08-.22,1.35-.36,.14-.09,.27-.13,.45-.13,.54,0,.67-.36,.81-.5l.18-.18c.27-.54,.67-1.4,.95-2.25l.18-.45c.04-.18,.13-.36,.18-.54,.04-.18,.04-.36,.13-.5,.04-.18-.13-.45,.04-.54,.14-.14,.09-.36,.09-.54,.09-.23,.13-.45,.13-.72-.04-.18-.13-.36-.18-.54,0-.18-.23-.27-.23-.4-.18-.41-.18-.81-.18-1.17,.04-.23,0-.45,.09-.68,.18-.4,.36-.54,.76-.63,.23,0,.45-.09,.68-.13,.04,.09,.18,.18,.4,.41,0-.04,0,.04,.09,.13,.14,.04,.14,.18,.14,.27,0,.27,.04,.54,.13,.85-.04,.04,0,.13,0,.18-.04,.27,.04,.54,.09,.77,.04,.27-.18,.5-.09,.72-.09,.54-.63,.9-.09,1.71,.13,.22,.31,.54,.27,.76,.23,.23,.18,.54,.36,.77,.18,.22,.13,.45,.4,.63,.09,.22,.18,.45,.23,.67,.04,.27,.22,.5,.41,.76,.09,.23,.04,.5,.31,.72,.09,.14,.13,.32,.18,.5,.09,.04,.18,.09,.18,.13,.67-.22,1.21-.58,1.89-.81,.36-.13,.67-.31,.99-.5,.13-.13,.45-.22,.54-.5,.13-.22,.31-.36,.5-.54,.13-.18,.22-.4,.36-.63,.09-.22,.27-.4,.27-.72,.04-.18,.18-.27,.22-.36,.09-.09,0-.18-.04-.31,.27-.27,.09-.76,.13-1.12,.13-.04,.23,0,.41,.13,.04,.27,.18,.58,.04,.86Zm-17.19,10.8c-.18,0-.09,.23-.22,.27-.04,.36,.09,.67-.09,1.04,.04,.04,.09,.04,.09,.13-.04,.09-.13,.18-.09,.31,0,.18,.04,.36,0,.5-.09,.18-.14,.32-.09,.5,.05,.18-.13,.32-.13,.5v1.08c.04,.31-.13,.67-.09,.99,0,.13,0,.27-.09,.45-.04,.09-.04,.32,.09,.41-.09,.13-.09,.27-.09,.41,0,.27,.04,.58-.04,.85-.04,.23-.09,.5-.04,.72,0,.27-.14,.49-.14,.76,.09,.54-.13,1.08-.09,1.67,0,.04,0,.09-.04,.13-.13,.18,0,.36-.04,.5,.09,.13,.23,.18,.32,.13,.18-.09,.31-.22,.27-.45,.27-.22,.5-.45,.67-.67,.23-.27,.36-.54,.45-.9,.09-.36,.09-.72,.27-.99,.04-.04,.04-.09,.04-.13-.09-.58,.13-1.12,.09-1.71-.04-.63,0-1.21-.09-1.85-.09-.67,0-1.35,0-1.98,0-.13-.14-.22-.09-.36,0-.04,.04-.09,.09-.13-.14-.13-.14-.27-.09-.41v-.31c-.09-.81-.41-1.53-.77-2.25-.27,.27-.18,.54-.04,.81Zm1.04-12.51c.09,0,.13,0,.18-.09,.18-.27,.5-.45,.72-.68,.05-.04,.09-.09,.14-.18,.18-.31,.4-.67,.67-.95,.27-.31,.36-.72,.67-.99,.04-.23,.27-.36,.27-.54,.09-.36,.36-.54,.49-.77,.14-.58,.41-1.03,.77-1.48-.04-.32,.09-.63,.18-.95,.04-.09,.13-.22,.09-.31,0-.18,.09-.32,.04-.5-.04-.13,.04-.36,.18-.5,.04-.09,.04-.22,0-.32-.09-.18,0-.31,0-.45,0-.09,.04-.18,0-.23l-.23-.13v-.58c-.09-.18-.22-.27-.31-.41-.18-.4-.58-.5-.95-.27-.13,.09-.32,.13-.41,.22-.09,.23-.27,.32-.4,.45-.32,.32-.58,.72-.72,1.12-.13,.54-.36,1.08-.4,1.67-.04,.18-.09,.36-.23,.5v.58c.04,.18-.09,.31-.09,.5l-.13,.67c-.09,.22-.04,.5-.09,.72-.14,.36-.23,.67-.18,1.08,0,.13,.04,.31,0,.41-.18,.18-.09,.36-.09,.54,0,.23-.13,.41-.13,.63,0,.27,.04,.54-.09,.81-.04,.09-.04,.27,.04,.41Zm10.12,10.84s-.09-.05-.09-.09c0-.27,0-.54-.09-.81l-.63-1.84c-.04-.09-.09-.13-.09-.23-.04-.09,.09-.09-.04-.22-.04,0-.09-.09-.18-.04-.36,.22-.77,.5-1.12,.76-.18,.09-.36,.18-.41,.36-.18,.31-.45,.58-.63,.9-.32,.54-.63,.95-.9,1.49l-.27,.99c.09,.18,.27,.31,.31,.45,0,.09,.14,.22,.23,.31,.13,.13,.27,.09,.4,.27,.04,.13,.23,.22,.36,.31,.18,.13,.41,.22,.63,.22,.36-.04,.72,0,1.04-.09,.18-.04,.31-.18,.45-.22,.27,0,.36-.18,.5-.36,.04-.09-.05-.27,.13-.31,.13-.04,.04-.23,.18-.32,.09-.09,.13-.22,.13-.27,.04-.45,.18-.81,.09-1.26Z"/><path d="M228.26,57.94c-.13,.13-.04,.32-.09,.41-.5,.5-.81,1.04-1.26,1.48-.05,.04,0,.09,0,.14-.58,.45-1.08,.9-1.76,1.21-.13,.09-.31,.22-.4,.31-.32,.27-.67,.45-1.08,.54-.32,.09-.63,.27,.99-.31,.31-.09-.58,.18-.86,.36-.22,.18-.58,.27-.85,.41h-.18c-.27,.18-.5,.36-.85,.5-.32,.18-.58,.5-.99,.81-.09,.23-.04,.54,0,.86,.09,.31,0,.63,.13,.9,.23,.27,.04,.63,.32,.9-.04,.27-.09,.58,.04,.85,.09,.09,0,.23,0,.32-.04,.36,0,.67,.09,.99,0,.13-.04,.31-.09,.49,.04,.18-.04,.41,.09,.58,.04,.23,.04,.45,0,.68-.09,.36-.13,.76-.13,1.12-.04,.22-.09,.4-.04,.58-.13,.18-.09,.36-.13,.54-.04,.22-.09,.4-.09,.63-.04,.31-.04,.63-.27,.94-.13,.23-.09,.45-.27,.67-.09,.23-.27,.45-.27,.68-.41,.63-.54,1.3-1.08,1.89-.41,.45-.72,1.04-1.3,1.39-.13,.09-.18,.23-.22,.32-.09,.09-.18,.22-.23,.31-.09,.14-.22,.18-.41,.32-.13,0-.27,.04-.4,0-.14-.04-.23,.13-.41,.04-.09-.09-.27-.04-.45-.04l-.13-.18h-.18c-.67-.32-.9-.95-1.35-1.4,.09-.27-.22-.4-.13-.67-.22-.22-.27-.54-.27-.81-.04-.27-.18-.54-.18-.81-.09-.27,.04-.58-.09-.85-.04-.13,.04-.27,.18-.36-.18-.13-.09-.31-.04-.54,0-.18,.14-.27,.27-.41-.18-.18-.13-.36,.04-.54,.04-.09,.04-.18,.04-.27,.13-.5,.36-.99,.63-1.44,.18-.32,.27-.63,.54-.86-.04-.31,.27-.58,.18-.9,.14-.09,.23-.14,.32-.23-.09-.31,.27-.58,.41-.9,.09-.27,.22-.5,.36-.77,.18-.27,.36-.58,.63-.81,.27-.36,.54-.72,.77-1.08,.22-.27,.5-.54,.72-.76,.36-.32,.72-.68,1.08-1.08-.04-.72,.04-1.49-.27-2.21-.18-.22-.22-.5-.18-.81,.04-.23-.04-.45,0-.72-.18-.18,.09-.5-.09-.67,.04-.45-.18-.85-.13-1.3-.04-.54,.09-1.08,.4-1.58,.14-.22,.23-.54,.45-.76,.18-.23,.27-.41,.45-.63,0-.04,.04-.04,.04-.09,.18-.41,.63-.72,.99-1.08,.18-.18,.22-.36,.4-.54,.04-.18,.09-.41,.23-.58,.04-.18,0-.41,.27-.58-.4-.18-.67-.27-1.08-.27-.31,0-.63-.09-1.03-.18-.36,.22-.81-.09-1.22,.18-.22-.18-.49-.09-.76-.09-.22,.18-.31,.5-.31,.72-.09,.23-.18,.41-.32,.58-.04,.09,.04,.09,0,.14,0,.36-.36,1.39-.67,1.98l.04,.04c0,.22-.18,.41-.36,.58h-.13l-.13,.32c-.23,.45-.63,.9-.67,1.39-.27,.18-.23,.45-.36,.67,0,.13-.45-.18-.41-.36,.09-.45,.41-.81,.45-1.26,0-.18,.23-.31,.36-.45,0,0,0-.04,.04-.04-.32,.04-.86,.13-1.53,.31-.41,.09-.76,.13-1.12,.27-.09,0-.18,.04-.22,.04-.45-.09-.9,.09-1.35,.09-.22,0-.45,.13-.72,.09-.09,.13-.22,.22-.36,.41,.09,.18-.04,.4-.09,.63-.04,.22,.05,.45-.09,.67-.04,.09,0,.27,0,.45v.99c0,.09,0,.18-.09,.23,.09,.31,.27,.63,.54,.9,.18,.18,.22,.45,.32,.68,.13,.31,.27,.63,.36,.99,.04,.14,0,.32,.09,.45,.09,.18,.09,.36,.18,.5,.04,.13,0,.31,0,.5v.31c0,.23,.04,.45,0,.72-.04,.22,.13,.4,.13,.63-.04,.22,0,.45,0,.67s0,.5-.04,.72c0,.18,.18,.27,.13,.45-.04,.13-.18,.27-.09,.45,.09,.13-.04,.31-.04,.5,.04,.18,.04,.31,.04,.49-.04,.14,0,.23,.09,.27-.04,.13-.13,.18-.09,.27,.04,.36-.13,.72-.13,1.12,.04,.13-.09,.27-.09,.41l-.14,.67c-.13,.5-.5,.9-.76,1.3-.13,.27-.36,.45-.32,.77,0,.04-.09,.09-.13,.13-.27,.04-.63,.09-.9,.27l.22,.09c-.04,.09-.09,.09-.18,.18-.32-.09-.45-.36-.67-.58-.27-.18-.58-.32-.77-.63,.04-.18-.04-.41-.13-.58-.18-.5-.32-.95-.36-1.49,0-.13-.13-.18-.09-.36,0-.09,.04-.27-.09-.36-.04-.72-.04-1.44,0-2.16,.13-.09,.09-.22,.09-.36v-.9c-.09-.67,.13-1.3,.09-1.93,.14-.27,.04-.54,.14-.77,.09-.27,.04-.5,.09-.72,.04-.18,.13-.36,.18-.58,.04-.31,.04-.63,.13-.9,.09-.32,0-.63,.09-.95,.09-.41,.14-.81,.18-1.21v-1.26q-.27-.14-.41-.5c-.13-.09-.31-.09-.31-.32-.18,0-.18-.22-.27-.27-.13-.09-.27-.23-.41-.18l-.4,.41h-.36c-.18-.13-.32-.31-.45-.45v-.22c.18-.18,.36-.41,.67-.54,.23,.09,.5-.13,.77-.09h.81s.09-.04,.18-.04q.14-.09,.32,.04c.22-.18,.32-.41,.27-.67-.04-.36,.14-.68,.09-.99v-1.08c.13-.22,.22-.41,.22-.67-.04-.32-.04-.58,.09-.86v-.27c-.31,0-.58,.18-.9,.04-.14-.09-.27-.22-.27-.54,.04-.18,.32-.18,.5-.22,.32,0,.54-.18,.81-.27,.18-.67,.23-1.3,.45-1.93,.09-.18,.09-.45,.09-.72,.04-.23,.18-.41,.14-.63,.13-.13,.04-.31,.09-.49l.13-.45c.04-.36,.13-.67,.18-1.04l.27-1.08c.04-.18,.13-.36,.18-.54,0-.04,.04-.09,.04-.13-.04-.41,.09-.81,.23-1.17,.13-.45,.27-.86,.45-1.26,.09-.23,.18-.41,.23-.63,.31-.77,.9-1.4,1.53-1.89,.5-.45,1.08-.54,1.71-.22,.36,.13,.68,.36,.81,.76,.04,.09,.13,.14,.18,.23,.09,.22-.04,.5,.09,.72,.13,.13,0,.36,.13,.58,.05,.18,.09,.41-.09,.63-.09,.13-.13,.32-.09,.5,.04,.27-.13,.5-.13,.76,0,.09-.13,.18-.18,.27,0,.09,.04,.13,.09,.18-.13,.58-.5,1.08-.72,1.67-.23,.54-.59,.99-.77,1.53-.13,.31-.27,.58-.63,.67,0,.4-.13,.72-.41,.99-.18,.22-.36,.49-.49,.81-.05,.09-.09,.18-.14,.22-.36,.23-.58,.54-.9,.77-.09,.09-.14,.13-.18,.22-.13,.27-.31,.5-.54,.67,.09,.23-.27,.45,.09,.67-.32,.18-.04,.54-.27,.77,.18,.09,.13,.31,.09,.4-.09,.09-.09,.23-.09,.32,.09,.58-.13,1.12-.09,1.67-.18,.45-.09,.85-.13,1.26,.09,.04,.13,.09,.18,.13,.41,.14,.72-.27,1.17-.18,.41,.04,.76-.18,1.17-.09,.04-.18,.27-.09,.27-.23,.13-.04,.18,.09,.27,.09,.18-.18,1.08-.23,1.35-.36,.14-.09,.27-.13,.45-.13,.45,0,.63-.09,.72-.18,.09-.13,.14-.22,.23-.31s.36-.99,.36-1.08c.14-.45,.36-.86,.58-1.53,.14-.4,.36-.85,.27-1.35-.32-.45-.72-.95-.9-1.53-.09-.18,.04-.4-.13-.54,.09-.31-.09-.58,0-.9,.13-.27,0-.58,.27-.86-.23-.09,.04-.18,.04-.27-.04-.13,0-.23,.04-.36,.09-.5,.31-.94,.58-1.39,.18-.41,.5-.77,.9-1.04,.27,.04,.58-.18,.86-.09,.22,.22,.31,.45,.27,.81-.04,.63-.36,1.26-.4,1.89,.04,.13-.04,.27,.09,.36,0,.13-.23,.23-.18,.32,.18,.54-.04,1.08-.09,1.57-.27,.27-.09,.63-.36,.95-.04,.04-.09,.22,0,.27,.13,.13-.04,.27,.04,.4,.13,.18,.4,.18,.63,.23h.54c.36,0,.76,0,1.12,.09,.22,.09,.45,.13,.63,.09,.58-.04,.94,.22,1.3,.5,.09,.09,.13,.22,.36,.22,.09,.18,.04,.41,.27,.54-.04,.41-.09,.76-.18,1.12-.04,.36-.04,.72-.32,1.08-.09,.54-.54,1.04-.85,1.53-.09,.18-.04,.4-.32,.54-.22,.13-.18,.36-.27,.58-.18,.27-.45,.54-.63,.81-.18,.22-.32,.5-.36,.76-.13,.67-.41,1.35-.41,2.12,.14,.22,.36,.54,.41,.85,.04,.36,.41,.5,.41,.86,.5-.13,.81-.45,1.21-.72,.54-.32,1.17-.58,1.75-.9,.27-.09,.54-.27,.76-.36l-.58,.22c.18-.13,.41-.22,.63-.32,.09-.09,.14-.18,.27-.27,.85-.41,1.53-.9,1.98-1.62l.27-.27c.36-.36,.5-.81,.76-1.21,.18-.32,.22-.36,.54-.14,0,.14,.09,.27-.09,.45Zm-18.27,4.81c-.18,0-.09,.23-.22,.27-.04,.36,.09,.67-.09,1.04,.04,.04,.09,.04,.09,.13-.04,.09-.13,.18-.09,.31,0,.18,.04,.36,0,.5-.09,.18-.14,.32-.09,.5,.05,.18-.13,.32-.13,.5v1.08c.04,.31-.13,.67-.09,.99,0,.13,0,.27-.09,.45-.04,.09-.04,.32,.09,.41-.09,.13-.09,.27-.09,.41,0,.27,.04,.58-.04,.85-.04,.23-.09,.5-.04,.72,0,.27-.13,.49-.13,.76,.09,.54-.14,1.08-.09,1.67,0,.04,0,.09-.04,.13-.13,.18,0,.36-.04,.5,.09,.13,.23,.18,.32,.13,.18-.09,.31-.22,.27-.45,.27-.22,.5-.45,.67-.67,.23-.27,.36-.54,.45-.9,.09-.36,.09-.72,.27-.99,.04-.04,.04-.09,.04-.13-.09-.58,.13-1.12,.09-1.71-.04-.63,0-1.21-.09-1.85-.09-.67,0-1.35,0-1.98,0-.13-.14-.22-.09-.36,0-.04,.04-.09,.09-.13-.14-.13-.14-.27-.09-.41v-.31c-.09-.81-.41-1.53-.77-2.25-.27,.27-.18,.54-.04,.81Zm1.04-12.51c.09,0,.13,0,.18-.09,.18-.27,.5-.45,.72-.68,.04-.04,.09-.09,.13-.18,.18-.31,.4-.67,.67-.95,.27-.31,.36-.72,.67-.99,.04-.23,.27-.36,.27-.54,.09-.36,.36-.54,.49-.77,.14-.58,.41-1.03,.77-1.48-.04-.32,.09-.63,.18-.95,.04-.09,.13-.22,.09-.31,0-.18,.09-.32,.04-.5-.04-.13,.04-.36,.18-.5,.04-.09,.04-.22,0-.32-.09-.18,0-.31,0-.45,0-.09,.04-.18,0-.23l-.23-.13v-.58c-.09-.18-.22-.27-.31-.41-.18-.4-.58-.5-.95-.27-.13,.09-.32,.13-.41,.22-.09,.23-.27,.32-.4,.45-.32,.32-.58,.72-.72,1.12-.13,.54-.36,1.08-.4,1.67-.04,.18-.09,.36-.23,.5v.58c.04,.18-.09,.31-.09,.5l-.13,.67c-.09,.22-.04,.5-.09,.72-.14,.36-.23,.67-.18,1.08,0,.13,.04,.31,0,.41-.18,.18-.09,.36-.09,.54,0,.23-.13,.41-.13,.63,0,.27,.04,.54-.09,.81-.04,.09-.04,.27,.04,.41Zm8.42,14.98c0-.14-.05-.23-.05-.23-.18,.14-.36,.23-.49,.36,.04,.13-.18,.22-.18,.36-.5,.18-.54,.58-.85,.85-.09,.04-.04,.13-.09,.22-.54,.5-.99,1.04-1.17,1.76-.23,.09-.27,.36-.5,.54-.04,.36-.18,.72-.45,1.04-.04,.09-.04,.18-.09,.23,.04,.27-.09,.49-.23,.67-.09,.13-.09,.27-.18,.4-.04,.05-.13,.14-.18,.14-.13,.22,0,.4-.23,.54,.05,.22-.18,.4-.18,.63-.04,.27-.22,.58-.36,.85-.04,.23,0,.41,.05,.58,0,.18-.32,.36-.14,.58,.04,.18,.09,.36-.13,.5v.18s.09,.14,.18,.18c0,.18-.04,.36-.04,.5,.04,.22,.18,.36,.27,.45,.27,.9,.58,1.75,1.3,2.39,.13,0,.27,0,.36,.04,.22,.09,.5,.04,.67-.14,.36-.45,.85-.85,1.04-1.39,.09-.18,.22-.32,.4-.45,.04-.18,0-.41,.14-.54,.13-.13,.09-.36,.22-.5-.18-.18,.18-.31,.13-.54-.09-.13,0-.36,0-.54,.04-.18,.04-.36,.09-.54,.09-.18,0-.36,0-.5-.04-.18,.04-.41,.04-.63,.05-.14,.14-.36-.04-.45,.04-.13,.18-.13,.14-.18,0-.14-.09-.18-.09-.27,.05-.04,.14-.09,.23-.18-.23-.09-.13-.27-.13-.41,.09-.72,.18-1.39,.31-2.12,0-.18,.13-.36-.04-.54-.04,0,.04-.13,.04-.18-.04-.13,.13-.18,.18-.31-.04-.14-.18-.18-.09-.32,.04-.45,0-.85,.09-1.3,.05-.63,.09-1.26,.05-1.75Zm4.36-3.87c-.09,.04-.27,.09-.36,.18-.05,0-.14,.09-.18,.09-.13-.04,.23-.18,.54-.27Zm0,0s.04-.04,.09-.04t-.09,.04Z"/><path d="M94.16,125.9c-.14,.13-.23,.22-.27,.41,0,.18-.13,.36-.22,.49-.32,.77-.63,1.58-.99,2.34-.22,.54-.36,1.17-.86,1.58-.09,.04-.04,.13-.04,.27-.4,.31-.72,.85-1.3,1.08-.18,.63-.85,.85-1.3,1.26-.04,0-.04-.04-.09-.09-.14,0-.23,.18-.45,.09-.13-.14-.36-.27-.63-.32-.32-.04-.67-.27-.86-.58-.09-.13-.22-.18-.27-.36-.04-.14-.23-.14-.36-.23-.18-.22-.22-.45-.22-.72-.04-.36-.09-.67-.32-.99-.04-.22,.09-.45-.09-.63-.04-.04-.04-.22,0-.32,.09-.45,.18-.94,.18-1.44,.23-.27,0-.67,.18-.99,.18-.27,.22-.58,.31-.9,.09-.5,.27-.95,.41-1.4,.41-.99,.63-2.02,1.12-2.97,.13-.22,.22-.45,.22-.72,0-.18,.18-.32,.04-.58-.13-.13-.31-.41-.67-.5-.22,.04-.5-.09-.81-.13-.27-.04-.54-.13-.86-.23-.18,.14-.27,.32-.27,.54,0,.58-.18,1.08-.32,1.62-.13,.41-.31,.81-.27,1.26,0,.32-.18,.54-.22,.81-.09,.31-.23,.58-.32,.85,0,.13-.09,.18-.13,.27-.09,.04-.04,.18-.18,.22,0,.04,.04,.13,0,.18,.09,.09,.14,.14,.14,.27,0,.09-.18,.13-.18,.22-.04,.5-.31,1.31-.4,1.75-.09,.18-.09,.32-.14,.5,0,.18-.09,.36-.27,.45,.13,.36-.13,.63-.18,.99-.14,.18-.36,.36-.36,.67v.04c-.27,.41-.41,.9-.76,1.26-.27,.36-.68,.67-.86,1.12-.09,.13-.22,.13-.36,.22-.23,.09-.32,.27-.41,.5-.54,.23-1.04,.45-1.67,.5l-1.58-1.17c-.22-.13-.36-.31-.36-.54-.04-.31-.04-.67-.27-.94l-.04-.05c.04-.49-.27-.94-.18-1.44,.09-.54-.04-1.08,0-1.62s0-1.08,.13-1.62c.04,0,.04-.04,.04-.09-.13-.41,.13-.9,0-1.35-.04-.23,.04-.36,.04-.54,.04-.5,.18-.99,.13-1.53,0-.31,.14-.63,.18-.94,.04-.27,.18-.5,.09-.77,0-.31,.13-.58,.22-.85,.04-.18,.04-.45,.18-.58,.04-.32-.14-.58,.13-.77l1.84-.27c.09,0,.22,.13,.32,.22,.04,.23-.14,.32-.18,.5-.04,.23-.18,.45-.13,.72,0,.09,0,.14-.04,.18-.27,.22-.22,.54-.22,.85,.04,.23-.05,.41-.09,.63,.04,.23,.14,.5,0,.72-.04,.22,.14,.45-.09,.63-.04,.04,0,.18,.04,.27,.04,.32,.04,.67-.09,.99-.04,.27-.04,.5-.04,.76,.09,.32-.13,.58,0,.9-.18,.13-.13,.31-.09,.45,.04,.18-.09,.31-.09,.49,.04,.27-.09,.5-.04,.72,.04,.27-.14,.45-.04,.72,.09,.13-.09,.18-.09,.31,0,.45-.18,.9-.09,1.35,0,.18-.18,.18-.09,.36,.09,.14-.09,.27-.09,.41,0,.18,.04,.32,.04,.5,0,.04,0,.09-.04,.18-.13,.36-.13,.72-.04,1.08,.09,.18,.31,.18,.41,.36,.45,.09,.76-.13,1.12-.27,.31-.09,.63-.22,.81-.54,.13-.13,.41-.13,.45-.36,.27,.04,.18-.32,.4-.36,.18-.04,.23-.36,.36-.54,.18-.13,.22-.31,.36-.5,.18-.27,.4-.58,.45-.94,.09-.23,.23-.41,.23-.63,.04-.14,.09-.27,.18-.41,.23-.45,.32-.99,.5-1.44,.04-.13,0-.27,.04-.4,.04-.04,.09-.13,.18-.23,0-.31,.04-.58,.09-.76,.04-.09,.04-.18,.04-.27,.04-.05,0-.14,0-.18h.04c.09-.31,.22-.67,.4-1.04,.14-.27,.23-.54,.27-.9,0-.27,.09-.54,.18-.81,.09-.45,.13-.94,.36-1.39,.09-.18,.09-.41,.18-.58l.13-.45c.04-.22,.09-.54-.04-.76-.04-.13,0-.27-.04-.36-.27-.13-.4-.4-.5-.67-.18-.45-.31-.95-.5-1.44-.09-.27,0-.54-.04-.86,0-.27,.09-.5,.18-.72,.18-.58,.63-.81,1.21-.86h.36l.54,.54c0,.09-.13,.27,.04,.41-.18,.27-.04,.58-.09,.86v.85c0,.27,.04,.58,0,.85,0,.32,.14,.54,.14,.86,.22,0,.45,.27,.76,.13,.04,.09,.04,.23,.18,.27h.41c.09,.09,.13,.18,.22,.22h.18c.09,.36,.49,.36,.63,.63,.13,0,.31-.09,.4,.09,.14,.18,.04,.27-.09,.36,.13,.18,.18,.36,.36,.5-.04,.18,.09,.41-.13,.54,.22,.27,.13,.54,0,.76l.13,.13c-.09,.04-.13,.14-.13,.23,.04,.36-.04,.67-.18,.99-.04,.14,.04,.23,.09,.36-.22,.54-.49,1.08-.49,1.71l-.23,.13c0,.72-.36,1.31-.27,1.94-.23,.4-.36,.76-.32,1.57l-.18,.18c-.09,.31-.09,.63-.22,.9-.09,.32,.09,.63-.14,.9,0,.09,.09,.13,.14,.22-.32,.32,.04,.58,.09,.86,.22,.27,.58,.04,.76,.27,.22-.04,.45-.27,.72-.18,.27-.41,.77-.63,1.12-.95,.36-.27,.72-.58,.95-.99,.09-.18,.27-.27,.36-.49,.18-.58,.54-1.08,.68-1.67,.04-.18,.27-.27,.22-.5,.27-.27,.27-.72,.5-1.04,.13-.22,.22-.45,.22-.76-.04-.14,0-.32,.09-.45,.14-.13,.05-.22,.09-.41l.36-.31c.09,.04,.13,.13,.27,.27,0,.32-.23,.63-.09,.95Zm-15.34-11.43c-.45-.54-.27-1.12-.04-1.62,.18-.36,.41-.76,.9-.76,.09,.13,.23,.22,.36,.41,0,.04,.09,.18,.13,.31l-.09,.13c-.04,.14,.09,.14,.09,.27-.18,.13-.04,.4-.18,.58l-.36,.54c-.13,.09-.31,.13-.4,.27-.18-.09-.27-.13-.41-.13Z"/><path d="M224.41,113.89c-.27-.13-1.21,.04-1.48,.13-.27,.04-1.35,.36-1.67,.32-.32-.04-.54,.36-.9,0,0,.04-.04,.09-.09,.13-.67,.18-.81,.27-.94,.85-.05,.45-.27,.86-.41,1.26-.13,.45-.32,.85-.58,1.26-.09,.18-.36,.31-.23,.63-.31,.41-.18,1.04-.54,1.44-.23,.27-.23,.68-.32,1.08-.09,.45-.13,.9-.18,1.35-.04,.49,0,1.08-.27,1.53,0,.04,.04,.13,0,.18,0,.27,.13,.59,0,.81s0,.49-.09,.72c-.13,.32,0,.68-.09,.99-.09,.54-.13,1.08-.13,1.67,0,.18-.18,.36-.14,.58,.09,.18,.09,.45,.04,.63-.18,.76,.09,1.57,.05,2.25,.13,.31,.36,.45,.54,.67,.14,.22,.41,.22,.59,.22,.67,.09,1.35-.04,1.89-.36,.36-.18,.63-.49,.94-.77,.58-.63,1.12-1.26,1.49-2.02,.09-.18,.22-.27,.36-.36,0-.13-.04-.22,0-.27,.36-.4,.45-.95,.67-1.39,.04-.13,.09-.36,.22-.45,.09-.09,.13-.18,.09-.27-.04-.22,.09-.4,.18-.58,.18-.22,.4-.45,.4-.77-.04-.13,.18-.63,.27-.76,.04,0,.13,.22,.27,.31,0,.18-.09,.36-.09,.54-.13,.13-.22,.32-.22,.54-.04,.18,.09,.36-.04,.49-.32,.27-.45,.63-.32,1.04-.22,.13-.27,.36-.31,.49-.04,.23-.09,.36-.23,.5-.09,.13,0,.31-.13,.45-.27,.36-.41,.81-.63,1.21-.09,.18-.27,.36-.54,.41,0,.36-.18,.72-.45,.85-.18,.14-.27,.27-.31,.45-.18,.36-.41,.63-.77,.81-.4,.18-.63,.54-.94,.81-.23,.04-.45,.13-.63,.32h-.77c-.54-.05-1.04-.32-1.39-.77-.23-.22-.32-.59-.58-.72-.32-.09-.36-.4-.67-.54-.32-.13-.36-.63-.5-.95-.04-.18-.04-.36-.13-.54-.09-.13-.09-.31-.18-.49-.09-.27-.22-.58-.22-.9,.04-.4-.04-.85-.04-1.3q-.04-.27,0-.4s-.04,.09-.04,.13c-.09,.18-.09,.31-.14,.49,0,.18-.09,.36-.27,.45,.13,.36-.13,.63-.18,.99-.14,.18-.36,.36-.36,.67v.04c-.27,.41-.41,.9-.76,1.26-.27,.36-.67,.68-.86,1.12-.09,.13-.22,.13-.36,.22-.23,.09-.32,.27-.41,.5-.54,.22-1.04,.45-1.67,.49l-1.58-1.17c-.22-.13-.36-.31-.36-.54-.04-.31-.04-.68-.27-.95l-.04-.04c.04-.49-.27-.95-.18-1.44,.09-.54-.04-1.08,0-1.62,.04-.54,0-1.08,.13-1.62,.04,0,.04-.04,.04-.09-.13-.41,.13-.9,0-1.35-.04-.23,.04-.36,.04-.54,.04-.49,.18-.99,.13-1.53,0-.31,.14-.63,.18-.95,.04-.27,.18-.49,.09-.77,0-.31,.13-.58,.22-.85,.04-.18,.04-.45,.18-.59,.04-.31-.14-.58,.13-.77l1.84-.27c.09,0,.22,.13,.32,.22,.04,.23-.14,.32-.18,.5-.04,.22-.18,.45-.13,.72,0,.09,0,.14-.04,.18-.27,.22-.22,.54-.22,.85,.04,.23-.05,.41-.09,.63,.04,.22,.14,.49,0,.72-.04,.22,.14,.45-.09,.63-.04,.04,0,.18,.04,.27,.04,.32,.04,.68-.09,.99-.04,.27-.04,.5-.04,.77,.09,.31-.13,.58,0,.9-.18,.13-.13,.31-.09,.45,.04,.18-.09,.31-.09,.49,.04,.27-.09,.5-.04,.72,.04,.27-.14,.45-.04,.72,.09,.13-.09,.18-.09,.31,0,.45-.18,.9-.09,1.35,0,.18-.18,.18-.09,.36,.09,.14-.09,.27-.09,.41,0,.18,.04,.31,.04,.49,0,.04,0,.09-.04,.18-.13,.36-.13,.72-.04,1.08,.09,.18,.31,.18,.41,.36,.45,.09,.76-.13,1.12-.27,.31-.09,.63-.22,.81-.54,.13-.13,.41-.13,.45-.36,.27,.04,.18-.32,.4-.36,.18-.04,.23-.36,.36-.54,.18-.13,.22-.31,.36-.5,.18-.27,.4-.58,.45-.94,.09-.23,.23-.41,.23-.63,.04-.13,.09-.27,.18-.4,.23-.45,.32-.99,.5-1.44,.04-.13,0-.27,.04-.4,.04-.04,.09-.13,.18-.22,0-.63,.23-.9,.14-1.21h.09l.09-.36c-.09-.18,.13-.5,.09-.81s-.13-.68-.04-.99c.13-.59-.09-1.26,.22-1.85,.05-.04,0-.13,0-.18,0-.45-.13-.95,.18-1.35-.09-.45,.13-.9,.13-1.35,0-.22,.18-.31,.13-.54-.04-.18-.09-.36-.04-.54,.04-.4,.13-.86,.23-1.26,.09-.36,0-.36,.22-.59l-.32,.09c-1.08,.36-1.3,.14-1.26-.54,.13-.9,.95-.22,.95-.31-.04-.27,.67,0,.72-.32,.09-.63,.41-1.53,.54-2.16,.22-.18,.22-.5,.32-.72,.22-.59,.54-1.12,.54-1.76,0-.13,.14-.27,.23-.4,.13-.18,.27-.36,.22-.58,.45-.77,1.04-1.26,2.07-1.12,.09,.13,.27,.27,.45,.49,0,.18,.22,.36,.22,.63-.04,.22,0,.45,.13,.67,.14,.18,.04,.86-.09,1.26,0,.09-.09,.13-.04,.22,.13,.68-.04,1.31,0,1.98,.04,.13-.04,.27-.09,.4-.04,.09,0,.23,0,.41,.41,0,.76,.04,1.12,0,.31-.04,1.35-.5,1.71-.36,.31-.14,.58-.14,.67-.23h.81c.04,.23,.27,.27,.32,.41,.09,.36-.13,.4-.32,.63Zm-15.25,.59c-.45-.54-.27-1.12-.04-1.62,.18-.36,.41-.76,.9-.76,.09,.13,.23,.22,.36,.4,0,.04,.09,.18,.13,.31l-.09,.13c-.04,.14,.09,.14,.09,.27-.18,.13-.04,.4-.18,.58l-.36,.54c-.13,.09-.31,.13-.4,.27-.18-.09-.27-.13-.41-.13Zm9.76,.36l-.09-.13c-.18,.13-.41,.22-.54,.18l-.36,.27c-.13,.95-.27,1.8-.36,2.84,.27-.41,.4-.77,.54-1.04,.14-.31,.27-.59,.36-.9,.18-.36,.18-.86,.45-1.21Zm.81-4.86c.32-.63-.09-1.17-.31-1.76-.18,.09-.23,.18-.32,.27-.13,.22-.04,.49-.13,.72-.13,.27-.27,.59-.22,.9,.04,.63-.27,1.21-.32,1.85,0,.09-.13,.18-.09,.31,.09,.27,0,.54-.09,.76-.04,.27-.09,.5-.04,.77,.04,.04,.13,.09,.18,.18,.18-.27,.45-.09,.63-.13,.18-.18,.32-.31,.45-.49-.13-.27,.13-.5,.09-.77-.04-.18-.13-.4,0-.54,.13-.18-.04-.41,.09-.54,.09-.13-.22-.31,0-.49,.13-.04-.04-.36,.13-.5-.13-.18,.23-.36-.04-.54Z"/><g><path d="M140.74,164.03v-1.08l1.38-1.34c3.32-3.16,4.82-4.84,4.84-6.8,0-1.32-.64-2.54-2.58-2.54-1.18,0-2.16,.6-2.76,1.1l-.56-1.24c.9-.76,2.18-1.32,3.68-1.32,2.8,0,3.98,1.92,3.98,3.78,0,2.4-1.74,4.34-4.48,6.98l-1.04,.96v.04h5.84v1.46h-8.3Z"/><path d="M150.08,164.83l5.58-14.5h1.36l-5.6,14.5h-1.34Z"/><path d="M158.28,162.01c.5,.32,1.66,.82,2.88,.82,2.26,0,2.96-1.44,2.94-2.52-.02-1.82-1.66-2.6-3.36-2.6h-.98v-1.32h.98c1.28,0,2.9-.66,2.9-2.2,0-1.04-.66-1.96-2.28-1.96-1.04,0-2.04,.46-2.6,.86l-.46-1.28c.68-.5,2-1,3.4-1,2.56,0,3.72,1.52,3.72,3.1,0,1.34-.8,2.48-2.4,3.06v.04c1.6,.32,2.9,1.52,2.9,3.34,0,2.08-1.62,3.9-4.74,3.9-1.46,0-2.74-.46-3.38-.88l.48-1.36Z"/></g></g></g></g></svg>