<?xml version="1.0" encoding="UTF-8"?><svg xmlns="http://www.w3.org/2000/svg" viewBox="0 0 300 176"><defs><style>.d{fill:none;stroke:#fff;stroke-miterlimit:10;}</style></defs><g id="a"/><g id="b"><g id="c"><g><rect class="d" x=".5" y=".5" width="299" height="175" rx="20" ry="20"/><path d="M102.89,56.63c-.13,.13-.22,.22-.27,.41,0,.18-.13,.36-.23,.49-.31,.77-.63,1.58-.99,2.34-.23,.54-.36,1.17-.86,1.58-.09,.04-.04,.13-.04,.27-.41,.31-.72,.85-1.3,1.08-.18,.63-.86,.85-1.3,1.26-.04,0-.04-.04-.09-.09-.14,0-.23,.18-.45,.09-.14-.14-.36-.27-.63-.32-.32-.04-.68-.27-.86-.58-.09-.13-.22-.18-.27-.36-.04-.14-.23-.14-.36-.23-.18-.22-.22-.45-.22-.72-.04-.36-.09-.67-.32-.99-.04-.22,.09-.45-.09-.63-.04-.04-.04-.22,0-.32,.09-.45,.18-.94,.18-1.44,.23-.27,0-.67,.18-.99,.18-.27,.22-.58,.31-.9,.09-.5,.27-.95,.41-1.4,.41-.99,.63-2.02,1.12-2.97,.13-.22,.22-.45,.22-.72,0-.18,.18-.32,.04-.58-.13-.13-.31-.41-.67-.5-.22,.04-.5-.09-.81-.13-.27-.04-.54-.13-.86-.23-.18,.14-.27,.32-.27,.54,0,.58-.18,1.08-.32,1.62-.13,.41-.31,.81-.27,1.26,0,.32-.18,.54-.23,.81-.09,.31-.22,.58-.31,.85,0,.13-.09,.18-.13,.27-.09,.04-.05,.18-.18,.22l.04,.04c0,.09,0,.13-.04,.23,0,.09-.04,.22-.09,.36,0,.09,0,.23,.04,.36-.13,.13-.22,.22-.27,.41,0,.18-.14,.36-.23,.49-.31,.77-.63,1.58-.99,2.34-.23,.54-.36,1.17-.86,1.58-.09,.04-.04,.13-.04,.27-.41,.31-.72,.85-1.3,1.08-.18,.63-.86,.85-1.31,1.26-.04,0-.04-.04-.09-.09-.13,0-.22,.18-.45,.09-.14-.14-.36-.27-.63-.32-.31-.04-.67-.27-.85-.58-.09-.13-.22-.18-.27-.36-.04-.14-.22-.14-.36-.23-.18-.22-.23-.45-.23-.72-.04-.36-.09-.67-.31-.99-.04-.22,.09-.45-.09-.63-.04-.04-.04-.22,0-.32,.09-.45,.18-.94,.18-1.44,.22-.27,0-.67,.18-.99,.18-.27,.23-.58,.32-.9,.09-.5,.27-.95,.41-1.4,.4-.99,.63-2.02,1.12-2.97,.13-.22,.22-.45,.22-.72,0-.18,.18-.32,.04-.58-.13-.13-.31-.41-.67-.5-.22,.04-.5-.09-.81-.13-.27-.04-.54-.13-.85-.23-.18,.14-.27,.32-.27,.54,0,.58-.18,1.08-.32,1.62-.13,.41-.32,.81-.27,1.26,0,.32-.27,.63-.32,.9-.09,.31-.22,.58-.32,.85,0,.14-.09,.18-.13,.27-.09,.04-.04,.18-.18,.22,.04,.5-.09,.86-.23,1.12-.09,.18-.13,.27-.18,.41,0,.13-.04,.22-.09,.31h.04s-.04,.05-.09,.05c.04,.13-.32,1.17-.41,1.26-.22,.22-.22,.54-.36,.81-.18,.22-.32,.5-.45,.76-.36,.68-.76,1.26-1.21,1.8-.23,.31-.45,.67-.81,.9-.18,.04-.22,.32-.4,.36-.18,.36-.5,.36-.77,.31l-.22,.23h-.72c-.09-.04-.14-.14-.23-.23-.27,.09-.5-.09-.76-.22-.13-.18-.22-.41-.41-.63-.27-.27-.36-.58-.5-.9-.18-.5-.18-.94-.4-1.44-.09-.13,0-.32,0-.5-.27-.23-.18-.32-.32-.76-.13,0-.09-.36-.27-.5-.27,.18-.45,.4-.45,.63,0,.18-.13,.27-.13,.45,0,.09-.14,.22-.09,.36,0,.13-.04,.27-.09,.45-.04,.22-.04,.41-.18,.54-.09,.18,0,.41-.13,.54-.04,0,0,.09,0,.18-.36,.27-.63,.63-.77,1.17-.31,.27-.58,.72-1.08,.95-.23,.04-.5-.09-.81-.18-.27-.14-.5-.36-.9-.32-.18-.18-.36-.41-.58-.58,0-.13,.04-.22-.04-.27-.32-.32-.45-.77-.63-1.17-.09-.31-.27-.54-.36-.85-.09-.45-.18-.81-.18-1.26,0-.18,.05-.36-.13-.5,.04-.09,.09-.13,.13-.18-.09-.18-.18-.36-.04-.63,.14-.18,.04-.5,.04-.72-.04-.27,.09-.54,.09-.85,0-.27,.09-.58,.18-.81,.04-.13,.04-.27,.04-.4-.04-.18,.09-.23,.09-.41,.04-.41,.23-.76,.41-1.21,.04-.18,.13-.36,.13-.54,.23-.13,.18-.36,.27-.54,.22-.36,.27-.72,.54-1.04,.49-.58,.85-1.21,1.39-1.71,.09-.04,.13-.09,.18-.09,.32-.18,.58-.31,.99-.5-.04-.13,.09-.22,.13-.27,.32,.22,.67,.04,1.04,.09,.5,.41,1.08,.72,1.49,1.17,.22-.18,.27-.45,.4-.72,.27-.58,.81-.77,1.4-.9,.13,.27,.5,.27,.58,.58,0,.04-.04,.09-.09,.13,.13,.14,.09,.27,.09,.41,.04,.32-.09,.67,.09,1.04,.04,.09-.04,.18-.09,.27,.13,.18,.09,.36,.09,.63,0,.18,.04,.41,0,.58-.04,.23-.09,.41-.09,.58s.09,.41-.09,.58c0,.05,.04,.09,.13,.14-.18,.13-.13,.36-.13,.54,0,.27-.05,.54,0,.81,.04,.27-.14,.41-.14,.63s.09,.41-.09,.63v.18c0,.67-.18,1.39-.09,2.16,0,.14-.09,.32-.04,.45,0,.18-.09,.27-.09,.45,.04,.13,.04,.31,.04,.45,0,.18,.04,.36-.04,.54-.18,.45-.04,.85-.09,1.26,0,.31,.27,.58,.27,.9,0,0-.13,0,.22,.23,.5-.13,0,.54,.86,.27,.04,0,.13-.13,.18-.13,.27-.09,.86-.54,1.04-.72,.95-.9,.99-.9,1.67-2.12,.27-.45,.54-.95,.85-1.44,.14-.27,.23-.63,.32-.95h-.04s.04-.09,.09-.09v-.09h.04c.13-.27,.23-.54,.27-.81,.04-.22,.09-.58,.18-.76,.27-.36,.41-.9,.54-1.3,.09-.27,.22-.54,.27-.9,0-.27,.09-.54,.18-.81,.09-.45,.13-.95,.45-1.49,.14-.18,.09-.41,.18-.58l.13-.45c.04-.22,.09-.54-.04-.76-.04-.13,0-.27-.04-.36-.27-.13-.41-.4-.5-.67-.18-.45-.32-.95-.5-1.44-.09-.27,0-.54-.04-.86,0-.27,.09-.5,.18-.72,.18-.58,.63-.81,1.21-.86h.36l.54,.54c0,.09-.13,.27,.04,.41-.18,.27-.04,.58-.09,.86v.85c0,.27,.04,.58,0,.85,0,.32,.13,.54,.13,.86,.23,0,.45,.27,.77,.13,.04,.09,.04,.23,.18,.27h.41c.09,.09,.13,.18,.22,.22h.18c.09,.36,.5,.36,.63,.63,.14,0,.32-.09,.41,.09,.13,.18,.04,.27-.09,.36,.13,.18,.18,.36,.36,.5-.04,.18,.09,.41-.13,.54,.23,.27,.13,.54,0,.76l.13,.13c-.09,.04-.13,.14-.13,.23,.04,.36-.04,.67-.18,.99-.04,.14,.04,.23,.09,.36-.22,.54-.5,1.08-.5,1.71l-.22,.13c0,.72-.36,1.31-.27,1.94-.22,.4-.36,.76-.31,1.57l-.18,.18c-.09,.31-.09,.63-.23,.9-.09,.32,.09,.63-.13,.9,0,.09,.09,.13,.13,.22-.31,.32,.04,.58,.09,.86,.23,.27,.58,.04,.77,.27,.22-.04,.45-.27,.72-.18,.27-.41,.76-.63,1.12-.95,.36-.27,.72-.58,.94-.99,.09-.18,.27-.27,.36-.49,.18-.58,.54-1.08,.67-1.67,.04-.18,.27-.27,.23-.5,.22-.23,.27-.54,.36-.81,0-.04-.04-.09-.04-.13,.18-.27,.32-.58,.41-.85-.04-.14,0-.32,.09-.45,.13-.13,.04-.22,.09-.41l.32-.27c.13-.27,.18-.5,.27-.77,.09-.27,.23-.54,.27-.9,0-.27,.09-.54,.18-.81,.09-.45,.13-.94,.36-1.39,.09-.18,.09-.41,.18-.58l.13-.45c.04-.22,.09-.54-.04-.76-.04-.13,0-.27-.04-.36-.27-.13-.41-.4-.5-.67-.18-.45-.31-.95-.5-1.44-.09-.27,0-.54-.04-.86,0-.27,.09-.5,.18-.72,.18-.58,.63-.81,1.21-.86h.36l.54,.54c0,.09-.13,.27,.04,.41-.18,.27-.04,.58-.09,.86v.85c0,.27,.04,.58,0,.85,0,.32,.13,.54,.13,.86,.23,0,.45,.27,.77,.13,.04,.09,.04,.23,.18,.27h.41c.09,.09,.13,.18,.22,.22h.18c.09,.36,.5,.36,.63,.63,.13,0,.31-.09,.4,.09,.13,.18,.04,.27-.09,.36,.13,.18,.18,.36,.36,.5-.04,.18,.09,.41-.14,.54,.23,.27,.14,.54,0,.76l.14,.13c-.09,.04-.14,.14-.14,.23,.05,.36-.04,.67-.18,.99-.04,.14,.04,.23,.09,.36-.22,.54-.5,1.08-.5,1.71l-.22,.13c0,.72-.36,1.31-.27,1.94-.23,.4-.36,.76-.32,1.57l-.18,.18c-.09,.31-.09,.63-.23,.9-.09,.32,.09,.63-.13,.9,0,.09,.09,.13,.13,.22-.31,.32,.04,.58,.09,.86,.23,.27,.58,.04,.77,.27,.22-.04,.45-.27,.72-.18,.27-.41,.76-.63,1.12-.95,.36-.27,.72-.58,.95-.99,.09-.18,.27-.27,.36-.49,.18-.58,.54-1.08,.67-1.67,.05-.18,.27-.27,.23-.5,.27-.27,.27-.72,.5-1.04,.13-.22,.22-.45,.22-.76-.04-.14,0-.32,.09-.45,.13-.13,.04-.22,.09-.41l.36-.31c.09,.04,.13,.13,.27,.27,0,.32-.22,.63-.09,.95Zm-28.17-4.91c-.18-.31-.31-.67-.4-.99-.04-.14-.18-.09-.23-.23-.18-.36-.5-.72-.9-.72-.04,0-.45-.13-.63-.09-.27,.09-.45,.36-.67,.72,.09,.32-.59,.54-.09,.76-.72,.23-.67,.54-.72,.81-.09,.54-.36,1.08-.31,1.71,.09,.09,.09,.13,0,.22-.14,.36-.05,.86-.18,1.21-.36,.9-.27,.67-.27,1.04,0,.18,.04,.36-.09,.45,.13,.13,0,.27,0,.41-.04,.31-.18,.54-.23,.76,0,.54-.27,1.04-.18,1.53,.09,.23-.09,.41,.09,.63l-.09,.09c-.09,.99-.04,1.75-.04,2.7,.45,.77,.94,.72,1.17,.86,.13,.09,.22,.04,.36,.04,.14-.13,.36-.27,.41-.58,.09-.27,.41-.32,.45-.54,.04-.18,.22-.27,.32-.41,.09-.18,.09-.4,.18-.58,.09-.18,.09-.4,.27-.54,0-.31,.04-.58,.09-.81,.05-.45,.18-.81,.27-1.26,.09-.54,.31-.99,.27-1.49,0-.09-.04-.13,0-.22,.23-.41,.27-.86,.32-1.35,.09-.49,.31-1.03,.36-1.57,.04-.23,.22-.45,.22-.77,0-.27,.18-.54,.18-.81-.09-.32-.18-.58,.09-.81v-.18Z"/><path d="M234.02,52.67c-.09,.13-.04,.22-.04,.41-.27,.49-.67,1.03-.94,1.62-.09,.14-.27,.14-.32,.27-.04,.04,0,.18-.09,.22-.45,.18-.58,.63-.99,.86-.09,.09-.27,.18-.45,.09l-.23,.36c-.36-.09-.67-.09-.94,0-.32,.13-.63,.27-.99,.22-.23,.27-.72,.32-.77,.85,.18,.41,.05,.95,.23,1.49-.09,.18,.09,.5,0,.67-.09,.23,.09,.45,.04,.67-.18,.27-.13,.68-.22,.99l-.09,.22-.49,1.22s0,.13,.04,.22c-.09,.09-.14,.22-.23,.22-.22,.04-.36,.14-.4,.32-.36,.13-.54,.5-.81,.72-.09,.04-.22,.04-.22,.18-.23,0-.54-.04-.72,0-.31,.05-.67,.14-1.03,.09-.27,0-.54-.09-.86-.18-.45-.09-.72-.5-1.04-.81l-.4-.5c-.32-.58-.32-.95-.09-1.39,.09-.23,.09-.54,.4-.68,.04,0,0-.09,.04-.09,.09-.13,.09-.36,.32-.45,.13-.05,.18-.27,.27-.36,.14-.18,.41-.36,.41-.63,0-.04,.09-.09,.13-.13,.09-.18,.27-.27,.45-.45,.09-.18,.27-.32,.41-.45,.45-.41,.9-.72,1.44-.99,0-.09,.14-.04,.23-.09,.22-.18,.18-.45,.18-.76l-.27-1.26c-.32-1.04-.18-1.85-.5-3.69-.18,.23-.32,.41-.5,.67-.09,.14-.18,.27-.41,.36-.18,.13-.22,.36-.5,.41-.27,.09-.4,.63-.67,.58-.18,.31-.5,.45-.72,.81-.36,0-.5,.41-.81,.54-.13,.04-.36,.13-.45,.36-.18,0-.36,.13-.5,.18-.13,.09-.27,.18-.41,.32l-.22,.36c-.36-.09-.54,.13-.81,.23-.31,.13-.63,.27-.99,.22-.23,.27-.72,.32-.77,.85,.18,.41,.04,.95,.23,1.49-.09,.18,.09,.5,0,.67-.09,.23,.09,.45,.04,.67-.18,.27-.14,.68-.23,.99l-.09,.22-.5,1.22s0,.13,.04,.22c-.09,.09-.13,.22-.22,.22-.22,.04-.36,.14-.41,.32-.36,.13-.54,.5-.81,.72-.09,.04-.23,.04-.23,.18-.22,0-.54-.04-.72,0-.31,.05-.67,.14-1.04,.09-.27,0-.54-.09-.85-.18-.45-.09-.72-.5-1.04-.81l-.41-.5c-.31-.58-.31-.95-.09-1.39,.09-.23,.09-.54,.41-.68,.04,0,0-.09,.04-.09,.09-.13,.09-.36,.32-.45,.13-.05,.18-.27,.27-.36,.13-.18,.41-.36,.41-.63,0-.04,.09-.09,.13-.13,.09-.18,.27-.27,.45-.45,.09-.18,.27-.32,.4-.45,.45-.41,.9-.72,1.44-.99,0-.09,.13-.04,.22-.09,.23-.18,.18-.45,.18-.76l-.27-1.26c-.13-.45-.09-.9,0-1.31,.09-.22,.09-.45,.04-.67-.13-.72-.31-1.44-.4-2.16-.04-.09-.14-.09-.23-.22,0,.27-.09,.5-.18,.63-.22,.32-.22,.63-.32,.95-.04,.18-.09,.36-.22,.45-.13,.18-.13,.45-.32,.54-.22,.14-.13,.41-.4,.41,.04,.13,.04,.18,.09,.27-.04,.04-.09,.04-.13,.04,0,.36-.27,.58-.36,.94-.32,.09-.32,.5-.54,.72-.13,.09-.27,.22-.27,.45-.18,.04-.27,.23-.41,.32-.18,.22-.27,.54-.5,.72-.04,.04-.09,.09-.13,.18l.18-.05s-.04,.05-.09,.05c.04,.13-.32,1.17-.41,1.26-.22,.22-.22,.54-.36,.81-.18,.22-.32,.5-.45,.76-.36,.68-.76,1.26-1.21,1.8-.23,.31-.45,.67-.81,.9-.18,.04-.22,.32-.4,.36-.18,.36-.5,.36-.77,.31l-.22,.23h-.72c-.09-.04-.14-.14-.23-.23-.27,.09-.5-.09-.76-.22-.13-.18-.22-.41-.41-.63-.27-.27-.36-.58-.5-.9-.18-.5-.18-.94-.4-1.44-.09-.13,0-.32,0-.5-.27-.23-.18-.32-.32-.76-.13,0-.09-.36-.27-.5-.27,.18-.45,.4-.45,.63,0,.18-.13,.27-.13,.45,0,.09-.14,.22-.09,.36,0,.13-.04,.27-.09,.45-.04,.22-.04,.41-.18,.54-.09,.18,0,.41-.13,.54-.04,0,0,.09,0,.18-.36,.27-.63,.63-.77,1.17-.31,.27-.58,.72-1.08,.95-.23,.04-.5-.09-.81-.18-.27-.14-.5-.36-.9-.32-.18-.18-.36-.41-.58-.58,0-.13,.04-.22-.04-.27-.32-.32-.45-.77-.63-1.17-.09-.31-.27-.54-.36-.85-.09-.45-.18-.81-.18-1.26,0-.18,.05-.36-.13-.5,.04-.09,.09-.13,.13-.18-.09-.18-.18-.36-.04-.63,.14-.18,.04-.5,.04-.72-.04-.27,.09-.54,.09-.85,0-.27,.09-.58,.18-.81,.04-.13,.04-.27,.04-.4-.04-.18,.09-.23,.09-.41,.04-.41,.23-.76,.41-1.21,.04-.18,.13-.36,.13-.54,.23-.13,.18-.36,.27-.54,.22-.36,.27-.72,.54-1.04,.49-.58,.85-1.21,1.39-1.71,.09-.04,.13-.09,.18-.09,.32-.18,.58-.31,.99-.5-.04-.13,.09-.22,.13-.27,.32,.22,.67,.04,1.04,.09,.5,.41,1.08,.72,1.49,1.17,.22-.18,.27-.45,.4-.72,.27-.58,.81-.77,1.4-.9,.13,.27,.5,.27,.58,.58,0,.04-.04,.09-.09,.13,.13,.14,.09,.27,.09,.41,.04,.32-.09,.67,.09,1.04,.04,.09-.04,.18-.09,.27,.13,.18,.09,.36,.09,.63,0,.18,.04,.41,0,.58-.04,.23-.09,.41-.09,.58s.09,.41-.09,.58c0,.05,.04,.09,.13,.14-.18,.13-.13,.36-.13,.54,0,.27-.04,.54,0,.81,.04,.27-.14,.41-.14,.63s.09,.41-.09,.63v.18c0,.67-.18,1.39-.09,2.16,0,.14-.09,.32-.04,.45,0,.18-.09,.27-.09,.45,.04,.13,.04,.31,.04,.45,0,.18,.04,.36-.04,.54-.18,.45-.04,.85-.09,1.26,0,.31,.27,.58,.27,.9,0,0-.13,0,.23,.23,.49-.13,0,.54,.85,.27,.04,0,.13-.13,.18-.13,.27-.09,.86-.54,1.04-.72,.95-.9,.99-.9,1.67-2.12,.27-.45,.54-.95,.85-1.44,.14-.23,.23-.54,.27-.86-.18-.04-.27-.22-.09-.31,0-.05,.04-.09,.04-.09,.31-.49,.58-.99,.95-1.39,.18-.32,.45-.58,.58-.95,.18-.36,.54-.63,.76-.94,.13-.32,.27-.68,.45-.95,.09-.13,.18-.32,.22-.45l.27-.54c.05-.18,.09-.36,.18-.5,.09-.18-.04-.45,.13-.54,.18-.14,.13-.36,.18-.54,.09-.23,.18-.45,.23-.72,0-.18-.09-.36-.09-.54s-.18-.27-.18-.4c-.13-.41-.09-.81,0-1.17,.04-.23,.04-.45,.18-.68,.22-.4,.4-.54,.85-.63,.22,0,.45-.09,.67-.13,.04,.09,.18,.18,.36,.41,0-.04,0,.04,.04,.13,.13,.04,.13,.18,.13,.27-.04,.27-.04,.54,0,.85-.04,.04-.04,.13-.04,.18-.04,.27,0,.54,0,.77,0,.27-.09,.5,0,.72-.18,.54-.31,1.12-.36,1.71-.04,.22,.09,.54,0,.76,.18,.23,.09,.54,.27,.77,.13,.22,.04,.45,.31,.63l.14,.67c0,.27,.13,.5,.27,.76,.09,.23,0,.5,.23,.72,.09,.14,.09,.32,.09,.5,.09,.04,.18,.09,.18,.13,.72-.22,1.26-.58,1.98-.81,.45-.27,.9-.41,1.35-.63,.27-.27,.63-.5,.9-.76,.32-.27,.77-.45,1.08-.72,.27-.22,.54-.58,.81-.76,.18-.13,.31-.22,.4-.36,.18-.18,.32-.27,.45-.45l.41-.41c.18-.18,.09-.45,.31-.45h.04l-.27-1.08c0-.18-.09-.36-.09-.54s-.18-.27-.18-.4c-.14-.41-.09-.81,0-1.17,.04-.23,.04-.45,.18-.68,.22-.4,.41-.54,.85-.63,.23,0,.45-.09,.68-.13,.04,.09,.18,.18,.36,.41,0-.04,0,.04,.04,.13,.13,.04,.13,.18,.13,.27-.04,.27-.04,.54,0,.85-.04,.04-.04,.13-.04,.18-.04,.27,0,.54,0,.77,0,.27-.09,.5,0,.72-.18,.54-.31,1.12-.36,1.71-.04,.22,.09,.54,0,.76,.18,.23,.09,.54,.27,.77,.13,.22,.04,.45,.32,.63l.13,.67c0,.27,.13,.5,.27,.76,.09,.23,0,.5,.23,.72,.09,.14,.09,.32,.09,.5,.09,.04,.18,.09,.18,.13,.72-.22,1.31-.58,2.03-.81,.36-.13,.85-.09,1.17-.27,.18-.14,.5-.23,.63-.5,.13-.23,.36-.36,.54-.54,.18-.18,.31-.41,.45-.63,.13-.23,.36-.41,.4-.72,.04-.18,.18-.27,.27-.36s0-.18,0-.32l.58-.13c-.09,.13-.09,.36-.23,.5Zm-30.55-.95c-.18-.31-.31-.67-.4-.99-.04-.14-.18-.09-.23-.23-.18-.36-.5-.72-.9-.72-.04,0-.45-.13-.63-.09-.27,.09-.45,.36-.67,.72,.09,.32-.58,.54-.09,.76-.72,.23-.67,.54-.72,.81-.09,.54-.36,1.08-.31,1.71,.09,.09,.09,.13,0,.22-.14,.36-.05,.86-.18,1.21-.36,.9-.27,.67-.27,1.04,0,.18,.04,.36-.09,.45,.13,.13,0,.27,0,.41-.04,.31-.18,.54-.23,.76,0,.54-.27,1.04-.18,1.53,.09,.23-.09,.41,.09,.63l-.09,.09c-.09,.99-.04,1.75-.04,2.7,.45,.77,.94,.72,1.17,.86,.13,.09,.22,.04,.36,.04,.13-.13,.36-.27,.4-.58,.09-.27,.41-.32,.45-.54,.04-.18,.22-.27,.32-.41,.09-.18,.09-.4,.18-.58,.09-.18,.09-.4,.27-.54,0-.31,.04-.58,.09-.81,.05-.45,.18-.81,.27-1.26,.09-.54,.31-.99,.27-1.49,0-.09-.04-.13,0-.22,.23-.41,.27-.86,.32-1.35,.09-.49,.32-1.03,.36-1.57,.04-.23,.22-.45,.22-.77,0-.27,.18-.54,.18-.81-.09-.32-.18-.58,.09-.81v-.18Zm12.83,9.36s-.09-.05-.09-.09c.04-.27,.09-.54,0-.81l-.36-1.84c-.04-.09-.04-.13-.04-.23-.04-.09,.09-.09,0-.22-.04,0-.09-.09-.18-.04-.41,.22-.86,.5-1.26,.76-.18,.09-.36,.18-.45,.36-.23,.31-.54,.58-.77,.9-.36,.54-.76,.95-1.08,1.49l-.4,.99c.04,.18,.22,.31,.22,.45,0,.09,.13,.22,.18,.31,.14,.13,.27,.09,.36,.27,.04,.13,.22,.22,.36,.31,.13,.13,.36,.22,.58,.22,.36-.04,.72,0,1.03-.09,.18-.04,.36-.18,.5-.22,.27,0,.36-.18,.54-.36,.04-.09,0-.27,.18-.31,.13-.04,.09-.23,.22-.32,.09-.09,.18-.22,.18-.27,.09-.45,.27-.81,.27-1.26Zm10.53,0s-.09-.05-.09-.09c.04-.27,.09-.54,0-.81l-.36-1.84c-.04-.09-.04-.13-.04-.23-.04-.09,.09-.09,0-.22-.04,0-.09-.09-.18-.04-.41,.22-.86,.5-1.26,.76-.18,.09-.36,.18-.45,.36-.23,.31-.54,.58-.76,.9-.36,.54-.77,.95-1.08,1.49l-.41,.99c.04,.18,.22,.31,.22,.45,0,.09,.14,.22,.18,.31,.13,.13,.27,.09,.36,.27,.04,.13,.23,.22,.36,.31,.13,.13,.36,.22,.58,.22,.36-.04,.72,0,1.04-.09,.18-.04,.36-.18,.5-.22,.27,0,.36-.18,.54-.36,.04-.09,0-.27,.18-.31,.13-.04,.09-.23,.22-.32,.09-.09,.18-.22,.18-.27,.09-.45,.27-.81,.27-1.26Z"/><path d="M96.7,125c-.09,.67-.13,1.4-.41,2.07-.04,.13-.04,.27-.04,.41s-.09,.18-.09,.31c-.04,.36-.27,.63-.22,1.04-.13,.18-.18,.45-.41,.58,0,.09,.04,.13,.09,.18-.09,.18-.13,.41-.22,.58l-.27,.58c-.09,.18-.27,.32-.31,.54-.04,.18-.36,.23-.32,.54-.27,.18-.4,.5-.54,.81-.13,.09-.36,.09-.45,.31-.04,.18-.23,.27-.5,.36-.36-.04-.77,.04-1.21,.18-.18-.13-.45-.09-.77-.09-.27-.36-.85-.36-1.08-.81,.09-.27-.31-.31-.31-.58-.04-.22-.22-.4-.27-.58-.09-.22-.22-.4-.22-.63-.04-.22-.13-.45-.18-.67,0-.22,0-.45-.18-.67,.05-.09,.14-.18,.14-.32-.09-.4,.04-.76,.13-1.17,0-.27,0-.58,.09-.85,.04-.27,.04-.54,.09-.76,.04-.36,.13-.68,.23-1.04,0-.13,.09-.32,.04-.45-.04-.18,.13-.27,.13-.45,0-.27,.09-.54,.18-.81,.13-.27,.13-.58,.23-.86,.04-.27,.13-.54,.22-.81,.09-.32,.18-.67,.36-.99,.18-.31,.27-.67,.4-1.12,.14-.09,.27-.31,.41-.54,.09-.22,.09-.45,.27-.67-.36,0-.63,.18-.99,.04-.13,.18-.27,.36-.32,.45-.54,.09-.99,.22-1.48,.22-.14,0-.32,.09-.41,.23,.13,.58,.18,1.17-.13,1.75,0,.09,.18,.13,.18,.18,.13,.23-.04,.41-.09,.58-.04,.23-.09,.36-.18,.58,.18,.18-.18,.41-.18,.67,.04,.18-.45,2.16-.63,2.38-.04,.05-.09,.09-.13,.18h.27c0,.27-.13,.54-.18,.81-.13,.41-.27,.77-.31,1.17-.05,.13-.14,.27-.23,.41,0,.09,.09,.09,.09,.22-.27,.41-.31,.99-.67,1.44,0,.13,.04,.27,.04,.41-.54,1.21-1.39,2.25-2.47,2.97-.5,.18-.86-.09-1.26-.18-.32-.04-.41-.36-.67-.54-.18-.18-.32-.45-.54-.58-.18-.13-.27-.36-.36-.58-.04-.27-.18-.4-.36-.58,.14-.58-.18-1.21-.13-1.8-.22-.4-.09-.85-.13-1.3,0-.09-.09-.22,.18-.32-.36-.04-.4,.14-.4,.32-.09,.45-.41,.9-.41,1.39-.23,.14-.23,.45-.36,.68-.09,.27-.22,.45-.31,.72-.14,.36-.32,.67-.63,.85l-.68,.72s-.13,.13-.13,.22-.27,.27-.5,.5c0,.04-.4,.18-.36,.22-.23,.18-.09,.04-.5,.04-.13-.13-.54,.14-.67-.18-.63,.04-.36-.09-.9-.54,0-.13-.27-.54-.27-.63-.04-.13,0-.27-.04-.41-.27-.5-.41-1.04-.45-1.57-.04-.36-.13-.77-.13-1.12,0-.14,0-.27,.13-.36-.09-.09-.09-.13-.18-.18,.18-.18,.09-.36,.09-.54,0-.36,0-.72,.18-.99,.04-.09,0-.13,0-.22-.09-.36,.13-.72,.13-1.12-.09-.23,.09-.45,.13-.68,.04-.36,.14-.72,.23-1.08,.13-.45,.31-.9,.5-1.4,.22-.58,.36-1.17,.81-1.62,.13-.13,.13-.36,.18-.54,.27-.45,.45-.94,.95-1.17,.27-.54,.81-.63,1.35-.76,.14-.04,.27-.18,.36-.13,.13,.04,.18,0,.27-.04,.18-.04,.32,.27,.5,0,.09,.13,.18,.13,.32,.04,0-.04,.13,.09,.27,.09,.27-.04,.45,.04,.58,.32,.04,.13,.14,.27,.27,.4,.09,.09,.13,.27,.22,.45,.13-.58,.32-1.12,.32-1.67,.13-.13,.18-.36,.13-.58,0-.27,.04-.5,.22-.67-.04-.72,.23-1.44,.36-2.12,.13-.5,.32-.9,.36-1.39,0-.04,0-.09,.04-.18,.22-.45,.27-.95,.45-1.44,.14-.45,.32-.95,.36-1.44-.04-.09,.04-.18,.09-.27,.23-.58,.27-1.26,.67-1.84,.04-.54,.5-.9,.77-1.35,.13-.22,.31-.22,.5-.36,.13-.09,.36-.09,.54-.09,.13,.09,.18,.27,.4,.18,.13,.63,.18,1.21,.04,1.84,0,.04,.04,.09,.04,.09-.04,.36-.27,.68-.36,1.04-.04,.09-.09,.18-.09,.27,.04,.54-.14,.99-.32,1.48-.09,.18-.13,.41-.13,.63,0,.27-.04,.5-.13,.72-.23,.54-.41,1.17-.5,1.75-.09,.31-.36,.63-.32,1.03-.18,.09-.18,.27-.18,.5-.04,.14-.27,.23-.23,.45-.18,.13,0,.36-.04,.54-.13,.13-.18,.27-.22,.5-.04,.31-.22,.54-.32,.81-.22,.63-.49,1.21-.45,1.89,.04,.22-.14,.4-.04,.63,.04,.22,.04,.45,0,.63-.14,.31,0,.67-.09,.99-.09,.32,0,.63-.04,.9-.13,.45,0,.9-.04,1.35-.13,.54-.09,1.04-.09,1.58,0,.22-.09,.5-.09,.76,.04,.23,.09,.41-.04,.68-.04,.13,0,.31,0,.45-.04,.18,.09,.41-.04,.58-.13,.14,.13,.27-.04,.45,.13,.41-.27,.81,.04,1.21-.23,.23,.04,.54-.13,.72-.04,.09,0,.18,0,.27,0,.45,.04,.9,.04,1.3,.13,.36,.36,.54,.67,.67l.04-.04c.5,0,.85-.36,1.17-.67,.22-.18,.41-.41,.58-.58,.13-.13,.27-.31,.32-.5,.18-.4,.36-.72,.45-1.12,.04-.22,.18-.31,.27-.45,.22-.45,.31-.95,.5-1.4,.04-.36,.18-.72,.27-1.08l-.04-.04v-.5c.27-.18,.13-.54,.32-.76-.09-.41,.67-2.56,.63-2.97,0-.23,.09-.45,.13-.67,.04-.23-.09-.5,.09-.67,.04-.05,0-.18,0-.27v-.67c0-.41-.04-.81,.13-1.17-.18-.13-.27-.36-.36-.54l-.18-.22c-.18-.68-.45-1.4,.04-2.12,.23,.04,.45-.18,.72-.13,.13,.09,.22,.31,.45,.31,.05,.54,.27,.99,.23,1.44,.09,.22,.18,.4,.36,.54,.32-.04,.63-.09,.9-.27,.18-.09,.45-.13,.67-.13,.23-.04,.5,0,.77-.09,.22-.09,.49,0,.58,.22,.04,.18,.22,.18,.36,.32,0,.63-.04,1.26,0,1.89,0,.18-.13,.32-.13,.5,.04,.22-.13,.45-.09,.72,.04,.22-.18,.45-.09,.67-.23,.18-.09,.45-.18,.72-.13,.23-.04,.54-.13,.81-.13,.45-.18,.95-.22,1.39-.04,.27-.04,.54-.18,.81-.09,.22-.18,.45-.13,.67s-.09,.36-.09,.54c-.13,.5-.09,1.04-.32,1.53v.23c0,.18,.09,.45-.04,.63-.13,.18,.04,.45-.18,.63v.86c0,.13,.04,.27-.09,.36,.27,.36-.04,.77,.31,1.21,.18,.14,.54,.09,.86,.04,.13,0,.27-.09,.36-.09,.45,.09,.81-.13,1.08-.4,.23-.14,.45-.32,.54-.59,.27-.09,.23-.36,.36-.58,.09-.13,.13-.27,.27-.4,.18-.13,.23-.32,.27-.54,.04-.23,.13-.5,.27-.67,.23-.27,.27-.58,.36-.9,0-.04-.04-.09,0-.09,.27-.27,.22-.67,.41-.99,0-.04,.04-.09,.09-.13v-.67c0-.36,.13-.63,.18-.99,.04-.18,.04-.36,.04-.54,.09-.04,.18-.04,.27-.13,0,.04,.04,.09,.09,.09,.04,.04,.09,0,.18,.09Zm-15.97-3.55c-.04-.45-.09-.95-.04-1.44-.04-.23-.09-.41-.18-.63-.09-.27-.22-.49-.41-.76-.13,.04-.22-.09-.31-.18-.27,0-.58-.09-.81,.04-.49,.27-1.03,.54-1.21,1.21-.04,.32-.13,.67-.27,1.04-.18,.31-.23,.63-.45,.9-.04,.09-.13,.23-.13,.32,.04,.22-.13,.36-.09,.54-.18,.13,0,.41-.18,.58-.09,.04,.04,.22-.09,.36-.13,.18-.13,.41-.09,.63,0,.13,.04,.27,0,.36-.13,.27-.09,.5-.18,.77-.14,.27-.04,.54-.09,.81v.09c-.18,.13,.04,.41-.09,.54-.18,.18,0,.36-.09,.54-.18,.18-.04,.36-.09,.54,.04,.09,.04,.18,0,.31-.09,.32-.18,.63-.18,.99,.04,.23,.13,.45-.04,.67-.04,.09-.04,.27,0,.36,.22,.41,.13,.85,.31,1.26,.23,.23,.45,.5,.81,.58,.13-.18,.27-.31,.45-.41,.27-.13,.45-.27,.68-.49,.45-.45,.76-.99,.99-1.58,.14-.5,.27-.95,.45-1.4,.13-.31,.13-.67,.32-1.03,.13-.27,.4-.54,.31-.95,.18-.22,.13-.58,.27-.9,.09-.18,.09-.45,.09-.67,.04-.22,.04-.4,.22-.58-.04-.36,.09-.72,.13-1.12-.04,0-.09-.09-.09-.18-.04-.36,.04-.72,.09-1.12Zm2.66-5.08c.18,0,.09,.18,.22,.27v-.36c-.04-.27,0-.5,.09-.72,.13-.32,.31-.63,.36-.95,.32-.94,.58-1.93,.86-2.88,.18-.54,.31-1.17,.5-1.75l.13-.76c.09-.27,.13-.54,.22-.81,.04-.22,.09-.54,.23-.76,.04-.09,.09-.22,.04-.31-.14-.23-.09-.5-.14-.77-.36,.13-.63,.36-.67,.67-.04,.32-.18,.58-.27,.86-.09,.36-.23,.67-.23,1.04,0,.27-.04,.5-.09,.76-.04,.13-.18,.27-.18,.45-.04,.18,0,.36,0,.5-.27,.58-.18,1.21-.41,1.71-.09,.18-.04,.31-.04,.49-.18,.18-.22,.41-.18,.63,0,.09,0,.18-.04,.31-.18,.41-.27,.86-.23,1.35,.04,.18-.13,.27-.09,.45l.04,.45s-.09,.09-.13,.13Z"/><path d="M230.76,121.94c-.09,.13-.04,.22-.04,.41-.27,.49-.67,1.03-.95,1.62-.09,.13-.27,.13-.31,.27-.04,.04,0,.18-.09,.22-.45,.18-.58,.63-.99,.86-.09,.09-.27,.18-.45,.09l-.22,.36c-.36-.09-.67-.09-.95,0-.31,.13-.63,.27-.99,.22-.22,.27-.72,.31-.76,.85,.18,.41,.04,.95,.22,1.49-.09,.18,.09,.49,0,.67-.09,.23,.09,.45,.04,.68-.18,.27-.13,.68-.22,.99l-.09,.22-.5,1.21s0,.13,.04,.22c-.09,.09-.13,.22-.22,.22-.23,.04-.36,.14-.41,.32-.36,.13-.54,.49-.81,.72-.09,.04-.23,.04-.23,.18-.22,0-.54-.04-.72,0-.32,.05-.67,.14-1.04,.09-.27,0-.54-.09-.85-.18-.45-.09-.72-.49-1.04-.81l-.41-.5c-.31-.58-.31-.95-.09-1.39,.09-.22,.09-.54,.41-.68,.04,0,0-.09,.04-.09,.09-.13,.09-.36,.31-.45,.14-.04,.18-.27,.27-.36,.13-.18,.41-.36,.41-.63,0-.04,.09-.09,.13-.13,.09-.18,.27-.27,.45-.45,.09-.18,.27-.32,.4-.45,.45-.4,.9-.72,1.44-.99,0-.09,.13-.04,.22-.09,.23-.18,.18-.45,.18-.76l-.27-1.26c-.32-1.04-.18-1.85-.5-3.69-.18,.23-.31,.41-.5,.68-.09,.13-.18,.27-.4,.36-.18,.13-.23,.36-.5,.41-.27,.09-.41,.63-.67,.58-.18,.31-.5,.45-.72,.81-.36,0-.5,.4-.81,.54-.13,.04-.36,.13-.45,.36-.18,0-.36,.13-.5,.18-.13,.09-.27,.18-.4,.31l-.23,.36c-.36-.09-.54,.13-.81,.23-.32,.13-.63,.27-.99,.22-.22,.27-.72,.31-.76,.85,.18,.41,.04,.95,.22,1.49-.09,.18,.09,.49,0,.67-.09,.23,.09,.45,.04,.68-.18,.27-.13,.68-.22,.99l-.09,.22-.5,1.21s0,.13,.04,.22c-.09,.09-.13,.22-.23,.22-.22,.04-.36,.14-.4,.32-.36,.13-.54,.49-.81,.72-.09,.04-.22,.04-.22,.18-.22,0-.54-.04-.72,0-.32,.05-.67,.14-1.04,.09-.27,0-.54-.09-.86-.18-.45-.09-.72-.49-1.03-.81l-.41-.5c-.32-.58-.32-.95-.09-1.39,.09-.22,.09-.54,.4-.68,.05,0,0-.09,.05-.09,.09-.13,.09-.36,.31-.45,.13-.04,.18-.27,.27-.36,.13-.18,.4-.36,.4-.63,0-.04,.09-.09,.14-.13,.09-.18,.27-.27,.45-.45,.09-.18,.27-.32,.41-.45,.45-.4,.9-.72,1.44-.99,0-.09,.13-.04,.22-.09,.22-.18,.18-.45,.18-.76l-.27-1.26c-.13-.45-.09-.9,0-1.31,.09-.22,.09-.45,.04-.67-.13-.72-.32-1.44-.41-2.16-.04-.09-.13-.09-.22-.22,0,.27-.09,.49-.18,.63-.22,.32-.22,.63-.31,.95-.04,.18-.09,.36-.23,.45-.13,.18-.13,.45-.31,.54-.22,.13-.13,.4-.41,.4,.04,.13,.04,.18,.09,.27-.04,.04-.09,.04-.13,.04,0,.36-.27,.58-.36,.94-.32,.09-.32,.5-.54,.72-.14,.09-.27,.22-.27,.45-.18,.04-.27,.23-.41,.32-.18,.22-.27,.54-.49,.72-.14,.09-.18,.27-.23,.41-.04,.04-.09,.09-.13,.09l-.04,.18c-.09,.18-.13,.31-.18,.49,0,.18-.09,.36-.32,.45,.13,.36-.45,.63-.5,.99-.13,.18-.41,.36-.41,.67v.04c-.31,.41-.49,.9-.85,1.26-.32,.36-.72,.63-.95,1.08-.09,.13-.22,.13-.36,.22-.23,.09-.36,.27-.45,.5-.54,.22-1.08,.45-1.71,.45-.5-.4-.99-.81-1.49-1.17-.22-.13-.31-.31-.31-.54-.04-.31,0-.68-.23-.95v-.04c.04-.49-.22-.99-.09-1.48,.13-.54,0-1.08,.09-1.62,.09-.54,.09-1.08,.27-1.57,.04,0,.04-.04,.04-.09-.09-.45,.18-.9,.09-1.35-.04-.23,.09-.36,.09-.54,.09-.49,.23-.99,.23-1.53,.04-.31,.18-.63,.27-.95,.04-.27,.18-.49,.13-.77,0-.31,.18-.58,.27-.85,.04-.18,.09-.45,.22-.59,.09-.31-.09-.58,.18-.77,.63-.09,1.21-.18,1.89-.22,.09,0,.18,.13,.27,.22,.04,.23-.13,.32-.18,.5-.09,.22-.22,.45-.22,.72,0,.09,0,.14-.04,.18-.27,.22-.27,.54-.27,.85,0,.23-.09,.41-.13,.63,0,.22,.09,.49-.04,.72-.09,.18,.09,.45-.14,.58-.04,.04,0,.18,0,.27,.05,.36,0,.68-.13,.99-.09,.27-.09,.5-.09,.77,.04,.31-.18,.58-.09,.9-.18,.13-.13,.31-.09,.45,0,.18-.13,.31-.13,.49,0,.27-.14,.5-.09,.72,0,.27-.18,.45-.09,.72,.04,.13-.13,.18-.13,.31-.04,.45-.22,.9-.18,1.35,0,.18-.18,.18-.14,.36,.09,.14-.09,.27-.09,.41v.49s0,.09-.04,.18c-.18,.36-.18,.72-.13,1.08,.09,.18,.32,.18,.41,.36,.4,.09,.76-.09,1.12-.23,.31-.09,.63-.22,.85-.54,.13-.13,.41-.13,.45-.36,.27,.04,.22-.32,.45-.36,.18-.04,.22-.36,.4-.49,.18-.13,.23-.31,.36-.5,.22-.27,.45-.58,.54-.94,.09-.23,.5-.41,.54-.63,.04-.13,.09-.27,.18-.4,.23-.41,.36-.86,.54-1.26,0-.04,0-.13,.09-.18,0-.05,.04-.09,.04-.09,.32-.49,.58-.99,.95-1.39,.18-.31,.45-.58,.58-.95,.18-.36,.54-.63,.76-.94,.14-.32,.27-.68,.45-.95,.09-.13,.18-.32,.23-.45l.27-.54c.04-.18,.09-.36,.18-.5,.09-.18-.04-.45,.14-.54,.18-.13,.13-.36,.18-.54,.09-.23,.18-.45,.22-.72,0-.18-.09-.36-.09-.54s-.18-.27-.18-.4c-.13-.4-.09-.81,0-1.17,.04-.22,.04-.45,.18-.68,.22-.4,.41-.54,.86-.63,.22,0,.45-.09,.67-.13,.04,.09,.18,.18,.36,.4,0-.04,0,.04,.04,.13,.14,.04,.14,.18,.14,.27-.04,.27-.04,.54,0,.85-.04,.04-.04,.13-.04,.18-.04,.27,0,.54,0,.77,0,.27-.09,.5,0,.72-.18,.54-.32,1.12-.36,1.71-.04,.22,.09,.54,0,.77,.18,.22,.09,.54,.27,.77,.14,.22,.05,.45,.32,.63l.13,.68c0,.27,.13,.49,.27,.76,.09,.23,0,.5,.22,.72,.09,.13,.09,.31,.09,.49,.09,.04,.18,.09,.18,.13,.72-.22,1.26-.58,1.98-.81,.45-.27,.9-.41,1.35-.63,.27-.27,.63-.49,.9-.76,.31-.27,.76-.45,1.08-.72,.27-.22,.54-.59,.81-.77,.18-.13,.32-.22,.41-.36,.18-.18,.31-.27,.45-.45l.4-.41c.18-.18,.09-.45,.32-.45h.04l-.27-1.08c0-.18-.09-.36-.09-.54s-.18-.27-.18-.4c-.13-.4-.09-.81,0-1.17,.04-.22,.04-.45,.18-.68,.23-.4,.41-.54,.86-.63,.22,0,.45-.09,.67-.13,.04,.09,.18,.18,.36,.4,0-.04,0,.04,.04,.13,.13,.04,.13,.18,.13,.27-.04,.27-.04,.54,0,.85-.04,.04-.04,.13-.04,.18-.04,.27,0,.54,0,.77,0,.27-.09,.5,0,.72-.18,.54-.32,1.12-.36,1.71-.04,.22,.09,.54,0,.77,.18,.22,.09,.54,.27,.77,.13,.22,.04,.45,.31,.63l.14,.68c0,.27,.13,.49,.27,.76,.09,.23,0,.5,.22,.72,.09,.13,.09,.31,.09,.49,.09,.04,.18,.09,.18,.13,.72-.22,1.3-.58,2.02-.81,.36-.13,.86-.09,1.17-.27,.18-.14,.5-.23,.63-.5,.14-.22,.36-.36,.54-.54,.18-.18,.32-.41,.45-.63s.36-.4,.41-.72c.04-.18,.18-.27,.27-.36,.09-.09,0-.18,0-.31l.58-.13c-.09,.13-.09,.36-.22,.49Zm-28.98-10.39c-.09-.4,.18-.76,.58-1.04,.13-.04,.22-.13,.31-.18,.18,.09,.45,.09,.58,.22l.41,.41c-.09,.22,.09,.45,.09,.67-.04,.22,.09,.41-.13,.68-.13,.18,.04,.45-.13,.67v.14c0,.54-.32,1.12-.36,1.66-.32,.18-.09,.49-.32,.68-.09,.13-.09,.4-.13,.63-.04,.18-.13,.31-.13,.5-.13,.04-.32,.04-.54-.14,.13-.27-.04-.67,.22-.99-.22-.18-.22-.36,0-.54-.18-.13-.09-.31-.09-.54-.04-.27,.09-.54-.04-.77-.09-.27,.09-.54-.04-.77-.18-.22,0-.49-.13-.67s-.04-.45-.13-.63Zm11.25,18.81s-.09-.05-.09-.09c.04-.27,.09-.54,0-.81l-.36-1.85c-.04-.09-.04-.13-.04-.22-.04-.09,.09-.09,0-.22-.04,0-.09-.09-.18-.04-.41,.22-.85,.49-1.26,.76-.18,.09-.36,.18-.45,.36-.22,.31-.54,.58-.76,.9-.36,.54-.77,.95-1.08,1.49l-.41,.99c.04,.18,.23,.31,.23,.45,0,.09,.13,.22,.18,.31,.13,.13,.27,.09,.36,.27,.04,.13,.22,.22,.36,.31,.13,.13,.36,.22,.58,.22,.36-.04,.72,0,1.04-.09,.18-.04,.36-.18,.5-.22,.27,0,.36-.18,.54-.36,.04-.09,0-.27,.18-.31,.13-.04,.09-.22,.22-.31,.09-.09,.18-.22,.18-.27,.09-.45,.27-.81,.27-1.26Zm10.53,0s-.09-.05-.09-.09c.04-.27,.09-.54,0-.81l-.36-1.85c-.04-.09-.04-.13-.04-.22-.04-.09,.09-.09,0-.22-.04,0-.09-.09-.18-.04-.4,.22-.85,.49-1.26,.76-.18,.09-.36,.18-.45,.36-.22,.31-.54,.58-.76,.9-.36,.54-.76,.95-1.08,1.49l-.41,.99c.05,.18,.23,.31,.23,.45,0,.09,.13,.22,.18,.31,.13,.13,.27,.09,.36,.27,.04,.13,.22,.22,.36,.31,.14,.13,.36,.22,.58,.22,.36-.04,.72,0,1.04-.09,.18-.04,.36-.18,.5-.22,.27,0,.36-.18,.54-.36,.04-.09,0-.27,.18-.31,.14-.04,.09-.22,.23-.31,.09-.09,.18-.22,.18-.27,.09-.45,.27-.81,.27-1.26Z"/><g><path d="M140.2,155.4h-.04l-2.26,1.22-.34-1.34,2.84-1.52h1.5v13h-1.7v-11.36Z"/><path d="M145.72,167.57l5.58-14.5h1.36l-5.6,14.5h-1.34Z"/><path d="M153.92,164.75c.5,.32,1.66,.82,2.88,.82,2.26,0,2.96-1.44,2.94-2.52-.02-1.82-1.66-2.6-3.36-2.6h-.98v-1.32h.98c1.28,0,2.9-.66,2.9-2.2,0-1.04-.66-1.96-2.28-1.96-1.04,0-2.04,.46-2.6,.86l-.46-1.28c.68-.5,2-1,3.4-1,2.56,0,3.72,1.52,3.72,3.1,0,1.34-.8,2.48-2.4,3.06v.04c1.6,.32,2.9,1.52,2.9,3.34,0,2.08-1.62,3.9-4.74,3.9-1.46,0-2.74-.46-3.38-.88l.48-1.36Z"/></g></g></g></g></svg>