<?xml version="1.0" encoding="UTF-8"?><svg xmlns="http://www.w3.org/2000/svg" viewBox="0 0 300 176"><defs><style>.d{fill:none;stroke:#fff;stroke-miterlimit:10;}</style></defs><g id="a"/><g id="b"><g id="c"><g><rect class="d" x=".5" y=".5" width="299" height="175" rx="20" ry="20"/><path d="M96.21,51.95c-.09,.13-.04,.36-.13,.5-.09,.13-.04,.22,0,.4-.23,.5-.54,1.04-.72,1.62-.09,.13-.27,.13-.27,.27-.04,.04,0,.18-.09,.22-.41,.18-.5,.63-.85,.85-.09,.09-.23,.18-.45,.09-.04,.13-.09,.22-.18,.36-.36-.09-.49,.13-.76,.23-.27,.13-.58,.27-.95,.22-.18,.27-.67,.32-.67,.85,.27,.41,.18,.95,.45,1.49-.04,.18,.18,.5,.09,.67-.04,.23,.18,.45,.13,.67-.13,.27-.04,.68-.09,.99,0,.09,0,.13-.04,.22-.09,.36-.22,.77-.31,1.22,0,.04,0,.13,.09,.22-.09,.09-.13,.22-.23,.22-.22,.04-.31,.14-.36,.32-.32,.13-.45,.5-.72,.72-.05,.04-.18,.04-.18,.18-.22,0-.54-.04-.72,0-.32,.05-.67,.14-1.04,.09-.27,0-.54-.09-.85-.18-.5-.09-.81-.5-1.17-.81-.14-.18-.32-.32-.45-.5-.41-.58-.45-.95-.32-1.39,.09-.23,.04-.54,.32-.68,.04,0,0-.09,.04-.09,.09-.13,.04-.36,.27-.45,.09-.05,.14-.27,.18-.36,.13-.18,.36-.36,.31-.63,0-.04,.09-.09,.14-.13,.04-.18,.22-.27,.4-.45,.04-.18,.23-.32,.32-.45,.4-.41,.81-.72,1.3-.99,0-.09,.13-.04,.22-.09,.18-.18,.14-.45,.09-.76-.18-.41-.32-.86-.45-1.26-.23-.45-.23-.9-.18-1.31,.04-.22,0-.45-.09-.67-.22-.72-.5-1.44-.67-2.16-.09-.09-.18-.09-.27-.22,0,.09-.04,.09-.14,.09,0,.09-.04,.13-.09,.23-.09,.22-.36,.31-.4,.58-.04,.22-.18,.45-.41,.54v.31s-.04,.09-.09,.09c-.18,.18-.36,.36-.5,.58-.13,.23-.22,.5-.54,.58-.04,.32-.36,.41-.54,.63,0,.04-.04,.09-.09,.09-.32,.09-.54,.31-.81,.45-.58,.27-1.17,.54-1.75,.77-.18,.04-.22,.22-.36,.27v.45c-.18,.18-.27,.36-.23,.58,.04,.18-.09,.31-.13,.45-.13,.9-.41,1.75-.9,2.65-.32,.54-.54,1.08-.9,1.58-.04,.04-.04,.13-.04,.18-.13,.27-.22,.58-.45,.77-.22,.22-.36,.5-.67,.67-.22,.13-.22,.45-.54,.58h-.36c-.45,.09-.85-.13-1.26-.23-.18-.04-.36-.18-.45-.36-.13-.27-.31-.45-.49-.72-.32-.54-.58-1.35-.77-1.98-.13-.45-.18-.95-.22-1.39-.09-.36-.04-.77-.09-1.12-.09-.45,.13-.86,.09-1.26,0-.45,.13-.81,.22-1.22,.04-.4,.14-.81,.27-1.21l.45-1.12c.18-.54,.45-1.08,.76-1.57,.09-.09,.13-.18,.18-.32,.36-.72,.81-1.39,1.58-1.75,.22-.13,.41-.27,.54-.45,.27-.22,.63-.36,.99-.45,.18-.05,.36,0,.54-.09,.13-.04,.31-.04,.4,0,.18,.18,.36,.04,.5,.09,.22,.13,.41,.18,.54,.45-.04,.14,.04,.36,.18,.54,.23,.23,.27,.54,.45,.77,0,.04,.04,.13,.04,.13-.04,.41,.09,.72,.09,1.08,.04,.36-.04,.76,.23,1.08,.09,.13-.09,.36,.13,.45-.13,.5-.32,.95-.36,1.49h.54c.23-.22,.58-.32,.9-.5l.85-.41c.27-.18,.5-.45,.72-.63,.45-.36,.72-.81,.99-1.26,.23-.41,.45-.81,.72-1.21,.09-.09,.13-.22,.18-.36t.04-.09c.04-.13,.04-.31,.04-.5-.04-.18-.13-.36-.18-.54,0-.18-.23-.27-.23-.4-.18-.41-.18-.81-.18-1.17,.04-.23,0-.45,.09-.68,.18-.4,.36-.54,.76-.63,.23,0,.45-.09,.68-.13,.04,.09,.18,.18,.4,.41,0-.04,0,.04,.09,.13,.13,.04,.13,.18,.13,.27,0,.27,.04,.54,.13,.85-.04,.04,0,.13,0,.18-.04,.27,.04,.54,.09,.77,.04,.27-.18,.5-.09,.72-.09,.54-.63,.9-.09,1.71,.13,.22,.31,.54,.27,.76,.23,.23,.18,.54,.36,.77,.18,.22,.13,.45,.41,.63,.09,.22,.18,.45,.22,.67,.04,.27,.22,.5,.41,.76,.09,.23,.04,.5,.31,.72,.09,.14,.13,.32,.18,.5,.09,.04,.18,.09,.18,.13,.67-.22,1.21-.58,1.89-.81,.36-.13,.67-.31,.99-.5,.13-.13,.45-.22,.54-.5,.13-.22,.31-.36,.5-.54,.13-.18,.22-.4,.36-.63,.09-.22,.27-.4,.27-.72,.04-.18,.18-.27,.22-.36,.09-.09,0-.18-.04-.31,.27-.27,.09-.76,.13-1.12,.14-.04,.23,0,.41,.13,.04,.27,.18,.58,.04,.86Zm-15.25,3.91c-.27-.04-.41-.31-.63-.31-.18-.04-.32-.09-.45-.18-.58-.41-1.12-.81-1.58-1.4-.04-.09-.13-.22-.22-.27-.18-.09-.04-.27-.18-.45-.18,0-.31-.27-.58-.13,.04,.31-.27,.45-.31,.67-.04,.31,.09,.67-.13,.95,.09,.54-.32,.99-.23,1.53-.22,.09,.09,.18,0,.27-.18,.18-.09,.45-.09,.63,.04,.27-.09,.45-.13,.67,0,.54,.04,1.12-.09,1.67-.09,.5,.13,1.04,.18,1.53,0,.14-.18,.27-.04,.36,.09,.13,0,.32,.04,.45,.09,.18,.04,.41,.04,.58,.22,.22,.22,.58,.5,.81h.45c.09-.09,.18-.22,.31-.27,.54-.32,.86-.81,1.17-1.3,.18-.32,.27-.68,.45-.99,.18-.27,.32-.63,.5-.95,.27-.45,.31-.99,.58-1.44,.04-.04,0-.09,0-.14,.18-.27,.09-.63,.36-.85-.13-.5,.14-.95,.09-1.44Zm.54-2.47c-.14-.22-.09-.5-.09-.72,0-.27,.04-.54-.09-.76-.13-.23-.13-.45-.13-.63,.04-.36-.13-.63-.36-.9-.09-.13-.18-.22-.22-.36-.72-.4-1.26,.09-1.8,.32-.27,.54-.5,1.12-.58,1.71,.09,.04,.13,.18,.09,.31,0,.14,.09,.23,.13,.41,.09,.45,.27,.86,.58,1.21,.41,.41,.86,.63,1.31,.9,.27,.13,.54,.22,.85,.18h.09c.09-.13,0-.18-.09-.22,.04-.09,.13-.09,.13-.18-.04-.22,.04-.4,.09-.58,0-.22,.23-.45,.09-.67Zm8.68,7.7s-.09-.05-.09-.09c0-.27,0-.54-.09-.81l-.63-1.84c-.04-.09-.09-.13-.09-.23-.04-.09,.09-.09-.04-.22-.04,0-.09-.09-.18-.04-.36,.22-.77,.5-1.12,.76-.18,.09-.36,.18-.41,.36-.18,.31-.45,.58-.63,.9-.32,.54-.63,.95-.9,1.49l-.27,.99c.09,.18,.27,.31,.31,.45,0,.09,.14,.22,.23,.31,.13,.13,.27,.09,.41,.27,.04,.13,.22,.22,.36,.31,.18,.13,.41,.22,.63,.22,.36-.04,.72,0,1.04-.09,.18-.04,.32-.18,.45-.22,.27,0,.36-.18,.5-.36,.04-.09-.04-.27,.13-.31,.13-.04,.04-.23,.18-.32,.09-.09,.13-.22,.13-.27,.05-.45,.18-.81,.09-1.26Z"/><path d="M227.67,49.97c-.13,.32-.54,.5-1.04,.63-.36-.13-.54-.36-.49-.76,.04-.13-.14-.18-.09-.27,.09-.23,.23-.45,.45-.58-.58-.14-.9,.22-1.21,.58-.13,.22-.18,.49-.5,.58-.04,0-.09,.04-.09,.09-.18,.54-.67,.9-.85,1.44-.05,.18-.23,.27-.32,.41-.13,.18-.22,.36-.27,.54-.09,.31-.23,.54-.36,.81-.27,.41-.32,.9-.5,1.35-.09,.18-.04,.45-.04,.67,.04,.22,0,.5-.18,.63,0,.22,0,.41-.09,.63-.09,.13,.05,.41-.13,.54v.18c.09,.5-.09,.99-.13,1.49,0,.31-.09,.67-.04,1.04,0,.13-.13,.18-.13,.27,0,.13,.18,.18,.09,.32-.04,.13-.09,.27-.09,.45v1.75c.04,.14,.09,.27,.09,.45,.18,.36,.58,.41,.9,.5,.23,.09,.45-.09,.68-.13,.27,0,.54-.09,.81-.18,.22-.09,.45-.23,.63-.45,.13-.09,.22-.23,.36-.27,.13-.04,.13-.27,.27-.36l.23-.09c.09-.18,.13-.4,.31-.49,.18-.14,.04-.41,.23-.5,.22-.09,.22-.27,.27-.45l.41-1.04s.09-.13,.04-.18c0-.5,.31-.95,.45-1.44,.09,.27,.13,.5,.18,.81,.04,.22-.04,.5-.18,.67l-.14,.41c-.27,.63-.4,1.26-.76,1.8-.09,.13,0,.22-.04,.36-.27,.32-.58,.58-.76,.99-.04,.04-.09,.09-.18,.13-.13,.04-.22,.14-.27,.23-.13,.36-.45,.5-.72,.63-.18,.09-.36,.09-.41,.27h-.54c-.04,.09-.13,.14-.22,.23-.9-.09-1.67-.58-2.48-1.12-.18-.27-.13-.72-.4-1.04,.04-.27-.09-.54-.18-.81-.04-.32-.22-.58-.27-.9,0-.04-.04-.09-.04-.18,0-.5-.18-.99-.27-1.53-.27,.27-.36,.58-.45,.85-.09,.23-.22,.41-.31,.68-.09,.22-.09,.45-.32,.63-.04,.5-.4,.85-.67,1.3,0,.04,0,.09-.04,.13-.36,.32-.54,.72-.81,1.12-.04,.04-.09,.13-.18,.18-.22,.09-.36,.27-.54,.45-.36,.04-.67,.18-1.08,.09-.27-.13-.54-.31-.86-.54-.22-.27-.18-.58,.09-.86,.04-.04,.04-.09,.09-.18,.09-.18,.23-.41,.45-.45,.63-.13,1.04,.18,1.35,.67,.18,.09,.32-.04,.5-.13,0,0,0-.09,.04-.13,.45-.41,.68-.9,.95-1.35,.18-.31,.32-.58,.54-.76,.13-.41,.22-.76,.41-1.12,.09-.18,.09-.41,.22-.58,.18-.18,.18-.41,.27-.63,.09-.18,.18-.36,.22-.58,.09-.32,.18-.67,.36-.99,.04-.04,.04-.09,.04-.13-.04-.27,0-.5,.09-.76,.13-.41,.09-.81,.09-1.26,0-.22,0-.45,.09-.67,.09-.18-.09-.45,.13-.63,.04-.04,0-.13,0-.22-.04-.41,.14-.81,.09-1.26,0-.18,.18-.32,.09-.54-.09-.14,.09-.27,.04-.41-.04-.22,0-.41,0-.58-.04-.32-.18-.54-.13-.86l-.27-.27c-.41,0-.76-.09-1.17-.27-.04,0-.13,.09-.27,.09-.45-.04-.81,.13-1.12,.5-.36,.31-.68,.67-.95,1.03v.14c-.27,.09-.22,.36-.36,.58-.09,.22-.36,.31-.4,.58-.04,.22-.18,.45-.41,.54v.31s-.04,.09-.09,.09c-.18,.18-.36,.36-.5,.58-.13,.23-.22,.5-.54,.58-.04,.32-.36,.41-.54,.63,0,.04-.04,.09-.09,.09-.32,.09-.54,.31-.81,.45-.58,.27-1.17,.54-1.75,.77-.18,.04-.22,.22-.36,.27v.45c-.18,.18-.27,.36-.23,.58,.04,.18-.09,.31-.13,.45-.13,.9-.41,1.75-.9,2.65-.32,.54-.54,1.08-.9,1.58-.04,.04-.04,.13-.04,.18-.13,.27-.22,.58-.45,.77-.22,.22-.36,.5-.67,.67-.22,.13-.22,.45-.54,.58h-.36c-.45,.09-.85-.13-1.26-.23-.18-.04-.36-.18-.45-.36-.13-.27-.31-.45-.49-.72-.32-.54-.58-1.35-.77-1.98-.13-.45-.18-.95-.22-1.39-.09-.36-.04-.77-.09-1.12-.09-.45,.13-.86,.09-1.26,0-.45,.13-.81,.22-1.22,.04-.4,.14-.81,.27-1.21l.45-1.12c.18-.54,.45-1.08,.76-1.57,.09-.09,.13-.18,.18-.32,.36-.72,.81-1.39,1.58-1.75,.22-.13,.41-.27,.54-.45,.27-.22,.63-.36,.99-.45,.18-.05,.36,0,.54-.09,.13-.04,.31-.04,.4,0,.18,.18,.36,.04,.5,.09,.22,.13,.41,.18,.54,.45-.04,.14,.04,.36,.18,.54,.23,.23,.27,.54,.45,.77,0,.04,.04,.13,.04,.13-.04,.41,.09,.72,.09,1.08,.04,.36-.04,.76,.23,1.08,.09,.13-.09,.36,.13,.45-.13,.5-.32,.95-.36,1.49h.54c.23-.22,.58-.32,.9-.5l.85-.41c.27-.18,.5-.45,.72-.63,.45-.36,.72-.81,.99-1.26l.27-.5c.09-.22,.22-.4,.31-.63,.09-.18,.18-.31,.32-.45,.04-.18,.18-.4,.41-.5v.05s.09-.09,.09-.14c.04-.09,.22-.18,.31-.22,.09-.09,.04-.18,.04-.32,.09,0,.18,0,.18-.04,.13-.36,.45-.54,.81-.67l1.12-.54c.58-.09,1.12,.09,1.62,.5,.22,0,.09,.32,.31,.32,.14,.04,.27,.13,.36,.18,.18,.13,.22,.31,.32,.5l.54,1.39c.14,.45,.23,.95,.18,1.44,.09,.18,.22,.22,.36,.18,.05-.22,.27-.32,.36-.5,.04-.09,.04-.18,.09-.27,.41-.72,.9-1.35,1.44-1.98,.09-.09,0-.27,.18-.4,.13-.05,.09-.27,.27-.32,.23,0,.09-.32,.36-.32,.13,0,.09-.31,.27-.31,.18,.04,.27-.09,.4-.23,.18,0,.41,0,.58,.05,.18,0,.36,.13,.54,.09,.41,.31,.72,.72,.54,1.44Zm-17.59,5.89c-.27-.04-.41-.31-.63-.31-.18-.04-.32-.09-.45-.18-.58-.41-1.12-.81-1.58-1.4-.04-.09-.13-.22-.22-.27-.18-.09-.04-.27-.18-.45-.18,0-.31-.27-.58-.13,.04,.31-.27,.45-.31,.67-.04,.31,.09,.67-.13,.95,.09,.54-.32,.99-.23,1.53-.22,.09,.09,.18,0,.27-.18,.18-.09,.45-.09,.63,.04,.27-.09,.45-.13,.67,0,.54,.04,1.12-.09,1.67-.09,.5,.13,1.04,.18,1.53,0,.14-.18,.27-.04,.36,.09,.13,0,.32,.04,.45,.09,.18,.04,.41,.04,.58,.22,.22,.22,.58,.5,.81h.45c.09-.09,.18-.22,.31-.27,.54-.32,.86-.81,1.17-1.3,.18-.32,.27-.68,.45-.99,.18-.27,.32-.63,.5-.95,.27-.45,.31-.99,.58-1.44,.04-.04,0-.09,0-.14,.18-.27,.09-.63,.36-.85-.13-.5,.14-.95,.09-1.44Zm.54-2.47c-.14-.22-.09-.5-.09-.72,0-.27,.04-.54-.09-.76-.13-.23-.13-.45-.13-.63,.04-.36-.13-.63-.36-.9-.09-.13-.18-.22-.22-.36-.72-.4-1.26,.09-1.8,.32-.27,.54-.5,1.12-.58,1.71,.09,.04,.13,.18,.09,.31,0,.14,.09,.23,.13,.41,.09,.45,.27,.86,.58,1.21,.41,.41,.86,.63,1.31,.9,.27,.13,.54,.22,.85,.18h.09c.09-.13,0-.18-.09-.22,.04-.09,.13-.09,.13-.18-.04-.22,.04-.4,.09-.58,0-.22,.23-.45,.09-.67Z"/><path d="M73.12,147.19c-.23-.23-.41-.36-.63-.67,0-.32-.04-.63-.04-.99,.04-.18,.04-.36,.04-.63,.22-.09-.04-.23,0-.36,.09-.13,.04-.31,.09-.5v-.5c-.04-.22-.09-.4-.04-.58,.22-.49,.09-.99,.18-1.57,0-.09,.04-.23,.04-.36,0-.22,.04-.45-.09-.67,0-.18,0-.27,.04-.45,.09-.58,.22-1.3,.13-1.93,0-.13,.18-.23,.18-.36-.04-.13-.18-.22-.14-.36,0-.36,0-.67,.18-.99,.04-.13,.04-.27,.04-.5-.04-.32,0-.58,.04-.86,0-.27,.04-.58,0-.85,.04-.36,0-.67,0-.95,.18-.4,.09-.85,.18-1.21,.13-.9,.04-1.8,.04-2.75,.04-.85,.04-1.84,0-2.74,.04-.18,0-.36,.13-.54,.09-.09-.04-.23-.04-.36-.09-.41,.09-.72,.04-1.17-.04-.36-.04-.81,0-1.17,.05-.41,.09-.76,.09-1.21,0-.18,.18-.41,.09-.67,0-.13-.04-.36,.13-.5v-.13c-.13-.58,.09-1.17,.09-1.75,.04-.32,.09-.63,.23-.99,.04-.13,0-.36,0-.54-.09-.5,.13-1.04,.22-1.53,.04-.18,.22-.4,.45-.54,.18-.22,.36-.27,.67-.22,.18,.13,.36,.32,.45,.63,.09,.5-.14,1.04-.09,1.58,.04,.58,0,1.12,.04,1.67-.04,.22-.18,.36-.18,.58,.04,.09,.09,.13,.14,.27-.05,.13-.14,.23-.09,.41v1.71c0,.18,0,.31-.13,.45,.23,.13,.09,.4,.13,.67,.36-.04,.41-.36,.5-.63,.09-.27,.23-.54,.41-.77,.04-.04,.09-.09,.04-.18-.04-.18,.09-.41,.22-.54l.09-.13c-.05-.41,.36-.58,.36-.86,.27-.4,.45-.81,.67-1.17,.09-.18,.27-.36,.41-.45,.36-.27,.54-.63,.9-.81,.31-.13,.58-.31,.94-.31l.95,.9c.36,.18,.41,.63,.5,1.08,0,.22,.04,.45,.13,.58s.09,.22,.09,.32c0,1.03,.04,2.07-.04,3.1,0,.5,0,.95-.09,1.44-.13,.54-.09,1.03-.27,1.57-.04,.04,0,.14,0,.18-.04,.27,.05,.49-.09,.72-.09,.22,0,.41-.18,.67-.04,.18,.09,.5-.04,.72,0,.41-.13,.86-.13,1.31-.04,.27,.22,.58,.31,.9,.04,.18-.04,.13,.09,.22,.18,.05,.5,.32,.54,.41,.99-.04,.63,.09,.9,.04,.36-.31,.9-.67,.99-1.21l.13-.18c.45-.58,.81-1.21,.94-1.3,.05,0,.05-.05,.05-.05,.09-.22,.22-.4,.36-.63,.18-.18,.32-.45,.41-.72,.04-.22,.18-.41,.27-.54,.23-.31,.36-.67,.45-.99,.04-.22,.13-.4,.22-.58,.27-.36,.36-.76,.5-1.17,.09-.27,.23-.54,.27-.9,0-.27,.09-.54,.18-.81,.09-.45,.13-.94,.36-1.39,.09-.18,.09-.41,.18-.58l.13-.45c.04-.22,.09-.54-.04-.76-.04-.13,0-.27-.04-.36-.27-.13-.41-.4-.5-.67-.18-.45-.31-.95-.5-1.44-.09-.27,0-.54-.04-.86,0-.27,.09-.5,.18-.72,.18-.58,.63-.81,1.21-.86h.36l.54,.54c0,.09-.13,.27,.04,.41-.18,.27-.04,.58-.09,.86v.85c0,.27,.04,.58,0,.85,0,.32,.13,.54,.13,.86,.23,0,.45,.27,.77,.13,.04,.09,.04,.23,.18,.27h.41c.09,.09,.13,.18,.22,.22h.18c.09,.36,.49,.36,.63,.63,.13,0,.31-.09,.4,.09,.14,.18,.04,.27-.09,.36,.13,.18,.18,.36,.36,.5-.04,.18,.09,.41-.13,.54,.22,.27,.13,.54,0,.76l.13,.13c-.09,.04-.13,.14-.13,.23,.04,.36-.05,.67-.18,.99-.04,.14,.04,.23,.09,.36-.22,.54-.49,1.08-.49,1.71l-.23,.13c0,.72-.36,1.31-.27,1.94-.23,.4-.36,.76-.32,1.57l-.18,.18c-.09,.31-.09,.63-.23,.9-.09,.32,.09,.63-.13,.9,0,.09,.09,.13,.13,.22-.31,.32,.05,.58,.09,.86,.22,.27,.58,.04,.76,.27,.22-.04,.45-.27,.72-.18,.27-.41,.77-.63,1.12-.95,.36-.27,.72-.58,.95-.99,.09-.18,.27-.27,.36-.49,.18-.58,.54-1.08,.68-1.67,.04-.18,.27-.27,.22-.5,.27-.27,.27-.72,.5-1.04,.13-.22,.22-.45,.22-.76-.04-.14,0-.32,.09-.45,.14-.13,.04-.22,.09-.41l.36-.31c.09,.04,.13,.13,.27,.27,0,.32-.23,.63-.09,.95-.13,.13-.22,.22-.27,.41,0,.18-.13,.36-.22,.49-.32,.77-.63,1.58-.99,2.34-.23,.54-.36,1.17-.86,1.58-.09,.04-.04,.13-.04,.27-.4,.31-.72,.85-1.3,1.08-.18,.63-.85,.85-1.3,1.26-.04,0-.04-.04-.09-.09-.14,0-.23,.18-.45,.09-.13-.14-.36-.27-.63-.32-.32-.04-.67-.27-.86-.58-.09-.13-.22-.18-.27-.36-.04-.14-.23-.14-.36-.23-.18-.22-.22-.45-.22-.72-.04-.36-.09-.67-.32-.99-.04-.22,.09-.45-.09-.63-.04-.04-.04-.22,0-.32,.09-.45,.18-.94,.18-1.44,.23-.27,0-.67,.18-.99,.18-.27,.22-.58,.31-.9,.09-.5,.27-.95,.41-1.4,.41-.99,.63-2.02,1.12-2.97,.13-.22,.22-.45,.22-.72,0-.18,.18-.32,.04-.58-.13-.13-.31-.41-.67-.5-.22,.04-.5-.09-.81-.13-.27-.04-.54-.13-.86-.23-.18,.14-.27,.32-.27,.54,0,.58-.18,1.08-.32,1.62-.13,.41-.31,.81-.27,1.26,0,.32-.18,.54-.23,.81-.09,.31-.22,.58-.31,.85,0,.13-.09,.18-.13,.27-.09,.04-.04,.18-.18,.22,.09,.36-.13,.67-.18,.99l-.13,.36c0,.14-.04,.27-.13,.36-.32,.27-.45,.72-.68,1.08-.45,.81-.85,1.58-1.35,2.34-.13,.58-.58,1.08-.81,1.58-.09,.22-.45,.36-.68,.5-.09,.04-.18,.04-.22,.09-.31,.04-.63,.04-.99,.04-.04-.04-.9-.04-.85-.23-.27-.13-.54-.22-.67-.49-.18-.09-.27-.32-.41-.36-.13-.18-.27-.36-.41-.5-.09-.45-.54-.67-.36-1.08-.14-.18-.14-.41-.27-.45-.09-.9-.22-1.84-.18-2.74,.04-.58,.18-1.12,.27-1.71,.14-.36,.27-.81,.23-1.17,0-.18,.18-.23,.18-.32,0-.22,.13-.36,.04-.58,0-.18,.13-.36,.18-.54,.05-.22,.09-.41,.09-.58-.04-.09,0-.13,.04-.22,.09-.32,.22-.54,.13-.81-.04-.18,.13-.31,.09-.45,0-.23,.18-.36,.13-.58-.04-.18,0-.41,0-.58v-.72s-.13-.09-.09-.27c-.18-.09-.36-.13-.58-.09-.27,.31-.63,.5-.9,.76-.27,.32-.45,.67-.63,.99-.31,.45-.54,.85-.9,1.44,0,.32-.09,.67-.32,.95-.09,.18-.13,.36-.27,.5-.04,.13,.04,.31-.04,.5-.13,.09,0,.31-.18,.4,0,.54-.09,1.04-.36,1.53,.04,.41-.04,.72-.13,1.04-.09,.54,.04,1.08-.14,1.57-.09,.45,.14,.9-.18,1.31v.13c.04,.18,.27,.45,.13,.58-.18,.13-.04,.41-.18,.54-.09,.04-.04,.22-.04,.36-.04,.49,.09,.99-.09,1.39,0,.04,.04,.13,0,.22-.09,.18,.27,.45,0,.68,0,.27,.04,.54,0,.76v.72c.04,.32,0,.54,0,.76,0,.27-.04,.5,.04,.81,0,.22-.18,.41-.18,.63,.04,.13,0,.31-.05,.5-.09,.36-.04,.67-.04,.99,0,.22,.09,.45-.09,.72-.04,.18-.04,.4,.13,.5l-.13,.18c.09,.27,.09,.54-.04,.85-.04,.18-.04,.32-.09,.45-.04,.23,.22,.32,.13,.5l-.13,.5c-.13,1.04-.04,2.07-.09,3.01,0,.27-.13,.58-.23,.81-.09,.13-.13,.31-.09,.36,.18,.13,0,.23,0,.32-.09,.27-.13,.58-.09,.85-.18,.13-.31,.23-.41,.36-.09,.09-.27,0-.36,.13-.23-.04-.41-.27-.63-.18Z"/><path d="M226.82,125.9c-.13,.13-.22,.22-.27,.4,0,.18-.14,.36-.23,.49-.31,.77-.63,1.58-.99,2.34-.23,.54-.36,1.17-.86,1.58-.09,.04-.04,.13-.04,.27-.41,.31-.72,.86-1.3,1.08-.18,.63-.86,.86-1.31,1.26-.04,0-.04-.04-.09-.09-.13,0-.22,.18-.45,.09-.14-.13-.36-.27-.63-.31-.31-.04-.67-.27-.85-.59-.09-.13-.22-.18-.27-.36-.04-.13-.22-.13-.36-.22-.18-.22-.23-.45-.23-.72-.04-.36-.09-.67-.31-.99-.04-.22,.09-.45-.09-.63-.04-.04-.04-.22,0-.32,.09-.45,.18-.94,.18-1.44,.22-.27,0-.67,.18-.99,.18-.27,.23-.58,.32-.9,.09-.5,.27-.95,.41-1.4,.4-.99,.63-2.02,1.12-2.97,.13-.22,.22-.45,.22-.72,0-.18,.18-.31,.04-.58-.13-.13-.31-.41-.67-.5-.23,.04-.5-.09-.81-.13-.27-.04-.54-.13-.85-.22-.13,.09-.5,.63-.67,.99,.04,.09,.09,.18,0,.31-.27,.31-.41,.68-.54,1.04-.18,.36-.36,.68-.67,.95-.45,0-.86,.18-1.21,.36-.41,.13-.86,.04-1.26,.27-.22-.04-.49-.13-.76-.22-.27-.09-.58-.04-.85-.13-.27-.13-.54-.18-.81-.18-.04,.13-.18,.31-.31,.4,.09,.09,.13,.09,.22,.18-.22,.18,0,.41-.22,.59-.04,.09-.04,.22-.14,.31-.22,.27-.27,.5-.18,.72-.09,.09-.13,.13-.22,.18,0,.4-.04,.81-.14,1.17-.04,.09-.09,.22-.18,.27-.04,.04-.09,.09-.13,.18,.04,.36-.13,.68-.36,.9-.13,.22,.04,.4-.13,.5-.13,.13-.18,.31-.18,.45s-.09,.27-.13,.4c-.23,.22-.27,.54-.45,.77-.04,.04,0,.09,0,.13-.27,.31-.54,.63-.63,1.08-.18,.22-.45,.49-.5,.86-.45,.13-.5,.49-.67,.81-.27,.45-.68,.68-1.12,.9-.14,.09-.36,.09-.5,.09-.67,0-1.35-.09-1.71-.58-.32-.36-.5-.72-.81-1.08-.13-.18,.05-.95-.22-1.04,.04-.22-.27-.36-.22-.59,0-.04-.09-.04-.14-.13,.09-.09,.09-.18,.09-.27l-.14-1.04c0-.22-.04-.4,.09-.63,.09-.04,.09-.09,.09-.18-.04-.32-.14-1.17-.04-1.49,.04-.22-.05-.45,.04-.67,.04-.18-.09-.36,.04-.63-.09-.63,.22-1.26,.27-1.94,0-.27,.23-.58,.27-.94,.09-.63,.04-.81,.13-.99,.09-.36,.09-.77,.31-1.12,.14-.13,.14-.32,.18-.5,.09-.22,.18-.49,.31-.72,.09-.09,.09-.18,.04-.32,.32-.13,.36-.45,.68-.63,.31-.22,.67-.36,1.08-.27,.05,.09,.18,.18,.32,.22,.13,.27-.04,.45,0,.67,.04,.27-.04,.45-.18,.63-.18,.18,.09,.45-.18,.68,.14,.27-.04,.54-.13,.81-.04,.22-.04,.45,0,.68-.18,.18-.22,.36-.22,.54,.09,.23-.18,.5-.09,.72-.27,.22,.09,.9-.18,1.08,.04,.22-.18,.4-.04,.67,.04,.05-.04,.14-.09,.18,0,.22-.13,.45-.04,.63v.13c-.27,.45-.09,.86-.09,1.26-.13,.23-.23,.86-.13,1.04,.04,.32-.14,.59-.23,.86,0,.09,.04,.27-.09,.4-.09,0-.04,.18,.09,.23-.09,.13,0,.22-.09,.31-.13,.18,.04,.31,0,.45-.18,.18-.09,.36-.09,.5,0,.18-.04,.36,.13,.45,.09,.09-.04,.59-.04,.68,.04,.31,.04,.58,.09,.85,.45,.41,.63,.45,1.67,.14,.41-.54,.86-.99,1.21-1.53,.23-.27,.45-.63,.67-.95,.09-.22,.14-.49,.32-.67,.31-.32,.36-.77,.67-1.08,.09-.5,.36-.9,.58-1.39,0-.04-.04-.09,0-.18,.27-.45,.32-.9,.41-1.35,0-.04,0-.09,.04-.13,.22-.36,.13-.72,.36-1.04-.04-.18,.05-.27,.18-.36,.18-.22,.04-.45,.22-.68-.09-.13,.13-.31,.04-.45-.09-.22,.04-.36,.04-.54,.09-.14-.09-.23-.18-.32-.18-.13-.32-.36-.41-.58-.04-.09-.09-.18-.18-.27-.27-.14-.18-.45-.41-.54-.22-.13-.22-.36-.4-.49-.04-.14,0-.27-.09-.36-.04-.04-.18-.04-.27-.09,.18-.27,0-.4-.04-.54-.09-.18-.13-.36-.13-.5-.04-.18-.04-.4-.09-.58-.05-.09,.18-.31-.09-.45,.23-.18,.27-.4,.32-.63,.04-.63,.58-.9,1.04-1.12,.72-.36,.9-.22,1.48,.13,0,.27,.14,.59,0,.95,0,.13-.04,.31,.14,.45,.18,.09,.09,.27,0,.45,.13,.13,.22,.31,.04,.45,.09,.13,.22,.22,.09,.4-.13,.13,.04,.23,.13,.36-.27,.31,.13,.72-.13,1.08,.09,.09,.22,.18,.13,.31-.13,.27-.13,.54-.13,.81,.04,.04,.09,.13,.04,.18-.18,.13-.09,.27-.04,.36,.09,.18,.22,.27,.4,.36,.5,.18,.99,.36,1.44,.5,.13,.04,.36-.09,.58,.04,.13,.04,.32-.09,.41-.13,.45-.18,.94-.32,1.35-.54,.18-.13,.36-.27,.45-.45,.09-.31,.36-.5,.5-.77,.13-.13,.04-.36,.22-.54,.04,0,.09-.04,.18-.04,.18-.36,.41-.95,.32-1.12-.04-.13,0-.27-.04-.36-.27-.13-.41-.4-.5-.67-.18-.45-.32-.95-.5-1.44-.09-.27,0-.54-.04-.86,0-.27,.09-.5,.18-.72,.18-.58,.63-.81,1.21-.86h.36l.54,.54c0,.09-.13,.27,.04,.4-.18,.27-.04,.59-.09,.86v.86c0,.27,.04,.58,0,.85,0,.32,.13,.54,.13,.86,.23,0,.45,.27,.76,.13,.05,.09,.05,.23,.18,.27h.41c.09,.09,.13,.18,.22,.22h.18c.09,.36,.5,.36,.63,.63,.14,0,.32-.09,.41,.09,.13,.18,.04,.27-.09,.36,.13,.18,.18,.36,.36,.49-.04,.18,.09,.41-.13,.54,.23,.27,.13,.54,0,.76l.13,.13c-.09,.04-.13,.14-.13,.23,.04,.36-.04,.67-.18,.99-.04,.14,.04,.23,.09,.36-.22,.54-.5,1.08-.5,1.71l-.22,.13c0,.72-.36,1.31-.27,1.94-.22,.4-.36,.77-.31,1.57l-.18,.18c-.09,.31-.09,.63-.23,.9-.09,.32,.09,.63-.13,.9,0,.09,.09,.13,.13,.22-.31,.32,.04,.59,.09,.86,.23,.27,.58,.04,.77,.27,.22-.04,.45-.27,.72-.18,.27-.4,.76-.63,1.12-.95,.36-.27,.72-.58,.94-.99,.09-.18,.27-.27,.36-.49,.18-.58,.54-1.08,.67-1.66,.04-.18,.27-.27,.23-.5,.27-.27,.27-.72,.49-1.04,.14-.22,.23-.45,.23-.76-.04-.14,0-.32,.09-.45,.13-.13,.04-.22,.09-.4l.36-.31c.09,.04,.13,.13,.27,.27,0,.31-.22,.63-.09,.95Z"/><g><path d="M140.77,159.43c.5,.32,1.66,.82,2.88,.82,2.26,0,2.96-1.44,2.94-2.52-.02-1.82-1.66-2.6-3.36-2.6h-.98v-1.32h.98c1.28,0,2.9-.66,2.9-2.2,0-1.04-.66-1.96-2.28-1.96-1.04,0-2.04,.46-2.6,.86l-.46-1.28c.68-.5,2-1,3.4-1,2.56,0,3.72,1.52,3.72,3.1,0,1.34-.8,2.48-2.4,3.06v.04c1.6,.32,2.9,1.52,2.9,3.34,0,2.08-1.62,3.9-4.74,3.9-1.46,0-2.74-.46-3.38-.88l.48-1.36Z"/><path d="M149.69,162.25l5.58-14.5h1.36l-5.6,14.5h-1.34Z"/><path d="M157.89,159.43c.5,.32,1.66,.82,2.88,.82,2.26,0,2.96-1.44,2.94-2.52-.02-1.82-1.66-2.6-3.36-2.6h-.98v-1.32h.98c1.28,0,2.9-.66,2.9-2.2,0-1.04-.66-1.96-2.28-1.96-1.04,0-2.04,.46-2.6,.86l-.46-1.28c.68-.5,2-1,3.4-1,2.56,0,3.72,1.52,3.72,3.1,0,1.34-.8,2.48-2.4,3.06v.04c1.6,.32,2.9,1.52,2.9,3.34,0,2.08-1.62,3.9-4.74,3.9-1.46,0-2.74-.46-3.38-.88l.48-1.36Z"/></g></g></g></g></svg>