<?xml version="1.0" encoding="UTF-8"?><svg xmlns="http://www.w3.org/2000/svg" viewBox="0 0 300 176"><defs><style>.d{fill:none;stroke:#fff;stroke-miterlimit:10;}</style></defs><g id="a"/><g id="b"><g id="c"><g><rect class="d" x=".5" y=".5" width="299" height="175" rx="20" ry="20"/><path d="M70.33,66.31c-1.26-.45-2.52-1.12-3.51-2.29-.54-.54-1.12-1.12-1.84-1.67-.99-.86-1.67-2.12-2.25-3.29-.85-1.98-1.57-3.96-1.98-5.94-.18-.67-.32-1.26-.32-1.98,0-.27-.09-.54-.09-.81-.31-1.53-.31-2.97,0-4.41v-1.26c.09-1.58,.54-3.1,.81-4.68,.58-2.07,1.39-3.92,2.25-5.89,.99-1.44,1.58-3.11,2.97-4.41,0-.13,.13-.32,.13-.32,.99-1.66,2.56-2.97,3.82-4.32,.9-.86,1.89-1.62,2.88-2.25,1.22-.9,2.66-1.35,4.19-1.89h.76c1.21-.09,2.47-.09,3.78-.27,1.39,.18,2.65,.18,4.09,.27,1.12,.18,2.11,.4,3.24,.9,1.44,.41,2.7,.99,3.96,1.62,.72,.45,1.44,.99,2.16,1.62,.67,.54,1.08,1.21,1.39,2.21,.14,.13,0,.45-.13,.45-.18,0-.27-.14-.27-.14l-.32-.31c-.58-1.4-1.67-2.21-2.97-2.97-1.12-.68-2.38-1.21-3.64-1.67-1.17-.41-2.16-.72-3.29-.81-.67-.18-1.39-.18-2.12-.36-.85,0-1.71-.14-2.7,0-.81,.18-1.71,.18-2.39,.18-1.3,0-2.38,.45-3.37,1.17-.32,.27-.58,.5-.9,.63-.27,.18-.5,.32-.81,.45-.86,.18-1.58,.72-2.25,1.3-.32,.23-.58,.54-.9,.99-1.48,1.67-3.06,3.51-4.36,5.35-.86,.99-1.4,2.25-1.98,3.42-.67,1.35-1.26,2.79-1.53,4.32-.54,1.71-.72,3.6-.99,5.26,0,.85-.32,1.67-.32,2.52,.18,2.97,.45,5.94,1.31,8.91,.45,1.57,1.12,2.97,1.98,4.41,.27,.32,.45,.54,.67,.86,.86,.99,1.75,1.98,2.75,2.79,1.39,1.3,4.36,2.29,6.03,2.16,1.31,0,2.38-.18,3.56-.45,.13-.09,.31-.09,.4-.09,.9-.18,1.4-.99,2.29-.99,.81-.18,1.67-.77,2.38-1.17,.68-.45,1.4-.81,2.12-1.44,.72-.36,1.26-.99,1.98-1.53,.99-.81,1.53-1.8,2.25-2.97l.86-1.44c.58-.99,1.12-2.12,1.39-3.24,.32-.85,.72-1.84,1.17-2.52,.41-.72,.72-1.44,.72-2.29,.09-1.21,.27-2.52,.4-3.96,.27-1.21,.41-2.52,.58-3.83,.09-.67,.27-1.35,.54-2.11,.54-1.67,1.26-3.38,2.12-4.95,.31-.54,.72-.99,1.12-1.39,.27-.27,.58-.45,.85-.58,1.85-.41,2.83,.45,2.97,2.29,.23,1.57-.13,2.97-.76,4.54-.22,.67-.5,1.39-.81,2.07-.81,1.58-1.53,2.97-2.97,3.96-1.4,1.12-1.4,1.44-1.4,2.97-.27,2.12-.13,4.41,0,6.52,.13,2.25,.58,4.37,1.12,6.34,.27,.99,.72,1.98,1.44,2.83,.27,.45,.81,.58,1.39,.27,.22-.13,.58-.27,.86-.54,1.12-1.44,1.98-3.1,2.25-5.08,.27-2.56,.27-2.47-.13-5.04-.13-1.12-.58-1.98-1.58-2.65-.4-.32-.81-.54-1.39-.86-.13-.13-.27-.31-.41-.58-.36-.27-.36-.85,0-1.08,.14-.31,.63-.45,.99-.31,.81,.31,1.53,.54,2.12,1.3,.67,.67,1.48,1.21,2.47,1.53,1.35,.45,2.88,.27,3.74-.99,.22-.32,.4-.54,.72-.85,0-.14,.13-.32,.27-.45,0-.13,.13-.13,.23-.13,.18,0,.18,.13,.36,.27v.32c-.36,1.12-.85,1.98-1.84,2.52-.58,.45-1.3,.58-1.98,.58h-1.49c-.22,.18-.5,.18-.63,.18-.36,0-.58,.09-.58,.36v1.84c.41,2.43,.13,3.6-.41,6.03-.18,.67-.45,1.39-.85,1.98-.32,.54-.58,1.12-.86,1.53-.27,.58-.63,.85-1.12,.99-1.3,.45-1.98,.77-3.38-.67-1.3-1.3-1.71-1.98-2.43-3.69-.13-.45-.27-.99-.54-1.44-.31-.67-.58-1.67-.58-2.52-.13-1.12-.31-2.12-.58-3.24,0,0-.13,0-.27-.18,0,0,0,.18-.13,.18,0,.14-.14,.14-.14,.27-.18,.27-.27,.72-.45,.99-.27,1.17-.81,2.16-1.4,3.15-.72,1.35-1.58,2.79-2.56,4.05-.41,.45-.81,.72-1.12,1.12-1.98,1.75-4.05,2.97-6.34,4.09-.18,0-.45,.18-.67,.18-.99,.27-1.98,.54-3.15,.81-1.3,.31-2.7,.31-4.09,0-.86-.27-1.67-.54-2.57-.67Zm26.86-23.35c.99-.85,1.84-1.84,2.43-3.06,.27-.45,.54-.99,.63-1.62,.77-1.12,.99-2.34,.99-3.78v-.85c0-.45-.22-.86-.5-1.12-.13-.32-.58-.41-.85-.41-.63,.09-.99,.41-1.12,.86-.32,.36-.41,.99-.58,1.53-.13,.27-.27,.68-.41,1.12-.41,.67-.72,1.53-.85,2.43-.14,.85-.27,1.53-.27,2.38,0,.54-.18,1.26-.18,1.8v.72c0,.13,.31,.27,.45,.27,.13-.14,.27-.14,.27-.27Z"/><path d="M223.47,56.18c.09,.09,.09,.13,.13,.22-.18,.36-.27,.72-.22,1.04-.09,.41-.5,.54-.41,.9,0,.13-.32,.22-.22,.45-.23,.18-.09,.45-.18,.72-.13,.36-.27,.72-.58,.9-.13,.18-.04,.32-.09,.5-.22,.09-.22,.32-.27,.5-.04,.22-.27,.36-.36,.58-.04,.18-.22,.32-.32,.5-.09,.22-.27,.27-.4,.5-.09,.18-.27,.31-.41,.45-.13,.04-.22-.04-.32,.04-.22,.27-.54,.36-.85,.54-.63,.4-1.26,.31-1.84,.04-.23-.09-.41-.23-.63-.27-.14,0-.27-.22-.41-.13-.5-.54-1.08-.9-1.71-1.3-.09-.45-.27-.81-.58-1.08-.13-.32-.18-.63-.32-.86-.22-.36-.22-.76-.36-1.17-.13-.31-.09-.63-.13-.99,0,.13-.04,.27-.09,.36-.09,.18-.13,.32-.18,.5,0,.18-.09,.36-.31,.45,.13,.36-.18,.63-.23,.99-.13,.18-.4,.36-.4,.67v.04c-.32,.41-.5,.9-.86,1.26-.32,.36-.72,.63-.95,1.08-.09,.13-.22,.13-.36,.22-.23,.09-.36-.04-.45,.18-.54,.22-1.08,.45-1.71,.45-.9,.14-.99-.49,0-.54,.32-.09,1.62-.36,1.84-.67,.13-.13,.41-.13,.45-.36,.27,.04,.22-.32,.45-.36,.18-.04,.22-.36,.4-.5,.18-.13,.23-.31,.36-.5,.22-.27,.45-.58,.54-.94,.09-.23,.22-.41,.27-.63,.04-.14,.09-.27,.18-.41,.27-.45,.41-.99,.63-1.44,.04-.13,0-.27,.04-.4l.22-.23c0-.22,.04-.45,.09-.58-.09-.18-.09-.4,0-.63,.13-.27,.13-.58,.18-.9,.04-.23-.04,.58,.09,.36,.09-.18-.04-.54,.04-.67,.18-.22,0-.5,.22-.63-.04-.36,.23-.58,.32-.9,.13-.36,.5-.67,.45-1.12,0-.04,.09-.18,.13-.22,.45-.81,.9-1.58,1.49-2.25,.27-.31,.45-.58,.81-.85,.13-.09,.27-.27,.45-.23,.22,.04,.36-.18,.58-.13,.18,.04,.41,0,.58,0,.13,0,.31,.04,.36-.09,.23,.09,.36,.22,.63,.22,.4-.04,.72,.23,1.08,.36,.14,.04,.14,.22,.23,.27,.18,.14,.13,.41,.18,.58,.09,.18,.09,.36-.04,.58v.36c.22,.36,.09,.67,0,.95-.04,.13-.04,.31-.09,.45-.09,.09-.13,.18-.22,.23,.04,.04,.09,.09,.13,.18-.5,.72-.72,1.58-1.4,2.16-.22-.04-.31-.27-.5-.36-.04-.18-.04-.31,.09-.4,.27-.18,.45-.45,.54-.77,.13-.36,.45-.67,.54-1.04,.05-.13,.23-.27,.23-.36,0-.18,.04-.36,.09-.54,.04-.36,.04-.67,.04-1.04,0-.18-.22-.27-.13-.41-.32-.49-.9-.54-1.26-.9-.5,.04-.81,.31-.99,.63-.45,.67-.9,1.39-1.12,2.25-.09,.36-.22,.72-.32,1.08,0,.04-.04,.09-.04,.13,.09,.41-.04,.81-.13,1.21,0,.36-.04,.76-.27,1.17h-.04s.04,.13,0,.18c-.14,.32-.18,.68-.18,.99-.04,.63-.22,1.35-.13,2.03,0,.18-.27,.36-.04,.58,.09,.09-.09,.31,.04,.49,.04,.14,0,.27-.13,.41,.18,.27,.13,.58,.13,.9,0,.27,.22,.54,.09,.85,.13,.04,.13,.18,.18,.27,.22,.45,.63,.76,1.17,.85,.09,0,.13,.09,.22,.09,.58,.09,1.12,0,1.62-.31,.36-.18,.76-.36,1.08-.63,.22-.18,.67-.63,.81-.81,.04-.22,.18-.45,.32-.63,.18-.27,.36-.45,.45-.76,.04-.27,.36-.41,.32-.72,.36-.23,.31-.63,.45-.99,.09-.22,.18-.45,.36-.67v-.58l.27-.23c-.09-.72,.27-1.35,.41-2.02,.09-.09,.27,0,.31-.04,.13,.13,.27,.22,.41,.31-.18,.14-.32,.27-.41,.32,0,.31,.04,.54-.13,.67Zm-7.7-.85c0,.09,.05,.13,.09,.22v-.36l-.09,.14Z"/><path d="M94.97,125.9c0,.27-.13,.54-.18,.81-.13,.41-.27,.77-.32,1.17-.04,.13-.13,.27-.22,.41,0,.09,.09,.09,.09,.22-.27,.41-.32,.99-.67,1.44,0,.13,.04,.27,.04,.41-.54,1.21-1.39,2.25-2.47,2.97-.5,.18-.86-.09-1.26-.18-.31-.04-.4-.36-.67-.54-.18-.18-.31-.45-.54-.58-.18-.13-.27-.36-.36-.58-.04-.27-.18-.4-.36-.58,.13-.58-.18-1.21-.13-1.8-.23-.4-.09-.85-.13-1.3,0-.09-.09-.22,.18-.32-.36-.04-.41,.14-.41,.32-.09,.45-.4,.9-.4,1.39-.23,.14-.23,.45-.36,.68-.09,.27-.22,.45-.32,.72-.13,.36-.31,.67-.63,.85l-.67,.72s-.13,.13-.13,.22-.27,.27-.5,.5c0,.04-.41,.18-.36,.22-.22,.18-.09,.04-.49,.04-.14-.13-.54,.14-.68-.18-.63,.04-.36-.09-.9-.54,0-.13-.27-.54-.27-.63-.04-.13,0-.27-.04-.41-.27-.5-.4-1.04-.45-1.57-.04-.36-.13-.77-.13-1.12,0-.14,0-.27,.13-.36l-.13-.13c0,.09-.04,.13-.04,.22,0,.18-.09,.36-.31,.45,.13,.36-.18,.63-.23,.99-.13,.18-.41,.36-.41,.67v.04c-.31,.41-.49,.9-.85,1.26-.32,.36-.72,.63-.95,1.08-.09,.13-.22,.13-.36,.22-.23,.09-.36-.04-.45,.18-.54,.22-1.08,.45-1.71,.45-.9,.14-.99-.49,0-.54,.32-.09,1.62-.36,1.84-.67,.13-.13,.41-.13,.45-.36,.27,.04,.22-.32,.45-.36,.18-.04,.22-.36,.4-.5,.18-.13,.23-.31,.36-.5,.22-.27,.45-.58,.54-.94,.09-.23,.22-.41,.27-.63,.05-.14,.09-.27,.18-.41,.27-.45,.41-.99,.63-1.44,.04-.13,0-.27,.04-.4l.22-.23c0-.27,.04-.45,.14-.63,0-.18,.04-.36,.09-.58,.04-.09,.04-.22,.04-.31-.09-.23,.09-.45,.13-.68,.04-.36,.13-.72,.22-1.08,.14-.45,.32-.9,.5-1.4,.23-.58,.36-1.17,.81-1.62,.13-.13,.13-.36,.18-.54,.27-.45,.45-.94,.95-1.17,.27-.54,.81-.63,1.35-.76,.13-.04,.27-.18,.36-.13,.13,.04,.18,0,.27-.04,.18-.04,.32,.27,.5,0,.09,.13,.18,.13,.32,.04,0-.04,.13,.09,.27,.09,.27-.04,.45,.04,.58,.32,.04,.13,.13,.27,.27,.4,.09,.09,.14,.27,.23,.45,.13-.58,.31-1.12,.31-1.67,.14-.13,.18-.36,.14-.58,0-.27,.04-.5,.22-.67-.04-.72,.22-1.44,.36-2.12,.13-.5,.31-.9,.36-1.39,0-.04,0-.09,.04-.18,.23-.45,.27-.95,.45-1.44,.13-.45,.32-.95,.36-1.44-.04-.09,.04-.18,.09-.27,.22-.58,.27-1.26,.67-1.84,.04-.54,.5-.9,.76-1.35,.14-.22,.32-.22,.5-.36,.14-.09,.36-.09,.54-.09,.13,.09,.18,.27,.41,.18,.13,.63,.18,1.21,.04,1.84,0,.04,.04,.09,.04,.09-.04,.36-.27,.68-.36,1.04-.04,.09-.09,.18-.09,.27,.04,.54-.13,.99-.31,1.48-.09,.18-.13,.41-.13,.63,0,.27-.05,.5-.14,.72-.22,.54-.4,1.17-.5,1.75-.09,.31-.36,.63-.31,1.03-.18,.09-.18,.27-.18,.5-.05,.14-.27,.23-.23,.45-.18,.13,0,.36-.04,.54-.13,.13-.18,.27-.22,.5-.04,.31-.23,.54-.32,.81-.22,.63-.5,1.21-.45,1.89,.04,.22-.13,.4-.04,.63,.04,.22,.04,.45,0,.63-.13,.31,0,.67-.09,.99-.09,.32,0,.63-.04,.9-.13,.45,0,.9-.04,1.35-.13,.54-.09,1.04-.09,1.58,0,.22-.09,.5-.09,.76,.04,.23,.09,.41-.04,.68-.04,.13,0,.31,0,.45-.04,.18,.09,.41-.04,.58-.14,.14,.13,.27-.05,.45,.14,.41-.27,.81,.05,1.21-.23,.23,.04,.54-.14,.72-.04,.09,0,.18,0,.27,0,.45,.04,.9,.04,1.3,.14,.36,.36,.54,.68,.67l.04-.04c.49,0,.85-.36,1.17-.67,.22-.18,.4-.41,.58-.58,.13-.13,.27-.31,.31-.5,.18-.4,.36-.72,.45-1.12,.04-.22,.18-.31,.27-.45,.23-.45,.32-.95,.5-1.4,.09-.54,.27-1.08,.5-1.58,.04-.18,.04-.27-.04-.4l.58,.04Zm-6.88-4.46c-.04-.45-.09-.95-.04-1.44-.04-.23-.09-.41-.18-.63-.09-.27-.23-.49-.41-.76-.13,.04-.22-.09-.31-.18-.27,0-.58-.09-.81,.04-.5,.27-1.04,.54-1.21,1.21-.04,.32-.13,.67-.27,1.04-.18,.31-.23,.63-.45,.9-.04,.09-.13,.23-.13,.32,.04,.22-.14,.36-.09,.54-.18,.13,0,.41-.18,.58-.09,.04,.04,.22-.09,.36-.13,.18-.13,.41-.09,.63,0,.13,.04,.27,0,.36-.13,.27-.09,.5-.18,.77-.13,.27-.04,.54-.09,.81v.09c-.18,.13,.04,.41-.09,.54-.18,.18,0,.36-.09,.54-.18,.18-.04,.36-.09,.54,.04,.09,.04,.18,0,.31-.09,.32-.18,.63-.18,.99,.05,.23,.14,.45-.04,.67-.04,.09-.04,.27,0,.36,.23,.41,.14,.85,.32,1.26,.22,.23,.45,.5,.81,.58,.14-.18,.27-.31,.45-.41,.27-.13,.45-.27,.67-.49,.45-.45,.77-.99,.99-1.58,.13-.5,.27-.95,.45-1.4,.13-.31,.13-.67,.31-1.03,.14-.27,.41-.54,.32-.95,.18-.22,.13-.58,.27-.9,.09-.18,.09-.45,.09-.67,.04-.22,.04-.4,.22-.58-.04-.36,.09-.72,.13-1.12-.04,0-.09-.09-.09-.18-.04-.36,.04-.72,.09-1.12Zm2.66-5.08c.18,0,.09,.18,.22,.27v-.36c-.04-.27,0-.5,.09-.72,.14-.32,.32-.63,.36-.95,.31-.94,.58-1.93,.85-2.88,.18-.54,.32-1.17,.5-1.75l.14-.76c.09-.27,.13-.54,.22-.81,.04-.22,.09-.54,.22-.76,.04-.09,.09-.22,.04-.31-.13-.23-.09-.5-.13-.77-.36,.13-.63,.36-.67,.67-.04,.32-.18,.58-.27,.86-.09,.36-.23,.67-.23,1.04,0,.27-.04,.5-.09,.76-.04,.13-.18,.27-.18,.45-.04,.18,0,.36,0,.5-.27,.58-.18,1.21-.41,1.71-.09,.18-.04,.31-.04,.49-.18,.18-.23,.41-.18,.63,0,.09,0,.18-.05,.31-.18,.41-.27,.86-.22,1.35,.04,.18-.13,.27-.09,.45l.04,.45s-.09,.09-.13,.13Z"/><path d="M256.02,119.69c-.09,.81-.68,1.39-.72,2.25v.04c-.49,.59-.54,1.3-.72,2.03-.04,.04-.04,.09-.04,.13-.36,.59-.58,1.26-.95,1.94-.04,.09-.09,.22-.18,.27-.27,.22-.41,.59-.54,.9-.09,.22-.13,.54-.41,.67-.13,.77-.81,1.12-1.12,1.71-.13,.31-.4,.54-.63,.86-.27,.27-.54,.54-.67,.9-.09,.18-.22,.09-.31,.23-.32,.31-.67,.58-.95,.9-.36,.5-.85,.68-1.35,.95-.09-.09-.04-.18-.09-.27-.23,0-.27,.31-.5,.22-.09-.13,.09-.13,.09-.18-.45-.22-.95-.36-1.35-.72-.49-.4-1.03-.81-1.3-1.39-.09-.13-.09-.36-.31-.4-.09,0-.18-.22-.18-.31,0-.59-.18-1.08-.36-1.58-.04-.13,0-.31,0-.45-.04-.22,.04-.54-.13-.81-.05-.09,0-.22,.09-.27-.18-.45-.04-.9-.14-1.44-.31,.54-.54,.99-.58,1.57-.13,.09-.27,.18-.31,.36-.04,.36-.23,.68-.41,.9-.18,.27-.18,.54-.36,.81-.14,.22-.18,.54-.23,.9-.04,.22-.18,.49-.36,.67-.27,.31-.41,.63-.5,1.04-.23,.72-.58,1.21-1.21,1.57-.32,0-.68-.04-.99,0-.36,0-.58-.31-.9-.09-.13-.27-.27-.45-.18-.72-.04-.09-.18-.04-.22-.09-.05-.18-.09-.41-.18-.54-.18-.27-.27-.58-.22-.95,0-.22-.13-.45-.18-.67-.05-.22-.09-.5-.09-.68,.04-.31-.13-.49-.13-.77s.13-.54-.09-.76c.04-.5-.04-.95,.04-1.39,.13-.54,.09-1.12,.32-1.71-.04-.9,.27-1.71,.58-2.61,.18-.54,.4-1.04,.72-1.53h-.27c-2.29,.04-4.45-.23-6.79-.77-.58-.18-1.21-.22-1.85-.36-1.75-.32-3.33-.54-4.99-.9-1.49-.36-2.92-.68-4.32-1.12l-1.08-.13c-2.56-.5-5.08-1.26-7.56-2.07-1.35-.4-2.65-.86-4.05-1.12-1.17-.27-2.38-.45-3.6-.81-.9-.22-1.84-.22-2.83-.36-.95,0-1.84-.04-2.83-.04h-.81c-1.4,.18-2.83,.22-4.14,.31-1.67,.22-3.15,.77-4.64,1.53l-1.62,.9-.18,.32-2.38,1.3c-.67,.49-1.26,1.08-1.8,1.62-.9,1.04-1.84,2.03-2.75,3.2-.9,1.08-1.57,2.34-2.07,3.73-.18,.45-.32,.95-.5,1.44-.58,1.8-.13,6.26,.54,7.79,.22,.59,.45,1.17,.85,1.67,.36,.45,.58,.99,.95,1.53,.18,.22,.31,.45,.5,.63,.45,.41,.9,.81,1.21,1.17,.45,.32,.85,.59,1.26,.9,.18,.09,.32,.13,.5,.27,.99,.32,2.02,.63,3.06,.68,.77,0,1.44-.18,2.12-.36l2.07-.77c.54-.09,1.08-.36,1.48-.72l.58-.36c.81-.54,1.44-1.3,1.8-2.16,.04-.13,.09-.22,.23-.31,.04-.04,.22-.09,.31-.04,.04,0,.13,.04,.13,.18,0,.09,0,.36-.04,.45-.45,.99-.94,1.71-1.84,2.34-.85,.54-1.8,1.08-2.88,1.35-.5,.09-.99,.4-1.58,.54-.67,.27-1.53,.45-2.11,.4-1.35,0-2.48-.22-3.6-.58-1.08-.45-1.93-1.08-2.7-1.94-.04-.13-.13-.18-.18-.27-.31-.22-.63-.49-.85-.86-.32-.36-.76-.85-.99-1.26-.13-.27-.31-.54-.5-.72-.36-.5-.67-1.08-.94-1.71-.41-1.17-.77-2.38-1.12-3.6v-.31l-.04-.99v-.4c0-.81,.09-1.58,.36-2.34,.41-1.48,1.04-2.92,1.8-4.32,.45-.77,1.12-1.44,1.62-2.03,.41-.36,.72-.72,.95-1.12,.85-1.08,1.93-1.98,3.1-2.7,.77-.68,1.58-1.26,2.48-1.71,1.12-.67,2.2-1.3,3.42-1.84,1.44-.77,2.97-1.12,4.59-1.21,.72,0,1.57-.18,2.38-.23,.9-.09,1.84-.09,2.74-.09,1.49,0,2.79,0,4.19,.13,.45,.09,.85,.18,1.21,.32,.94,.22,1.84,.49,2.7,.67,1.3,.36,2.47,.68,3.78,1.08,1.3,.45,2.57,.86,3.92,1.17,.36,.04,.81,.22,1.12,.31,.27,.04,.63,.18,.85,.18,.86,.04,1.53,.36,2.34,.58,.36,.13,.77,.18,1.21,.22,.72,.18,1.49,.45,2.29,.59,1.49,.45,2.97,.86,4.5,.99,.41,0,.9,.04,1.21,.13,1.62,.36,3.33,.63,4.95,.95,1.04,.18,2.03,.22,3.1,.4h2.43l.27-.36c.32-.5,.81-.9,1.39-1.17,.41-.18,.81-.5,1.31-.59,.09,0,.18-.04,.27-.04h1.04c.18-.04,.32,.04,.41,.09,.18,0,.4,.09,.54,.36,.13,1.26-1.21,2.79-1.62,2.48-.45-.32-1.17-.23-1.84-.13-.04,.13-.14,.27-.18,.4-.09,.18-.22,.31-.27,.49,0,.22-.04,.41-.18,.59-.18,.22,.09,.49-.14,.67-.04,.5-.22,.9-.27,1.31-.04,.54-.23,1.12-.27,1.66-.04,.22-.13,.36-.13,.58,.04,.59-.18,1.17-.13,1.8,0,.04-.09,.13-.13,.22,.18,.13,.22,.41,.13,.5-.18,.27-.09,.54-.09,.76-.04,.36-.04,.63,0,.95,0,.18-.27,.27-.13,.45,.18,.31,.09,.67,.13,1.08,.04,.09,.09,.14,.18,.18h.36c.4,0,.67-.18,.81-.63,0-.13,.04-.27,.13-.4,.27-.45,.5-.99,.81-1.53,.18-.36,.31-.76,.45-1.17,.04-.04,0-.13,.04-.13,.31-.22,.22-.63,.45-.9,.23-.27,.27-.63,.41-.9,.04-.09,.09-.13,.09-.22,.04-.32,.13-.59,.36-.86,.18-.22,.31-.63,.04-.86,.09-.22,.18-.36,.27-.49,.14-.36,.27-.72,.45-1.04,.13-.27,.36-.63,.04-.95,.27-.4,.32-.5,.27-1.08l.45-1.26c.27-.04,.22-.27,.27-.41,.09-.54,.18-1.17,.45-1.66,.13-.18-.04-.45,.13-.63,.22-.72,.58-1.39,.76-2.11,.14-.45,.27-.9,.45-1.4,.09-.36,.27-.67,.45-.99,.18-.41,.27-.59,.27-1.08,.32-.32,.45-.72,.68-1.08,.36-.59,.58-1.21,.81-1.89,.09-.36,.36-.63,.63-.9,.18-.18,.41-.31,.5-.58,.36-.04,.45-.45,.76-.54,.32-.09,.58-.31,.95-.09,.04,.04,.13,.09,.18,.22,0,.09,.13,.23,.23,.32v.72c0,.18-.05,.36-.14,.54-.13,.27-.18,.58-.13,.95,.04,.4-.22,.76-.13,1.12-.13,.31-.32,.54-.36,.85-.04,.13-.09,.36-.22,.5-.27,.22-.41,.58-.54,.9-.13,.31-.32,.58-.58,.9-.09,.13-.13,.32-.22,.45-.09,.27-.23,.54-.45,.81-.36,.36-.67,.81-.99,1.31l-.67,.81c-.09,.13-.18,.32-.27,.5-.13,.31-.13,.67-.31,1.04-.13,.27-.09,.67-.27,.99-.04,.09,0,.23,0,.32,0,.4-.09,.76-.22,1.17,0,.09-.04,.13-.04,.18,.04,.81-.32,1.53-.23,2.38-.22,.54-.04,1.17-.13,1.8-.13,.54-.04,1.12-.13,1.66-.18,.81-.04,1.57-.13,2.34,0,.18,.09,.22,.13,.36,.13,.36,.13,.72,.22,1.04,.23,.63,.5,.9,1.12,.95,.18,.04,.27,.18,.45,.13h.54c.22-.18,.41-.36,.76-.36,.36-.36,.72-.77,1.17-1.12,.14-.13,.18-.36,.36-.59,.18-.09,.27-.27,.36-.45,.18-.27,.4-.54,.67-.81,.41-.36,.58-.85,1.04-1.26,0-.49,.54-.72,.54-1.17,.4-.4,.49-.99,.81-1.44,.09-.18,.18-.4,.18-.59,.09-.04,.14-.04,.18-.04,.18-.49,.27-1.04,.58-1.48v-.45c.09-.13,.22-.18,.27-.36,0-.4,.23-.76,.36-1.17,.27-.54,.4-1.08,.36-1.66h.58c.14,.09-.04,.31,.14,.4Zm-15.79,.77c.77-.04,1.49-.04,2.07-.09,.18-.04,.36-.68,.09-.95v-.04c-.22-.22-.5-.09-.72,0-.54,.22-1.08,.4-1.4,.99,0,.04-.04,.04-.04,.09Zm6.93-4.95c.18,.04,.23,.04,.27,0,.27-.36,.67-.68,.85-1.08,.23-.45,.32-.9,.63-1.21,.32-.41,.5-.81,.77-1.26,.18-.27,.4-.5,.54-.77,.27-.5,.45-1.04,.18-1.62-.04-.13,0-.22,0-.36,.13-.4,.31-.81,.18-1.26-.36,.09-.63,.36-.9,.54-.09,.45-.41,.81-.58,1.3,.04,.04,.09,.09,.09,.13-.32,.58-.5,1.21-.72,1.8-.22,.68-.36,1.3-.67,1.89-.27,.58-.31,1.3-.63,1.89Z"/><g><path d="M140.35,161.46v-1.08l1.38-1.34c3.32-3.16,4.82-4.84,4.84-6.8,0-1.32-.64-2.54-2.58-2.54-1.18,0-2.16,.6-2.76,1.1l-.56-1.24c.9-.76,2.18-1.32,3.68-1.32,2.8,0,3.98,1.92,3.98,3.78,0,2.4-1.74,4.34-4.48,6.98l-1.04,.96v.04h5.84v1.46h-8.3Z"/><path d="M149.69,162.25l5.58-14.5h1.36l-5.6,14.5h-1.34Z"/><path d="M157.89,159.43c.5,.32,1.66,.82,2.88,.82,2.26,0,2.96-1.44,2.94-2.52-.02-1.82-1.66-2.6-3.36-2.6h-.98v-1.32h.98c1.28,0,2.9-.66,2.9-2.2,0-1.04-.66-1.96-2.28-1.96-1.04,0-2.04,.46-2.6,.86l-.46-1.28c.68-.5,2-1,3.4-1,2.56,0,3.72,1.52,3.72,3.1,0,1.34-.8,2.48-2.4,3.06v.04c1.6,.32,2.9,1.52,2.9,3.34,0,2.08-1.62,3.9-4.74,3.9-1.46,0-2.74-.46-3.38-.88l.48-1.36Z"/></g></g></g></g></svg>