<?xml version="1.0" encoding="UTF-8"?><svg xmlns="http://www.w3.org/2000/svg" viewBox="0 0 300 176"><defs><style>.d{fill:none;stroke:#fff;stroke-miterlimit:10;}</style></defs><g id="a"/><g id="b"><g id="c"><g><rect class="d" x=".5" y=".5" width="299" height="175" rx="20" ry="20"/><path d="M124.06,57.98c-.09,.23-.13,.54-.4,.67-.14,.77-.81,1.12-1.12,1.71-.14,.32-.41,.54-.63,.86-.27,.27-.54,.54-.68,.9-.09,.18-.22,.09-.31,.23-.32,.31-.67,.58-.95,.9-.36,.5-.85,.67-1.35,.95-.09-.09-.04-.18-.09-.27-.23,0-.27,.32-.5,.23-.09-.13,.09-.13,.09-.18-.45-.23-.95-.36-1.35-.72-.5-.4-1.04-.81-1.31-1.39-.09-.13-.09-.36-.31-.41-.09,0-.18-.22-.18-.31,0-.58-.18-1.08-.36-1.58-.04-.13,0-.32,0-.45-.04-.22,.04-.54-.13-.81-.04-.09,0-.23,.09-.27-.18-.45-.04-.9-.13-1.44-.32,.54-.54,.99-.58,1.57-.14,.09-.27,.18-.32,.36-.04,.36-.22,.67-.41,.9-.18,.27-.18,.54-.36,.81-.14,.22-.18,.54-.23,.9-.04,.22-.18,.49-.36,.67-.27,.31-.41,.63-.5,1.04-.23,.72-.58,1.21-1.21,1.57-.32,0-.67-.04-.99,0-.36,0-.58-.31-.9-.09-.13-.27-.27-.45-.18-.72-.04-.09-.18-.04-.22-.09-.04-.18-.09-.41-.18-.54-.18-.27-.27-.58-.22-.95,0-.22-.13-.45-.18-.67s-.09-.5-.09-.67c.04-.32-.14-.5-.14-.77s.14-.54-.09-.76c.04-.5-.04-.94,.04-1.39,.13-.54,.09-1.12,.32-1.71-.04-.9,.27-1.71,.58-2.61,.31-.9,.81-1.8,1.39-2.56,.32-.5,.81-.9,1.4-1.17,.4-.18,.81-.5,1.3-.58-1.84-.09-4.28-.13-5.49-.09-1.08,.18-2.07,.22-3.1,.4-1.62,.32-3.33,.58-4.95,.95-.31,.09-.81,.13-1.21,.13-1.53,.13-3.01,.54-4.5,.99-.81,.13-1.57,.41-2.29,.58-.45,.04-.85,.09-1.21,.22-.81,.23-1.48,.54-2.34,.58-.22,0-.58,.14-.85,.18-.32,.09-.77,.27-1.12,.31-1.35,.32-2.61,.72-3.92,1.17-1.3,.41-2.47,.72-3.78,1.08-.86,.18-1.76,.45-2.7,.67-.36,.13-.77,.23-1.21,.32-1.4,.13-2.7,.13-4.19,.13-.9,0-1.84,0-2.74-.09-.81-.04-1.67-.23-2.38-.23-1.62-.09-3.15-.45-4.59-1.21-1.22-.54-2.29-1.17-3.42-1.84-.9-.45-1.71-1.04-2.48-1.71-1.17-.72-2.25-1.62-3.1-2.7-.22-.41-.54-.77-.95-1.12-.5-.58-1.17-1.26-1.62-2.03-.76-1.39-1.39-2.83-1.8-4.32-.27-.77-.36-1.53-.36-2.34v-.4l.04-.99v-.31c.36-1.22,.72-2.43,1.12-3.6,.27-.63,.58-1.21,.94-1.71,.18-.18,.36-.45,.5-.72,.23-.41,.67-.9,.99-1.26,.22-.36,.54-.63,.85-.86,.05-.09,.14-.13,.18-.27,.76-.86,1.62-1.49,2.7-1.93,1.12-.36,2.25-.58,3.6-.58,.58-.05,1.44,.13,2.11,.4,.58,.13,1.08,.45,1.58,.54,1.08,.27,2.03,.81,2.88,1.35,.9,.63,1.4,1.35,1.84,2.34,.04,.09,.04,.36,.04,.45,0,.14-.09,.18-.13,.18-.09,.04-.27,0-.31-.04-.14-.09-.18-.18-.23-.32-.36-.85-.99-1.62-1.8-2.16l-.58-.36c-.41-.36-.95-.63-1.48-.72l-2.07-.76c-.67-.18-1.35-.36-2.12-.36-1.04,.05-2.07,.36-3.06,.68-.18,.13-.32,.18-.5,.27-.41,.32-.81,.58-1.26,.9-.32,.36-.76,.76-1.21,1.17-.18,.18-.32,.4-.5,.63-.36,.54-.58,1.08-.95,1.53-.4,.5-.63,1.08-.85,1.67-.67,1.53-1.12,5.99-.54,7.79,.18,.5,.31,.99,.5,1.44,.5,1.4,1.17,2.66,2.07,3.74,.9,1.17,1.85,2.16,2.75,3.19,.54,.54,1.12,1.12,1.8,1.62l2.38,1.3,.18,.32,1.62,.9c1.49,.76,2.97,1.3,4.64,1.53,1.3,.09,2.74,.13,4.14,.32h.81c.99,0,1.89-.04,2.83-.04,.99-.14,1.93-.14,2.83-.36,1.21-.36,2.43-.54,3.6-.81,1.4-.27,2.7-.72,4.05-1.12,2.48-.81,5-1.58,7.56-2.07l1.08-.13c1.4-.45,2.83-.76,4.32-1.12,1.67-.36,3.24-.58,4.99-.9,.63-.13,1.26-.18,1.85-.36,2.34-.54,4.5-.81,6.79-.77,.58,0,1.12-.04,1.67-.04,.81,0,1.98,.41,2.61-.04,.22-.18,.81,.27,1.17,.9,.04,.04,.09,.04,.13,.04t.04,.09v.13c.18,.41,.32,.86,.27,1.31-.36,.72-1.17,.27-.99-.63l.04-.04c-.22-.18-.45-.04-.67,.04-.54,.23-1.08,.41-1.4,.99-.22,.36-.36,.81-.54,1.17-.09,.18-.22,.32-.27,.5,0,.22-.04,.41-.18,.58-.18,.22,.09,.5-.14,.67-.04,.5-.22,.9-.27,1.31-.04,.54-.22,1.12-.27,1.66-.05,.23-.14,.36-.14,.58,.04,.58-.18,1.17-.13,1.8,0,.04-.09,.13-.13,.22,.18,.13,.22,.41,.13,.5-.18,.27-.09,.54-.09,.76-.04,.36-.04,.63,0,.95,0,.18-.27,.27-.13,.45,.18,.31,.09,.67,.13,1.08,.04,.09,.09,.14,.18,.18h.36c.41,0,.67-.18,.81-.63,0-.14,.04-.27,.13-.41,.27-.45,.5-.99,.81-1.53,.18-.36,.31-.76,.45-1.17,.04-.04,0-.13,.04-.13,.31-.22,.22-.63,.45-.9,.22-.27,.27-.63,.4-.9,.04-.09,.09-.13,.09-.22,.04-.32,.14-.58,.36-.86,.18-.22,.32-.63,.04-.85,.09-.23,.18-.36,.27-.5,.13-.36,.27-.72,.45-1.04,.14-.27,.36-.63,.04-.95,.27-.4,.32-.5,.27-1.08l.45-1.26c.27-.04,.22-.27,.27-.41,.09-.54,.18-1.17,.45-1.66,.13-.18-.04-.45,.13-.63,.23-.72,.58-1.39,.76-2.11,.14-.45,.27-.9,.45-1.4,.09-.36,.27-.67,.45-.99,.18-.41,.27-.58,.27-1.08,.31-.32,.45-.72,.67-1.08,.36-.58,.58-1.21,.81-1.89,.09-.36,.36-.63,.63-.9,.18-.18,.41-.31,.5-.58,.36-.04,.45-.45,.76-.54,.32-.09,.58-.31,.95-.09,.04,.04,.13,.09,.18,.22,0,.09,.14,.23,.23,.32v.72c0,.18-.04,.36-.14,.54-.13,.27-.18,.58-.13,.95,.04,.4-.22,.76-.13,1.12-.13,.31-.32,.54-.36,.85-.04,.13-.09,.36-.22,.5-.27,.22-.41,.58-.54,.9-.13,.31-.31,.58-.58,.9-.09,.13-.13,.32-.22,.45-.09,.27-.23,.54-.45,.81-.36,.36-.67,.81-.99,1.31l-.67,.81c-.09,.13-.18,.32-.27,.5-.14,.31-.14,.67-.32,1.04-.13,.27-.09,.67-.27,.99-.04,.09,0,.23,0,.32,0,.41-.09,.76-.22,1.17,0,.09-.04,.13-.04,.18,.04,.81-.32,1.53-.22,2.38-.23,.54-.04,1.17-.14,1.8-.13,.54-.04,1.12-.13,1.66-.18,.81-.04,1.58-.13,2.34,0,.18,.09,.22,.13,.36,.13,.36,.13,.72,.23,1.04,.22,.63,.49,.9,1.12,.95,.18,.04,.27,.18,.45,.13h.54c.23-.18,.41-.36,.77-.36,.36-.36,.72-.76,1.17-1.12,.13-.13,.18-.36,.36-.58,.18-.09,.27-.27,.36-.45,.18-.27,.41-.54,.67-.81,.41-.36,.58-.85,1.04-1.26l.85-.41Zm-5.71-11.74c.18,.04,.23,.04,.27,0,.27-.36,.67-.67,.85-1.08,.23-.45,.32-.9,.63-1.21,.32-.41,.5-.81,.77-1.26,.18-.27,.4-.5,.54-.77,.27-.5,.45-1.04,.18-1.62-.04-.13,0-.22,0-.36,.13-.41,.32-.81,.18-1.26-.36,.09-.63,.36-.9,.54-.09,.45-.41,.81-.58,1.3,.04,.04,.09,.09,.09,.13-.32,.58-.5,1.21-.72,1.8-.23,.67-.36,1.3-.68,1.89-.27,.58-.31,1.31-.63,1.89Z"/><path d="M247.5,54.74s-.04,.09-.04,.13c-.36,.58-.58,1.26-.94,1.93-.04,.09-.09,.23-.18,.27-.27,.22-.4,.58-.54,.9-.09,.23-.13,.54-.4,.67-.14,.77-.81,1.12-1.12,1.71-.13,.32-.41,.54-.63,.86-.27,.27-.54,.54-.68,.9-.09,.18-.22,.09-.31,.23-.32,.31-.67,.58-.95,.9-.36,.5-.85,.67-1.35,.95-.09-.09-.04-.18-.09-.27-.23,0-.27,.32-.5,.23-.09-.13,.09-.13,.09-.18-.45-.23-.95-.36-1.35-.72-.5-.4-1.04-.81-1.31-1.39-.09-.13-.09-.36-.31-.41-.09,0-.18-.22-.18-.31,0-.58-.18-1.08-.36-1.58-.04-.13,0-.32,0-.45-.04-.22,.04-.54-.13-.81-.04-.09,0-.23,.09-.27-.18-.45-.04-.9-.13-1.44-.32,.54-.54,.99-.58,1.57-.14,.09-.27,.18-.32,.36-.04,.36-.22,.67-.41,.9-.18,.27-.18,.54-.36,.81-.13,.22-.18,.54-.23,.9-.04,.22-.18,.49-.36,.67-.27,.31-.41,.63-.5,1.04-.22,.72-.58,1.21-1.21,1.57-.32,0-.67-.04-.99,0-.36,0-.58-.31-.9-.09-.14-.27-.27-.45-.18-.72-.04-.09-.18-.04-.22-.09-.04-.18-.09-.41-.18-.54-.18-.27-.27-.58-.23-.95,0-.22-.13-.45-.18-.67s-.09-.5-.09-.67c.04-.32-.14-.5-.14-.77s.14-.54-.09-.76c.04-.5-.04-.94,.04-1.39,.14-.54,.09-1.12,.32-1.71-.04-.9,.27-1.71,.58-2.61,.31-.9,.81-1.8,1.39-2.56,.32-.5,.81-.9,1.4-1.17l.54-.27c-2.03,.18-4,.81-5.94,1.35-.18-.04-.4,.04-.58,.04-.36,.22-.72,.31-1.08,.5-.13,.04-.22,.13-.36,.18-3.92,1.17-7.65,2.97-11.34,4.5-1.39,.4-2.79,.99-4.14,1.48-1.62,.41-3.33,.54-4.95,.63-1.53,.14-2.97,.09-4.41-.04l-.63,.04c-1.04,0-2.03-.18-3.06-.4l-2.34-.95c-1.3-.76-2.65-1.21-3.82-2.25-.86-.41-1.89-.95-2.66-1.62-.58-.9-1.44-1.62-2.16-2.43-.76-.81-1.26-1.84-1.67-2.83-.4-.99-.76-2.02-1.12-3.1-.09-.99-.04-1.94-.09-2.92,.41-1.12,.67-2.38,1.08-3.6,.27-.67,1.04-1.21,1.35-1.75,.18-.18,.36-.45,.5-.72,.23-.45,.68-.94,1.04-1.35,.18-.36,.5-.63,.86-.9,.04-.09,.13-.13,.13-.27,.76-.9,1.67-1.53,2.75-2.03,1.17-.45,2.25-.72,3.64-.76,.58-.09,1.49,.04,2.16,.27,.58,.09,1.08,.41,1.62,.45,1.08,.23,2.02,.72,2.83,1.17,.9,.54,1.35,1.21,1.67,2.07,.04,.09,0,.31-.04,.41,0,.13-.09,.18-.13,.13-.09,.09-.27,.04-.32,.04-.13-.09-.13-.18-.18-.32-.27-.76-.81-1.44-1.53-1.89l-.63-.32c-.36-.31-.85-.54-1.44-.58l-2.07-.67c-.72-.13-1.39-.27-2.21-.22-1.03,.09-2.07,.45-3.06,.81-.22,.18-.36,.23-.54,.32-.36,.36-.81,.58-1.26,.94-.32,.36-.76,.81-1.21,1.22-.18,.18-.32,.4-.54,.67-.32,.54-.54,1.08-.9,1.57-.4,.5-.67,1.08-.85,1.67l-.13,.23c-.32,1.08-.09,2.07-.36,3.15-.27,1.04-.27,2.12-.22,3.15l.13,.9c.27,.81,.54,1.53,.85,2.25,.27,.63,.54,1.21,.9,1.75,.67,.9,1.35,1.75,2.07,2.57,.76,.81,1.53,1.57,2.43,2.25,.72,.49,1.44,.76,2.16,1.08,.09,.14,.18,.27,.27,.36,.04,0,.09,.13,.18,.04,.81,.5,1.67,.9,2.57,1.17,.94,.27,1.84,.41,2.79,.5,1.26-.04,2.52-.09,3.78,.04,.72,0,1.44-.13,2.12-.09,1.35-.22,2.7-.32,4-.63,.94-.36,1.93-.54,2.88-.9,.99-.31,1.89-.58,2.88-.85,1.53-.63,3.01-1.21,4.5-1.84,1.53-.63,3.01-1.26,4.59-1.89,.54-.18,1.08-.31,1.62-.54,.77-.22,1.44-.36,2.12-.54,1.3-.45,2.66-.67,3.96-.99,.41-.09,.9-.04,1.26-.18,.67-.09,1.4-.04,2.03-.13l.36,.27c.27-.04,.41,.13,.54,.13,0,.04,.04,.04,.04,.09,1.21-.31,.54,1.12,.27,1.44-.27,.18-.86-.58-.9-.63-.22-.22-.5-.09-.72,0-.54,.23-1.08,.41-1.39,.99-.23,.36-.36,.81-.54,1.17-.09,.18-.23,.32-.27,.5,0,.22-.04,.41-.18,.58-.18,.22,.09,.5-.13,.67-.05,.5-.23,.9-.27,1.31-.04,.54-.22,1.12-.27,1.66-.04,.23-.14,.36-.14,.58,.04,.58-.18,1.17-.13,1.8,0,.04-.09,.13-.13,.22,.18,.13,.22,.41,.13,.5-.18,.27-.09,.54-.09,.76-.04,.36-.04,.63,0,.95,0,.18-.27,.27-.13,.45,.18,.31,.09,.67,.13,1.08,.04,.09,.09,.14,.18,.18h.36c.41,0,.67-.18,.81-.63,0-.14,.04-.27,.14-.41,.27-.45,.49-.99,.81-1.53,.18-.36,.32-.76,.45-1.17,.04-.04,0-.13,.04-.13,.31-.22,.22-.63,.45-.9,.22-.27,.27-.63,.4-.9,.04-.09,.09-.13,.09-.22,.05-.32,.14-.58,.36-.86,.18-.22,.32-.63,.04-.85,.09-.23,.18-.36,.27-.5,.13-.36,.27-.72,.45-1.04,.14-.27,.36-.63,.05-.95,.27-.4,.31-.5,.27-1.08l.45-1.26c.27-.04,.22-.27,.27-.41,.09-.54,.18-1.17,.45-1.66,.13-.18-.04-.45,.13-.63,.23-.72,.58-1.39,.77-2.11,.13-.45,.27-.9,.45-1.4,.09-.36,.27-.67,.45-.99,.18-.41,.27-.58,.27-1.08,.31-.32,.45-.72,.67-1.08,.36-.58,.58-1.21,.81-1.89,.09-.36,.36-.63,.63-.9,.18-.18,.41-.31,.5-.58,.36-.04,.45-.45,.76-.54,.32-.09,.58-.31,.95-.09,.04,.04,.13,.09,.18,.22,0,.09,.14,.23,.23,.32v.72c0,.18-.04,.36-.13,.54-.14,.27-.18,.58-.14,.95,.04,.4-.22,.76-.13,1.12-.13,.31-.31,.54-.36,.85-.04,.13-.09,.36-.22,.5-.27,.22-.41,.58-.54,.9-.13,.31-.31,.58-.58,.9-.09,.13-.13,.32-.22,.45-.09,.27-.23,.54-.45,.81-.36,.36-.67,.81-.99,1.31l-.67,.81c-.09,.13-.18,.32-.27,.5-.14,.31-.14,.67-.32,1.04-.13,.27-.09,.67-.27,.99-.04,.09,0,.23,0,.32,0,.41-.09,.76-.23,1.17,0,.09-.04,.13-.04,.18,.04,.81-.31,1.53-.22,2.38-.23,.54-.04,1.17-.13,1.8-.14,.54-.05,1.12-.14,1.66-.18,.81-.04,1.58-.13,2.34,0,.18,.09,.22,.13,.36,.14,.36,.14,.72,.23,1.04,.22,.63,.5,.9,1.12,.95,.18,.04,.27,.18,.45,.13h.54c.23-.18,.41-.36,.77-.36,.36-.36,.72-.76,1.17-1.12,.13-.13,.18-.36,.36-.58,.18-.09,.27-.27,.36-.45,.18-.27,.41-.54,.67-.81,.41-.36,.58-.85,1.04-1.26,0-.5,.54-.72,.54-1.17,.41-.41,.5-.99,.81-1.44,.09-.18,.18-.4,.18-.58,.09-.04,.13-.04,.18-.04l.85-.4Zm-7.42-8.5c.18,.04,.23,.04,.27,0,.27-.36,.67-.67,.85-1.08,.23-.45,.32-.9,.63-1.21,.31-.41,.49-.81,.76-1.26,.18-.27,.41-.5,.54-.77,.27-.5,.45-1.04,.18-1.62-.04-.13,0-.22,0-.36,.13-.41,.32-.81,.18-1.26-.36,.09-.63,.36-.9,.54-.09,.45-.41,.81-.58,1.3,.04,.04,.09,.09,.09,.13-.32,.58-.5,1.21-.72,1.8-.23,.67-.36,1.3-.67,1.89-.27,.58-.32,1.31-.63,1.89Z"/><path d="M105.39,125.36c0,.09-.18,.13-.18,.22-.04,.5-.31,1.31-.4,1.75-.09,.18-.09,.32-.14,.5,0,.18-.09,.36-.27,.45,.13,.36-.13,.63-.18,.99-.14,.18-.36,.36-.36,.67v.04c-.27,.41-.41,.9-.76,1.26-.27,.36-.67,.67-.86,1.12-.09,.13-.22,.13-.36,.22-.23,.09-.32,.27-.41,.5-.54,.23-1.04,.45-1.67,.5l-1.58-1.17c-.22-.13-.36-.31-.36-.54-.04-.31-.04-.67-.27-.94l-.04-.05c.04-.49-.27-.94-.18-1.44,.09-.54-.04-1.08,0-1.62s0-1.08,.13-1.62c.04,0,.04-.04,.04-.09-.09-.27,0-.54,.04-.81-.5,.99-.99,2.02-1.39,3.06-.77,1.49-1.58,2.97-2.61,4.23-.94,1.26-1.93,2.29-3.01,3.29-.13,.13-.27,.36-.41,.5-.67,.76-1.48,1.39-2.29,1.98-.76,.41-1.53,.77-2.29,1.12-1.44,.45-2.7,1.17-4.23,1.31-.9,.4-1.93,.76-2.97,.9-1.04-.18-2.16,0-3.2,0-1.12,.04-2.25-.31-3.24-.63-1.04-.41-2.03-.76-3.06-1.26-.76-.58-1.44-1.26-2.2-1.89-.63-1.04-1.35-2.12-1.98-3.2-.31-.67-.27-1.58-.41-2.21-.04-.22-.13-.58-.22-.85-.18-.41-.27-1.12-.32-1.62-.09-.41-.18-.81-.09-1.26-.04-.09,0-.18-.09-.32-.13-1.17-.04-2.21,.36-3.38,.4-1.12,.94-2.16,1.8-3.24,.36-.45,1.04-1.04,1.67-1.35,.45-.4,1.08-.58,1.44-.9,.86-.67,1.89-1.04,2.75-1.35,.99-.32,1.75-.23,2.66,.13,.09,.04,.22,.22,.27,.31,.09,.09,.09,.18,0,.18,0,.13-.18,.22-.18,.27-.13,.04-.23,0-.36-.04-.72-.32-1.58-.36-2.43-.18l-.63,.27c-.5,.09-.99,.32-1.35,.67l-1.94,1.12c-.54,.41-1.12,.86-1.67,1.49-.58,.76-1.04,1.84-1.44,2.79,.04,.27-.04,.4-.09,.58-.04,.54-.14,1.04-.18,1.53,.09,.54,.09,1.12,.09,1.8,.05,.27,.14,.45,.14,.77,.22,.67,.45,1.21,.63,1.75,.04,.67,.31,1.21,.67,1.75,0,.09,0,.18,.04,.27,.58,.9,1.44,1.49,2.03,2.39,.67,.85,1.48,1.57,2.29,2.25,.22,.18,.49,.36,.72,.5l2.25,.9c.63,.18,1.26,.36,1.93,.5,1.08,.04,2.16,.13,3.24,.13s2.25-.04,3.33-.27c.81-.18,1.49-.58,2.21-.9,.14,.04,.32,.09,.45,.04,0,0,.13,.04,.18-.04,.9-.36,1.75-.67,2.57-1.21,.81-.45,1.53-1.04,2.25-1.71,.76-.95,1.75-1.8,2.7-2.66,.5-.54,.9-1.12,1.35-1.62,.72-1.12,1.44-2.25,2.11-3.46,.36-.94,.99-1.71,1.35-2.7,.31-.63,.58-1.26,.85-1.89,.04-.4,.14-.81,.09-1.26,0-.31,.14-.63,.18-.94,.04-.27,.18-.5,.09-.77,0-.31,.13-.58,.22-.85,.04-.18,.04-.45,.18-.58,.04-.32-.14-.58,.13-.77l1.84-.27c.09,0,.22,.13,.32,.22,.04,.23-.14,.32-.18,.5-.04,.23-.18,.45-.13,.72,0,.09,0,.14-.04,.18-.27,.22-.22,.54-.22,.85,.04,.23-.05,.41-.09,.63,.04,.23,.14,.5,0,.72-.04,.22,.14,.45-.09,.63-.04,.04,0,.18,.04,.27,.04,.32,.04,.67-.09,.99-.04,.27-.04,.5-.04,.76,.09,.32-.13,.58,0,.9-.18,.13-.13,.31-.09,.45,.04,.18-.09,.31-.09,.49,.04,.27-.09,.5-.04,.72,.04,.27-.14,.45-.04,.72,.09,.13-.09,.18-.09,.31,0,.45-.18,.9-.09,1.35,0,.18-.18,.18-.09,.36,.09,.14-.09,.27-.09,.41,0,.18,.04,.32,.04,.5,0,.04,0,.09-.04,.18-.13,.36-.13,.72-.04,1.08,.09,.18,.31,.18,.41,.36,.45,.09,.76-.13,1.12-.27,.31-.09,.63-.22,.81-.54,.13-.13,.41-.13,.45-.36,.27,.04,.18-.32,.4-.36,.18-.04,.23-.36,.36-.54,.18-.13,.22-.31,.36-.5,.18-.27,.4-.58,.45-.94,.09-.23,.22-.41,.22-.63,.04-.14,.09-.27,.18-.41,.23-.45,.32-.99,.5-1.44,.04-.13,0-.27,.04-.4,.04-.04,.09-.13,.18-.23,0-.63,.23-.9,.14-1.21,.13-.04,.27,0,.36,0,.09,.09,.23,.18,.23,.36Zm-5.45-13.81c-.09-.41,.18-.76,.58-1.04,.14-.04,.23-.13,.32-.18,.18,.09,.45,.09,.58,.22l.41,.41c-.09,.22,.09,.45,.09,.67-.04,.22,.09,.41-.14,.67-.13,.18,.05,.45-.13,.67v.14c0,.54-.31,1.12-.36,1.67-.32,.18-.09,.49-.32,.67-.09,.13-.09,.4-.13,.63-.04,.18-.13,.31-.13,.5-.14,.04-.32,.04-.54-.14,.13-.27-.04-.67,.22-.99-.22-.18-.22-.36,0-.54-.18-.13-.09-.32-.09-.54-.04-.27,.09-.54-.04-.77-.09-.27,.09-.54-.04-.76-.18-.22,0-.5-.14-.67-.13-.18-.04-.45-.13-.63Z"/><path d="M221.53,126.04c.13,.09,.04,.27,.04,.4-.04,.04-.09,.13-.18,.18,0,.09,.04,.18,0,.22-.22,.41-.32,.9-.5,1.31l-.67,1.39c-.04,.09-.09,.22-.18,.27-.23,.04-.27,.27-.41,.36-.13,.13-.23,.27-.32,.41-.31,.36-.67,.63-1.03,.95-.32,.27-.77,.4-1.04,.76-.04,.09-.18-.04-.27,.04-.04,.09-.13,.13-.13,.22-.27,.09-.58,.14-.76,.36,0,.04-.04,.09-.09,.09-.5,.13-.9,.49-1.4,.58-.09,.13-.09,.36-.22,.45v1.71c0,.31,0,.63-.09,.95-.09,.27,.04,.63-.05,.95-.13,.49,0,1.04-.09,1.53-.09,.5,0,.99-.09,1.48-.09,.41-.04,.81-.27,1.22-.09,.09,0,.22-.04,.36,0,.13-.18,.22,0,.31v.04c-.23,.31-.14,.72-.32,1.08-.13,.22-.18,.5-.27,.77-.14,.45-.36,.9-.5,1.39-.18,.45-.32,.9-.58,1.35-.04,.04,0,.13-.04,.22-.18,.23-.45,.41-.68,.72-.09,.04-.22,.22-.49,.04-.14-.09-.32,.09-.5,.13-.09,.04-.18,.04-.23,.04-.13-.18-.36-.22-.45-.4-.09-.18-.23-.31-.36-.45,0-.09,0-.18-.04-.27-.09-.13-.18-.31-.13-.49,0-.09-.04-.22-.09-.32,0-.18-.18-.4-.09-.54,.09-.18,0-.45,.18-.59,0-.13-.14-.18-.14-.36,.04-.31,.04-.58,0-.9,0-.22,.18-.45,.14-.72-.04-.22-.04-.45,.09-.68,.04-.09,0-.27,0-.45,0-.27,0-.5,.13-.77,.13-.18,.18-.45,.18-.67v-.95c.14-.13,.14-.36,.23-.5,.09,.22,.09,.45,.27,.59,.09,.45-.22,.86-.09,1.3-.13,.04-.09,.22-.18,.27,.22,.36-.13,.63-.04,.99,.09,.04,.04,.27,0,.4-.14,.23-.09,.45-.09,.63-.05,.22,.04,.45-.09,.63-.04,.14-.09,.36,.09,.5-.23,.4,.04,.9-.18,1.3,.23,.22,.27,.59,.41,.9,.27,.13,.31,.58,.67,.67,.36-.27,.58-.58,.67-.94,.09-.27,.13-.54,.23-.77,.22-.45,.22-.95,.4-1.44,.04-.18-.04-.41,.04-.59,.09-.18,.09-.31-.04-.49,.23-.36,.09-.81,.27-1.17,.04-.04,.04-.13,.04-.18-.04-.54,.13-.99,.09-1.53-.04-.49,0-1.04,0-1.53,0-.13-.04-.27,.09-.4v-.09c-.22-.4,.09-.85,0-1.3-.04-.45,0-.94,0-1.39-.45,.31-.58,.45-.81,.86-.13,.22-.27,.49-.45,.67-.18,.23-.32,.5-.45,.72s-.18,.5-.27,.72c-.09,.13-.09,.27-.27,.31-.09,0,0,.22-.22,.18-.04-.09-.04-.27,0-.36,.22-.36,.27-.81,.5-1.17,.45-.72,.81-1.53,1.48-2.12,.23-.22,.32-.54,.58-.68v-1.12c.04-.13-.04-.31,.09-.45,.09-.04,.04-.18-.05-.27,0-.04,.05-.09,.09-.13,0-.27-.04-.59,.09-.9-.09-.54,.09-1.08,.09-1.62,.04-.27,.13-.54,.09-.81,0-.27,.18-.54,.13-.81,.14-.27,.09-.58,.09-.86-.04-.36,.14-.67,.09-.99,0-.36-.04-.72,0-1.08,.13-.63,.09-1.26,.09-1.89l-.09,.22c-.72,1.53-1.67,2.88-2.66,4.19-.9,1.26-1.84,2.34-2.88,3.38-.13,.13-.27,.36-.41,.49-.63,.81-1.44,1.44-2.25,2.07-.76,.4-1.48,.81-2.2,1.17-1.44,.49-2.66,1.3-4.19,1.48-.9,.45-1.93,.86-2.97,.99-1.04-.13-2.16,.09-3.19,.13-1.12,.04-2.25-.27-3.24-.54-1.04-.36-2.07-.68-3.1-1.12-.81-.59-1.53-1.21-2.29-1.85-.68-1.04-1.4-2.03-2.07-3.15-.36-.63-.32-1.53-.45-2.16-.09-.18-.18-.58-.27-.85-.23-.41-.32-1.12-.41-1.58-.09-.4-.18-.81-.13-1.26-.04-.09,0-.18-.09-.31-.18-1.17-.14-2.21,.22-3.38s.9-2.21,1.71-3.33c.36-.49,.99-1.04,1.62-1.44,.45-.36,1.04-.59,1.39-.95,.86-.67,1.84-1.08,2.7-1.39,.99-.36,1.75-.27,2.66,.04,.09,.04,.27,.22,.27,.31,.13,.04,.09,.18,.04,.18-.04,.09-.18,.18-.22,.23-.09,.09-.18,.04-.32-.04-.76-.27-1.62-.27-2.47-.04l-.58,.31c-.5,.04-.99,.27-1.35,.67l-1.89,1.17c-.54,.45-1.08,.9-1.58,1.58-.58,.81-.99,1.84-1.35,2.83,0,.27-.04,.41-.09,.59,0,.54-.09,1.04-.09,1.57l.13,1.76c0,.27,.13,.45,.18,.76,.18,.68,.45,1.17,.63,1.76,.09,.67,.36,1.17,.72,1.71,.04,.09,.04,.18,.09,.27,.58,.9,1.53,1.44,2.12,2.29,.72,.85,1.53,1.57,2.34,2.2l.81,.45c.72,.31,1.49,.54,2.25,.81,.63,.18,1.26,.31,1.93,.45,1.08,0,2.16,.04,3.24,0,1.12-.04,2.25-.13,3.33-.36,.76-.23,1.48-.63,2.16-.99,.14,.04,.32,.04,.45,.04,0-.04,.13,.04,.18-.09,.9-.36,1.71-.72,2.52-1.26,.81-.5,1.48-1.12,2.21-1.8,.72-.99,1.53-2.03,2.43-2.88,.5-.54,.85-1.22,1.3-1.67,.67-1.17,1.49-2.25,2.07-3.46,.31-.95,.81-1.85,1.12-2.79l.09-.23v-.04c0-.27,.09-.45,.13-.67,.09-.45,.09-.9,.36-1.3,.13-.27,.31-.5,.63-.5,.09,0,.09-.09,.18-.09,.23,.13,.41,.41,.45,.68,.04,.18-.04,.27-.04,.45,.04,.68,.04,1.35,0,2.03,0,.63-.09,1.26-.09,1.89s.04,1.26,0,1.84c-.04,.41-.09,.81-.09,1.21,0,.09-.09,.09-.09,.18,.04,.04,.14,.09,.09,.18-.18,.4-.14,.81-.09,1.17,.04,.58-.18,1.17-.13,1.75-.13,.36-.09,.68-.09,1.04,.04,.27-.09,.54-.09,.81v.81c0,.09,0,.18,.09,.23-.18,.13-.04,.31-.09,.49,.58-.18,1.08-.54,1.58-.77,.18-.09,.36-.18,.49-.27,.09-.09,.18-.04,.27-.13,.18-.31,.54-.45,.81-.63,.41-.31,.77-.58,1.17-.85,.14-.41,.54-.54,.68-.95,.4-.22,.49-.72,.81-.99,.04-.36,.18-.63,.36-.95,.13-.18,.18-.4,.13-.67,.22-.36,.27-.41,.31-.86,0-.04,.04-.13,.09-.22,.04-.09,.22-.23,.13-.41-.09-.13-.23-.36-.09-.54,.13-.18-.04-.45,.22-.54,.04,0,.04-.09-.13-.18h.4c-.09,.22,.09,.41,.09,.63-.04,.18-.14,.36-.14,.54,.04,.22-.09,.41-.13,.59Zm-6.97-12.15c-.45-.54-.27-1.12-.04-1.62,.18-.36,.41-.77,.9-.77,.09,.13,.22,.22,.36,.4,0,.05,.09,.18,.13,.32l-.09,.13c-.04,.13,.09,.13,.09,.27-.18,.13-.04,.4-.18,.59l-.36,.54c-.13,.09-.31,.13-.4,.27-.18-.09-.27-.13-.41-.13Z"/><g><path d="M140.77,159.43c.5,.32,1.66,.82,2.88,.82,2.26,0,2.96-1.44,2.94-2.52-.02-1.82-1.66-2.6-3.36-2.6h-.98v-1.32h.98c1.28,0,2.9-.66,2.9-2.2,0-1.04-.66-1.96-2.28-1.96-1.04,0-2.04,.46-2.6,.86l-.46-1.28c.68-.5,2-1,3.4-1,2.56,0,3.72,1.52,3.72,3.1,0,1.34-.8,2.48-2.4,3.06v.04c1.6,.32,2.9,1.52,2.9,3.34,0,2.08-1.62,3.9-4.74,3.9-1.46,0-2.74-.46-3.38-.88l.48-1.36Z"/><path d="M149.69,162.25l5.58-14.5h1.36l-5.6,14.5h-1.34Z"/><path d="M157.89,159.43c.5,.32,1.66,.82,2.88,.82,2.26,0,2.96-1.44,2.94-2.52-.02-1.82-1.66-2.6-3.36-2.6h-.98v-1.32h.98c1.28,0,2.9-.66,2.9-2.2,0-1.04-.66-1.96-2.28-1.96-1.04,0-2.04,.46-2.6,.86l-.46-1.28c.68-.5,2-1,3.4-1,2.56,0,3.72,1.52,3.72,3.1,0,1.34-.8,2.48-2.4,3.06v.04c1.6,.32,2.9,1.52,2.9,3.34,0,2.08-1.62,3.9-4.74,3.9-1.46,0-2.74-.46-3.38-.88l.48-1.36Z"/></g></g></g></g></svg>