<?xml version="1.0" encoding="UTF-8"?><svg xmlns="http://www.w3.org/2000/svg" viewBox="0 0 300 176"><defs><style>.d{fill:none;stroke:#fff;stroke-miterlimit:10;}</style></defs><g id="a"/><g id="b"><g id="c"><g><rect class="d" x=".5" y=".5" width="299" height="175" rx="20" ry="20"/><path d="M95.62,57.62c.04,.13-.31,1.17-.41,1.26-.22,.22-.22,.54-.36,.81-.18,.22-.32,.5-.45,.76-.36,.68-.76,1.26-1.21,1.8-.22,.31-.45,.67-.81,.9-.18,.04-.23,.32-.41,.36-.18,.36-.5,.36-.77,.31l-.22,.23h-.72c-.09-.04-.13-.14-.23-.23-.27,.09-.49-.09-.76-.22-.13-.18-.22-.41-.41-.63-.27-.27-.36-.58-.49-.9-.18-.5-.18-.94-.41-1.44-.09-.13,0-.32,0-.5-.27-.23-.18-.32-.32-.76-.13,0-.09-.36-.27-.5-.27,.18-.45,.4-.45,.63,0,.18-.13,.27-.13,.45,0,.09-.13,.22-.09,.36,0,.13-.04,.27-.09,.45-.05,.22-.05,.41-.18,.54-.09,.18,0,.41-.13,.54-.04,0,0,.09,0,.18-.36,.27-.63,.63-.76,1.17-.32,.27-.58,.72-1.08,.95-.23,.04-.5-.09-.81-.18-.27-.14-.49-.36-.9-.32-.18-.18-.36-.41-.58-.58,0-.13,.04-.22-.04-.27-.32-.32-.45-.77-.63-1.17-.09-.31-.27-.54-.36-.85-.09-.45-.18-.81-.18-1.26,0-.18,.04-.36-.14-.5,.05-.09,.09-.13,.14-.18-.04-.09-.09-.18-.09-.32t-.05,.09c-.09,.18-.13,.32-.18,.5,0,.18-.09,.36-.31,.45,.13,.36-.18,.63-.23,.99-.13,.18-.41,.36-.41,.67v.04c-.31,.41-.49,.9-.85,1.26-.32,.36-.72,.63-.95,1.08-.09,.13-.22,.13-.36,.22-.23,.09-.36-.04-.45,.18-.54,.22-1.08,.45-1.71,.45-.9,.14-.99-.49,0-.54,.32-.09,1.62-.36,1.84-.67,.13-.13,.41-.13,.45-.36,.27,.04,.22-.32,.45-.36,.18-.04,.22-.36,.4-.5,.18-.13,.23-.31,.36-.5,.22-.27,.45-.58,.54-.94,.09-.23,.22-.41,.27-.63,.05-.14,.09-.27,.18-.41,.27-.45,.41-.99,.63-1.44,.04-.13,0-.27,.04-.4l.22-.23c.04-.63,.27-.9,.23-1.21h.09l.13-.45c.04-.13,.04-.27,.04-.4-.04-.18,.09-.23,.09-.41,.04-.41,.23-.76,.41-1.21,.04-.18,.13-.36,.13-.54,.23-.13,.18-.36,.27-.54,.22-.36,.27-.72,.54-1.04,.5-.58,.85-1.21,1.39-1.71,.09-.04,.13-.09,.18-.09,.32-.18,.58-.31,.99-.5-.04-.13,.09-.22,.13-.27,.32,.22,.68,.04,1.04,.09,.5,.41,1.08,.72,1.49,1.17,.22-.18,.27-.45,.4-.72,.27-.58,.81-.77,1.4-.9,.13,.27,.5,.27,.58,.58,0,.04-.04,.09-.09,.13,.13,.14,.09,.27,.09,.41,.04,.32-.09,.67,.09,1.04,.04,.09-.04,.18-.09,.27,.13,.18,.09,.36,.09,.63,0,.18,.04,.41,0,.58-.04,.23-.09,.41-.09,.58s.09,.41-.09,.58c0,.05,.04,.09,.13,.14-.18,.13-.13,.36-.13,.54,0,.27-.04,.54,0,.81,.04,.27-.13,.41-.13,.63s.09,.41-.09,.63v.18c0,.67-.18,1.39-.09,2.16,0,.14-.09,.32-.04,.45,0,.18-.09,.27-.09,.45,.04,.13,.04,.31,.04,.45,0,.18,.04,.36-.04,.54-.18,.45-.04,.85-.09,1.26,0,.31,.27,.58,.27,.9,0,0-.13,0,.23,.23,.5-.13,0,.54,.85,.27,.04,0,.13-.13,.18-.13,.27-.09,.86-.54,1.04-.72,.95-.9,.99-.9,1.67-2.12,.27-.45,.54-.95,.86-1.44,.13-.27,.22-.63,.31-.95l.04-.18,.58-.09s-.04,.05-.09,.05Zm-7.78-5.9c-.18-.31-.32-.67-.41-.99-.04-.14-.18-.09-.22-.23-.18-.36-.5-.72-.9-.72-.04,0-.45-.13-.63-.09-.27,.09-.45,.36-.67,.72,.09,.32-.58,.54-.09,.76-.72,.23-.68,.54-.72,.81-.09,.54-.36,1.08-.31,1.71,.09,.09,.09,.13,0,.22-.13,.36-.04,.86-.18,1.21-.36,.9-.27,.67-.27,1.04,0,.18,.04,.36-.09,.45,.13,.13,0,.27,0,.41-.04,.31-.18,.54-.23,.76,0,.54-.27,1.04-.18,1.53,.09,.23-.09,.41,.09,.63l-.09,.09c-.09,.99-.04,1.75-.04,2.7,.45,.77,.95,.72,1.17,.86,.13,.09,.22,.04,.36,.04,.13-.13,.36-.27,.4-.58,.09-.27,.41-.32,.45-.54,.04-.18,.23-.27,.32-.41,.09-.18,.09-.4,.18-.58,.09-.18,.09-.4,.27-.54,0-.31,.04-.58,.09-.81,.04-.45,.18-.81,.27-1.26,.09-.54,.32-.99,.27-1.49,0-.09-.04-.13,0-.22,.22-.41,.27-.86,.31-1.35,.09-.49,.32-1.03,.36-1.57,.04-.23,.22-.45,.22-.77,0-.27,.18-.54,.18-.81-.09-.32-.18-.58,.09-.81v-.18Z"/><path d="M253.55,57.62c-.09,.22-.18,.85-.45,.99-.13,.77-.41,1.12-.72,1.71-.13,.32-.41,.54-.63,.86-.27,.27-.18,.58-.32,.94-.09,.18-.22,.09-.31,.23-.32,.31-.41,.58-.68,.9-.36,.5-1.08,.99-1.3,.9-.45-.67-.94-.18-1.58-.72-.49-.41-.72-.99-.99-1.58-.09-.13-.09-.36-.32-.41-.09,0-.18-.22-.18-.31,0-.58-.18-1.08-.36-1.58-.04-.13,0-.32,0-.45-.04-.22,.04-.54-.13-.81-.04-.09,0-.23,.09-.27-.18-.45-.04-.9-.13-1.44-.32,.54-.54,.99-.58,1.57-.13,.09-.27,.18-.32,.36-.04,.36-.22,.67-.4,.9-.18,.27-.18,.54-.36,.81-.13,.22-.18,.54-.22,.9-.04,.22-.18,.49-.36,.67-.27,.31-.41,.63-.5,1.04-.22,.72-.58,1.21-1.21,1.57-.31,0-.67-.04-.99,0-.36,0-.58-.31-.9-.09-.13-.27-.27-.45-.18-.72-.04-.09-.18-.04-.22-.09-.04-.18-.09-.41-.18-.54-.18-.27-.27-.58-.23-.95,0-.22-.13-.45-.18-.67s-.09-.5-.09-.67c.04-.32-.13-.5-.13-.77s.13-.54-.09-.76c.04-.5-.05-.94,.04-1.39,.13-.54,.09-1.12,.31-1.71-.04-.9,.27-1.71,.58-2.61,.18-.54,.41-1.04,.72-1.53h-.27c-2.29,.04-4.46-.23-6.79-.77-.58-.18-1.21-.22-1.84-.36-1.75-.32-3.33-.54-5-.9-1.48-.36-2.92-.67-4.32-1.12l-1.08-.13c-2.57-.5-5.08-1.26-7.56-2.07-1.35-.4-2.66-.85-4.05-1.12-1.17-.27-2.38-.45-3.6-.81-.9-.22-1.84-.22-2.83-.36-.95,0-1.85-.04-2.83-.04h-.81c-1.39,.18-2.83,.23-4.14,.32-1.67,.22-3.15,.76-4.63,1.53l-1.62,.9-.18,.32-2.38,1.3c-.67,.5-1.26,1.08-1.8,1.62-.9,1.03-1.85,2.02-2.75,3.19-.9,1.08-1.58,2.34-2.07,3.74-.18,.45-.31,.94-.5,1.44-.58,1.8-.13,6.25,.54,7.79,.23,.58,.45,1.17,.86,1.67,.36,.45,.58,.99,.94,1.53,.18,.23,.32,.45,.5,.63,.45,.41,.9,.81,1.21,1.17,.45,.32,.86,.58,1.26,.9,.18,.09,.31,.13,.49,.27,.99,.32,2.03,.63,3.06,.68,.76,0,1.44-.18,2.11-.36l2.07-.76c.54-.09,1.08-.36,1.49-.72l.58-.36c.81-.54,1.44-1.31,1.8-2.16,.04-.13,.09-.22,.22-.32,.04-.04,.23-.09,.32-.04,.04,0,.13,.04,.13,.18,0,.09,0,.36-.04,.45-.45,.99-.95,1.71-1.84,2.34-.86,.54-1.8,1.08-2.88,1.35-.5,.09-.99,.41-1.58,.54-.67,.27-1.53,.45-2.12,.4-1.35,0-2.47-.22-3.6-.58-1.08-.45-1.93-1.08-2.7-1.93-.04-.13-.13-.18-.18-.27-.32-.23-.63-.5-.85-.86-.32-.36-.77-.85-.99-1.26-.13-.27-.32-.54-.5-.72-.36-.5-.67-1.08-.95-1.71-.4-1.17-.76-2.38-1.12-3.6v-.32l-.04-.99v-.4c0-.81,.09-1.58,.36-2.34,.41-1.48,1.04-2.92,1.8-4.32,.45-.76,1.12-1.44,1.62-2.03,.41-.36,.72-.72,.94-1.12,.86-1.08,1.94-1.98,3.11-2.7,.76-.67,1.58-1.26,2.47-1.71,1.12-.67,2.21-1.3,3.42-1.84,1.44-.77,2.97-1.12,4.59-1.21,.72,0,1.58-.18,2.38-.23,.9-.09,1.84-.09,2.75-.09,1.49,0,2.79,0,4.18,.13,.45,.09,.86,.18,1.21,.32,.95,.22,1.85,.5,2.7,.67,1.3,.36,2.47,.67,3.78,1.08,1.3,.45,2.56,.85,3.91,1.17,.36,.04,.81,.22,1.12,.31,.27,.04,.63,.18,.86,.18,.85,.04,1.53,.36,2.34,.58,.36,.13,.76,.18,1.21,.22,.72,.18,1.49,.45,2.29,.58,1.49,.45,2.97,.86,4.5,.99,.4,0,.9,.04,1.21,.13,1.62,.36,3.33,.63,4.95,.95,1.04,.18,2.03,.22,3.11,.4h2.43l.27-.36c.31-.5,.81-.9,1.39-1.17,.41-.18,.81-.5,1.3-.58,.09,0,.18-.04,.27-.04h1.04c.18-.04,.31,.04,.4,.09,.18,0,.41,.09,.54,.36,.13,1.26-1.21,2.79-1.62,2.48-.45-.32-1.17-.23-1.84-.13-.04,.13-.13,.27-.18,.4-.09,.18-.23,.32-.27,.5,0,.22-.04,.41-.18,.58-.18,.22,.09,.5-.13,.67-.04,.5-.23,.9-.27,1.31-.04,.54-.22,1.12-.27,1.66-.04,.23-.13,.36-.13,.58,.04,.58-.18,1.17-.14,1.8,0,.04-.09,.13-.13,.22,.18,.13,.23,.41,.13,.5-.18,.27-.09,.54-.09,.76-.04,.36-.04,.63,0,.95,0,.18-.27,.27-.13,.45,.18,.31,.09,.67,.13,1.08,.04,.09,.09,.14,.18,.18h.36c.41,0,.67-.18,.81-.63,0-.14,.04-.27,.13-.41,.27-.45,.5-.99,.81-1.53,.18-.36,.32-.76,.45-1.17,.04-.04,0-.13,.04-.13,.32-.22,.22-.63,.45-.9,.22-.27,.27-.63,.41-.9,.04-.09,.09-.13,.09-.22,.04-.32,.13-.58,.36-.86,.18-.22,.32-.63,.04-.85,.09-.23,.18-.36,.27-.5,.13-.36,.27-.72,.45-1.04,.13-.27,.36-.63,.04-.95,.27-.4,.31-.5,.27-1.08l.45-1.26c.27-.04,.22-.27,.27-.41,.09-.54-.13-.13,.14-.63,.31-.4,2.07-1.75,2.07-.4-.13,.31-.13,.67-.31,1.03-.13,.27,.22-.36,.04-.04-.04,.09,0,.23,0,.32,0,.41-.09,.76-.23,1.17,0,.09-.04,.13-.04,.18,.04,.81-.31,1.53-.22,2.38-.22,.54-.04,1.17-.13,1.8-.13,.54-.04,1.12-.13,1.66-.18,.81-.05,1.58-.14,2.34,0,.18,.09,.22,.14,.36,.13,.36,.13,.72,.22,1.04,.22,.63,.5,.9,1.12,.95,.09,.04,.31,.04,.41,.09,.22-.18,.4-.32,.72-.32,.36-.36,.54-.81,.99-1.17,.13-.13,.18-.36,.36-.58,.18-.09,.36-.27,.36-.45,0-.27-.04-.54,.22-.81,.41-.36,.67-1.58,.9-1.98h.63Zm-11.02-6.44c.76-.04,1.48-.04,2.07-.09,.18-.04,.36-.67,.09-.94v-.05c-.22-.22-.49-.09-.72,0-.54,.23-1.08,.41-1.39,.99,0,.04-.04,.04-.04,.09Z"/><path d="M116.07,126.89c-.09,.22-.18,.85-.45,.99-.13,.77-.4,1.12-.72,1.71-.13,.32-.41,.54-.63,.86-.27,.27-.13,.58-.27,.94-.09,.18-.22,.09-.31,.23-.32,.31-.45,.58-.72,.9-.36,.5-1.08,.99-1.31,.9-.45-.67-.94-.18-1.57-.72-.5-.41-.72-.99-.99-1.58-.09-.13-.09-.36-.32-.41-.09,0-.18-.22-.18-.31,0-.58-.18-1.08-.36-1.58-.04-.13,0-.32,0-.45-.04-.22,.04-.54-.13-.81-.04-.09,0-.23,.09-.27-.18-.45-.04-.9-.13-1.44-.31,.54-.54,.99-.58,1.57-.13,.09-.27,.18-.31,.36-.05,.36-.23,.67-.41,.9-.18,.27-.18,.54-.36,.81-.13,.22-.18,.54-.22,.9-.04,.22-.18,.49-.36,.67-.27,.31-.41,.63-.5,1.04-.22,.72-.58,1.21-1.21,1.57-.31,0-.67-.04-.99,0-.36,0-.59-.31-.9-.09-.13-.27-.27-.45-.18-.72-.04-.09-.18-.04-.23-.09-.04-.18-.09-.41-.18-.54-.18-.27-.27-.58-.22-.95,0-.22-.14-.45-.18-.67s-.09-.5-.09-.67c.04-.32-.13-.5-.13-.77s.13-.54-.09-.76c.04-.5-.04-.94,.04-1.39,.13-.54,.09-1.12,.31-1.71-.04-.9,.27-1.71,.58-2.61,.32-.9,.81-1.8,1.4-2.56,.31-.5,.81-.9,1.39-1.17-2.02,.18-3.96,.76-5.94,1.35-.18-.04-.41,.04-.58,.04-.36,.23-.72,.32-1.08,.5-.13,.04-.22,.13-.36,.18-3.91,1.17-7.65,2.97-11.34,4.5-1.4,.41-2.79,.99-4.14,1.49-1.62,.4-3.33,.54-4.95,.63-1.53,.13-2.97,.09-4.41-.04l-.63,.04c-1.04,0-2.02-.18-3.06-.41l-2.34-.94c-1.31-.77-2.66-1.22-3.83-2.25-.85-.41-1.89-.95-2.66-1.62-.58-.9-1.44-1.62-2.16-2.43-.77-.81-1.26-1.85-1.67-2.83-.41-.99-.76-2.03-1.12-3.11-.09-.99-.04-1.93-.09-2.92,.4-1.12,.67-2.38,1.08-3.6,.27-.67,1.03-1.21,1.35-1.75,.18-.18,.36-.45,.5-.72,.22-.45,.67-.95,1.04-1.35,.18-.36,.49-.63,.85-.9,.04-.09,.13-.14,.13-.27,.77-.9,1.67-1.53,2.75-2.02,1.17-.45,2.25-.72,3.64-.77,.58-.09,1.49,.04,2.16,.27,.58,.09,1.08,.41,1.62,.45,1.08,.22,2.03,.72,2.83,1.17,.9,.54,1.35,1.21,1.67,2.07,.04,.09,0,.32-.04,.41,0,.13-.09,.18-.14,.13-.09,.09-.27,.04-.31,.04-.13-.09-.13-.18-.18-.31-.27-.77-.81-1.44-1.53-1.89l-.63-.31c-.36-.32-.86-.54-1.44-.58l-2.07-.67c-.72-.14-1.4-.27-2.21-.23-1.04,.09-2.07,.45-3.06,.81-.23,.18-.36,.22-.54,.31-.36,.36-.81,.58-1.26,.95-.32,.36-.77,.81-1.22,1.21-.18,.18-.31,.41-.54,.67-.31,.54-.54,1.08-.9,1.58-.41,.5-.67,1.08-.86,1.67l-.13,.22c-.31,1.08-.09,2.07-.36,3.15-.27,1.03-.27,2.11-.23,3.15l.13,.9c.27,.81,.54,1.53,.86,2.25,.27,.63,.54,1.21,.9,1.75,.68,.9,1.35,1.75,2.07,2.56,.76,.81,1.53,1.58,2.43,2.25,.72,.5,1.44,.76,2.16,1.08,.09,.13,.18,.27,.27,.36,.05,0,.09,.13,.18,.04,.81,.49,1.67,.9,2.56,1.17,.95,.27,1.84,.4,2.79,.5,1.26-.05,2.52-.09,3.78,.04,.72,0,1.44-.14,2.11-.09,1.35-.22,2.7-.31,4-.63,.95-.36,1.94-.54,2.88-.9,.99-.32,1.89-.58,2.88-.86,1.53-.63,3.02-1.21,4.5-1.84,1.53-.63,3.01-1.26,4.59-1.89,.54-.18,1.08-.32,1.62-.54,.76-.23,1.44-.36,2.12-.54,1.3-.45,2.65-.67,3.96-.99,.41-.09,.9-.04,1.26-.18,.54-.09,1.17-.04,1.71-.09,.04-.04,.13-.04,.18-.04h1.04c1.35,.36,1.08,1.53,.5,1.8-.54-.04-.5-.72-.54-.77-.23-.22-.5-.09-.72,0-.54,.23-1.08,.41-1.39,.99-.22,.36-.36,.81-.54,1.17-.09,.18-.22,.32-.27,.5,0,.22-.05,.41-.18,.58-.18,.22,.09,.5-.13,.67-.04,.5-.22,.9-.27,1.31-.05,.54-.23,1.12-.27,1.66-.04,.23-.13,.36-.13,.58,.04,.58-.18,1.17-.13,1.8,0,.04-.09,.13-.14,.22,.18,.13,.23,.41,.14,.5-.18,.27-.09,.54-.09,.76-.04,.36-.04,.63,0,.95,0,.18-.27,.27-.13,.45,.18,.31,.09,.67,.13,1.08,.05,.09,.09,.14,.18,.18h.36c.41,0,.68-.18,.81-.63,0-.14,.04-.27,.13-.41,.27-.45,.5-.99,.81-1.53,.18-.36,.32-.76,.45-1.17,.04-.04,0-.13,.04-.13,.32-.22,.23-.63,.45-.9,.22-.27,.27-.63,.41-.9,.04-.09,.09-.13,.09-.22,.04-.32,.13-.58,.36-.86,.18-.22,.31-.63,.04-.85,.09-.23,.18-.36,.27-.5,.13-.36,.27-.72,.45-1.04,.13-.27,.36-.63,.04-.95,.27-.4,.31-.5,.27-1.08l.45-1.26c.27-.04,.23-.27,.27-.41,.09-.54-.14-.13,.13-.63,.31-.4,2.07-1.75,2.07-.4-.13,.31-.13,.67-.31,1.03-.13,.27,.22-.36,.04-.04-.04,.09,0,.23,0,.32,0,.41-.09,.76-.22,1.17,0,.09-.04,.13-.04,.18,.04,.81-.32,1.53-.23,2.38-.22,.54-.04,1.17-.13,1.8-.13,.54-.04,1.12-.13,1.66-.18,.81-.04,1.58-.14,2.34,0,.18,.09,.22,.14,.36,.13,.36,.13,.72,.22,1.04,.22,.63,.5,.9,1.12,.95,.09,.04,.32,.04,.41,.09,.22-.18,.4-.32,.72-.32,.36-.36,.54-.81,.99-1.17,.13-.13,.18-.36,.36-.58,.18-.09,.36-.27,.36-.45,0-.27-.04-.54,.22-.81,.41-.36,.68-1.58,.9-1.98h.63Z"/><path d="M254.96,119.87c0,.09-.31,0-.31,.14-.36,.18-.41,.58-.67,.81-.32,.13-.86,.41-1.12,.81,0,0-.14-.13-.23,0-.63,.45-1.26,.77-2.02,.99-.36,.09-.77,.09-1.12-.09-.58,.45-1.26,.18-1.89,.27-.04,.04-.09,.13-.22,.18-.04,.4,.09,.81-.09,1.17-.04,.22-.04,.54,.09,.81,.18,.27-.04,.58-.13,.86-.04,.31-.04,.63-.09,.99-.32,.36-.41,.68-.27,.99-.04,.41-.27,.77-.4,1.12,0,.13-.09,.22-.05,.32,.05,.27-.04,.49-.13,.72-.22,.41-.27,.81-.36,1.21-.09,.18-.32,.31-.36,.59-.27,.58-.63,1.17-1.17,1.66-.22,0-.41-.04-.54,.09-.22-.04-.5-.18-.72-.27-.36-.13-.86-.18-.9-.72,0-.13-.09-.13-.18-.18-.18-.22-.36-.45-.36-.81,.09-.14-.09-.23-.09-.27-.45-.45-.41-1.04-.36-1.53,0-.18,0-.4-.04-.59-.09-.36-.09-.76-.09-1.12-.04-.45,.09-.9-.09-1.3-.04-.09,0-.18,.04-.27,.04-.13,.04-.27,.04-.4-.09-.95,.13-1.94,.09-2.93,.23-.45,.04-.95,.18-1.39,.13-.72,.09-1.39,.09-2.12,0-.22,.18-.36,.13-.58-.04-.18-.09-.36,.09-.54,.09,0,0-.04,0-.09-.04-.86,.27-1.71,.13-2.61,0-.04-.04-.04-.13-.09l.23-.63c-.41-1.39-2.03-.67-3.06-.58-.54,.04-1.08,0-1.67,.04-2.29,.18-4.45,0-6.79-.41-.63-.13-1.26-.18-1.89-.27-1.75-.22-3.33-.36-5.04-.63-1.49-.27-2.92-.54-4.37-.9l-1.08-.09c-2.56-.36-5.13-.99-7.65-1.67-1.4-.31-2.7-.72-4.09-.9-1.21-.23-2.43-.32-3.65-.63-.9-.18-1.84-.13-2.83-.22-.95,.04-1.85,.04-2.83,.13l-.81,.04c-1.39,.22-2.83,.36-4.14,.49-1.67,.32-3.1,.95-4.54,1.8l-1.58,.99-.18,.31-2.29,1.39c-.63,.54-1.21,1.17-1.71,1.76-.85,1.08-1.75,2.12-2.56,3.33-.86,1.12-1.44,2.38-1.89,3.82l-.4,1.44c-.5,1.85,.18,6.26,.94,7.79,.27,.54,.5,1.12,.95,1.62,.36,.41,.63,.95,1.04,1.44,.18,.22,.31,.45,.5,.63,.49,.36,.94,.77,1.3,1.08,.45,.31,.85,.54,1.3,.86,.18,.09,.32,.09,.5,.22,.99,.27,2.07,.54,3.1,.54,.77-.04,1.4-.27,2.07-.5l2.03-.86c.54-.13,1.08-.4,1.44-.81l.58-.41c.76-.54,1.35-1.35,1.67-2.25,.04-.13,.09-.22,.22-.31,.04-.04,.23-.09,.32-.04,.04,0,.13,.04,.13,.18,0,.09,.04,.36,0,.45-.41,.99-.85,1.75-1.75,2.43-.81,.58-1.71,1.17-2.79,1.48-.5,.13-.94,.45-1.53,.63-.68,.31-1.53,.54-2.12,.49-1.35,.09-2.47-.09-3.6-.36-1.12-.41-1.98-.99-2.79-1.8-.09-.13-.18-.18-.23-.27-.31-.22-.63-.45-.9-.81-.32-.36-.81-.81-1.04-1.21-.13-.27-.36-.49-.54-.67-.41-.5-.72-1.04-1.04-1.67-.45-1.17-.9-2.34-1.3-3.55v-.31l-.13-.99v-.4c-.04-.81,0-1.58,.22-2.34,.32-1.49,.9-2.97,1.58-4.41,.41-.77,1.04-1.49,1.53-2.12,.36-.36,.67-.77,.85-1.17,.81-1.12,1.84-2.07,2.97-2.84,.72-.72,1.53-1.35,2.38-1.84,1.08-.72,2.12-1.44,3.33-2.03,1.4-.86,2.88-1.26,4.5-1.44,.72-.04,1.58-.27,2.38-.36,.9-.13,1.84-.18,2.75-.22,1.48-.09,2.79-.18,4.18-.09,.45,.04,.86,.13,1.21,.22,.95,.18,1.89,.41,2.75,.54,1.3,.31,2.52,.54,3.83,.9,1.3,.36,2.61,.72,3.96,.94,.36,.04,.81,.18,1.17,.27,.27,.04,.63,.13,.85,.13,.86,0,1.53,.27,2.34,.45,.36,.13,.76,.13,1.26,.18,.72,.13,1.49,.36,2.29,.45,1.53,.36,3.01,.72,4.54,.76,.41-.04,.9,0,1.21,.04,1.67,.27,3.38,.45,5,.72,1.04,.09,2.02,.09,3.15,.22,1.58-.04,5.17-.36,6.93-.54v-.59c.18-.31,.18-.72,.32-1.12,0-.04,.04-.18,.04-.27l.36-.95c0-.36,.22-.67,.27-1.04,0-.04,.09-.09,.09-.13-.04-.31,.09-.63,.14-.86,.09-.27,.09-.58,.22-.81,.09-.13,0-.36,.04-.54,.13-.54,.41-.9,.58-1.44,.18-.77,.63-1.44,1.04-2.16,.41-.63,.94-1.12,1.53-1.71,.36,0,.72-.13,1.17-.22,.13,.04,.27,.13,.4,.18,.18,.13,.27,.18,.32,.36,.09,.27,.36,.45,.4,.77,0,.09,.05,.18,.09,.36,0,.13,0,.27,.09,.49,.13,.32-.09,.63-.13,.95-.14,.41-.09,.95-.27,1.44-.13,.23-.22,.41-.27,.63,0,.22,0,.45-.14,.68-.09,.22-.13,.45-.13,.63,0,.5-.18,.63-.5,.9-.36,.27-.04,.77-.4,1.04-.05,.04-.09,.13-.09,.22-.31,.63-.31,.22-.58,.86-.09,.13-.13,.31-.18,.4-.09,.22-.31,.5-.58,.63-.04,.04-.18,.18-.18,.27-.81,.77-1.35,1.66-1.71,2.74,.09,.04,.13,.04,.18,.13-.22,.14-.22,.41-.18,.63,.09,.36-.09,.63-.13,.99,0,.22,.13,.58-.09,.86v.09c.09,.76-.22,1.48-.18,2.25,.09,.36-.13,.67-.09,.99,.04,.36,.04,.72,0,1.04-.13,.41-.04,.77-.13,1.17-.14,.77-.27,1.53-.23,2.29,0,.04-.09,.09-.13,.18,0,.14,.22,.23,.13,.36-.18,.36-.09,.72-.13,1.04-.04,.45-.13,.9-.09,1.44v1.39c0,.09-.09,.09-.13,.18,.13,.32,.22,.68,0,1.04,.13,.45,.22,.9,.22,1.35h.67c.09-.04,.18-.18,.32-.22,.4-.27,.76-.81,.85-1.35,.14-.31,.27-.63,.36-.95,.09-.27,.22-.45,.18-.72,.23-.27,.23-.72,.45-.99,.04-.27,0-.5,.09-.68s-.04-.45,.18-.58c.05-.45,.18-.9,.27-1.35,.13-.76,.04-1.53,.09-2.25,0-.18,.04-.27,.09-.36,0-.04,.04-.09,0-.09-.13-.13-.09-.31-.09-.49-.72-.59-1.17-1.3-1.84-1.98,.09-.31-.23-.45-.36-.59-.04-.22,.04-.4-.13-.54,.18-.13,.09-.31,.13-.49,.13-.14,.27-.23,.41-.41,.22,0,.45-.18,.72-.13h.77c.18,.22,.45,.36,.45,.72,.36,.13,.23,.49,.32,.67,.22,.45,.31,.99,.54,1.44,.31,.04,.58,.13,.85,.22,.27,.09,.63-.09,.9,.13,.27-.27,.63,0,.81-.27,.13,.04,.18,.09,.27,.18,.36-.22,.81-.22,1.17-.41,.36-.18,1.04-.49,1.39-.63,.41-.31,.77-.68,1.08-.9h.36c.09,.09,.22,.18,.36,.36Zm-9.9-8.5c-.31,.36-.09,.72-.13,1.04,.22-.09,.22,0,.36-.13,.49-.54,.4-.22,.99-1.04,.27-.36,.27-.86,.58-1.08,0-.27,.23-.36,.32-.45,.18-.14-.04-.36,.09-.45,.18-.18,.09-.4,.31-.45,0-.41,.23-.72,.14-.99,.13-.4,.27-.68,.31-.81,.14-.18,.14-.45,.23-.67,.09-.36,.31-.72,.4-1.08,.04-.27-.09-.5,.09-.68v-.49c.04-.18-.14-.32-.09-.41,.23-.22-.09-.31-.04-.45,.04-.18-.04-.31-.09-.45-.09-.18-.22-.23-.36-.41-.05,.18-.23,.13-.27,.22-.45,.45-.99,.99-1.12,1.67-.22,.22-.22,.49-.36,.77l-.13,.85c-.09,.22-.09,.54-.27,.81-.13,.22-.23,.54-.23,.86,.04,.22,0,.49-.09,.72-.18,.27-.13,.54-.18,.77,0,.09,.04,.27,0,.36-.13,.18-.09,.41-.09,.54,.04,.27-.13,.4-.13,.67,.09,.63-.32,.09-.23,.77Z"/><g><path d="M144.17,150.09h-.04l-2.26,1.22-.34-1.34,2.84-1.52h1.5v13h-1.7v-11.36Z"/><path d="M149.69,162.25l5.58-14.5h1.36l-5.6,14.5h-1.34Z"/><path d="M157.89,159.43c.5,.32,1.66,.82,2.88,.82,2.26,0,2.96-1.44,2.94-2.52-.02-1.82-1.66-2.6-3.36-2.6h-.98v-1.32h.98c1.28,0,2.9-.66,2.9-2.2,0-1.04-.66-1.96-2.28-1.96-1.04,0-2.04,.46-2.6,.86l-.46-1.28c.68-.5,2-1,3.4-1,2.56,0,3.72,1.52,3.72,3.1,0,1.34-.8,2.48-2.4,3.06v.04c1.6,.32,2.9,1.52,2.9,3.34,0,2.08-1.62,3.9-4.74,3.9-1.46,0-2.74-.46-3.38-.88l.48-1.36Z"/></g></g></g></g></svg>