<?xml version="1.0" encoding="UTF-8"?><svg xmlns="http://www.w3.org/2000/svg" viewBox="0 0 300 176"><defs><style>.d{fill:none;stroke:#fff;stroke-miterlimit:10;}</style></defs><g id="a"/><g id="b"><g id="c"><g><rect class="d" x=".5" y=".5" width="299" height="175" rx="20" ry="20"/><path d="M89.59,66.85c-.18,0-.36-.05-.54,0h-.36c-.23-.05-.45-.09-.68-.09-.58-.13-1.12-.18-1.66-.4-.58-.27-1.17-.5-1.75-.77-.09-.04-.18-.09-.23-.13l-.99-.58c-.67-.41-1.3-.76-1.89-1.26s-1.21-.95-1.8-1.49c-.32-.22-.58-.54-.81-.85-.18-.27-.41-.54-.63-.76-.09-.14-.23-.18-.41-.14l-1.17,.14c-.72,.09-1.49,.09-2.12-.32-.5-.09-.81-.41-1.12-.72-.31-.36-.58-.77-.63-1.26,0-.23-.09-.45-.13-.68l-.13-.4c-.04-.14-.09-.23-.23-.32-.18-.09-.41-.18-.58-.31-.45-.23-.9-.45-1.35-.72-.13-.04-.27-.13-.36-.22-.31-.36-.58-.67-.9-.99-.32-.31-.5-.72-.77-1.08-.4-.54-.67-1.12-.67-1.84v-.36c-.04-.68,.13-1.26,.5-1.8,.09-.13,.22-.27,.32-.45,.22-.41,.54-.77,.85-1.08,.18-.23,.41-.41,.58-.58,.22-.23,.5-.23,.76-.36,.63-.41,1.31-.67,2.03-.76,.09,0,.18-.04,.27-.04,.72-.23,1.44-.23,2.21-.14,.58,.05,1.21,.18,1.84,.18,.09,0,.14,.04,.23,.04,.31,.13,.67,.18,.99,.31,.63,.27,1.26,.36,1.89,.58,.27,.14,.63,.18,.94,.27,.63,.18,1.26,.41,1.89,.63,.36,.13,.72,.27,1.04,.5,.13,.09,.31,.18,.45,.22,.23,.09,.45,.04,.63-.09,.45-.41,.9-.76,1.35-1.12,.09-.04,.18-.13,.31-.18,.18-.13,.41-.23,.58-.36,.27-.18,.58-.36,.9-.5,.27-.13,.58-.22,.85-.36,.41-.23,.9-.41,1.4-.5,.31-.04,.63-.18,.9-.32l.54-.27c.23-.09,.45-.13,.67-.13,.63-.05,1.26,0,1.89-.14,.27-.04,.54-.04,.76,.09,.27,.18,.54,.23,.76,.32,.27,.13,.54,.22,.77,.36,.18,.09,.36,.13,.54,.27,.45,.32,.9,.58,1.35,.95,.32,.31,.58,.58,.85,.94l.9,1.31c.63,.94,1.21,1.93,1.67,3.01,.36,.99,.67,1.93,.54,3.01,.04,.13,.04,.27,.04,.45,.04,.54,0,1.04-.13,1.58-.04,.18-.09,.36-.09,.58-.09,.5-.18,1.03-.45,1.48-.09,.23-.13,.45-.23,.63-.22,.41-.36,.81-.63,1.12-.45,.63-.94,1.21-1.44,1.85-.36,.4-.77,.72-1.17,1.03-.58,.45-1.12,.95-1.71,1.35-.67,.4-1.35,.76-2.07,1.08-.67,.22-1.35,.45-2.02,.49-.23,0-.41,.04-.63,.09-.14,0-.27,.04-.45,.04-.67,0-1.4-.04-2.07-.04Zm-14.53-10.75s.13-.13,.09-.18c-.04-.32-.04-.68-.27-.99-.09-.09-.14-.23-.18-.32-.45-.85-.54-1.71-.4-2.61v-.23c0-.36,.13-.67,.31-.94,.09-.09,.18-.18,.23-.32,.13-.36,.45-.58,.72-.81,.13-.13,.36-.09,.45,.04,.04,.04,.09,.09,.09,.13,.13,.27,.22,.54,.45,.76,.09,.14,.13,.32,0,.5-.18,.23-.36,.45-.63,.63-.31,.23-.58,.54-.72,.95-.04,.13-.09,.22-.09,.36,0,.9,.09,1.75,.54,2.56,.13,.13,.32,.22,.54,.18,.54-.22,1.04-.49,1.53-.85,.22-.18,.49-.36,.76-.58,.18-.13,.36-.32,.54-.5,.27-.27,.54-.54,.85-.76,.45-.36,.9-.72,1.31-1.08l1.75-1.58c.18-.18,.4-.31,.63-.54,.13-.09,.27-.22,.36-.36,.04-.05,.04-.23,0-.27-.09-.04-.13-.09-.18-.13-.22-.09-.41-.23-.63-.27-.18-.09-.41-.18-.63-.22-.5-.13-.99-.36-1.49-.5-1.08-.31-2.16-.67-3.24-.99-.32-.09-.63-.18-.95-.22-.67-.04-1.35-.13-2.03-.18-.18,0-.36,0-.58-.04l-.9,.13c-.27,.09-.54,.18-.81,.18-.14,0-.27,.09-.45,.13-.18,.04-.36,.14-.54,.23-.23,.09-.45,.13-.67,.31-.04,.09-.14,.14-.23,.18-.36,.13-.67,.36-.9,.63-.5,.54-.9,1.08-1.26,1.71-.13,.22-.22,.5-.27,.76v.45c0,.09,.04,.13,.04,.22,0,.58,.27,1.08,.58,1.53,0,.04,.04,.09,.04,.13,.23,.54,.67,.95,1.08,1.35,.22,.27,.58,.41,.9,.63,.09,.09,.18,.09,.27,.18,.32,.31,.76,.41,1.21,.58,.13,.04,.32,0,.5,.04,.13,0,.27-.04,.36,0,.54,.22,1.08,.18,1.62,.09,.09,0,.23-.04,.27-.13Zm2.34,3.42c.04-.23-.04-.36-.13-.5l-.32-.45c-.31-.45-.67-.85-.94-1.35-.09-.13-.27-.23-.45-.23-.32,0-.58,0-.9,.05-.27,.04-.58,.09-.9,0-.18-.05-.32,0-.5,.04-.13,.09-.23,.18-.23,.31,0,.63,.18,1.17,.68,1.58,.31,.22,.58,.5,.94,.63,.81,.36,1.62,.31,2.48,.09l.27-.18Zm2.79-1.21c.54-.32,1.04-.63,1.53-1.04,.09-.04,.18-.13,.31-.18,.27-.14,.5-.32,.72-.5l1.21-.81c.77-.54,1.49-1.03,2.29-1.53l1.85-1.04,.31-.18c.23-.18,.5-.36,.76-.45,.09-.04,.14-.09,.18-.13,.13-.05,.13-.23,0-.32-.18-.13-.36-.27-.54-.36-.18-.13-.36-.22-.54-.31-.63-.41-1.3-.81-2.03-1.12-.18-.09-.36-.18-.58-.13-.18-.04-.31,0-.45,.13l-.86,.72c-.41,.36-.76,.67-1.17,.99-.31,.22-.58,.45-.9,.72-.63,.5-1.22,.99-1.89,1.44-.4,.31-.85,.63-1.26,.99-.63,.54-1.35,.9-2.12,1.21l-.54,.27c-.09,.04-.18,.22-.09,.31,.04,.14,.09,.23,.18,.36,.31,.45,.63,.95,.99,1.39,.04,.14,.18,.23,.27,.32,.22,.18,.45,.27,.72,.09,.54-.27,1.08-.54,1.62-.85Zm10.93,7.87c.27,.04,.58,.04,.9-.04,.14-.04,.27-.04,.45-.09,.63-.04,1.3-.18,1.94-.5,.13-.04,.31-.09,.49-.18,.58-.22,1.17-.58,1.71-.9,.23-.09,.36-.27,.54-.4,.32-.18,.58-.5,.95-.63,.5-.45,1.04-.86,1.49-1.4,.4-.5,.81-1.04,1.26-1.58,.22-.31,.5-.63,.54-1.03,.04-.18,.13-.36,.22-.5,.22-.41,.36-.81,.41-1.26,.09-.32,.09-.68,.18-.99,.09-.58,.18-1.17,.13-1.62,0-.31-.04-.45,0-.63,.04-.45-.04-.9-.18-1.3-.13-.72-.45-1.4-.81-2.03-.23-.45-.45-.9-.72-1.3-.22-.32-.4-.67-.58-.95-.4-.58-.85-1.12-1.35-1.62-.09-.04-.13-.09-.18-.13-.95-.63-1.89-1.21-2.97-1.48-.23-.09-.5-.09-.72-.09-.18,.04-.36,.04-.54,.09-.27,0-.54,.09-.81,.09-.58,0-1.08,.18-1.58,.45-.41,.22-.81,.4-1.26,.49-.36,.05-.72,.18-1.04,.41-.31,.23-.67,.45-1.04,.58-.18,.04-.31,.18-.45,.27-.63,.4-1.17,.9-1.71,1.48-.04,.04-.04,.18,.04,.27,.18,.09,.36,.22,.54,.36,.5,.23,.94,.5,1.35,.81,.36,.22,.67,.45,1.04,.63,.63,.45,.9,.5,1.71,.41,.13,0,.27-.05,.4-.05,.41-.04,.77-.13,1.12-.13,.5,0,1.04,.09,1.53,.13,.13,0,.27,.05,.41,.09,.67,.13,1.21,.49,1.58,1.08,.18,.32,.31,.68,.45,1.04,.14,.5-.22,.9-.54,1.04-.22,.09-.54,.13-.81,.22-.04,0-.13,0-.22-.04-.72-.22-1.49-.4-2.16-.81-.27-.18-.58-.36-.86-.58-.27-.27-.58-.5-.9-.63-.23-.13-.41-.13-.58-.04l-.41,.22c-.45,.27-.95,.58-1.39,.9-.27,.22-.54,.4-.86,.63l-2.29,1.53c-.09,.09-.18,.14-.31,.23-.63,.36-1.21,.76-1.89,1.04-.36,.18-.67,.4-.99,.58-.9,.54-1.85,.94-2.83,1.35-.23,.09-.41,.22-.58,.32-.14,.04-.18,.22-.14,.31,.05,.04,.05,.13,.09,.18,.45,.63,.99,1.22,1.66,1.71,.27,.18,.5,.41,.77,.58,.5,.41,1.04,.81,1.58,1.12,.49,.27,.9,.58,1.35,.81,.81,.36,1.58,.76,2.43,1.04,.63,.22,1.26,.31,1.89,.4h1.22c.09,.04,.13,.04,.22,.04,.36-.09,.72,0,1.12,0Zm4.86-11.74c.18-.09,.27-.32,.23-.5,0-.09-.04-.22-.09-.31-.27-.5-.72-.86-1.31-.99-.45-.09-.9-.18-1.35-.18l-1.4,.18-.27,.13s-.04,.09-.04,.13,.04,.04,.04,.09c.63,.54,1.3,.99,2.12,1.26l.81,.27c.27,.09,.5,.13,.76,.04l.5-.13Z"/><path d="M226.44,48.4s0,.09-.04,.14c-.31,.31-.58,.63-.9,.99-.13,.23-.27,.5-.41,.77,0,.58,0,1.17-.04,1.71-.13,.5-.36,.85-.54,1.26-.04,.04-.04,.09-.04,.13-.18,.32-.45,.5-.58,.86-.13,.27-.27,.54-.45,.76-.22,.09-.45,.22-.67,.36h-.72c-.18,0-.36-.04-.54-.18-.36-.36-.72-.67-1.04-1.08-.13-.18-.18-.45-.36-.63-.13-.09-.27-.09-.4,.04-.23,.18-.41,.41-.54,.68-.04,.13-.13,.27-.18,.4-.13,.27-.31,.5-.49,.72-.09,.18-.18,.36-.32,.49-.09,.18-.22,.32-.41,.41-.22,.09-.45,.22-.67,.32-.27,.04-.5,.04-.72,0-.27,0-.45-.18-.63-.36l-.13-.27c-.27-.58-.58-1.12-.86-1.67,0-.14-.04-.27-.04-.36,0-.22-.04-.5-.18-.67-.09-.23-.04-.41-.04-.58,.22-.36,.22-.76,.27-1.17v-.27q.22-.54,.32-1.17l.99-2.07c.14-.23,.14-.5,.14-.72-.04-.27-.18-.45-.36-.63-.04,0-.09-.04-.13-.09-.63-.27-.99-.45-1.8-.04l-.14,.09c-.22,.18-.31,.5-.45,.77-.09,.72-.04,1.44-.09,2.16-.04,.18-.13,.32-.18,.45,0,.13-.04,.27-.04,.45-.04,.09-.04,.18-.04,.27l-.13,.27c-.27,.36-.63,.63-.81,1.04-.13,.18-.27,.31-.4,.45-.63,.72-1.35,1.4-2.07,2.07-.13,.18-.32,.22-.5,.36-.27,.13-.5,.31-.67,.45-.18,.05-.36,.05-.5,.14-.41,.18-.76,.36-1.17,.58-.13,.04-.18,.18-.22,.36,0,.23,0,.5,.13,.72l.41,.9c.04,.09,.04,.13,.04,.18,.04,.27,.04,.58,.22,.86,.09,.13,.09,.36,.13,.54,.23,.36,.27,.76,.27,1.17v.27c.09,.18,.18,.36,.22,.54,.04,.72,0,1.4,0,2.07,0,.22-.27,.58-.54,.58-.13,.04-.22,.04-.31,.04-.32,0-.58-.13-.77-.36-.13-.22-.22-.45-.4-.63-.14-.18-.27-.4-.41-.63-.09-.22-.18-.41-.32-.63-.09-.22-.18-.45-.22-.72-.04-.18-.13-.36-.22-.63-.04-.63-.04-1.4-.09-2.07-.05-.18-.14-.31-.18-.5-.09-.4,0-.85-.04-1.3,0-.18,0-.36-.04-.58,0-.04-.04-.09-.09-.09-.27-.23-.58-.32-.9-.5-.09-.04-.09-.13-.09-.27,0-.09,.04-.18,.13-.23,.09-.04,.18-.04,.32-.04,.09-.04,.18-.04,.27-.04,.41,0,.68-.36,.68-.63,0-.5,0-.99,.04-1.49v-.63c.04-.31,.18-.5,.22-.67,.04-.13,.04-.27,0-.41,0-.04-.04-.09-.04-.13-.04,0-.09,0-.13,.04-.09,.04-.18,.09-.23,.13l-1.08,1.08c-.27,.27-.63,.45-.99,.63-.18,.09-.45-.04-.58-.31v-.13s.09-.04,.13-.09c.27-.13,.58-.31,.95-.45,.54-.58,1.12-1.17,1.75-1.8,.13-.14,.22-.27,.31-.45,.04-.13,.13-.27,.23-.36l.27-.41c.04-.22,.04-.45,.09-.72,.09-.27,.27-.54,.27-.81,0-.18,0-.32,.04-.45,.18-.32,.22-.67,.27-.99,0-.09,.04-.18,.09-.27,.04-.13,.14-.27,.14-.41,.04-.31,.18-.58,.27-.81,.04-.36,.04-.63,.09-.9,.32-.85,.77-1.62,1.17-2.43,.04-.13,.14-.27,.23-.36,.22-.22,.31-.5,.5-.72l.54-.27c.18-.09,.32-.09,.5,.09l.14,.09,.13,.27c.09,.68,.04,1.35,0,2.07,0,.09-.04,.18-.09,.27-.04,.14-.14,.23-.14,.41-.04,.18-.09,.36-.18,.54-.13,.22-.22,.45-.31,.67-.14,.18-.14,.36-.18,.58-.13,.27-.31,.58-.45,.9-.13,.27-.27,.54-.45,.76-.27,.45-.54,.9-.77,1.4,0,.04-.04,.09-.04,.18,0,.27-.18,.54-.27,.85-.04,.45-.04,.95-.09,1.44-.04,.18-.14,.36-.23,.58,0,.18,0,.45-.04,.67v.58c-.13,.22-.22,.45-.22,.72-.04,.58-.04,1.17-.04,1.75,0,.18,.09,.27,.22,.36l.32,.04c.18,0,.36-.04,.54-.13,.4-.18,.81-.36,1.26-.58,.31-.32,.67-.67,1.04-.99,.18-.18,.36-.31,.58-.45,.13-.04,.22-.18,.31-.27,.18-.18,.23-.45,.41-.63,.18-.18,.36-.36,.5-.54,.18-.23,.27-.54,.4-.77,0-.13,.04-.22,.04-.31,.05-.27,.27-.54,.27-.81,0-.32,0-.63,.04-.9v-.13c.09-.18,.13-.36,.22-.54,0-.32,.05-.63,.05-.95,.04-.09,.13-.22,.18-.36,.09-.18,.09-.41,.04-.58-.18-.36-.32-.72-.58-1.04-.18-.18-.27-.41-.27-.63,0-.32-.04-.63,.04-.9,.05-.13,.18-.22,.32-.27s.32-.04,.45-.04,.27,.09,.41,.18l.4,.41c.18,.22,.23,.54,.45,.76,.18,.13,.32,.36,.41,.58,.13,.22,.31,.36,.58,.41,.13,.04,.31,.04,.45,.13,.09,.04,.22,.13,.4,.18,.36,0,.63,.23,.95,.36,.18,.09,.31,.22,.41,.4,.13,.23,.22,.45,.31,.63,0,.09,.04,.13,0,.18-.13,.31-.18,.63-.31,.99-.23,.31-.18,.72-.41,1.08-.04,.09-.04,.18-.04,.27-.04,.22-.04,.41-.09,.58-.04,.13-.14,.27-.18,.41-.09,.9-.09,.94-.04,2.52,.09,.18,.13,.36,.23,.54,.04,.22,.04,.5,.09,.76l.36,.63c.04,.09,.27,.14,.36,.04,.45-.36,.81-.72,1.04-1.26,.09-.13,.27-.31,.36-.45,.09-.13,.18-.27,.18-.4,0-.09,.04-.18,.09-.27l.41-.63s.04-.09,.04-.13c.04-.63,.04-1.26,.09-1.89,0-.09,0-.18,.04-.32,.18-.31,.41-.63,.63-.94,.09-.09,.18-.14,.27-.14,.14,0,.32,0,.41,.09,.13,.09,.23,.18,.36,.18v-.86c0-1.08-.04-.94,.76-1.8,.09-.04,.18-.09,.27-.18,.04-.04,.13-.09,.27-.09,.27-.04,.58,0,.86,.04,.31,.13,.58,.36,.76,.67,.13,.27,.27,.5,.5,.76,.04,.04,.09,.13,.13,.23,0,.09,.04,.18,.04,.31,.04,.23,.32,.41,.54,.32,.09,0,.18-.04,.27-.09l.27-.14c.09-.04,.22,0,.27,.09Zm-19.93,11.43s.04,.09,.09,.09c.04,.05,.13-.04,.13-.13,0-.22,0-.4-.04-.58,0-.04,0-.09-.04-.13-.04,0-.13,.04-.13,.18v.58Zm.41,1.04q.13-.18,0-.36-.18,.18,0,.36Zm1.44-16.29s.09-.04,.13-.09c.18-.32,.32-.67,.5-1.04,.04-.09,.09-.18,.09-.27,.04-.27,.23-.54,.32-.85v-.81s-.04-.09-.04-.14l-.09-.09s-.14,.04-.14,.04l-.13,.13c-.18,.27-.31,.58-.45,.95,.04,.36-.04,.72-.27,1.08v.99l.09,.09Zm15.84,6.07c-.27-.04-.59-.04-.86-.04-.22-.04-.36-.18-.54-.31-.31-.32-.67-.67-1.04-.99-.04-.09-.13-.13-.22-.13,0,.45,0,.85,.09,1.3,.04,.13,.09,.27,.18,.45,0,.45,.04,.99,.04,1.53,.09,.18,.23,.36,.23,.54,.04,.36,.22,.68,.36,.95,.09,.22,.36,.27,.5,.13,.36-.27,.63-.63,.86-.9l.36-.77c.05-.31,.05-.63,.05-.99,0-.18,.09-.36,.13-.54,.04-.09-.04-.23-.13-.23Zm.27-2.43c-.22-.45-.41-.85-.63-1.26-.04-.04-.13-.13-.23-.13-.13-.04-.31-.04-.45-.04-.18,0-.36,.09-.45,.31-.36,.72-.27,.58,0,1.21,.18,.45,.45,.86,.67,1.31,.09,.13,.18,.22,.32,.31,.09,.09,.27,.09,.4,0,.23-.13,.36-.36,.36-.63v-1.08Zm22.86,7.65c-.18,.32-.36,.68-.54,1.04-.04,.14-.14,.23-.23,.36-.09,.09-.22,.22-.27,.36-.09,.27-.32,.49-.5,.72l-.36,.36-.85,.45c-.09,.04-.18,.04-.27,.04h-1.62c-.58-.22-1.08-.54-1.49-.99-.27-.36-.58-.68-.9-.99-.13-.13-.27-.27-.31-.5-.54-.63-.86-1.39-1.21-2.16-.09-.13-.13-.27-.18-.36q-.09-.68-.32-1.17c-.04-.54,0-1.08-.04-1.62,0-.36,.13-.67,.27-.99,.04-.41,.09-.76,.04-1.17,0-.09-.04-.18-.09-.27-.36,.09-.67,.22-.94,.45-.27,.32-.58,.54-.9,.72-.27,.13-.45,.4-.63,.63-.09,.18-.18,.36-.32,.5-.4,.4-.81,.85-1.08,1.39-.14,.22-.32,.36-.54,.5-.23,.18-.63,.13-.81-.04-.18-.14-.31-.36-.31-.63v-.68c-.09-.22-.18-.4-.23-.58-.04-.49-.04-.99-.09-1.48,0-.13-.18-.27-.31-.27h-.32c-.22,.14-.5,.27-.76,.41-.36,.32-.72,.67-1.04,1.04-.09,.09-.13,.27-.18,.41,0,.09-.04,.18-.04,.27-.18,.27-.36,.5-.5,.72-.04,.18-.04,.32-.09,.45-.22,.41-.54,.72-.9,.99-.22,.13-.45,.18-.67,.04-.27-.09-.41-.27-.45-.54-.04-.22-.04-.5-.04-.72,0-1.26,.04-2.48,.04-3.69v-.81c-.04-.27-.22-.41-.27-.63,0-.13,.13-.32,.27-.27h.13l.54,.27c.18,.09,.32,.22,.41,.4,.13,.23,.27,.45,.36,.68,.05,.22,.05,.45,.09,.72,.18,.36,.22,.72,.27,1.12,0,.09,.09,.18,.18,.22,.09,.04,.18,0,.27-.04l.13-.09s.04-.04,.09-.09c.27-.23,.41-.54,.63-.81,.32-.13,.58-.36,.81-.63,.27-.27,.58-.36,.94-.36,.14,0,.27,0,.41,.04,.23,.04,.36,.13,.54,.22,.36,.13,.58,.36,.72,.72,.18,.41,.41,.77,.58,1.17,.04,.14,.23,.14,.36,0,.22-.22,.45-.49,.72-.72,.23-.22,.5-.5,.81-.58,.49-.5,1.17-.72,1.75-1.04,.22-.13,.5-.13,.72-.09,.63,.23,1.21,.5,1.48,1.17,.05,.23,.09,.45,.09,.72,.27,.4,.27,.94,.49,1.39,.05,.27,.05,.58,.09,.85,.04,.14,.13,.27,.18,.41,.09,.27,.32,.54,.36,.81,.04,.31,.18,.54,.27,.81,.04,.41,.22,.76,.41,1.12,.22,.41,.22,.85,.45,1.21,.04,.22,.04,.41,.09,.58,0,.09,.04,.22,.13,.27,.27,.13,.5,.31,.72,.49,.13,.14,.32,.18,.54,.18h.13c.23,0,.41-.04,.54-.18,.5-.45,.9-.9,1.31-1.35,.13-.27,.22-.5,.36-.72q.09-.27,.04-1.3c-.09-.27-.27-.54-.31-.81,0-.22-.14-.41-.18-.58-.04-.09,.04-.27,.18-.31,.09-.05,.18,0,.27,.04,.13,.13,.27,.31,.32,.49,.04,.14,.04,.32,.09,.41,.18,.32,.27,.63,.27,.99,0,.31,.09,.58,.18,.9Zm-5.31-.99c-.04-.09-.04-.18,.05-.27,0,0,.04,0,.09,.04,0,.04,.04,.09,.04,.14v.27c-.09,0-.13-.09-.18-.18Zm.23,.18c.18,.09,.18,.13,.22,.27,0,.09,0,.18-.09,.22-.04,0-.09-.04-.09-.09-.09-.13-.09-.27-.04-.41Z"/><path d="M103.52,132.7l-.18,.72c-.04,.5-.22,.9-.45,1.35-.13,.18-.22,.45-.31,.67-.41,.86-.95,1.62-1.62,2.29l-.5,.54c-.18,.18-.36,.36-.58,.54-.76,.54-1.58,.99-2.43,1.4-.58,.31-1.3,.4-1.98,.45-.63,0-1.26-.04-1.89,.04-.22,.05-.45,0-.63-.09-1.35-.63-2.16-1.75-2.66-3.15-.04-.18-.09-.32-.09-.5,0-1.17-.13-2.29,.09-3.46,.09-.45,.18-.9,.32-1.35l.81-3.38s-.04-.18-.09-.18c-.04-.04-.18-.04-.22,0-.81,.72-1.58,1.44-2.34,2.21-.77,.86-1.49,1.75-2.25,2.61-.5,.5-.81,1.08-1.04,1.71-.36,1.04-.67,2.02-1.17,3.01-.58,1.17-.99,2.43-1.84,3.46-.13,.18-.23,.36-.32,.54-.45,.85-1.12,1.53-1.71,2.25-.36,.36-.81,.63-1.21,.99-.36,.04-.72-.09-1.08-.27-.22-.76-.18-1.53,.14-2.25,.31-.67,.67-1.35,1.17-1.98,1.3-1.67,2.56-3.38,4.05-4.91,.31-.31,.49-.72,.63-1.12,.36-.94,.63-1.93,.94-2.92,.23-.63,.5-1.26,.68-1.89,.18-.45,.31-.9,.4-1.35,.23-1.12,.58-2.25,.95-3.33,.09-.27,.22-.58,.13-.86-.04-.13-.09-.18-.18-.13-.13,0-.27,.04-.36,.09l-.94,.67c-1.08,.99-2.16,1.94-3.2,2.93-.41,.4-.76,.81-1.12,1.26-.18,.22-.27,.5-.41,.76-.54,1.49-1.17,2.92-2.02,4.27-.09,.14-.13,.32-.23,.45-.54,1.21-1.35,2.29-2.11,3.38-.54,.72-1.17,1.3-1.84,1.93-.18,.18-.41,.27-.68,.32-.27,.04-.54-.04-.63-.27l-.22-.63c-.09-.4-.04-.81,.09-1.21,.54-1.26,1.21-2.38,2.03-3.42,1.03-1.3,2.11-2.56,3.33-3.69,.5-.45,.86-.99,1.08-1.58,.27-.63,.54-1.26,.72-1.93,.09-.58,.36-1.12,.58-1.67,.41-1.04,.72-2.12,.99-3.15l.67-2.21c.04-.13,.04-.27,.04-.41l-.09-.09s-.09-.04-.13,0c-.13,.04-.27,.13-.41,.27-1.48,1.49-3.19,2.75-4.99,3.96-.36,.27-.72,.54-1.04,.9-.27,.31-.72,.5-.9,.9-.04,.18-.22,.27-.4,.23-.27-.09-.5-.04-.72,.09-.99,.58-2.02,.95-3.1,1.17-.32,.04-.58,.09-.9,0-.81-.18-1.53-.54-2.11-1.12s-.99-1.26-1.31-2.03c-.22-.45-.22-.9-.13-1.39,.09-.36,.23-.72,.36-1.08,.13-.36,.36-.67,.72-.85,.22-.14,.36-.36,.58-.5,.41-.41,.9-.45,1.4-.18,.18,.09,.36,.22,.54,.36,.27,.27,.36,.58,.27,.95-.13,.36-.22,.72-.45,1.04-.45,.72-1.04,1.12-1.89,1.08-.09,0-.18,0-.27,.05-.13,0-.22,.22-.18,.36,.22,.67,.63,1.21,1.21,1.62,.09,.09,.23,.13,.32,.18,.76,.54,1.57,.58,2.47,.36,.36-.09,.72-.22,1.08-.36,.72-.18,1.35-.54,1.89-1.04,.41-.36,.81-.72,1.4-.9,.13-.04,.27-.13,.45-.22,1.31-.86,2.61-1.76,3.83-2.79,.63-.54,1.3-1.04,1.98-1.58l.54-.36q.77-.63,1.22-1.57c.63-1.26,1.3-2.43,2.11-3.51,.27-.36,.54-.67,.86-.94l1.3-1.21c.45-.36,.85-.72,1.44-.77,.14-.04,.27,.09,.27,.23-.13,.63-.36,1.21-.67,1.75-.04,.09-.18,.18-.27,.27l.14-.85c.04-.18-.32-.36-.45-.32-.5,.23-.9,.5-1.17,.99-.27,.45-.58,.9-.86,1.39-.27,.45-.5,.9-.67,1.35-.09,.18-.09,.36-.04,.54l.04,.04c.22-.18,.41-.36,.63-.58l1.71-2.03c.09-.13,.27-.18,.41-.27-.09,.18-.13,.4-.23,.58-.31,.45-.63,.9-1.03,1.3-.9,.9-1.67,1.93-2.52,2.88-.27,.27-.45,.63-.54,.99-.31,1.21-.76,2.34-1.08,3.55-.22,.99-.63,1.93-.9,2.92-.13,.41-.23,.81-.32,1.21-.04,.09,0,.18,.09,.23,.05,.04,.18,.04,.23,0,.22-.14,.45-.27,.63-.45,1.21-1.12,2.47-2.21,3.78-3.24l.45-.41c.36-.31,.58-.63,.77-1.03,1.08-2.61,2.38-5.08,3.6-7.65,.45-.94,.9-1.89,1.53-2.79,.49-.76,1.12-1.35,1.66-2.07l.32-.27,.99-.54c.4,.18,.58,.54,.72,.9,.22,.41,.27,.76,.04,1.21-.13,.23-.27,.45-.27,.72,.04,.63-.27,1.12-.63,1.62-.45,.72-.9,1.44-1.21,2.25-.09,.23-.27,.45-.4,.63l-.95,1.04c-.58,.63-1.17,1.26-1.67,1.93-.31,.45-.67,.86-1.08,1.26-.58,.67-1.04,1.35-1.21,2.2-.04,.23-.13,.41-.22,.63-.63,1.49-.95,3.06-1.35,4.64-.22,.81-.49,1.53-.76,2.29l-.41,1.48s0,.09,.04,.13c.05,0,.18,.04,.23,0,.18-.09,.31-.22,.45-.4,1.03-1.12,2.16-2.21,3.28-3.24,.86-.76,1.53-1.67,2.07-2.75,.5-1.08,.9-2.21,1.3-3.33,.13-.36,.23-.72,.36-1.08,.31-.77,.58-1.58,.99-2.34,.4-.9,.76-1.8,1.12-2.7,.45-1.17,1.08-2.25,1.53-3.38,.18-.41,.5-.72,.81-1.04,.76-.81,1.71-1.48,2.7-2.11,.18-.14,.41-.05,.54,.13,.27,.22,.41,.54,.36,.9,0,.5,0,.95-.13,1.4-.23,.85-.41,1.75-.9,2.52-.13,.18-.22,.36-.32,.58-.4,1.04-1.03,1.93-1.66,2.83-.14,.27-.27,.54-.45,.76-.36,.58-.67,1.17-1.08,1.71-.45,.54-.81,1.12-1.21,1.67-.32,.45-.63,.9-.99,1.3-.58,.63-1.04,1.26-1.3,2.07l-.54,1.26c-.41,.9-.72,1.84-.95,2.79-.09,.36-.18,.67-.31,.99-.41,.9-.54,1.84-.67,2.83-.05,.36-.05,.67-.14,1.04-.13,.94-.04,1.84,.27,2.74,.13,.36,.27,.72,.45,1.08,.13,.36,.36,.63,.63,.95,.45,.5,.99,.81,1.67,.81h.63c.81,.13,1.53-.04,2.2-.45,.14-.04,.23-.13,.36-.18,1.17-.5,2.03-1.39,2.88-2.29,.27-.27,.5-.58,.67-.94,.36-.68,.72-1.35,1.04-2.03,.09-.09,.13-.22,.13-.36,.18-.76,.36-1.48,.45-2.25,.09-.72,.09-1.44-.04-2.16-.13-1.12-.81-1.98-1.67-2.66-.36-.27-.81-.41-1.3-.36-.58,.09-1.08,.22-1.44,.76-.18,.27-.45,.5-.67,.72-.13,.18-.13,.45,0,.63,.13,.13,.32,.27,.45,.45,.45,.54,.67,1.17,.58,1.89-.04,.13-.04,.27-.09,.36-.32,.54-.54,1.08-.9,1.58-.36,.49-.9,.63-1.48,.54l-.36-.14c-.45-.31-.81-.76-1.04-1.26-.04-.13-.04-.27,0-.36,0-.09,.04-.18,.04-.27,.58-1.44,1.31-2.79,2.25-3.96,.72-.9,.81-1.12,2.16-1.12,.22,0,.45,.04,.63,.04,.67-.13,1.17,.18,1.62,.54,.36,.32,.72,.63,.99,1.04,.27,.36,.49,.81,.54,1.26,0,.18,.04,.36,.04,.5,.27,1.08,.18,2.12-.14,3.2Zm-24.84-.45l-.09-.09h-.13c-.13,.09-.23,.13-.32,.22-.85,.95-1.71,1.89-2.47,2.88-.58,.76-.99,1.58-1.35,2.43l-.27,.72c-.04,.13,0,.27,0,.36,0,.32,.32,.54,.63,.45,.36-.09,.63-.27,.81-.54,.36-.5,.72-.99,.99-1.49,.36-.76,.81-1.48,1.08-2.29,.04-.18,.14-.31,.23-.45,.4-.63,.63-1.31,.9-1.98v-.22Zm4.41,5.26c-.09,0-.22,0-.36,.04-.09,.04-.18,.13-.27,.22-.81,.9-1.67,1.75-2.21,2.83l-.27,.41c-.54,.54-.72,1.26-1.04,1.93-.14,.23-.14,.45-.09,.72,0,.18,.18,.31,.31,.36,.09,0,.18,.04,.22,.04,.45,.04,.77-.09,1.04-.45,.04-.04,.09-.14,.14-.23,1.03-1.67,1.84-3.46,2.52-5.26,.04-.13,.04-.27,.04-.41,.04-.04,0-.22-.04-.22Zm5.67-23.71c.09-.09,.18-.18,.31-.27l-.27,.27h-.04Zm2.52,5.31s.18,0,.18-.04c.72-.9,1.53-1.75,2.25-2.61,.23-.18,.41-.45,.54-.72,.32-.67,.67-1.35,1.12-1.98,.27-.36,.5-.77,.58-1.26l.27-1.08c.04-.18,.04-.36,.04-.54,.04-.18-.13-.41-.32-.5-.22-.09-.45,0-.58,.13-.27,.27-.5,.58-.72,.9-.5,.76-.9,1.62-1.3,2.47-.54,1.21-.99,2.52-1.62,3.69-.13,.27-.22,.58-.36,.86h.04c-.09,.13-.13,.31-.22,.45-.04,.09,0,.18,.09,.22Zm4.77,2.88s.04,.13,.04,.13c.09,0,.23,0,.23-.04,.63-.9,1.3-1.8,1.89-2.7,.5-.81,.9-1.62,1.49-2.38,.13-.18,.27-.36,.36-.54,.58-1.26,1.21-2.52,1.71-3.82,.14-.36,.18-.72,.23-1.17-.04-.09-.04-.23-.04-.32-.04-.45-.5-.67-.86-.41-.58,.36-1.04,.86-1.35,1.49-.45,1.04-.86,2.03-1.17,3.1-.13,.45-.32,.9-.5,1.31l-.81,2.16-.5,1.31-.68,1.8s-.04,.09-.04,.09Z"/><path d="M205.56,130.49c0,.09,.04,.18,0,.27,0,.18,0,.31-.04,.45-.18,.41-.41,.77-.63,1.21-.22,.32-.54,.63-.85,.95-.36,.4-.77,.72-1.53,.99-.23,.04-.63-.04-1.08-.04l-1.39-.68c-.5-.45-.99-.99-1.53-1.48-.09-.09-.22-.09-.36,.04-.18,.18-.4,.36-.5,.59-.13,.27-.31,.45-.54,.67-.09,.13-.22,.31-.36,.45-.09,.36-.36,.58-.58,.81-.23,.22-.41,.45-.72,.54-.18,.13-.36,.31-.58,.45-.18,.13-.58,.09-.81-.09-.04-.04-.09-.04-.09-.09l-.18-.27c-.09-.72-.04-1.44,.04-2.16,.04-.13,.13-.27,.18-.4,.27-.86,.36-1.12,.72-1.76,.04-.09,.14-.13,.23-.18v-.27s.04-.09,.04-.13c.22-.32,.5-.59,.85-.77,.18-.09,.36-.22,.5-.36,.23-.18,.5-.23,.81-.23,.13,0,.31,.04,.4,.13l.67,.59c.09,.09,.27,.04,.36-.09l.09-.13c.27-.63,.63-1.21,.9-1.85,.04-.09,.09-.18,.09-.27,.04-.36,.31-.72,.31-1.12,.23-.27,.23-.63,.36-.95,.13-.27,.18-.54,.22-.86,0-.27,.14-.45,.23-.67,.04-.27,.04-.5,.09-.72,.22-.49,.5-.99,.58-1.53,.22-.4,.41-.77,.58-1.17,.04-.09,.09-.18,.18-.27,.18-.23,.36-.45,.5-.72,.09-.18,.23-.27,.41-.36s.36-.23,.54-.27c.27-.09,.58-.13,.85,0,.27,.14,.54,.18,.81,.32,.04,0,.09,.04,.09,.09-.04,0-.04,.04-.09,.09-.41,.09-.81,.04-1.17,.09-.18,0-.32,.04-.41,.13-.22,.18-.45,.4-.63,.63-.09,.13-.18,.27-.18,.4l-.14,.4c-.09,.23-.18,.45-.18,.72,0,.31-.13,.58-.27,.81,0,.27-.04,.49-.09,.72-.09,.22-.18,.36-.22,.59,0,.18-.04,.36-.18,.54-.04,.13-.09,.27-.09,.45-.04,.31-.14,.67-.32,.94,0,.36-.18,.68-.31,.99-.23,.5-.45,.95-.72,1.44-.27,.45-.45,.99-.72,1.44-.22,.31-.36,.72-.5,1.04-.04,.04,0,.13,0,.13l.67,.81c.18,.49,.58,.76,.95,1.12,.04,.04,.13,.13,.22,.18,.27,.09,.5,.31,.72,.45,.13,.09,.27,.13,.45,.13,.23,.04,.45,.04,.72,0,.22-.09,.45-.18,.67-.31l.31-.27c.18-.27,.27-.54,.5-.77,.18-.18,.32-.36,.5-.59,.04-.09,.04-.22,.09-.4s.13-.31,.32-.45c.04-.09,.13-.13,.22-.13Zm-8.14,.27c-.18-.22-.36-.45-.5-.68-.09-.13-.27-.18-.41-.18-.31-.04-.58,.04-.81,.27-.22,.18-.41,.45-.63,.59-.04,.04-.09,.04-.13,.04v.27c0,.22-.04,.5-.23,.68,0,.04-.04,.09-.04,.13s-.04,.09-.04,.13c0,.4-.31,.72-.31,1.12-.04,.13-.14,.27-.18,.4s-.04,.27,.04,.41c.09,.18,0,.36,0,.54,.04,.13,.09,.27,.18,.4,.09,.18,.13,.23,.31,.14,.18-.09,.36-.18,.5-.23,.41-.4,.86-.76,1.04-1.26,.22-.27,.45-.54,.67-.76,.22-.45,.45-.9,.67-1.31,.09-.27,.04-.49-.13-.72Zm7.92-20.43c.04-.09,.09-.18,.18-.18,.41-.13,.81-.09,1.17-.04,.32,.09,.54,.27,.81,.4,.31,.36,.45,.86,.67,1.26,.09,.27,.09,.5,.09,.77v2.34s.04,.09,.09,.13c.04,0,.09-.04,.13-.04,.04-.04,.09-.04,.09-.09l.09-.09c.09-.13,1.08-1.62,1.17-1.71,0-.05,.04-.09,.09-.14,.13-.36,.4-.67,.67-.94,.18-.18,.27-.41,.31-.63,.14-.49,.36-.95,.63-1.35,.04-.13,.22-.18,.36-.22,.13,0,.27,0,.45,.04,.13,0,.27,.13,.27,.27,.05,.09,.05,.18,.05,.27v2.61c-.09,.27-.18,.45-.23,.63-.04,.31-.04,.68-.04,1.04,0,.13,.04,.27,.09,.4,.13,.22,.18,.5,.23,.72,.04,.18,.31,.27,.45,.13,.14-.09,.27-.18,.32-.31l.41-.81c.18-.45,.4-.86,.63-1.3,.04-.13,.13-.27,.18-.4,.04-.14,.09-.27,.09-.41,.18-.27,.36-.49,.5-.72,.04-.23,.04-.45,.09-.68,.13-.31,.32-.68,.45-1.04,.09-.22,.09-.49,.13-.72,0-.18,.13-.36,.32-.45,.09-.04,.18-.04,.27,.04,.04,.04,.13,.13,.18,.22,.04,.09,.04,.18,0,.27-.09,.27-.23,.54-.36,.81-.18,.27-.13,.41,.13,.59,.13,.09,.27,.18,.32,.31,.09,.18,.18,.36,.27,.49,.04,.72,.04,1.4,0,2.12l-.27,.68c-.09,.22-.41,.31-.63,.18-.09-.04-.14-.09-.23-.18-.04-.45-.36-.81-.36-1.26-.04-.09-.09-.18-.18-.13-.04,0-.09,0-.13,.04-.04,.09-.13,.13-.18,.22l-.14,.63c-.09,.14-.22,.27-.36,.41-.09,.13-.13,.27-.18,.4v.18c-.18,.5-.45,.95-.72,1.44-.09,.22-.31,.36-.5,.49-.13,.09-.27,.13-.4,.18h-.45c-.22-.13-.45-.27-.67-.36-.04-.09-.13-.13-.18-.22-.18-.32-.31-.59-.36-.95-.04-.18-.13-.36-.23-.59,0-.54-.04-1.12-.04-1.75,0-.04-.04-.09-.09-.09-.04-.04-.13,0-.18,.09-.09,.22-.32,.4-.41,.58-.31,.63-.81,1.12-1.08,1.8-.13,.4-.36,.76-.63,1.12-.13,.09-.18,.22-.22,.36-.18,.27-.32,.54-.45,.77l-.41,.22c-.22,.09-.31,.09-.49-.13-.05-.09-.14-.18-.14-.27-.04-.41-.04-.77-.04-1.17,.04-1.4,.04-2.75,.04-4.14-.04-.27-.09-.49-.22-.72-.04-.13-.09-.27-.09-.4-.04-.18-.14-.27-.27-.36-.22-.13-.5-.27-.76-.41-.09-.04-.09-.13-.09-.27Zm31.81,9.22c-.09,.22-.13,.4-.22,.59,0,.31-.04,.58-.04,.9-.27,.59-.58,1.12-.86,1.71-.09,.18-.18,.36-.31,.49-.18,.23-.27,.5-.45,.72-.27,.31-.54,.58-.86,.86l-.81,.85c-.45,.23-.9,.41-1.3,.63-.27,.09-.5,.09-.77,.09-.5,0-.99,0-1.44-.04-.27-.09-.45-.22-.72-.27-.13,0-.27-.04-.4-.13-.45-.23-.9-.41-1.3-.68-.14-.13-.27-.27-.45-.36-.23-.09-.36-.18-.5-.31-.27-.23-.5-.5-.76-.72-.14-.18-.27-.4-.27-.68-.04-.31-.27-.54-.36-.81,0-.04-.04-.09-.09-.09-.09-.05-.22-.05-.27,0-.13,.09-.27,.18-.36,.27-.27,.27-.54,.58-.85,.85-.14,.14-.32,.23-.5,.27-.27,0-.5,.13-.72,.22-.18,.09-.36,.09-.54,0-.14-.04-.27-.13-.41-.18-.18-.04-.32-.04-.45,.04-.09,0-.13,.09-.18,.18l-.27,.54c-.04,.23-.09,.5-.22,.72-.04,.04-.09,.18-.09,.27-.04,.22-.09,.45-.23,.68-.04,.09-.09,.18-.09,.27,0,.31-.27,.54-.27,.86-.04,.31-.18,.54-.32,.81-.18,.36-.4,.67-.54,1.03-.18,.54-.58,.9-.99,1.26-.09,.04-.18,.09-.27,.09-.36,.04-.67,.04-1.04,0-.18,0-.27-.09-.4-.18-.36-.27-.45-.72-.77-1.08-.09-.09-.13-.23-.13-.41-.04-.09-.04-.18-.09-.27-.18-.31-.22-.63-.22-.99,.04-.49,.04-.99,.04-1.48,.04-.18,.13-.36,.22-.54,.09-.4,.04-.81,.27-1.12,.04-.09,.04-.22,.04-.31,0-.22,.04-.49,.04-.68,.09-.22,.22-.4,.22-.58,0-.04,0-.09-.04-.13-.04-.09-.13-.09-.22,0l-.41,.4c-.45,.41-.86,.81-1.26,1.26-.23,.23-.5,.45-.86,.59-.09,.04-.13,.09-.22,.18-.18,.18-.41,.27-.58,.4-.36,.18-.72,.32-.99,.5-.36,.04-.67,.04-.99,.09-.09,0-.22,.18-.27,.31v.59c-.04,.76-.04,1.57-.04,2.29-.18,.36-.23,.72-.36,1.04-.09,.31-.31,.58-.41,.9-.13,.36-.36,.59-.45,.9l-.58,.27c-.14,.09-.27,.09-.45,.04-.13-.09-.22-.13-.36-.18-.22-.09-.36-.22-.45-.4-.18-.22-.32-.5-.5-.72-.18-.18-.27-.4-.41-.63l-.45-.04v-.59c0-.13,.04-.31,.09-.45,.14-.27,.18-.54,.18-.86,.04-.22,.18-.45,.27-.68,0-.18,.04-.4,.04-.58,0-.13,.04-.27,.04-.45,.27-.5,.72-.81,1.04-1.22,.13-.36,.36-.63,.45-.94,.09-.18,.27-.32,.45-.41,.18-.13,.4-.22,.63-.31,.31-.04,.58-.04,.9,0,.23,.04,.36,.18,.27,.4-.04,.09-.13,.13-.23,.18-.09,.04-.18,.09-.13,.18,0,.09,.04,.18,.13,.22l.27,.13,.27,.13,.27,.13c.18,0,.4,.04,.58-.04,.18-.09,.36-.18,.54-.18,.22-.04,.36-.13,.54-.27,.04-.04,.09-.04,.09-.09,.27-.22,.63-.32,.85-.59,.23-.18,.45-.4,.63-.58,.27-.27,.5-.5,.86-.63,.09-.04,.22-.18,.31-.27l1.17-1.17,.41-.4c.18-.14,.36-.18,.58-.18,.09,0,.18,.04,.27,.04,.18,.04,.36,.23,.36,.41v.13c0,.49,0,.99-.27,1.44-.04,.36-.13,.68-.27,.9-.04,.58-.09,1.08-.09,1.53-.09,.22-.13,.41-.22,.59,0,.27,0,.58-.04,.9,0,.27,.09,.54,.22,.81l.13,1.04c.09,.22,.23,.45,.32,.68,.04,.09,.27,.13,.41,.04,.27-.22,.49-.45,.67-.77,.22-.49,.45-.95,.72-1.44,.09-.18,.18-.36,.18-.54s.09-.27,.18-.4c.18-.4,.4-.81,.45-1.26,0-.04,.04-.09,.04-.13,.14-.22,.23-.45,.23-.68,0-.18,0-.31,.04-.45l.13-.27c-.09-.36-.45-.5-.67-.81-.13-.22-.27-.5-.41-.77-.04-.22-.04-.49,0-.76,.09-.14,.23-.32,.32-.5s.27-.27,.45-.27,.31,.04,.4,.13c.23,.13,.36,.31,.5,.54,.13,.22,.23,.45,.41,.63s.27,.4,.41,.63c.09,.18,.27,.36,.49,.54,.18,.13,.45,.18,.68,.09,.22-.09,.45-.18,.67-.31,.22-.18,.45-.4,.58-.63,.13-.36,.41-.58,.63-.81,.18-.23,.36-.5,.41-.81,0-.09,.04-.18,.09-.22,.36-.36,.5-.86,.85-1.21,.23-.27,.27-.63,.54-.86l.67-.63c.14-.18,.32-.36,.5-.49,.09-.09,.18-.09,.27-.13,.27-.04,.5,0,.76,0,.13,0,.27,.09,.41,.18,.27,.18,.5,.45,.72,.72,.13,.13,.18,.31,.04,.54l-.13,.27c0,.32-.04,.68-.04,.99-.09,.18-.18,.31-.23,.45,0,.4-.22,.72-.4,1.08-.14,.27-.36,.45-.68,.49-.18,0-.4,.04-.58,.09-.31,.04-.54,.54-.45,.81,.22,.45,.45,.9,.81,1.21,.22,.27,.5,.49,.72,.76,.18,.14,.36,.32,.54,.5,.14,.09,.36,.18,.5,.27,.23,.18,.41,.36,.63,.45,.41,.05,.86,.05,1.3,0,.23-.13,.45-.22,.72-.36,.67-.63,1.39-1.3,2.02-2.03l.32-.54c.13-.31,.27-.63,.54-.9,.09-.09,.13-.22,.13-.36,.04-.13,.04-.22,.09-.31,.18-.32,.23-.63,.27-.99,0-.13,.04-.27,.13-.41,0-.09,.04-.18,.09-.27,.04-.58,.04-1.17,0-1.8-.09-.18-.13-.36-.22-.54-.04-.22-.04-.45-.09-.67l-.27-.59c-.09-.18-.18-.36-.41-.4-.13-.04-.22,.09-.36,.13h-.18s-.09-.04-.13-.04c-.31-.27-.36-.41,0-.68,.04-.09,.13-.13,.27-.09,.4,.13,.81,.31,1.12,.63,.13,.18,.22,.31,.31,.49l.27,.54c0,.22,.04,.49,.04,.72,.09,.13,.13,.27,.22,.45,.04,.58,0,1.26,0,1.84Zm-27.49,7.29c-.13-.22-.22-.54-.45-.72l-.54-.27c-.09-.09-.32-.04-.41,.04-.13,.13-.27,.27-.27,.49-.04,.18-.09,.36-.09,.59-.09,.18-.13,.36-.22,.54-.04,.54,0,1.08,0,1.62,0,.23,.09,.45,.22,.68,.04,.27,.04,.49,.09,.72l.14,.27c.18,.22,.31,.22,.49,.04,.18-.18,.32-.36,.45-.59,.04-.22,.04-.49,.09-.72,.09-.18,.14-.36,.23-.54,0-.4,.04-.81,.04-1.17l.13-.27c.13-.22,.13-.45,.09-.72Zm6.25-19.35c-.04-.18-.13-.36-.27-.63v-1.35c0-.27,.13-.49,.36-.63,.04,0,.09-.04,.14-.04,.09-.04,.31,.09,.31,.23,0,.04,.04,.09,.04,.13,.04,.63,0,1.26,0,1.89-.04,.18-.09,.32-.22,.41-.13,.13-.27,.13-.36,0Zm2.52,2.12c0-.09,.09-.18,.13-.23,.18-.13,.36-.18,.54-.31,.13-.09,.27-.22,.31-.45,0-.04,.04-.09,0-.13,0-.36,.18-.68,.32-1.04v-.54c.04-.27,.09-.49,.18-.72,.04-.09,.09-.18,.09-.27,.04-.09,.04-.22,.09-.31,.18-.31,.18-.72,.36-1.08l.13-.27c.04-.27,.04-.5,.09-.72,.14-.27,.36-.49,.58-.67,.14-.13,.36-.18,.54-.13,.18,.04,.27,.13,.27,.31,.04,.09,.04,.18,0,.27-.04,.18-.13,.36-.18,.54q-.09,.67-.32,1.17c0,.31-.04,.67-.09,.99-.04,.13-.13,.27-.18,.41v.18c-.05,.49-.09,.95-.05,1.44,0,.04,.05,.13,.05,.13,.04,.04,.09,0,.13,0s.09-.04,.13-.04c.32-.27,.58-.54,.85-.86,.18-.22,.41-.4,.58-.63,.23-.18,.41-.45,.68-.59,.13,.04,.27,.04,.4,.09,.18-.09,.32-.22,.45-.36,.04-.09,.13-.18,.13-.27,.14-.31,.18-.68,.32-.95,.04-.27,.04-.54,.13-.77,.09-.22,.23-.4,.23-.67,.04-.31,.27-.54,.36-.81,0-.04,.04-.09,.09-.13,.41-.54,.9-1.04,1.44-1.44,.09-.09,.18-.09,.27-.09s.18,.04,.32,.04c.04,.04,.13,.09,.22,.13,.18,.13,.27,.31,.27,.54,.04,.41,.04,.86-.04,1.3,0,.09-.04,.18-.09,.27-.18,.22-.4,.45-.49,.72-.04,.09-.09,.18-.18,.27-.22,.22-.45,.49-.72,.72-.36,.36-.58,.77-.54,1.3,.04,.5,0,.99,0,1.49,0,.18-.04,.4-.04,.58-.04,.18-.13,.36-.18,.59-.04,.54-.04,1.12-.04,1.75,.04,.09,.09,.18,.13,.22,.09,.04,.31,0,.41-.09,.04-.04,.09-.09,.09-.13,.04,0,.09-.04,.09-.09,.18-.36,.45-.67,.72-.95,.13-.09,.23-.18,.36-.31,.22-.13,.5-.27,.76-.4,.18,0,.41-.04,.58,0,.09,0,.18,.04,.27,.09,.31,.22,.58,.54,.85,.81,.27,.68,.81,1.12,1.3,1.62l.32,.27c.13,.13,.41,.13,.54,0,.18-.13,.31-.27,.45-.36,.31-.59,.49-1.21,.9-1.71,.04-.09,.18-.09,.27-.04,.04,0,.09,.04,.09,.09,.04,.04,.04,.09,.04,.13,.04,.27,.09,.5-.04,.72-.18,.36-.18,.77-.36,1.12-.18,.27-.31,.59-.5,.9-.22,.22-.5,.36-.72,.49-.36,.09-.72,0-1.04,0-.22-.13-.45-.27-.72-.36-.04-.09-.18-.18-.27-.27-.23-.23-.45-.41-.63-.63-.22-.49-.49-.99-.72-1.44-.13-.27-.58-.31-.81-.13-.27,.18-.5,.45-.72,.72-.54,.54-1.08,1.12-1.67,1.67-.23,.09-.45,.22-.68,.31l-.27,.13c-.22,.04-.54-.13-.54-.36-.04-.13-.04-.27-.04-.4,0-.45,0-.9-.04-1.35l-.13-.4c-.09-.18-.09-.4,0-.58,.04-.14,.09-.27,.18-.45v-2.03c0-.18-.22-.36-.41-.27l-.27,.13c-.36,.18-.72,.36-1.04,.54-.27,.22-.5,.49-.76,.72-1.21,1.26-.99,.72-1.08,2.43l-.13,.41,.13,.45c0,.36,.04,.77,.04,1.12,0,.41,.04,.81,.22,1.17,.09,.09,.04,.27,.09,.41,.05,.13,.14,.27,.27,.36,.18,.22,.58,.22,.81,.04l.18-.18c.18-.36,.45-.68,.67-.99,.18-.27,.31-.63,.5-.9,.04-.13,.13-.27,.27-.31,.04,0,.09,0,.13,.04,0,0,.04,.04,.04,.09v.13c-.27,.5-.49,.99-.72,1.48-.09,.13-.13,.27-.13,.41-.04,.13-.09,.27-.18,.4-.27,.22-.5,.5-.72,.72l-.81,.4h-.32c-.22,.04-.49-.04-.67-.18l-.45-.4c-.18-.23-.36-.45-.45-.72-.04-.18-.14-.27-.18-.4l-.13-1.04c-.04-.13-.09-.27-.18-.45-.04-.54-.04-1.17-.04-1.75,0-.27,.04-.59,0-.86,0-.13-.09-.27-.27-.31-.09-.04-.18-.04-.27-.09-.13,0-.18-.09-.18-.18Zm8.14-6.08c0,.13,.04,.22,.13,.22,.09,.04,.18-.04,.22-.09l.14-.13c.4-.31,.67-.81,.85-1.26,.04-.09,.04-.22,0-.31,0-.04,0-.09-.04-.13-.04-.09-.09-.22-.18-.36-.04-.09-.14-.13-.23-.18-.09,0-.18,0-.22,.09-.23,.45-.5,.86-.67,1.35v.81Zm1.3,17.41c.09,.04,.18,.04,.27,.04,.27,.04,.5-.04,.63-.27,.18-.36,.41-.67,.45-1.08,0-.13,.09-.27,.13-.4,.14-.36,.18-.77,.09-1.12,0-.09-.04-.18-.14-.22-.27-.13-.54-.13-.85-.04-.04,0-.09,.04-.09,.09-.32,.22-.58,.54-.72,.9-.05,.13-.09,.27-.18,.36-.04,.4-.04,.81,0,1.17,.04,.27,.18,.45,.41,.58Z"/><g><path d="M140.35,161.46v-1.08l1.38-1.34c3.32-3.16,4.82-4.84,4.84-6.8,0-1.32-.64-2.54-2.58-2.54-1.18,0-2.16,.6-2.76,1.1l-.56-1.24c.9-.76,2.18-1.32,3.68-1.32,2.8,0,3.98,1.92,3.98,3.78,0,2.4-1.74,4.34-4.48,6.98l-1.04,.96v.04h5.84v1.46h-8.3Z"/><path d="M149.69,162.25l5.58-14.5h1.36l-5.6,14.5h-1.34Z"/><path d="M157.89,159.43c.5,.32,1.66,.82,2.88,.82,2.26,0,2.96-1.44,2.94-2.52-.02-1.82-1.66-2.6-3.36-2.6h-.98v-1.32h.98c1.28,0,2.9-.66,2.9-2.2,0-1.04-.66-1.96-2.28-1.96-1.04,0-2.04,.46-2.6,.86l-.46-1.28c.68-.5,2-1,3.4-1,2.56,0,3.72,1.52,3.72,3.1,0,1.34-.8,2.48-2.4,3.06v.04c1.6,.32,2.9,1.52,2.9,3.34,0,2.08-1.62,3.9-4.74,3.9-1.46,0-2.74-.46-3.38-.88l.48-1.36Z"/></g></g></g></g></svg>