<?xml version="1.0" encoding="UTF-8"?><svg xmlns="http://www.w3.org/2000/svg" viewBox="0 0 300 176"><defs><style>.d{fill:none;stroke:#fff;stroke-miterlimit:10;}</style></defs><g id="a"/><g id="b"><g id="c"><g><rect class="d" x=".5" y=".5" width="299" height="175" rx="20" ry="20"/><path d="M93.78,62.12c-.99-.22-1.93-.72-2.83-1.21-1.75-1.08-3.55-2.16-5.26-3.38-1.04-.76-2.12-1.57-3.1-2.43-1.31-1.08-2.57-2.21-3.87-3.19-.9-.77-1.89-1.53-2.88-2.12-.63-.45-1.39-.76-2.07-1.08-.58-.32-1.3-.58-1.98-.76-.36-.14-.67-.14-1.04-.04-.18,0-.27,.04-.4,.04-.9,.09-1.76,.54-2.43,1.17-.63,.45-1.08,1.04-1.3,1.8,0,.09-.04,.18-.04,.22,0,.18,.04,.41,.22,.45,.58,.22,.81,.76,.9,1.39,.09,.45,0,.81-.22,1.12-.09,.18-.23,.23-.41,.32-.45,.09-.72-.09-1.04-.45-.18-.22-.32-.45-.41-.67-.04-.5-.04-.85-.04-1.21-.09-.27,0-.41,.04-.63,.23-.54,.45-1.08,.72-1.58,.13-.41,.36-.76,.67-.99,.58-.72,1.26-1.21,2.11-1.62,.45-.14,.9-.14,1.35-.32,.72-.13,1.39-.13,2.07,.09,1.21,.32,2.43,.67,3.6,1.3,.36,.14,.72,.27,1.03,.54,.99,.68,2.07,1.26,2.97,2.03,1.62,1.21,3.28,2.43,4.86,3.64,1.62,1.21,3.15,2.38,4.86,3.38,.41,.22,.77,.54,1.17,.81,1.22,.86,2.52,1.62,3.96,1.98,1.35,.45,2.79,.54,4.23,.45,.4-.04,.76-.14,1.17-.36,.81-.54,1.48-1.12,2.21-1.75,.13-.13,.27-.32,.36-.45,.9-1.53,1.4-3.1,1.21-4.81,0-.23-.09-.45-.13-.58-.22-.67-.54-1.4-.95-1.98-.13-.22-.45-.45-.72-.54-.5-.22-.99-.45-1.53-.54-.76-.14-1.3,.09-1.66,.63-.23,.31-.5,.54-.63,.76-.13,.22-.13,.54,0,.67,.14,.23,.32,.36,.45,.54,.54,.67,.54,1.53-.04,2.21-.09,.04-.27,.13-.41,.13-.31,0-.54-.09-.76-.13-.09,0-.22-.09-.22-.18-.13-.36-.32-.68-.45-.99-.09-.36-.09-.67,0-.99,.13-.5,.36-1.12,.58-1.67,.18-.36,.5-.67,.85-.81,.32-.23,.68-.32,1.08-.54,.36-.22,.81-.22,1.26-.18,.94,.09,1.75,.49,2.47,1.08,.04,.09,.22,.18,.22,.32,.45,.67,.81,1.44,1.12,2.29,.13,.45,.13,.99,.09,1.49,0,.4-.09,.72-.18,1.08-.27,.86-.58,1.76-.99,2.61-.22,.36-.54,.72-.81,1.12-.86,.81-1.75,1.67-2.75,2.34-.18,.09-.31,.18-.54,.22-.99,.41-1.98,.54-3.06,.45-.9-.13-1.8-.27-2.7-.5Z"/><path d="M199.19,73.19c-.09-.05-.18-.05-.22-.09-.68-.4-1.4-.63-1.94-1.21-.27-.22-.5-.5-.76-.72-.9-.63-1.35-1.62-1.75-2.61-.32-.81-.18-2.21,.85-2.97l.54-.36c.27-.09,.5-.04,.72,.09,.22,.18,.31,.41,.31,.67-.04,.54-.22,.99-.67,1.35-.18,.09-.32,.23-.45,.41-.09,.09-.09,.27-.09,.36,.09,.31,.27,.63,.5,.9,.85,.95,1.8,1.8,2.97,2.38,.67,.36,1.35,.45,2.07,.54,.36,.04,.67,.04,1.03,.04,.5,0,1.04-.04,1.53-.18l.86-.13c.63-.04,1.21-.18,1.66-.63,.05,0,.05-.04,.09-.04,1.3-.58,2.2-1.62,3.28-2.38,.04-.04,.09-.09,.14-.09,.76-1.03,1.75-1.84,2.52-2.88,.76-1.12,1.44-2.34,2.12-3.51,.22-.36,.36-.76,.54-1.12,.85-1.75,1.44-3.6,1.93-5.44l.27-.86c.23-.72,.45-1.44,.58-2.2,.23-.95,.54-1.89,.9-2.79,.31-.86,.54-1.71,.85-2.57,.18-.54,.36-1.12,.63-1.67l1.89-3.78,.31-.54c.72-.99,1.4-2.03,2.16-3.01,.99-1.21,2.03-2.43,3.29-3.38,1.08-.81,2.25-1.58,3.46-2.12,.85-.36,1.71-.54,2.56-.81,.18-.04,.36,0,.54,0,.36,.04,.72,.13,1.12,.18,.54,.09,.99,.86,.76,1.39-.27,.68-.76,.99-1.48,1.08-.13,0-.32-.04-.5-.04-.22-.04-.36-.27-.32-.5l.14-.49c.09-.32,0-.45-.32-.58-.31-.14-.63-.18-.94,0-.27,.18-.58,.27-.86,.22-.54,0-1.04,.22-1.44,.5-.54,.31-1.12,.63-1.62,1.04-.5,.4-.99,.81-1.4,1.3-1.3,1.44-2.38,3.01-3.28,4.68-.54,.95-.9,1.93-1.4,2.88-.5,1.44-.99,2.83-1.26,4.32-.13,.99-.41,1.98-.67,2.97-.27,.81-.45,1.62-.63,2.47-.27,1.3-.72,2.52-1.26,3.73-.54,1.31-1.08,2.61-1.8,3.83l-.18,.32c-.45,.9-1.12,1.62-1.67,2.43-.5,.81-1.08,1.53-1.75,2.21-.13,.09-.22,.22-.36,.36-.77,.99-1.67,1.84-2.61,2.61-.41,.27-.72,.58-1.08,.9-.31,.27-.63,.54-.99,.81-.49,.4-1.03,.76-1.53,1.17-.58,.45-1.21,.81-1.89,1.04-.94,.31-1.84,.58-2.83,.72-1.08,.13-2.12-.09-3.2-.18Z"/><path d="M65.9,138.91c-.13-.22-.22-.45-.36-.76-.13-.22,.09-.54,.14-.85,0-.27,.13-.58,.22-.86,.22-.81,.63-1.53,.85-2.34,.05-.13,.14-.27,.18-.41,.36-.67,.63-1.39,.99-2.07,.14-.18,.18-.36,.36-.5,.04-.09,.09-.18,.09-.23,.36-.63,.58-1.3,1.08-1.84,.23-.76,.76-1.35,1.21-1.98,.32-.5,.63-.99,1.04-1.4,.27-.27,.41-.58,.63-.9,.23-.27,.5-.5,.72-.76,.32-.36,.68-.59,.9-.99,.04-.09,.13-.27,.31-.18,.05-.31,.18-.54,.36-.76,.32-.22,.45-.63,.63-.94,.23-.32,.41-.63,.72-.9,.14-.13,.23-.32,.36-.45,.13-.22,.36-.36,.58-.54,.5-.4,.86-.9,1.21-1.44,.18-.32,.23-.67,.32-1.04,.09-.5,.22-1.04,.4-1.53,.14-.45,.36-.94,.45-1.44l.13-.9c0-.13-.04-.31,.09-.45,.04,0,.04-.18-.04-.22-.09-.09-.09-.22-.05-.32,.27-.45,.14-.94,.32-1.39-.13-.09-.13-.27-.09-.41,.18-.27,.09-.54,.09-.81-.09-.09-.13-.18-.22-.22-.5-.23-1.04-.14-1.58-.18-.04,.09-.09,.14-.13,.14-.5,.13-.95,.36-1.35,.67-.13,.09-.36,.09-.36,.31-.18,0-.27,.13-.36,.27-.41,.31-.72,.76-1.17,1.03-.13,.09-.27,.18-.27,.36-.05,.04-.05,.09-.09,.09-.45,.23-.63,.72-.9,1.08-.32,.41-.63,.81-.99,1.12-.13,.18-.31,.54-.31,.76,0,.14-.09,.23-.14,.32-.13,.32-.27,.72-.36,1.04-.04,.18,0,.4-.18,.54-.09,.09-.09,.13-.13,.22-.04,.27-.18,.45-.41,.58-.22,.09-.31-.13-.45-.27v-.72c.27-.49,.58-.99,.94-1.44,.14-.18,.18-.45,.23-.67,.09-.45,.36-.72,.58-1.04,.27-.45,.58-.86,.99-1.17,.14-.13,.27-.23,.32-.41,.04-.22,.36-.18,.45-.36,.04-.18,.18-.32,.36-.36,.14-.04,.23-.18,.27-.32,.31-.36,.63-.72,1.04-1.03,.4-.32,.81-.63,1.3-.9,.18-.13,.81-.36,.99-.41q.22,0,.58-.18c.18,.22,.36-.04,.54-.04,.22,.04,.45,0,.63,0,.36,.22,.63,.45,.85,.76,.09,.14,.45,1.04,.41,1.12-.09,.18-.09,.32-.09,.45v1.58c0,.27,.04,.5-.09,.67-.09,.13,.04,.22,.09,.36-.18,.27-.09,.54-.09,.81-.05,.27,.04,.58-.05,.81-.13,.27,0,.58-.09,.86,.09,.04,.14,.09,.18,.13,.09,0,.18,.04,.31-.04,.36-.27,.72-.54,1.08-.76,.41-.32,.86-.45,1.21-.81,.54,0,.95-.31,1.44-.45,.72-.22,1.44-.36,2.21-.31,.22,.31,.36,.67,.54,.99,.23,.5,.54,.94,.5,1.53,0,.04,.04,.09,.04,.14,.09,.27,.18,.49,.18,.81-.04,.5,.09,1.04-.14,1.53-.04,.13,.05,.22,.14,.31-.14,.41-.27,.76-.23,1.12,.04,.41-.18,.76-.09,1.17,.09,.13,.23,.27,.41,.13,.22-.18,.45-.18,.72-.18,.13,0,.32-.22,.45,0,.09-.31,.31,.13,.41-.09,.18-.04,.4,0,.58-.04,.58-.04,1.12,.31,1.35,1.08,.13,.36,.22,.72,.5,1.03,.41-.09,.81,.18,1.26,.09,.04,0,.04,.04,.09,.04,.18,.04,.32,.13,.5,.18s.36,0,.58,0c.04,.04,.09,.13,.13,.22,.5,0,.9,.18,1.31,.27l.18,.04c.81,0,1.53,.18,2.34,.13,.22-.04,.45-.09,.67,.09,.04,.04,.22,0,.36-.04,.27-.09,.54-.13,.85-.18,.41,0,.81,0,1.21-.18,.23-.09,.45-.27,.63-.14,.68-.36,1.21-.81,1.75-1.26,0-.18,0-.31,.09-.5,.13-.18-.14-.27-.09-.45h-.63v-.27l.23-.27h.5c.13,.22,.36,.36,.49,.63,.09,.13,.09,.27,.05,.45,0,.04-.09,.09-.09,.18,.04,.09,0,.22,0,.31-.27,.32-.63,.58-.81,.99-.04,0-.04,.04-.09,.04-.41,.23-.72,.58-1.17,.72-.45,.14-.86,.32-1.3,.41-.59,.13-1.17,.27-1.76,.32-.63,.04-1.26,0-1.93,0-.22,0-.45-.14-.72-.14-.23,.05-.45,.05-.67,.05-.09-.14-.27-.09-.32-.23-.27,.23-.5,0-.67-.13-.04-.04-.09-.09-.18-.09-.27,.04-.5-.09-.68-.23-.31-.22-.76-.22-1.08-.45-.09,0-.14-.14-.23-.09-.27,0-.4,.27-.67,.23-.18,.18-.18,.41-.18,.63,.04,.58-.18,1.08-.54,1.58-.27,.5-.72,.85-.99,1.35-.31,.09-.5,.41-.76,.5-.23,.04-.32,.31-.67,.13-.09-.09-.27-.31-.45-.45-.27-.09-.27-.4-.54-.5,.04-.27-.04-.54,.04-.85,.13-.41,.41-.76,.67-1.08,.32-.36,.63-.76,1.12-.9,.32-.41,.9-.41,1.21-.95,0-.09,.09-.23,.13-.41-.13-.27-.22-.63-.54-.81-.45-.32-.9-.5-1.48-.45h-.5c-.27,0-.58-.04-.81,.22h-.23l-.5,.5c-.09,.41-.22,.81-.36,1.17-.04,.23-.13,.45-.23,.67-.04,.32-.18,.58-.27,.86-.13,.31-.27,.63-.36,.95-.13,.36-.36,.63-.54,.94-.18,.32-.45,.63-.45,1.04,0,.09-.05,.09-.09,.18-.22,.32-.45,.67-.72,.99-.04,.13-.18,.22-.27,.27-.14,.05-.23,.14-.27,.23-.41,.45-.94,.63-1.44,.85-.23,0-.27-.31-.5-.18-.32-.18-.45-.5-.63-.76-.13-.18-.23-.45-.23-.72,0-.13-.13-.18-.13-.31,0-.22,.09-.5-.09-.67-.04-.04,.09-.09,.09-.18,.13-.49,.36-.94,.72-1.3,.04-.09,.14-.13,.18-.22,.31-.54,1.12-1.35,1.67-1.75,.31-.23,.54-.54,.81-.72,.41-.22,.72-.63,1.17-.81l.18-.18c.23-.54,.5-1.04,.54-1.67,.04-.22,.13-.5,.32-.76-.09-.27,.09-.58,.13-.86,.09-.27,.09-.58,.22-.9,.14-.36,0-.77,.09-1.12,.13-.5,.09-.95,.09-1.4,.04-.45-.04-.85-.18-1.21-.04-.04,0-.13,0-.18-.18-.18-.36-.41-.63-.45-.18,.13-.36,.09-.58-.04-.09-.04-.13,.18-.27,.13-.23-.09-.45,.13-.67,.09-.27,.23-.63,.23-.9,.45-.04,0-.13,.09-.18,.09-.36-.04-.58,.23-.81,.41-.31,.18-.67,.36-.99,.58-.09,.04-.18,.13-.27,.22-.13,.14-.27,.23-.45,.27-.22,.09-.36,.36-.58,.5h-.18c-.13,.09,0,.27-.13,.31-.23,.13-.13,.41-.27,.58-.04,.09,.04,.27-.09,.36,.04,.36-.18,.72-.22,1.08-.04,.63-.27,1.17-.45,1.75-.22,.63-.41,1.3-.63,1.93l-.41,1.12c-.22,.81-.72,1.58-.99,2.43-.27,.67-.58,1.35-.86,2.03-.22,.5-.54,.9-.72,1.35s-.45,.9-.72,1.3c-.23,.27-.36,.58-.5,.9-.18,.54-.45,1.04-.86,1.49-.13,.18-.04,.4-.27,.49-.13,.14-.23,.32-.27,.5-.04,.09-.09,.13-.13,.18-.5,.45-.85,.99-1.26,1.53-.09,.13-.18,.27-.32,.36-.36,.18-.5,.54-.72,.81-.22,.18-.45,.36-.67,.58-.13,.14-.36,.27-.41,.41-.09,.22-.31,.18-.36,.36-.23,0-.32,.18-.5,.27-.23,.13-.41,.41-.63,.54-.14,.09-.32,.18-.5,.32-.63,.04-1.21-.09-1.62-.68Zm2.16-1.12c.13-.13,.13-.27,.27-.4,.58-.45,.95-1.12,1.35-1.71,.13-.18,.36-.32,.4-.5,.09-.32,.36-.54,.5-.76,.18-.27,.32-.58,.54-.81,.18-.22,.27-.54,.45-.81v-.18l.31-.27c0-.13,0-.22,.04-.32,.27-.45,.63-.9,.81-1.39,.04-.18,.18-.36,.27-.58,.04-.18,.27-.32,.32-.54,0-.04,.04-.09,.04-.09,.09-.18,.04-.41,.13-.63,.09-.18,.27-.23,.36-.41,.18-.31,.27-.67,.54-.95l.13-.27c.09-.18,.13-.41,.22-.58,.09-.36,.32-.67,.41-1.04,.18-.45,.36-.94,.63-1.39,.13-.27,.23-.54,.36-.81,.18-.54,.45-1.08,.63-1.67,.22-.54,.41-1.08,.58-1.66-.45-.09-.63,.27-.9,.4-.31,.18-.5,.5-.76,.72v.18c-.04,.13-.09,.09-.18,.09-.04,.32-.23,.54-.41,.76-.22,.23-.36,.5-.5,.77-.18,.31-.5,.45-.63,.81-.04,.04,0,.22-.18,.18-.18,.32-.5,.5-.67,.81-.27,.4-.58,.81-.95,1.12-.09,.09-.13,.22-.23,.31-.22,.32-.4,.72-.85,.72,0,.18-.13,.27-.18,.36-.23,.18-.41,.45-.5,.72-.09,.23-.23,.45-.36,.63l-.36,.63c-.14,.18-.27,.4-.36,.63-.18,.67-.58,1.17-.99,1.71v.27c-.09,.13-.18,.18-.22,.32-.09,.22-.13,.45-.27,.63-.18,.4-.27,.85-.54,1.21-.18,.67-.58,1.26-.72,1.98-.09,.41-.31,.81-.41,1.26-.04,.27-.27,.59-.09,.9,.23,.22,.41,.5,.77,.58,.4-.31,.81-.58,1.17-.95Zm14.67-8.64c.5-.45,.76-.99,.99-1.62,.18-.45,.31-.9,.5-1.35l.45-.99c.18-.5,.22-.99,.58-1.4-.05-.18,.13-.31,.09-.58-.23,.27-.45,.45-.72,.54,0,.13-.09,.27-.22,.27-.27,0-.36,.18-.45,.36-.04,.09-.13,.23-.22,.23-.23,.13-.41,.36-.58,.54h-.13c-.23,.41-.45,.72-.72,1.04-.09,.14-.27,.23-.31,.36-.09,.27-.27,.45-.45,.63,0,.36,.09,.76-.09,1.04,.13,.4,.31,.72,.5,1.08,.4,.18,.5,.13,.81-.14Zm7.11-2.7l.45-.58c.41-.58,.72-1.21,.95-1.94-.13,.14-.36,.09-.5,.14,0,.18-.09,.27-.22,.31-.18,.09-.36,.13-.5,.32-.13,.18-.36,.22-.5,.4-.09,.09-.18,.18-.22,.32l-.54,.9c.22,.13-.04,.49,.36,.58,.41-.05,.5-.09,.72-.45Z"/><path d="M227.61,129.37c-1.93-.54-3.78-1.17-5.58-1.94-1.62-.63-3.19-1.35-4.72-2.16-1.35-.72-2.7-1.39-4-2.07-.04,.04-.09,0-.13,0-2.34-1.04-4.54-2.34-6.75-3.64-.9-.49-1.8-.9-2.7-1.39-.14-.09-.23-.13-.36-.13-1.3-.27-2.61-.59-3.87-.86-.9-.22-1.84-.27-2.79-.04l-1.03,.13c-.18,.04-.27,.18-.32,.36,0,.18,0,.36-.04,.54,.04,.18-.22,.22-.32,.18-.13-.09-.22-.18-.31-.31-.23-.36-.54-.31-.76-.18-1.22,.63-2.29,1.48-3.11,2.61-.54,.81-.67,1.66-.45,2.56,.23,.99,.58,1.89,1.44,2.52,.13,.09,.22,.27,.22,.45,0,.04-.04,.04-.09,.09h-.13c-.99-.36-1.62-1.04-1.84-2.07,0-.18-.04-.4-.09-.63-.27-.81-.13-1.62,0-2.38,.09-.22,.18-.54,.23-.76,.13-.41,.31-.77,.67-1.04,.18-.09,.27-.22,.36-.31,.54-.77,1.3-1.22,2.11-1.71,.23-.09,.41-.22,.63-.4,.32-.18,.45-.41,.45-.81-.04-.36,0-.81,.09-1.17,.27-.86,.72-1.62,1.44-2.21,.95-.81,1.98-1.3,3.19-1.39,.14,0,.27,0,.41-.09,.86-.22,1.71-.13,2.66-.13s1.75,.13,2.61,.49c1.12,.4,2.34,.77,3.51,1.17,.09,.04,.23,0,.41,.09,1.17,.54,2.38,.86,3.51,1.44,.27,.14,.54,.23,.86,.36,1.08,.49,2.25,.95,3.37,1.48,1.04,.59,2.16,.99,3.29,1.48,.13,.09,.32,.13,.45,.23,1.8,.94,3.69,1.71,5.49,2.74,.27,.18,.58,.31,.9,.45,.86,.41,1.71,.81,2.47,1.26,1.4,.72,2.83,1.08,4.37,.9,1.35-.09,2.29-.81,2.88-1.98,.22-.49,.31-1.03-.09-1.44-.09-.13-.18-.22-.18-.36,0-.09,.05-.18,.09-.22,.09-.09,.27-.09,.36-.04,.23,.22,.36,.49,.41,.81,.13,1.17-.04,2.16-.9,3.06-.31,.31-.58,.59-.94,.86-.41,.31-.9,.49-1.4,.58-.85,.04-1.71,.13-2.56,.04-.58-.09-1.17-.18-1.75-.4-.99-.45-1.98-.77-2.97-1.21-3.11-1.35-6.21-2.84-9.18-4.5-2.21-1.17-4.46-2.25-6.79-3.29l-.95-.45c-.67-.32-1.35-.63-2.11-.86-.36-.04-.68-.27-1.08-.36-.58-.27-1.12-.5-1.75-.72-1.04-.49-2.12-.63-3.24-.58h-.99l-.94,.13c-1.4,.09-2.52,.72-3.55,1.57-.32,.36-.58,.72-.68,1.17-.04,.31-.13,.54-.18,.81,0,.18,.27,.49,.5,.54,.45,.04,.95,0,1.39-.09,1.12-.36,2.16-.22,3.29,.09,.45,.09,.9,.13,1.35,.22,.86,.09,1.71,.36,2.48,.63,.18,.09,.36,.22,.54,.36,.13,.13,.27,.13,.45,.09,.18,0,.36,0,.5,.09,.86,.32,1.71,.59,2.48,.99,.94,.5,1.89,.99,2.83,1.44,.99,.49,1.94,.99,2.88,1.44,.54,.27,1.04,.54,1.58,.86,1.49,.72,2.92,1.53,4.46,2.25,1.26,.63,2.56,1.21,3.83,1.75,.99,.45,2.07,.77,3.1,1.12,.67,.22,1.3,.45,1.98,.63,.5,.18,.99,.27,1.49,.31q1.58,.31,3.15,.04c1.08-.18,2.12-.45,3.02-1.04,.36-.13,.67-.31,1.04-.45,.63-.32,1.17-.77,1.71-1.17,.81-.63,1.26-1.58,1.58-2.57,.23-.72,.09-1.44-.13-2.11l-.13-.5c-.09-.18,0-.31,.13-.45,.09-.09,.36,.04,.36,.22,.04,.09,.13,.22,.13,.36,.04,.27,.09,.5,.18,.77,.27,.81,.13,1.62-.18,2.47-.18,.36-.32,.77-.45,1.17-.18,.27-.31,.54-.45,.77-.9,1.04-1.93,1.84-3.15,2.43-.23,.18-.5,.27-.77,.4-.99,.5-2.07,.9-3.19,.99-.18,0-.32,0-.5,.04-.58,.22-1.21,.13-1.89,.04-.95-.09-1.8-.31-2.75-.49Z"/><g><path d="M144.17,150.09h-.04l-2.26,1.22-.34-1.34,2.84-1.52h1.5v13h-1.7v-11.36Z"/><path d="M149.69,162.25l5.58-14.5h1.36l-5.6,14.5h-1.34Z"/><path d="M157.89,159.43c.5,.32,1.66,.82,2.88,.82,2.26,0,2.96-1.44,2.94-2.52-.02-1.82-1.66-2.6-3.36-2.6h-.98v-1.32h.98c1.28,0,2.9-.66,2.9-2.2,0-1.04-.66-1.96-2.28-1.96-1.04,0-2.04,.46-2.6,.86l-.46-1.28c.68-.5,2-1,3.4-1,2.56,0,3.72,1.52,3.72,3.1,0,1.34-.8,2.48-2.4,3.06v.04c1.6,.32,2.9,1.52,2.9,3.34,0,2.08-1.62,3.9-4.74,3.9-1.46,0-2.74-.46-3.38-.88l.48-1.36Z"/></g></g></g></g></svg>