<?xml version="1.0" encoding="UTF-8"?><svg xmlns="http://www.w3.org/2000/svg" viewBox="0 0 300 176"><defs><style>.d{fill:none;stroke:#fff;stroke-miterlimit:10;}</style></defs><g id="a"/><g id="b"><g id="c"><g><rect class="d" x=".5" y=".5" width="299" height="175" rx="20" ry="20"/><path d="M64.98,64.19c-.14-.09-.27-.18-.41-.22-.32-.09-.54-.27-.76-.45-.23-.23-.41-.45-.72-.54-.31-.23-.58-.5-.81-.86-.22-.4-.41-.81-.58-1.21l-.27-.54c0-.27-.04-.5-.09-.72-.04-.18-.13-.32-.18-.45-.09-.4-.04-.76-.04-1.17v-1.04l-.32-.54c-.04-.09-.09-.22-.18-.27-.58-.27-.99-.81-1.39-1.21-.09-.13-.18-.22-.18-.32-.13-.31-.31-.63-.4-.99,0-.18-.14-.36-.23-.58-.04-.95-.04-1.94-.04-2.92,.04-.23,.04-.41,.13-.58,.14-.18,.18-.41,.23-.58,0-.09,.04-.18,.09-.27,.18-.32,.45-.54,.58-.9,.22-.31,.5-.58,.81-.85,.14-.13,.41-.09,.54,0,.5,.32,.41,.95,0,1.26-.13,.09-.31,.09-.45,.09-.27,.04-.45,.18-.58,.41-.13,.22-.22,.45-.31,.63-.09,1.12-.09,1.58-.04,3.2,.04,.09,.04,.18,.13,.27,.13,.27,.09,.58,.27,.86,.13,.27,.36,.45,.49,.72,.14,.36,.41,.58,.72,.76,.09,0,.18,0,.27-.04,.04,0,.09-.04,.09-.09,.04-.22,.04-.41,.04-.58s0-.32,.04-.45c.14-.31,.27-.63,.36-.99,.22-.4,.22-.85,.45-1.26,0-.36,.18-.67,.36-.99,.05-.14,.14-.27,.18-.41,.13-.23,.27-.41,.36-.63,.09-.23,.18-.45,.36-.67,.32-.32,.45-.77,.76-1.08l.45-.81c.09-.18,.23-.27,.41-.4,.18-.09,.31-.23,.41-.41,.13-.22,.27-.45,.45-.63,.23-.27,.54-.41,.9-.41,.41,0,.81-.04,1.17,.04,.27,.09,.5,.23,.67,.32,.18,.13,.36,.27,.45,.45,.09,.22,.18,.45,.31,.67v1.21c-.04,.18-.13,.36-.22,.54-.09,1.8-.09,2.29,0,4.05,.04,.13,.13,.27,.22,.45,.09,1.08,.04,2.25,.04,3.37,.09,.18,.14,.32,.18,.45-.04,.09-.09,.18-.09,.27-.04,.13-.04,.31,0,.45,.09,.09,.09,.18,.09,.27-.13,.22-.13,.5-.13,.72-.05,.32-.05,.63-.05,.9,0,.22-.09,.4-.18,.58-.04,.13,.04,.27,.13,.36,.27,.18,.54,.32,.81,.45,.09,.04,.18,.04,.27,.04h1.31c.27-.09,.4-.22,.58-.36,.18-.18,.45-.23,.63-.36,.22-.27,.5-.5,.72-.76,.13-.09,.22-.18,.27-.23,.36-.58,.58-1.17,.9-1.67,.27-.49,.5-.99,.72-1.48l.13-.27c0-.09,0-.22,.05-.31,.13-.36,.31-.72,.49-1.08,.04-.23,.04-.5,.09-.72,.09-.14,.13-.27,.18-.41s.04-.22,.09-.32q.04-.49,.27-1.03c0-.41,.05-.86,.09-1.26,.04-.18,.13-.31,.22-.49-.04-.99,.09-2.07-.04-3.06-.22-.54-.5-1.04-.72-1.53-.09-.18-.14-.36-.18-.54,0-.09-.04-.23-.09-.32l-.13-.27c-.09-1.17-.09-2.39-.04-3.6,0-.54,0-1.08,.04-1.62,0-.09,0-.23,.04-.32,.13-.27,.22-.54,.27-.85,0-.05,.04-.09,.04-.14,.27-.36,.58-.67,.94-.94,.09-.04,.23-.04,.32,0,.22,.09,.4,.27,.45,.54,.04,.99,.04,1.98-.05,3.01-.27,.54-.36,1.12,0,1.71,.05,1.12,.05,2.29,.09,3.38,.13,.31,.27,.58,.27,.9,0,.18,.04,.32,.09,.45,.14,.27,.23,.54,.27,.85,.18,.32,.27,.63,.27,.99,0,.04,0,.09,.04,.13,.23,.45,.23,.99,.5,1.44,0,.18,0,.36,.04,.58,0,.13,0,.27,.04,.41,.18,.4,.32,.76,.27,1.12,.13,.27,.22,.54,.31,.72,.14,.27,.23,.58,.32,.85,.04,.32,.22,.54,.27,.86,0,.04,.04,.09,.09,.13,.05,0,.14-.04,.14-.18,.04-.32,.22-.54,.31-.9v-.85c.04-.32,.14-.58,.27-.86,.04-.31,.04-.67,.09-.99,.04-.18,.13-.32,.18-.5l.13-.99c.09-.27,.23-.54,.27-.86,.04-.18,.13-.36,.22-.58,.04-.22,.04-.45,.09-.72l.14-.27c.18-.41,.45-.77,.45-1.26,.27-.32,.23-.77,.41-1.08,.09-.18,.18-.41,.13-.58,0-.32,.14-.58,.27-.86,.04-.27,.09-.5,.09-.76,.13-.27,.27-.54,.27-.86,0-.5,0-.99,.04-1.44,.09-.23,.13-.41,.22-.58,0-.41,.04-.81,.09-1.21,.04-.18,.13-.36,.23-.58,0-.36,.04-.77,.04-1.21l.13-.36c.13-.41,.36-.72,.54-1.08,.09-.13,.18-.22,.36-.31,.04-.05,.18,0,.27-.05,.27,.14,.5,.36,.45,.72,0,.09,0,.18-.04,.27-.05,.13-.09,.27-.18,.45-.04,.72,0,1.49-.09,2.21-.13,.27-.22,.58-.22,.9v1.49c-.04,.31-.04,.58-.04,.85-.09,.23-.18,.41-.23,.63-.04,2.66-.09,5.36-.09,8.1-.27,.54-.36,1.12,0,1.71,.04,1.53-.04,3.06,.04,4.59l.23,.49c.04,.32,.09,.63,.09,.99,.09,.27,.31,.54,.31,.86,0,.09,.04,.18,.09,.27,.18,.41,.36,.81,.58,1.21,.18,.41,.45,.76,.72,1.12,.13,.41,.45,.67,.76,.9,.09,.09,.32,.09,.41,0,.13-.09,.22-.18,.31-.32,0-.04,.04-.09,.04-.13l.27-.54,.09-.76c.27-.32,.27-.77,.32-1.12,.04-.18,.13-.36,.22-.58,0-.5,.04-.99,.04-1.49,0-.31,.13-.58,.27-.9,0-.59,.05-1.26,.05-1.85,.09-.18,.13-.31,.18-.5,.09-.36,.04-.76,.09-1.17,0-.36,0-.67,.04-1.03,.04-.18,.13-.41,.22-.58v-1.17c0-.09-.04-.23-.13-.27-.13-.22-.31-.41-.4-.63-.05-.22-.09-.5-.23-.72-.13-.18-.09-.36-.13-.58-.09-.18-.18-.36-.22-.54-.05-.18-.05-.41-.05-.58v-1.17c.18-.45,.36-.86,.68-1.21,.13-.14,.22-.32,.36-.5,.04-.09,.36-.18,.54-.09,.13,.09,.23,.18,.23,.36,0,.23,.04,.41,.04,.58v1.62c.09,.45,.27,.81,.27,1.21-.04,.27,0,.58,0,.9,0,.18,.13,.27,.27,.36,.36,.18,.76,.45,1.17,.58l.81,.45c.18,.23,.32,.5,.45,.81,0,.18,0,.36,.04,.54,0,.45-.09,.81-.32,1.17,0,.63-.04,1.3-.09,1.93l-.13,.27c-.04,.18-.04,.32,0,.45,0,.09,.04,.18,.09,.27-.04,.18-.09,.31-.18,.49v1.17c0,.22,.04,.49,.18,.72,.09,.13,.09,.27,.09,.4,0,.18,.04,.32,.04,.45,.23,.32,.41,.58,.58,.9,.14,.18,.32,.22,.54,.22,.09,0,.18-.04,.27-.09,.31-.27,.58-.54,.85-.9,.27-.58,.63-1.21,.9-1.84,.13-.27,.31-.54,.36-.81,.04-.32,.23-.54,.32-.86,.04-.27,.18-.54,.27-.85,.09-.27,.18-.54,.32-.81,.04-.18,.04-.4,.13-.58,.04-.13,.13-.27,.18-.4,0-.32,.04-.63,.04-.95l.27-.54c0-.31,.04-.67,.04-1.04,.13-.27,.27-.54,.27-.85,0-.41,.04-.81-.04-1.17-.09-.32-.27-.54-.27-.86,0-.09-.04-.18-.09-.27-.13-.22-.18-.5-.22-.72,0-.72,.04-1.4,.04-2.03,.13-.36,.27-.63,.31-.94,0-.09,.04-.18,.09-.27,.41-.45,.67-.99,1.12-1.39,.13-.14,.41-.14,.54,0,.18,.18,.32,.4,.32,.63,0,.27,0,.54-.04,.72-.04,.22-.14,.41-.18,.58-.04,.32-.09,.63-.09,.9-.09,.22-.13,.4-.22,.58-.04,.81-.04,1.57,0,2.43,.22,.67,.63,1.3,.94,1.98,.05,.13,.18,.23,.27,.36,.22,.41,.5,.76,.54,1.21,.04,.22,.18,.36,.27,.54,.14,.41,.36,.72,.36,1.12,.09,.13,.13,.27,.22,.45,.04,.49,.04,1.08,.09,1.62l.14,.27c.18,.22,.54,.31,.81,.18,.23-.09,.45-.22,.72-.36,.5-.36,.95-.81,1.4-1.31,.41-.36,.76-.76,1.12-1.17,.13-.13,.22-.31,.27-.54v-1.67l-.67-1.35c-.27-.36-.58-.67-.9-.99-.18-.18-.4-.31-.63-.4-.13-.04-.18-.27-.13-.36s.13-.13,.23-.18c.18-.04,.31,0,.45,.09,.04,0,.09,.04,.14,.04,.22,.22,.4,.45,.63,.63,.09,.09,.13,.18,.18,.27,.18,.36,.5,.63,.67,.99,.09,.14,.18,.32,.27,.5,.04,.09,.09,.23,.09,.32,0,.27,.13,.45,.22,.67,.09,.45,.09,.9,0,1.35l-.67,1.35c-.36,.45-.81,.85-1.26,1.3-.09,.09-.18,.18-.32,.27-.36,.09-.58,.36-.85,.63-.13,.09-.32,.23-.5,.32-.41,.18-.81,.41-1.17,.63-.13,.09-.23,.18-.27,.36,0,.13-.04,.27-.13,.4-.18,.36-.36,.72-.54,1.17-.13,.09-.27,.32-.45,.5-.18,.18-.31,.36-.4,.63-.13,.23-.32,.41-.5,.54-.09,.09-.18,.14-.27,.18-.27,.09-.54,.09-.85,0-.13-.04-.27-.14-.36-.27-.09-.22-.18-.45-.31-.67-.04-.13-.04-.27,.04-.41l.27-.63c.41-.45,.86-.9,1.35-1.3,.18-.18,.45-.22,.63-.41,.18-.09,.27-.27,.31-.5v-.27c0-.41-.04-.81-.04-1.21-.18-.36-.27-.77-.27-1.17-.09-.14-.13-.27-.18-.41-.31-.5-.4-1.12-.67-1.67-.04-.27-.13-.58-.27-.85-.09-.18-.04-.36-.13-.54l-.32-.54s-.09-.04-.09,0c-.04,0-.09,.04-.09,.09,0,.41-.04,.81-.27,1.17-.04,.27-.04,.58-.09,.81,0,.27-.13,.45-.22,.68,0,.22-.04,.45-.09,.72-.05,.18-.18,.36-.23,.54-.04,.4-.09,.76-.27,1.12,0,.36-.23,.67-.32,.99-.04,.36-.27,.68-.36,.99-.18,.27-.27,.54-.32,.86-.13,.31-.27,.63-.36,.99-.18,.41-.36,.81-.58,1.17-.18,.36-.45,.68-.67,.99-.04,.13-.18,.22-.31,.32-.18,.13-.41,.27-.68,.36-.18,.04-.36,.04-.58,.04-.13,0-.27-.04-.4-.04-.18-.04-.27-.13-.41-.22-.32-.09-.54-.27-.76-.5-.14-.13-.23-.32-.32-.5l-.54-1.08c-.04-.22-.09-.5-.09-.72-.18-.36-.27-.76-.22-1.17v-.86l.22-.63c0-.27,0-.58,.04-.85,0-.18,0-.32,.04-.45s.13-.27,.18-.41c.04-.27,.09-.49,.09-.76,.13-.22,.27-.45,.27-.67,.04-.18,.04-.32,.13-.45,.18-.27,.18-.54,.14-.85,0-.23-.23-.5-.45-.58-.27-.09-.58-.09-.86,.04-.09,0-.18,.09-.27,.18-.04,.04-.09,.13-.13,.22l-.09,.77c-.13,.27-.22,.54-.22,.85,0,.5-.04,.99-.04,1.44-.09,.22-.18,.4-.22,.63-.04,.99-.09,1.98-.09,3.01-.09,.13-.13,.32-.22,.54-.04,.41-.04,.85-.09,1.26-.04,.18-.13,.32-.18,.5-.04,.32-.09,.67-.09,.99-.09,.18-.18,.31-.18,.45-.09,.31-.18,.67-.36,.99,0,.5-.32,.81-.68,1.08-.13,.09-.27,.18-.4,.18h-.72c-.27-.13-.49-.22-.81-.36-.54-.45-1.12-1.04-1.67-1.62-.09-.09-.18-.22-.27-.36l-.86-1.75c-.04-.09-.04-.18-.04-.27-.04-.27-.22-.5-.31-.76,0-.45-.05-.95-.05-1.49l-.22-.58c0-.22,0-.54-.04-.86v-1.48c0-.13,0-.32-.04-.45,0-.13-.09-.27-.09-.41l.13-.45v-7.02c0-.13,0-.22-.09-.27-.04-.04-.13,0-.18,.13l-.27,.54c0,.23-.04,.5-.09,.72-.09,.23-.23,.45-.23,.72-.04,.13-.09,.27-.18,.4-.09,.18-.13,.36-.13,.58,0,.32-.13,.58-.27,.86,0,.45-.04,.9-.04,1.3-.18,.32-.27,.58-.27,.9,0,.27-.04,.58-.04,.85-.09,.23-.13,.41-.23,.58-.04,.32-.04,.58-.04,.9s-.13,.58-.27,.9c0,.45-.04,.95-.04,1.49-.09,.18-.13,.36-.23,.58-.04,.54-.09,1.12-.04,1.75,0,.18,0,.41-.04,.58,0,.18-.18,.36-.36,.41-.41,.04-.72-.32-.77-.58-.04-.09-.04-.18-.04-.27-.04-.13-.04-.31-.09-.45-.04-.13-.09-.27-.18-.45-.04-.5-.04-1.04-.09-1.58l-.23-.5c0-.32-.04-.63-.09-.99l-.13-.4c-.09-.27-.09-.5-.13-.77-.04-.22-.23-.4-.27-.67,0-.27-.13-.5-.22-.72-.09-.23-.09-.5-.23-.72-.13-.23-.13-.45-.18-.72,0-.09-.04-.18-.04-.27-.04-.13-.13-.27-.18-.45-.04-.22-.04-.45-.09-.72-.04-.13-.13-.27-.27-.36-.04,0-.09-.04-.13-.04l-.09,.09c-.04,.14-.04,.32-.04,.45,0,.5,0,.99-.05,1.49l-.22,.4c-.09,.36-.04,.72-.09,1.08-.09,.27-.22,.54-.27,.81-.04,.22-.13,.4-.22,.63-.04,.18-.09,.45-.09,.67-.09,.13-.18,.27-.22,.41-.09,.4-.41,.72-.36,1.12-.13,.27-.27,.54-.32,.85,0,.09-.09,.18-.13,.27-.13,.13-.22,.31-.36,.45l-.13,.58c-.18,.27-.4,.45-.58,.67-.27,.27-.54,.5-.63,.86-.18,.22-.41,.5-.63,.63-.31,.13-.58,.36-.9,.58-.04,.04-.13,.09-.27,.09-.09,.04-.18,.04-.27,.09-.45,.27-.95,.27-1.44,.18-.13,0-.22-.04-.31-.09-.27-.14-.54-.14-.86-.14-.22,0-.36,.14-.5,.32-.09,.13-.13,.27-.13,.41-.04,.22-.13,.4-.27,.54-.31,.36-.67,.72-1.12,.94-.23,.13-.41,.32-.59,.45-.49,.04-.94,.04-1.39,.04-.09,0-.18-.04-.27-.04Zm-.63-8.82c.22-.18,.45-.41,.72-.5,.31-.13,.5-.36,.67-.63,.04-.04,.13-.18,.13-.27,0-.58,.04-1.17,.04-1.75,.13-.36,.27-.67,.27-1.04,0-.09,.04-.18,.09-.27,.18-.45,.41-.95,.63-1.35,.22-.32,.58-.45,.95-.32l.22,.13,.18,.04c.09,.04,.32-.09,.32-.22,.09-.86,.09-1.67,0-2.52v-.14l-.13-.27-.41-.23c-.22-.13-.45-.18-.72-.13-.23,.13-.45,.27-.68,.36-.13,.09-.22,.18-.31,.31l-.41,.81c-.09,.13-.13,.27-.22,.36-.23,.27-.41,.58-.54,.9-.22,.45-.5,.85-.67,1.35-.09,.23-.09,.45-.23,.67-.22,.41-.45,.81-.5,1.26,0,.09-.04,.18-.09,.27-.13,.18-.18,.36-.18,.58,.04,.32-.13,.58-.22,.86-.04,.36-.09,.76-.04,1.17v.31c.04,.18,.22,.36,.4,.36,.27,0,.5,0,.72-.13Zm2.02,7.83c.18-.04,.36-.13,.54-.22l.32-.27c.31-.5,.54-.94,.72-1.48,.09-.18,.04-.41-.09-.54-.18-.23-.36-.45-.58-.67-.36-.58-.68-1.21-.95-1.85-.04-.09-.04-.18-.09-.31-.04-.27-.04-.58-.09-.86-.04-.18-.14-.36-.23-.58,0-.22,0-.45-.04-.72,0-.09-.04-.18-.04-.27-.04-.14-.13-.18-.27-.14-.23,.05-.45,.18-.63,.32-.23,.09-.41,.27-.63,.41-.18,.13-.45,.22-.63,.4-.04,.04-.13,.14-.22,.18l-.22,.4v1.35c0,.18,.04,.36,.04,.58,.22,.31,.18,.76,.36,1.12,.09,.09,.13,.27,.18,.4,.09,.45,.31,.81,.58,1.17,.13,.18,.22,.32,.31,.5,.27,.45,.58,.81,1.08,.99l.27,.13c.09,0,.23,0,.32-.04Zm2.21-4.09c.04-.41,.04-.81,.09-1.21,.04-.18,.13-.36,.18-.58,.04-1.08,.04-2.25,0-3.33-.04-.18-.13-.31-.18-.5-.04-.4-.09-.72-.09-.99,0-.04-.04-.14-.09-.14-.09-.04-.18,0-.23,.09-.22,.22-.45,.4-.54,.72-.04,.13-.13,.22-.27,.36-.18,.18-.32,.36-.41,.58-.04,.14-.13,.27-.18,.41-.09,.45,0,.9,.22,1.3,0,.41,.04,.81,.04,1.17l.27,.72c.04,.18,.09,.4,.22,.54,.18,.22,.32,.49,.5,.76,.04,.09,.09,.13,.18,.22,.04,0,.09,.04,.14,.04,.09,0,.13-.09,.13-.18Zm-.99-6.93c.32-.27,.45-.63,.58-.99-.04-.27-.13-.54-.22-.85,0-.09-.27-.23-.36-.18l-.09,.09c-.22,.13-.36,.36-.36,.63v1.58s0,.13,.04,.13c0,.04,.09,.09,.09,.09,.18-.13,.18-.36,.31-.5Zm34.51,7.15c.27-.4,.45-.85,.67-1.3,.04-.09,0-.18-.09-.27-.04-.09-.27-.13-.36,0-.04,0-.09,.04-.13,.04-.27,.27-.54,.5-.76,.81-.04,.23-.27,.45-.32,.77-.04,.09,0,.18,.09,.27,.14,.04,.27,.09,.41,.04,.23-.04,.36-.18,.5-.36Z"/><path d="M215.37,73.28c-.27-.18-.63-.23-.95-.36-1.04-.31-1.84-.95-2.47-1.71-.32-.36-.54-.81-.67-1.26-.04-.32-.18-.67-.27-.99-.36-1.12-.4-2.25-.09-3.38,.04-.09,.04-.18,.04-.27,.04-.27-.04-.5-.27-.67-.14-.04-.23-.09-.36-.18-.36-.22-.67-.45-1.04-.72-1.26-.81-1.35-1.58-.94-2.97,.18-.63,.45-1.17,.76-1.75,.45-.81,.99-1.49,1.71-2.03,.54-.4,1.08-.9,1.67-1.21,1.26-.76,2.56-1.39,4.05-1.26h.41c1.39-.18,2.7,.18,3.96,.72l1.4,.68c.27,.09,.5,.04,.72-.09,.67-.54,1.26-1.17,1.8-1.84,.09-.13,.04-.36-.04-.45-.54-.49-1.04-1.03-1.58-1.48-1.39-1.21-2.56-2.66-3.69-4.09l-2.03-2.48c-.45-.58-.99-1.17-1.48-1.75-.86-1.17-1.93-2.16-3.01-3.1-.32-.36-.68-.67-1.04-.99-.36-.31-.76-.63-1.26-.85-.86-.36-1.71-.77-2.57-1.17-.22-.09-.5-.13-.72-.13-.9-.05-1.8-.05-2.7,0-.76,.09-1.48,.22-2.21,.54l-1.39,.68c-1.44,.63-2.52,1.67-3.42,2.97-.22,.27-.41,.54-.58,.81-.81,1.04-1.3,2.21-1.8,3.38-.18,.32-.22,.63-.22,.99,0,.58-.05,1.12-.05,1.39-.13,1.35-.09,2.38,.23,3.42,.22,.76,.54,1.44,1.04,2.07,.54,.58,1.08,1.21,1.84,1.57l1.48,.72c.63,.27,1.26,.4,1.98,.45,.36,0,.76,0,1.12,.05,.54,.04,1.04,0,1.53-.23,.4-.18,.85-.36,1.26-.58,.45-.22,.9-.45,1.35-.72,.58-.27,1.08-.67,1.58-1.12,.58-.54,1.04-1.21,1.35-1.98l.67-2.07c.18-.58,.09-1.17-.22-1.71l-.41-.67c-.18-.27-.09-.54,.13-.81,.05-.04,.09-.13,.18-.18,.04-.04,.27-.04,.31,.04,.45,.45,.72,1.04,.9,1.67,.09,.32,.04,.67,0,.99-.27,1.17-.67,2.29-1.26,3.33-.32,.58-.68,1.12-1.04,1.62-.5,.72-1.08,1.35-1.8,1.8-.77,.5-1.53,.99-2.29,1.4-.58,.31-1.21,.54-1.84,.45-.72-.04-1.44-.04-2.16-.04-.67,0-1.26-.14-1.84-.45l-.58-.27c-1.35-.63-2.39-1.62-3.2-2.88-.67-.99-.99-2.02-.99-3.24-.04-.36-.04-.77-.04-1.12-.13-1.44,.18-2.79,.67-4.14,.18-.5,.45-.99,.68-1.49,.13-.22,.27-.45,.36-.67,.5-1.26,1.3-2.29,2.12-3.33,.76-.95,1.67-1.71,2.79-2.25,.76-.36,1.48-.76,2.29-1.04,.9-.31,1.8-.54,2.74-.5,.63,0,1.22-.04,1.8-.04s1.12,.04,1.62,.32c.81,.36,1.67,.67,2.48,1.04,.67,.31,1.3,.81,1.89,1.3,1.26,1.04,2.47,2.07,3.64,3.24,.72,.72,1.4,1.44,2.07,2.2,1.12,1.31,2.21,2.61,3.38,3.87,1.08,1.26,2.25,2.43,3.51,3.51,.27,.23,.45,.32,.81,.04,.63-.54,1.26-1.03,1.84-1.57,1.04-.9,2.25-1.53,3.56-1.98,1.39-.45,2.74,.13,3.51,1.4,.36,.67,.45,1.35,.4,2.11,0,.09,0,.23-.04,.36-.63,1.44-1.67,2.43-3.06,3.15-.04,.04-.13,.09-.22,.14-1.35,.31-2.75,.58-4.14,.13l-.99-.27c-.54-.13-1.08-.31-1.53-.58-.36-.22-.67-.13-.99,.04t-.09,.05c-.63,.45-1.12,1.03-1.62,1.62-.09,.14-.09,.36,0,.5l1.08,1.26c.23,.23,.45,.45,.54,.72,.41,.81,.86,1.57,1.21,2.38,.54,1.17,.58,2.38,.32,3.6-.13,.67-.36,1.35-.63,1.93-.63,1.35-1.35,2.61-2.25,3.74-.23,.31-.54,.54-.86,.76-.85,.63-1.75,1.21-2.65,1.75-.67,.36-1.4,.63-2.21,.63-.18,0-.41,0-.63,.04-.81,.04-1.62,0-2.34-.4Zm-3.74-10.17c.09-.04,.18-.18,.23-.31,.36-.77,.85-1.44,1.3-2.16,.58-.9,1.44-1.31,2.43-1.53,.86-.22,1.75-.27,2.61,.04,.22,.09,.4,.13,.63,.18,.22,0,.45-.04,.58-.18,.5-.45,1.04-.9,1.53-1.39,.14-.13,.09-.45-.09-.54-.31-.23-.67-.36-.99-.58-.5-.36-1.08-.45-1.62-.77-.54-.27-1.17-.13-1.75-.13h-.23c-.58,.04-1.21-.09-1.8,.04-.58,.14-1.08,.5-1.57,.77-1.12,.63-2.16,1.35-2.97,2.38-.5,.63-.67,1.35-.94,2.07-.04,.09-.04,.23-.04,.45,.04,.13,.04,.36,.18,.5,.5,.76,1.17,1.26,2.07,1.35,.13,0,.31-.09,.45-.18Zm6.57,9.04c1.04-.13,2.02-.36,2.88-.9,.36-.22,.76-.41,1.12-.63,.45-.22,.9-.5,1.35-.76,.76-.54,1.35-1.3,1.71-2.16,.27-.63,.36-1.3,.45-2.03,.09-.63,.04-1.26-.13-1.89-.23-.85-.63-1.67-1.08-2.43-.58-1.08-1.35-1.98-2.07-2.92-.22-.27-.54-.27-.81-.04-.45,.36-.9,.76-1.35,1.17-.09,.09-.13,.36-.04,.45,.41,.54,.77,1.12,1.26,1.62,.58,.58,.95,1.4,1.22,2.21,.04,.27,.09,.5,0,.77-.09,.31-.23,.63-.41,.94-.09,.18-.27,.27-.5,.32-.18,0-.36-.13-.45-.41-.18-.67-.41-1.3-.76-1.89-.5-.76-.99-1.49-1.62-2.16-.18-.22-.36-.22-.63-.04-.63,.41-1.21,.85-1.75,1.26-.45,.36-.86,.58-1.35,.72-.32,.09-.63,.18-.86,.36-.41,.32-.9,.41-1.39,.58l-.86,.27c-.36,.09-.54,.4-.63,.72l-.13,1.04c-.09,.36-.09,.72,0,1.12,.09,.22,.13,.49,.18,.76,.13,.85,.58,1.58,1.12,2.25,.32,.4,.72,.72,1.21,.9,1.12,.54,2.29,.9,3.55,.86,.27,0,.5,0,.77-.04Zm-3.87-9.63c.54-.22,1.08-.5,1.62-.76,.5-.23,.94-.54,1.35-.9,.09-.09,.09-.22,.13-.31-.04-.09-.04-.23-.13-.27-.13-.09-.27-.18-.45-.22-.81-.18-1.57,.04-2.34,.31-.09,0-.13,.04-.22,.09-.58,.5-1.08,1.08-1.3,1.85-.09,.27,.13,.58,.4,.5,.32-.09,.63-.14,.95-.27Zm18.04-8.05c1.35-.04,2.66-.85,3.29-2.02,.09-.14,.18-.32,.18-.5,0-.41,0-.86-.04-1.26-.04-.27-.18-.54-.45-.76-.67-.45-1.39-.72-2.25-.58-.5,.09-.99,.23-1.49,.45-1.3,.58-2.52,1.39-3.6,2.34-.41,.36-.36,.76,.09,1.04,.22,.18,.5,.36,.76,.5,.99,.49,1.98,.85,3.2,.81h.31Z"/><path d="M69.66,138.91c-.23,0-.41-.04-.58-.04-.09-.04-.23-.09-.27-.13-.45-.22-.9-.36-1.35-.63-.22-.13-.5-.27-.72-.5-.14-.13-.36-.18-.5-.27-.13-.09-.27-.18-.32-.32-.22-.36-.45-.63-.72-.95-.27-.31-.5-.76-.63-1.3-.09-.27-.27-.54-.27-.81s-.04-.5-.04-.77l-.13-.27c-.09-.13-.09-.27-.04-.41,.18-.27,.22-.54,.22-.85,0-.09,.05-.18,.09-.32l.31-.45c.09-.13,.13-.27,.18-.4,0-.13,.05-.27,.14-.41,.18-.41,.4-.81,.58-1.21l.27-.32c.76-.72,1.49-1.48,2.21-2.2,.13-.14,.32-.27,.45-.36,.27-.13,.54-.27,.76-.41,.45-.04,.81-.04,1.17-.27,.58-.09,1.17-.04,1.75-.04,.32,0,.58,.13,.9,.22,.31,.04,.63,.09,.99,.09,.27,.13,.54,.27,.77,.41,.18,.09,.27,.32,.18,.5-.09,.22-.04,.41,.04,.58,0,.04,.04,.09,.04,.13,.04,.13,.04,.27-.04,.41l-.13,.09c-.22,.22-.58,.31-.81,.13-.54-.41-1.12-.72-1.8-1.04-.22,0-.45-.04-.72-.09-.18-.04-.36-.13-.5-.18-.63-.09-1.21-.04-1.75-.04-.54,.18-.94,.36-1.3,.72-.09,.09-.18,.13-.27,.18-.27,.14-.5,.32-.68,.54-.22,.27-.31,.63-.58,.86-.22,.18-.4,.4-.58,.63-.09,.13-.13,.27-.18,.41,0,.18-.04,.31-.13,.45-.23,.45-.45,.95-.72,1.44-.09,.67-.05,1.35,0,2.07,0,.09,.04,.18,.09,.27,.04,.13,.13,.27,.13,.41,.04,.31,.18,.54,.31,.81,.09,.18,.18,.36,.32,.5,.5,.5,.95,.99,1.53,1.48,.27,.14,.54,.32,.85,.45,.36,.18,.67,.41,1.08,.54,.32,.09,.63,.13,.9,.32h.49c.36,0,.68,0,.95-.23,.5-.04,.95-.04,1.35-.04,.23-.04,.41-.09,.58-.18,.09-.04,.18-.09,.27-.09,.22-.04,.45-.13,.67-.23,.22-.13,.45-.22,.63-.4,.18-.18,.41-.27,.67-.32,.14,0,.27-.09,.36-.18,.5-.45,.95-.9,1.39-1.35,.18-.18,.32-.36,.41-.59,.13-.22,.32-.4,.45-.58,.13-.22,.22-.45,.36-.63,.27-.31,.4-.67,.58-1.03,.09-.54,.45-.99,.58-1.53,.04-.5,.04-.95,.09-1.44l.18-.58c.09-.81,.04-1.66,.04-2.47,0-.27-.13-.5-.22-.72-.09-.81,0-1.67-.09-2.52-.14-.27-.27-.54-.23-.81,0-.41-.04-.81-.04-1.21,0-.58,.04-1.17-.04-1.8l-.13-.36c-.09-.27-.09-.5,0-.72l.13-.32c.04-.49,.04-1.03,.04-1.57,0-.23,.09-.41,.18-.54,.09-.13,.09-.32,.09-.45,0-.22-.14-.41-.32-.41h-.45c-.31,.04-.58-.13-.9-.22-.81-.09-1.62,0-2.43-.09-.27-.09-.49-.23-.72-.27-.22,0-.41,0-.58-.09-.13-.04-.27-.09-.41-.18-.36,0-.67-.04-.99-.09-.18-.04-.32-.14-.45-.18-.63-.13-1.26-.04-1.89-.09l-.27-.13c-.22-.09-.4-.09-.58,0l-.31,.13c-.23,0-.54,.04-.86,.04-.22,0-.45,.04-.67,.18-.13,.09-.27,.09-.45,.13-.09,0-.18,0-.27,.09-.36,.36-.81,.54-1.26,.76-.32,.14-.54,.41-.77,.63l-.13,.27c0,.22-.09,.41-.18,.58l-.54,1.17c-.09,.18-.13,.36-.18,.54-.09,.22-.18,.41-.22,.58-.09,.54-.04,1.08-.04,1.62,0,.31,0,.67-.04,1.03,0,.23,.04,.45,.22,.68,0,.04,.04,.09,.04,.13,.09,.22,.23,.45,.41,.63l1.08,1.08,.85,.45c.09,0,.18,.04,.27,.04,.13,0,.18,.04,.27,.13-.04,.09-.09,.13-.22,.18s-.27,.13-.41,.18c-.4-.14-.76-.36-1.21-.58-.5-.45-.99-.9-1.44-1.4l-.41-.85c-.09-1.12-.04-2.34-.04-3.51,.45-1.08,1.04-2.12,1.58-3.15,.22-.31,.45-.67,.63-.99,.18-.27,.4-.5,.67-.58,.27-.13,.45-.36,.72-.5,.54-.31,1.08-.63,1.71-.81,.36-.04,.63-.27,.99-.31,.22-.09,.45-.23,.67-.23,.27,0,.5,0,.72-.04,.23-.04,.41-.13,.63-.22h1.44c.18,.09,.36,.13,.58,.22,.36,.04,.76,.04,1.12,.04,.31,0,.58,.13,.9,.27,.32,0,.63,.04,.99,.04,.13,.09,.27,.13,.45,.22,.36,.09,.81,.04,1.3,.09l.54,.23c.18,0,.36,.04,.54,.04,.27,0,.5,.04,.72,.18,.09,0,.18-.04,.27-.09,.27-.23,.5-.5,.54-.86,.04-.13,.09-.27,.18-.4,.36-.36,.5-.86,.85-1.17l.09-.14c.13-.4,.4-.67,.72-.94,.22-.13,.5-.27,.76-.41,.32,0,.67-.04,1.04-.09,.13-.04,.27-.09,.41-.18,.22,0,.45-.04,.72-.09l.13-.09c.13-.18,.27-.4,.36-.63,.13-.18,.22-.41,.4-.58,.23-.27,.5-.5,.59-.85,.04-.09,.13-.14,.18-.23,.27-.22,.5-.5,.72-.72,.27-.09,.5-.18,.72-.32,.23,.18,.54,.18,.81,.32,.04,0,.09,.04,.04,.09,0,.04-.04,.09-.09,.09-.27,0-.5,.04-.72,.04-.13,.09-.27,.18-.4,.23-.36,.09-.58,.31-.72,.67-.04,.13-.18,.22-.27,.36-.09,.13-.27,.27-.36,.45-.13,.14-.4,.63-.5,.9,0,.09,.05,.18,.14,.22,.36,.18,.67,.45,.76,.86l.13,.27s.04,.09,.04,.14c.09,.31-.04,.54-.18,.76-.04,.31-.04,.54-.09,.76l-.41,.81c-.5,.58-1.08,1.12-1.58,1.62-.04,.36-.09,.58-.09,.86-.09,.13-.13,.27-.18,.41-.04,.13-.04,.27-.04,.4,0,1.26,0,2.48-.04,3.69,0,.85,0,1.71,.04,2.52,.09,.18,.13,.36,.22,.58,.04,.27,.04,.54,.04,.86,.04,.09,.09,.18,.18,.18s.18-.04,.22-.13c.04-.09,.13-.18,.13-.27,.23-.45,.5-.85,.67-1.3,0-.04,.05-.09,.09-.22,.31-.32,.72-.68,1.08-1.08,.27-.27,.54-.41,.9-.45,.13,0,.27-.09,.41-.18h.18c.32,.09,.63,.22,.99,.27,.18,.13,.41,.32,.45,.54s.04,.41,.04,.63c0,.27,.09,.54,.22,.81,0,.54,.04,1.08,.04,1.62,0,.27,.09,.5,.23,.72,.04,.22,.04,.49,.09,.72,.09,.27,.27,.54,.27,.85,.13,.32,.27,.63,.45,.9,.09,.09,.13,.13,.27,.18,0,0,.09-.04,.09-.09l.4-.81c.14-.27,.23-.54,.27-.81,.04-.18,.13-.36,.22-.54,0-.5,.04-.99,.04-1.48,.13-.27,.27-.54,.36-.81,.22-.27,.5-.5,.58-.85,.22-.36,.41-.77,.72-1.08,.27-.63,.76-1.04,1.21-1.49l.27-.13c.13-.04,.27-.09,.4-.04,.45,.13,.81,.36,1.21,.58,.14,.09,.23,.18,.23,.32,.04,.18,.04,.31,.13,.45,.13,.27,.23,.54,.18,.86v.45c-.18,.36-.31,.67-.49,1.08-.05,.23-.09,.45-.09,.68-.13,.36-.4,.58-.72,.76-.04,.04-.18,.09-.27,.09-.32,.04-.63,.23-.95,.41-.09,.04-.09,.13-.09,.27,.18,.36,.31,.72,.58,.99l.27,.36c.04,.18,.18,.36,.32,.5l.9,.9c.27,.13,.5,.27,.68,.41,.09,.04,.36,0,.45-.09,.14-.14,.27-.32,.27-.5,.04-.36,.27-.63,.41-.95,0-.09,.09-.18,.13-.27,.18-.18,.31-.18,.5,.04,.04,.04,.04,.09,.09,.09,.04,.09,.09,.22,.04,.31-.13,.27-.22,.54-.27,.81-.04,.18-.18,.36-.22,.54-.22,.4-.54,.72-.95,.94-.18,.04-.36,.14-.54,.23-.09,0-.18,.04-.27,.04-.22,0-.41,0-.58-.09-.09-.04-.18-.14-.27-.14-.36-.04-.63-.18-.95-.36l-.86-.41c-.58-.5-1.17-1.12-1.71-1.75-.09-.04-.09-.18-.13-.22-.09-.18-.22-.18-.36-.04-.09,.13-.18,.22-.18,.4-.04,.09-.04,.18-.09,.27-.13,.31-.18,.67-.31,.99-.09,.22-.27,.4-.54,.45-.18,.04-.41,.04-.54,.18-.32,.18-.54,.04-.81-.18-.5-.5-.99-.94-1.44-1.48l-.13-.23c-.14-.31-.32-.63-.36-.99-.04-.18-.13-.36-.22-.54-.09-.99,0-1.98,0-2.92-.18-.32-.32-.63-.41-.99,0-.09-.09-.09-.23-.04-.27,.22-.49,.5-.76,.81-.36,.81-.9,1.67-1.21,2.57-.04,.36-.09,.67-.27,.99-.05,.14-.09,.32-.09,.45-.04,.23-.22,.45-.27,.67v.9c-.13,.27-.32,.5-.36,.81-.04,.32-.27,.5-.58,.58-.18,.04-.36,.09-.54,.18-.18,.09-.27-.04-.4-.14-.09-.09-.18-.22-.18-.36-.04-.13-.04-.32-.04-.45,0-.63,0-1.26-.04-1.84-.04-.27-.13-.45-.22-.63-.04-1.26,0-2.57,0-3.83,.09-.18,.18-.36,.22-.58,.04-.27,.04-.54,.09-.9l.23-.54c0-.58,.04-1.22,.09-1.85,.04-.18,.09-.31,.18-.5,.09-.67,0-1.44,.09-2.16,.04-.18,.18-.36,.18-.54,0-.13-.09-.27-.23-.32-.27-.04-.5,0-.72,.09-.13,.05-.27,.14-.41,.18-.22,0-.4,.04-.58,.04-.27,0-.5,.04-.72,.18-.13,.04-.27,.09-.45,.09-.13,.04-.27,.14-.31,.27-.04,.22-.09,.5-.18,.67-.13,.22-.04,.41,.04,.58,.05,.09,.05,.18,.09,.31,.04,.45,.04,.95,.04,1.4l.27,.63c0,.45,0,.95,.04,1.44,.04,.18,.14,.36,.23,.58,.04,.67,.04,1.44,.04,2.11l.13,.32c.09,.13,.09,.27,.04,.4-.04,.14-.13,.27-.18,.45,0,1.17,0,2.34-.04,3.51-.09,.18-.14,.36-.23,.54-.04,.36-.04,.72-.09,.99-.09,.18-.13,.32-.18,.45-.04,.27-.09,.5-.09,.72-.09,.18-.23,.36-.23,.58-.09,.45-.31,.81-.54,1.17-.27,.27-.36,.58-.54,.9-.09,.22-.22,.45-.31,.63-.09,.13-.13,.27-.13,.45,0,.14-.04,.27-.18,.36l-1.53,1.62c-.09,.09-.23,.18-.27,.31-.13,.23-.27,.41-.54,.5-.22,.14-.45,.41-.63,.58-.22,.18-.45,.27-.67,.27h-.18c-.18,0-.36,.09-.5,.22-.23,.18-.5,.36-.81,.36-.09,0-.18,.09-.27,.09l-.32,.13c-.4,.04-.85,.09-1.26,.09-.04,.04-.09,.04-.13,.04-.18,.09-.36,.18-.58,.18-.45,.04-.86,.04-1.3,0-.18-.09-.36-.13-.54-.23Zm14.22-25.2c.18-.14,.5-.18,.77-.36,.13-.09,.27-.27,.31-.45,0-.22,.04-.4,.04-.58,0-.31,.14-.58,.23-.85,.04-.23,.04-.5,.09-.72,.09-.13,.13-.27,.18-.4,.04-.09,.04-.18,.09-.27,0-.18-.13-.36-.36-.4-.13,0-.27,0-.41,.04-.27,.18-.54,.22-.85,.22h-.14c-.09,.04-.18,.04-.27,.13-.23,.18-.41,.41-.63,.58-.32,.27-.36,.67-.67,.95-.09,.09-.14,.18-.18,.27-.13,.32-.36,.68-.36,1.08,0,.04-.04,.09-.09,.14q-.09,.27,.18,.4c.27,.13,.54,.27,.85,.27,.36-.04,.77-.04,1.21-.04Zm2.83-1.71c.04-.14,.09-.32,.09-.45,.27-.32,.27-.72,.27-1.12,0-.18,0-.36-.04-.58l-.13-.09c-.09-.09-.32-.04-.36,.09l-.63,1.21c-.04,.5-.04,.85,0,1.26,0,.13,.22,.23,.31,.18,.27-.09,.41-.27,.5-.5Zm10.35,11.65c.27-.18,.5-.45,.63-.76,.18-.41,.41-.77,.58-1.22,.04-.27,0-.54-.04-.85-.09-.22-.18-.45-.31-.67-.04-.04-.13-.13-.23-.13-.13-.05-.27-.05-.4-.05-.23,0-.41,.09-.54,.23-.23,.18-.41,.41-.54,.67-.09,.18-.18,.36-.27,.5,0,.27-.04,.5-.04,.72l-.13,.32c-.09,.18-.09,.36,.04,.54,.23,.31,.54,.58,.86,.76,.09,.09,.31,.04,.4-.04Z"/><path d="M209.52,132.07l-.63-.63c-.09-.09-.18-.22-.27-.36-.18-.36-.4-.77-.58-1.21-.04-.49-.04-1.04-.04-1.53l-.22-.5c-.04-1.17-.04-2.43,0-3.6,.13-.36,.22-.67,.22-1.04,0-.45,0-.9,.09-1.35,.04-.18,.13-.36,.18-.58,.04-.54,.04-1.12,.09-1.71l.13-.45s-.09-.13-.18-.18c-.58-.04-1.17,.04-1.75,0-.04,0-.09-.04-.13-.09v-.09s.09-.09,.13-.09c.31-.04,.54-.18,.85-.27,.27-.04,.58-.04,.86-.09,.18,0,.27-.09,.36-.22,.05-.18,.14-.36,.23-.54,.04-.4,.04-.81,.04-1.21,0-.22,.04-.45,.18-.67,.04-.09,.09-.18,.09-.27,0-.41,.23-.68,.41-.99,.18-.23,.45-.32,.72-.45,.18-.09,.41-.04,.54,.09,.04,.04,.09,.09,.09,.13,.05,.09,.09,.18,.09,.27,0,.81,0,1.57-.04,2.34,0,.18-.09,.31-.14,.45,0,.09,0,.18,.09,.27,.09,.09,.23,.18,.36,.18,.54,.05,1.08,.05,1.62,.05s1.08-.05,1.62,.04c.13,0,.27,.18,.27,.31,.04,.09,.04,.18,.04,.27-.31,.04-.54-.13-.81-.27-.63,0-.63-.04-1.04,.13-.13,.04-.27,.09-.41,.09-.45,.04-.9,.04-1.35,.04-.22,.13-.45,.22-.63,.36-.09,.04-.13,.18-.13,.27-.04,.45-.09,.94-.09,1.44l-.27,.58v1.17c0,.27-.13,.54-.27,.81-.04,.54-.04,1.08-.04,1.62,0,.22-.09,.4-.14,.58-.04,.13,0,.27,.04,.4-.04,.13-.13,.27-.18,.41-.04,1.08,0,2.21,.04,3.29,.04,.18,.18,.36,.18,.54,.09,.45,.27,.81,.54,1.21l.18,.18c.13,.09,.31,.09,.45,0,.54-.4,.99-.9,1.4-1.39,.45-.9,.9-1.71,1.3-2.52,0-.18,.04-.31,.04-.45l.54-1.08c.04-.23,.04-.5,.09-.72,.14-.27,.23-.54,.27-.86,.18-.36,.27-.72,.27-1.12,.23-.45,.41-.9,.63-1.3,.23-.4,.41-.81,.72-1.12,0-.04,.04-.09,.04-.13,.13-.18,.04-.54-.09-.72-.09-.04-.14-.13-.23-.18-.31-.13-.63-.31-.9-.45-.14-.09-.18-.22-.23-.41,0-.13,0-.27,.04-.4,.13-.04,.27-.04,.41,0,.09,0,.22,0,.32,.04,.22,.13,.49,.27,.76,.4,.36,.41,.85,.45,1.35,.41,.04,0,.09,.04,.18,.04,.14,.09,.32,.13,.5,.22,.09,.04,.18,.04,.27,.04h1.17l.85-.4c.09-.04,.23-.13,.32-.27,.27-.23,.5-.5,.81-.59,.14-.09,.27-.18,.32-.31,.18-.36,.45-.63,.72-.95,.09-.04,.13-.13,.22-.18,.14-.18,.27-.41,.41-.63s.32-.45,.5-.67c.04-.36,.18-.68,.32-1.04,.04-.45,.04-.95,0-1.44-.14-.54-.45-.99-.68-1.44-.09-.13-.09-.22,0-.27,.04-.04,.18-.04,.27,0,.04,0,.09,.04,.13,.04,.09,.13,.23,.22,.27,.36,.22,.41,.4,.77,.58,1.21,.09,.5,.09,1.04,0,1.58-.14,.31-.23,.63-.41,.95-.09,.13-.13,.27-.13,.4-.04,.18-.09,.27-.18,.4-.18,.18-.31,.36-.45,.59-.05,.13-.14,.27-.23,.36-.54,.59-1.08,1.17-1.67,1.71-.13,.13-.27,.27-.5,.31-.09,.04-.18,.09-.22,.18-.27,.27-.67,.4-.99,.59l-.13,.09c-.27,0-.5,.04-.72,.09-.13,.04-.27,.09-.45,.18-.18,0-.36,.04-.54,.04s-.18,0-.36,.22c-.04,.18-.04,.36-.04,.59,.04,.09,.04,.18,.09,.27,.13,.22,.22,.45,.18,.72,0,.32,.13,.54,.27,.86,0,.36,.04,.77,.04,1.17,0,.27,.09,.54,.23,.86,.09,.9,.09,1.85,.04,2.7-.32,.77-.72,1.39-.99,2.03-.13,.13-.22,.22-.36,.31-.18,.09-.36,.13-.54,.23-.14,.04-.27,.04-.41-.05l-.27-.13c-.4-.13-.67-.4-.9-.72-.13-.41-.45-.63-.63-.99-.09-.36,0-.72-.13-1.04,0-.04-.05-.09-.05-.09-.04,0-.13,0-.18,.04-.09,.09-.18,.22-.22,.36l-1.67,3.29-.76,.77c-.32,.18-.63,.27-.81,.4-.31,.04-.54,.04-.81,0-.13,0-.27-.04-.41-.13Zm8.14-4.14c.04-.09,.04-.22,.09-.31,0-.45,0-.86,.04-1.3l.14-.4c-.04-.32-.18-.59-.18-.86,0-.59,.04-1.17-.04-1.76-.04-.18-.09-.31-.18-.45-.04-.31-.04-.68-.09-.99,0-.04-.04-.13-.09-.13-.09,0-.18,.04-.23,.13-.04,0-.09,.04-.13,.09-.09,.27-.22,.54-.36,.86,0,.36-.09,.72-.27,1.12-.09,1.17-.04,2.43,0,3.64,.13,.27,.22,.54,.27,.81,0,.04,.04,.09,.09,.13,.04,.09,.13,.13,.22,.09,.36-.13,.58-.4,.72-.68Z"/><g><path d="M140.77,159.43c.5,.32,1.66,.82,2.88,.82,2.26,0,2.96-1.44,2.94-2.52-.02-1.82-1.66-2.6-3.36-2.6h-.98v-1.32h.98c1.28,0,2.9-.66,2.9-2.2,0-1.04-.66-1.96-2.28-1.96-1.04,0-2.04,.46-2.6,.86l-.46-1.28c.68-.5,2-1,3.4-1,2.56,0,3.72,1.52,3.72,3.1,0,1.34-.8,2.48-2.4,3.06v.04c1.6,.32,2.9,1.52,2.9,3.34,0,2.08-1.62,3.9-4.74,3.9-1.46,0-2.74-.46-3.38-.88l.48-1.36Z"/><path d="M149.69,162.25l5.58-14.5h1.36l-5.6,14.5h-1.34Z"/><path d="M157.89,159.43c.5,.32,1.66,.82,2.88,.82,2.26,0,2.96-1.44,2.94-2.52-.02-1.82-1.66-2.6-3.36-2.6h-.98v-1.32h.98c1.28,0,2.9-.66,2.9-2.2,0-1.04-.66-1.96-2.28-1.96-1.04,0-2.04,.46-2.6,.86l-.46-1.28c.68-.5,2-1,3.4-1,2.56,0,3.72,1.52,3.72,3.1,0,1.34-.8,2.48-2.4,3.06v.04c1.6,.32,2.9,1.52,2.9,3.34,0,2.08-1.62,3.9-4.74,3.9-1.46,0-2.74-.46-3.38-.88l.48-1.36Z"/></g></g></g></g></svg>