<svg xmlns="http://www.w3.org/2000/svg" viewBox="0 0 381 913.3"><defs><style>.cls-1{fill:#698a50;}.cls-2{fill:#92582e;}.cls-3{fill:#79b729;}</style></defs><g id="Calque_2" data-name="Calque 2"><g id="Calque_1-2" data-name="Calque 1"><path class="cls-1" d="M0,415,.38,168.49s237,37.37,288.86,246.48c0,0,20.95,73.09,89.77,84.25l2,414.08-237.59-.63C64.15,912.46,0,848,0,768.5Z"/><path class="cls-2" d="M23.68,207l38.55,7.89s23.42-64.09,4.7-112.63-31.21,1.22-31.21,1.22S55.18,129.59,23.68,207Z"/><path class="cls-3" d="M.26,12.07S123.68-10.7,93.75,6.3c0,0,99.74,20,39.9,24,0,0,82.78,72-2,43,0,0,66.49,24.82-42.56,20.41,0,0-32.24,23.53-88.09,18.56Z"/></g></g></svg>