<?xml version="1.0" encoding="UTF-8"?><svg xmlns="http://www.w3.org/2000/svg" viewBox="0 0 380 1236.3"><defs><style>.d{fill:#a3643a;}.e{fill:#6faa1b;}.f{fill:#6fa35f;}</style></defs><g id="a"/><g id="b"><g id="c"><g><g><path class="d" d="M23.68,207.03l38.55,7.89s23.41-64.08,4.7-112.62c-18.72-48.54-31.22,1.22-31.22,1.22,0,0,19.47,26.08-12.03,103.52Z"/><path class="e" d="M.26,12.07S123.68-10.7,93.75,6.3c0,0,99.74,20,39.9,24,0,0,82.78,72-1.99,43,0,0,66.48,24.82-42.56,20.41,0,0-32.24,23.52-88.1,18.56L.26,12.07Z"/></g><path class="f" d="M95.5,1236.3h189.07c53.25,0,95.42-41.75,95.42-95V580.3L0,768.3v374c-.11,51.63,43.87,94,95.5,94Z"/><path class="f" d="M380,485.47c-6.59-18.95-17.01-37.72-31.29-56.32-22.33-29.09-49.57-46.54-81.68-52.41-32.15-5.83-63.98-2.43-95.51,10.18,16.86-25.27,25.55-51.58,26.11-78.78,.54-27.24-8.13-52.55-26.08-75.93-35.84-46.69-80.25-67.46-133.2-62.29C25.94,171.13,13.15,173.62,0,177.35v150.67c.6-.04,1.2-.1,1.79-.12,18.1-.66,32.47,6.01,43.24,20.04,12.35,16.08,16.66,32.17,12.91,48.22-3.72,16.09-16.77,32.7-39.09,49.83L0,460.45v352.73s50.73,36.49,87.66,25.49c13.56-3.82,27.45-9.35,41.73-16.56,14.21-7.22,28.29-14.95,42.22-23.17,13.9-8.19,27.04-16.65,39.39-25.28,12.35-8.63,22.93-16.33,31.75-23.11,71.63-54.99,117.04-109.49,136.3-163.43,.33-.93,.63-1.86,.95-2.79v-98.88Zm-165.34,100.36c-7.17,19.16-21.16,36.67-41.92,52.6-10.38,7.97-21.58,15.96-33.57,23.96-12.02,7.96-22.45,13.73-31.32,17.21l-72.94-95.01,63.84-49c23.38-17.95,43.56-27.64,60.54-29.13,17.01-1.46,32.09,6.3,45.25,23.45,13.95,18.17,17.31,36.8,10.12,55.92Z"/></g></g></g></svg>