<?xml version="1.0" encoding="UTF-8"?><svg xmlns="http://www.w3.org/2000/svg" viewBox="0 0 294.63 516.67"><defs><style>.d{fill:#98ce63;}</style></defs><g id="a"/><g id="b"><g id="c"><path class="d" d="M294.63,396.26c-12.21,4.73-25.79,7.11-40.75,7.11-33.19,0-59.71-12.04-79.53-36.17-19.81-24.09-29.74-60.5-29.74-109.27s10.04-85.02,30.13-108.87c20.09-23.81,46.73-35.74,79.96-35.74,14.65,0,27.95,2.3,39.92,6.84V2.57c-13.2-1.7-26.77-2.57-40.75-2.57-35.86,0-69.21,5.61-100.01,16.87-30.84,11.26-57.6,27.74-80.35,49.43-22.79,21.7-40.72,48.61-53.83,80.74C6.55,179.18,0,216.14,0,257.92s6.43,77.96,19.26,110.09c12.87,32.13,30.56,59.2,53.04,81.14,22.48,21.97,49.28,38.72,80.35,50.22,31.07,11.53,64.81,17.3,101.22,17.3,13.98,0,27.56-.85,40.75-2.51v-117.9Z"/></g></g></svg>