<?xml version="1.0" encoding="UTF-8"?><svg xmlns="http://www.w3.org/2000/svg" viewBox="0 0 380 428.59"><defs><style>.d{fill:#beeaac;}</style></defs><g id="a"/><g id="b"><g id="c"><path class="d" d="M380,2.7c-11.8-1.79-23.72-2.7-35.79-2.7-29.77,0-55.14,3.62-76.19,10.94-21.05,7.28-40.01,16.57-56.86,27.79-16.28-12.91-35.48-22.61-57.69-29.07C131.31,3.21,108.7,0,85.71,0,55.97,0,27.38,3.9,0,11.72V426.81c2.05-.24,4.09-.49,6.11-.77,12.09-1.69,20.93-3.37,26.56-5.02V125.44c5.02-2.8,11.22-5.76,18.5-8.84s15.99-4.65,26.11-4.65c14.6,0,27.1,3.82,37.46,11.39,10.4,7.57,15.58,19.78,15.58,36.63v201.22c0,14.06,1.81,25.41,5.47,34.13,3.66,8.72,8.84,15.58,15.58,20.64,6.74,5.06,15.01,8.39,24.83,10.07s20.93,2.55,33.26,2.55,24.55-.86,36.63-2.55,21.17-3.37,27.38-5.02V135.15c0-1.97-.29-4.07-.86-6.33,4.48-3.91,11.22-7.73,20.23-11.39,8.96-3.62,17.39-5.47,25.25-5.47,16.28,0,29.19,3.82,38.73,11.39,9.54,7.57,14.35,19.78,14.35,36.63v201.22c0,14.06,1.81,25.41,5.47,34.13,.99,2.39,2.12,4.62,3.35,6.73V2.7Z"/></g></g></svg>