<svg xmlns="http://www.w3.org/2000/svg" viewBox="0 0 81.4 26.18"><defs><style>.cls-1{fill:#1d1d1b;}</style></defs><g id="Calque_2" data-name="Calque 2"><g id="Calque_1-2" data-name="Calque 1"><path class="cls-1" d="M41.17,1.26c-.14.07-.24,0-.27-.1a.11.11,0,0,1,0-.1.49.49,0,0,0-.3-.38l-.21-.1a.22.22,0,0,0-.23,0,1.88,1.88,0,0,1-.75.13,1.16,1.16,0,0,0-.58.18A2.33,2.33,0,0,0,38,1.4l-.75.82-.17.17c-.17.2-.2.44-.37.64a4.35,4.35,0,0,0-.41.44l-.21.44a4.67,4.67,0,0,0-.51.82,2.48,2.48,0,0,1-.37.65,4.65,4.65,0,0,0-.37.74,1.75,1.75,0,0,1-.28.82,2.92,2.92,0,0,0-.2.68c0,.1-.07.17-.1.24L34,8.54a3.07,3.07,0,0,1-.2.68c-.1.2,0,.41-.14.61s-.17.37-.27.54a1.62,1.62,0,0,0-.1.34A2.35,2.35,0,0,1,33,11.77a1.17,1.17,0,0,0-.17.61.77.77,0,0,1-.11.48,1.16,1.16,0,0,0-.1.47.75.75,0,0,1,0,.24,3.88,3.88,0,0,0-.17.71,4.28,4.28,0,0,1,0,.62,1.54,1.54,0,0,1-.14.57.12.12,0,0,0,0,.14v.14a1.21,1.21,0,0,1,.21.71v.1a1.09,1.09,0,0,0,.1.48l.3.58a1,1,0,0,1,.14.47,2.18,2.18,0,0,0,.14.48,5.39,5.39,0,0,1,.34.68c.1.2.13.47.23.68a1.69,1.69,0,0,1,.14.61,1.4,1.4,0,0,0,.17.61.56.56,0,0,1,.07.24l.1.85a.45.45,0,0,0,.07.24,2.32,2.32,0,0,1,.17.61c0,.44,0,.92,0,1.36a.55.55,0,0,1-.07.24,3.48,3.48,0,0,0-.51.81.33.33,0,0,1-.44.14,2.29,2.29,0,0,1-.81-.58l-.07-.1a2.84,2.84,0,0,1-.34-.92c0-.17-.55-.34-.55-.51s0-.41,0-.61a1,1,0,0,0-.1-.34,1,1,0,0,1-.14-.51c0-.89,0-1.8,0-2.72a1.85,1.85,0,0,0-.2-.71,2.4,2.4,0,0,0-.31-.82,6.72,6.72,0,0,1-.47-.88A4.46,4.46,0,0,1,30,16c-.1-.21-.24-.44-.34-.68-.37-.65-.72-1.33-1.06-2a3.08,3.08,0,0,1-.13-.34,1.87,1.87,0,0,0-.31-.68c-.1-.13.14-.2,0-.2a.31.31,0,0,0-.24.1l-.17-.65c-.2.48-.47.89-.64,1.43a3.15,3.15,0,0,1-.31.89c-.07.13-.1.3-.24.37l0-.07-1.5,2.69L25,17a3.29,3.29,0,0,1-.34.61,4.35,4.35,0,0,0-.44.65,2.55,2.55,0,0,1-.24.41,2.58,2.58,0,0,0-.64.88,1.58,1.58,0,0,1-.31.41,5.14,5.14,0,0,1-.61.64,3.69,3.69,0,0,0-.65,1,2.31,2.31,0,0,1-.41.47.33.33,0,0,1-.23.2,3.54,3.54,0,0,0-.68.38,3.31,3.31,0,0,1-.65.48,5.65,5.65,0,0,0-.48.4,3.84,3.84,0,0,1-1.08.89,1,1,0,0,0-.38.3,2.72,2.72,0,0,1-1.19.78,2,2,0,0,1-1.15.45c-.14,0-.21.1-.31.13a1.13,1.13,0,0,1-.44.14c-.82,0-1.63,0-2.42,0a3.42,3.42,0,0,1-2-.51c-.47-.24-1-.44-1.42-.71a4.21,4.21,0,0,1-.82-.58l-.58-.51a5.15,5.15,0,0,1-.41-.54.93.93,0,0,0-.4-.55A1.34,1.34,0,0,1,6.36,22a1,1,0,0,0-.1-.31l-.17-.27a9.19,9.19,0,0,0-.34-1.06,2,2,0,0,0-.11-.47.87.87,0,0,0-.13-.48,1.51,1.51,0,0,1-.17-.78c0-.44,0-.88-.07-1.33A.72.72,0,0,0,5,16.8a5.3,5.3,0,0,1-.61-1,13.31,13.31,0,0,1-.71-1.29,1.54,1.54,0,0,1-.17-.61V13.6a2,2,0,0,0-.28-.78,1.55,1.55,0,0,1,0-1c.2-.37.17-.82.34-1.22.1-.14,0-.31-.14-.45l-.37-.3a2.12,2.12,0,0,1-.27-.17,12.9,12.9,0,0,1-1.16-.65A12.23,12.23,0,0,1,.44,8c0-.07-.13-.14-.17-.24a.83.83,0,0,1-.2-.47A12.31,12.31,0,0,1,0,5.65.71.71,0,0,1,.41,5,.61.61,0,0,1,1,4.87c.14,0,.24.1.21.2A2.22,2.22,0,0,0,1,5.85c.07.41.07.78.1,1.16a.45.45,0,0,0,.11.27c.06.17.17.31.2.44a2.58,2.58,0,0,0,1.05,1c.41.17.75.41,1.16.58.14,0,.27,0,.31-.1a2.78,2.78,0,0,0,.4-.82,5.92,5.92,0,0,1,.21-.78,3.84,3.84,0,0,1,.41-.68c.17-.14.3-.31.44-.44a1.84,1.84,0,0,0,.54-.82l.38-.47L7.58,3.85a5,5,0,0,0,.54-.38,3.76,3.76,0,0,0,.72-.61,3,3,0,0,1,.34-.3,1.3,1.3,0,0,1,.41-.28,4.16,4.16,0,0,0,1.32-.51,1.37,1.37,0,0,1,.61-.13c.45,0,.89,0,1.3,0A2.52,2.52,0,0,1,14.21,2c.07,0,.1.07.14.1a1.43,1.43,0,0,1,.4.48,1.43,1.43,0,0,0,.14.51.72.72,0,0,1,0,.61.74.74,0,0,0,0,.44.37.37,0,0,0,.27.34,2.07,2.07,0,0,0,.48,0,2.37,2.37,0,0,1,.47.2,1.58,1.58,0,0,0,.45.14,1.86,1.86,0,0,1,1.25.34c.24.1.48.2.75.34A1.32,1.32,0,0,1,19,6c.14.2.21.41.31.58s.07.3.14.51a2.44,2.44,0,0,0,.2,1.08c.07.11,0,.17,0,.31a2.4,2.4,0,0,1-.11.31v.81c0,.07,0,.21-.06.31a2.2,2.2,0,0,0-.17,1,.58.58,0,0,1-.07.34.55.55,0,0,1-.07.27,3.41,3.41,0,0,0-.68,1.13l-.27.57a3.36,3.36,0,0,0-.51.79.78.78,0,0,1-.31.34c-.75.81-1.53,1.59-2.31,2.41a.9.9,0,0,1-.48.34,2,2,0,0,0-.71.41c-.44.24-.92.24-1.36.47a.67.67,0,0,1-.44.11.9.9,0,0,0-.61.17,2.27,2.27,0,0,1-.65.13c-.48,0-1,0-1.5,0H7.92c-.13,0-.34.13-.34.27s0,.2,0,.3c0,.45.1.89.1,1.33a1.94,1.94,0,0,0,.2.75.53.53,0,0,1,.11.3,2.33,2.33,0,0,0,.44,1.23,3.94,3.94,0,0,0,1.22,1.7,4.05,4.05,0,0,0,1.26.74,1.32,1.32,0,0,0,.64.11,1.71,1.71,0,0,1,.82.17.53.53,0,0,0,.31,0l.44-.14c.44,0,.81,0,1.26,0A1.24,1.24,0,0,0,15,25c.13-.07.34-.07.44-.13a.34.34,0,0,0,.2,0,10.84,10.84,0,0,0,1.53-.75,5.19,5.19,0,0,1,1.33-.84,3.35,3.35,0,0,0,.48-.38c.27-.24.44-.51.78-.58L20,22.1a7,7,0,0,1,.95-.88,2.91,2.91,0,0,0,.24-.41,2.93,2.93,0,0,1,.44-.68l.78-.78a2.76,2.76,0,0,1,.31-.41,5.21,5.21,0,0,1,1-1.36,2.38,2.38,0,0,0,.23-.41,5.06,5.06,0,0,1,.45-.64c.2-.24.27-.51.4-.68.34-.38.48-.92.89-1.33a6.35,6.35,0,0,0,.78-1.9c.07-.17.1-.31.24-.38a1.75,1.75,0,0,0,.3-.54c.17-.44.38-.85.58-1.26l-.1-.24a1.38,1.38,0,0,0-.2-.61c-.07-.17-.11-.37-.21-.58a3.38,3.38,0,0,1-.17-.61,1,1,0,0,0-.07-.34,1.4,1.4,0,0,1-.17-.61L26.55,6a.61.61,0,0,0-.07-.34A3.77,3.77,0,0,1,26.31,4a.73.73,0,0,1,.07-.24l.1-.34c0-.17.28-.68.28-.85a1.11,1.11,0,0,1,.13-.48A1.06,1.06,0,0,0,27,1.74a.74.74,0,0,1,.44-.54.87.87,0,0,1,.34-.14c.07-.07.14,0,.21,0a3.23,3.23,0,0,0,.51.14.94.94,0,0,1,.64.54c.14.34.38.65.55,1a.49.49,0,0,1,0,.23.26.26,0,0,0,0,.34,1.07,1.07,0,0,1,.13,1,6.88,6.88,0,0,0-.2,1.64.57.57,0,0,1-.2.4.74.74,0,0,1,0,.51,1.25,1.25,0,0,0-.14.48v.37a.66.66,0,0,0,0,.24,1.12,1.12,0,0,1-.11.58A.65.65,0,0,0,29,9c.21.34.17.71.41,1a3.46,3.46,0,0,0,.44,1,1.82,1.82,0,0,1,.17.48.73.73,0,0,0,.07.24c.24.3.24.71.44,1s.27.54.41.78a3.06,3.06,0,0,1,.2.58c0,.1.11.13.21.17s.17,0,.2-.07a1,1,0,0,0,.17-.2,2.72,2.72,0,0,0,.38-.89c0-.2.17-.37.17-.58a3.73,3.73,0,0,1,.17-.61c.1-.17,0-.41.17-.58a1.53,1.53,0,0,0,.13-.57l.21-.48a2.91,2.91,0,0,1,.37-1.26l.1-.37a.39.39,0,0,1,.14-.31,1.67,1.67,0,0,0,.34-.78,4,4,0,0,0,.24-.82l.51-1.12a6.5,6.5,0,0,1,.37-.75l.1-.23a5.23,5.23,0,0,0,.61-1.06,2.28,2.28,0,0,1,.17-.3,1.93,1.93,0,0,0,.58-.78.65.65,0,0,1,.24-.28c.2-.27.44-.47.65-.74a1.39,1.39,0,0,0,.27-.41.69.69,0,0,1,.41-.41A6.88,6.88,0,0,1,39,.11a.44.44,0,0,1,.2-.07,6.18,6.18,0,0,1,1.36,0,.3.3,0,0,1,.24.1l.48.58A.39.39,0,0,1,41.17,1.26Zm-35,9.83c-.34-.14-.68-.24-1.08-.38-.07,0-.17,0-.24.14l-.24.41a1.27,1.27,0,0,0-.14.61v1c0,.44,0,.89.11,1.26a.77.77,0,0,0,.06.31c.11.13.14.3.24.44s.07.2.17.24a.38.38,0,0,0,.14-.28,1.19,1.19,0,0,1,.13-.47,1.86,1.86,0,0,0,.17-.75,1.52,1.52,0,0,1,.14-.65c.2-.51.48-1,.65-1.56A.18.18,0,0,0,6.15,11.09Zm1.7-2.35c.11-.17.24-.34.38-.54,0,0,0,0,.06-.07A6,6,0,0,0,9.59,6.5L10,6.06c.33-.28.74-.41,1.05-.72,0,0,.07-.1.14-.1a6.27,6.27,0,0,1,1-.44c.24,0,.48-.17.75-.21s.51-.06.78-.1c0,0,.14,0,.14,0s.24-.14.24-.24.1-.47.2-.75c0,0,0-.07,0-.13a1.77,1.77,0,0,0-.47-.82,1.31,1.31,0,0,0-.45-.24c-.27,0-.54,0-.61,0H12.1a1.48,1.48,0,0,0-1,.31A5.9,5.9,0,0,0,8.12,4.63l-.44.44c-.3.34-.64.71-1,1s-.31.62-.55,1a1,1,0,0,0-.27.37c-.27.61-.54,1.26-.85,1.87v.17a.45.45,0,0,0,.31.48s.1.06.13.06l.48.14c.07,0,.1,0,.14,0A2,2,0,0,0,7,9.83,3.94,3.94,0,0,0,7.85,8.74Zm.51,9a4.79,4.79,0,0,0,.65,0h.61a2.36,2.36,0,0,0,1-.17c.17-.13.38-.1.62-.13a.72.72,0,0,0,.44-.14,1.58,1.58,0,0,1,.78-.17.89.89,0,0,0,.3,0,17.13,17.13,0,0,0,1.7-.89,1.59,1.59,0,0,1,.34-.3,2.39,2.39,0,0,0,.75-.55c.44-.47.89-.92,1.33-1.36a6.28,6.28,0,0,0,.68-.88c.07-.27.34-.44.44-.68a4.7,4.7,0,0,1,.48-.78,6.28,6.28,0,0,0,.44-.85,2,2,0,0,0,0-.65A1.49,1.49,0,0,1,19,9.39a2,2,0,0,0,0-1.4,5.81,5.81,0,0,1-.34-1.25.55.55,0,0,0-.13-.24c-.11-.1-.17-.21-.28-.24a4.83,4.83,0,0,1-.64-.44,1.21,1.21,0,0,0-.75-.34,1,1,0,0,1-.44-.14c-.21,0-.31-.13-.51-.13H14.89c-.14,0-.27.17-.31.3a1.8,1.8,0,0,1-.4.89l-.31.3a1.87,1.87,0,0,0-.61.92,3.87,3.87,0,0,0-.48.65.91.91,0,0,1-.54.51A13.35,13.35,0,0,1,10.37,10c-.34.13-.65.3-1,.44l-.24.2c-.41.44-.82.82-1.19,1.26a1.46,1.46,0,0,0-.24.41.74.74,0,0,1-.1.47,3.07,3.07,0,0,0-.17,1v.78a2,2,0,0,1-.13.78.82.82,0,0,0-.07.31c0,.37,0,.78,0,1.12a.51.51,0,0,0,.1.3A1.12,1.12,0,0,0,8.36,17.72Zm5.1-12.34s-.13,0-.24,0l-.44.13a1,1,0,0,0-.58.27A15.27,15.27,0,0,0,11,7a2.67,2.67,0,0,1-.78.54,2.17,2.17,0,0,0-.34.34l-.27.58c-.14.24-.2.48-.31.71,0,0,0,.11.11.14a.16.16,0,0,0,.13,0A5.83,5.83,0,0,0,11,8.64a2.63,2.63,0,0,0,1.25-.88c.17-.17.31-.31.45-.48a1.41,1.41,0,0,0,.3-.34,3,3,0,0,1,.48-.82.71.71,0,0,0,.17-.44A.37.37,0,0,0,13.46,5.38ZM29.07,6a10.31,10.31,0,0,1,0-1.5.59.59,0,0,1,0-.24,1.26,1.26,0,0,0,.1-.71.65.65,0,0,0,0-.24.51.51,0,0,0,0-.24l-.58-1.12a.55.55,0,0,0-.3-.2c-.14-.07-.31.07-.34.24a2.76,2.76,0,0,1-.1.75.57.57,0,0,0-.07.33,10.7,10.7,0,0,0,0,1.5A.85.85,0,0,0,28,4.9a2.05,2.05,0,0,1,.13.37,7,7,0,0,0,.07.75.66.66,0,0,0,0,.24,3.15,3.15,0,0,1,.28,1l.06.07s.1,0,.14,0a.62.62,0,0,0,.2-.41,6.28,6.28,0,0,1,0-.75C28.93,6,29,6,29.07,6ZM32.4,22.48a4.57,4.57,0,0,0,0,.64.73.73,0,0,0,0,.31,4.35,4.35,0,0,1,.3.88.89.89,0,0,0,.41.51s.14,0,.17.07.31-.14.27-.31-.2-.47-.27-.74a3,3,0,0,0-.24-.75,4.73,4.73,0,0,0-.54-1.16s-.1-.06-.1-.06a.14.14,0,0,0-.07.13Z"/><path class="cls-1" d="M39,25.37a1,1,0,0,0-.68-.24,4.57,4.57,0,0,0-.44-.44c0-.11,0-.17,0-.21a2.78,2.78,0,0,1-.48-.88c-.07-.24-.2-.41-.27-.65A4.45,4.45,0,0,1,37,22c0-.13,0-.27-.1-.37a.56.56,0,0,1,.1-.14A.44.44,0,0,1,37,21c.1-.14,0-.38,0-.55a5.2,5.2,0,0,1,.07-.64,1.76,1.76,0,0,1,.14-.62,1,1,0,0,0,0-.3c0-.14.07-.17.07-.31a3.78,3.78,0,0,1,.3-.92,1.49,1.49,0,0,0,.11-.4c.17-.11.13-.28.2-.41a4.8,4.8,0,0,1,.41-.78,12.41,12.41,0,0,1,1-1.3c.07,0,.1-.06.14-.06a7.2,7.2,0,0,1,.74-.38c0-.1.07-.17.11-.2.23.17.51,0,.78.07a9.88,9.88,0,0,1,1.12.88c.17-.14.2-.34.31-.54a1.31,1.31,0,0,1,1-.68c.1.2.37.2.44.44a.15.15,0,0,1-.07.1c.11.1.07.2.07.31s-.07.51.07.78c0,.07,0,.13-.07.2s.07.27.07.48a2.16,2.16,0,0,1,0,.44,2.82,2.82,0,0,0-.07.44c0,.14.07.31-.07.44s0,.07.11.11c-.14.1-.11.27-.11.4a4.28,4.28,0,0,0,0,.62c0,.2-.1.3-.1.47s.07.31-.07.48v.13a12.29,12.29,0,0,0-.06,1.63c0,.11-.07.24,0,.35s-.07.2-.07.34a.93.93,0,0,1,0,.33.81.81,0,0,1,0,.41,3.12,3.12,0,0,0-.06.95c0,.24.2.45.2.68,0,0-.1,0,.17.17.37-.1,0,.41.65.21,0,0,.1-.1.13-.1a3,3,0,0,0,.78-.55,4.47,4.47,0,0,0,1.26-1.6c.21-.34.41-.71.65-1.08a5.06,5.06,0,0,0,.24-.72l0-.13.44-.07a.11.11,0,0,1-.07,0,2.91,2.91,0,0,1-.3,1c-.17.17-.17.4-.27.61a2.76,2.76,0,0,0-.34.58,8,8,0,0,1-.92,1.35,2.32,2.32,0,0,1-.61.68c-.14,0-.17.24-.31.28a.47.47,0,0,1-.58.23l-.17.17H44c-.07,0-.1-.1-.17-.17s-.38-.06-.58-.17-.17-.3-.31-.47a2,2,0,0,1-.37-.68c-.14-.38-.14-.71-.31-1.09-.06-.1,0-.24,0-.37-.2-.17-.13-.24-.23-.58-.11,0-.07-.27-.21-.37a.63.63,0,0,0-.34.47c0,.14-.1.2-.1.34s-.1.17-.07.27a1.15,1.15,0,0,1-.07.34c0,.17,0,.31-.13.41s0,.31-.1.41,0,.07,0,.13a1.49,1.49,0,0,0-.58.89,3.44,3.44,0,0,1-.82.71A1.56,1.56,0,0,1,39,25.37Zm.89-.68c.06-.21.3-.24.33-.41s.17-.21.24-.31.07-.3.14-.44.07-.3.2-.41a3.42,3.42,0,0,1,.07-.61c0-.34.14-.61.2-1a4.77,4.77,0,0,0,.21-1.12c0-.07,0-.1,0-.17a2.63,2.63,0,0,0,.24-1c.06-.38.23-.78.27-1.19a2.51,2.51,0,0,0,.17-.58c0-.2.13-.41.13-.61s-.13-.44.07-.61v-.14a3.36,3.36,0,0,1-.3-.75c0-.1-.14-.07-.17-.17a.87.87,0,0,0-.68-.54,1.75,1.75,0,0,0-.48-.07c-.2.07-.34.27-.51.54.07.24-.44.41-.07.58-.54.17-.51.41-.54.61a5.26,5.26,0,0,0-.24,1.3c.07.06.07.1,0,.17-.1.27,0,.64-.14.91-.27.68-.2.51-.2.79s0,.27-.07.34c.11.1,0,.2,0,.3a4.14,4.14,0,0,1-.17.58,6.87,6.87,0,0,0-.13,1.16c.07.17-.07.3.07.47l-.07.07a20,20,0,0,0,0,2,1.33,1.33,0,0,0,.89.64c.1.07.17,0,.27,0A.8.8,0,0,0,39.92,24.69Z"/><path class="cls-1" d="M53.55,9.86c-.31,0-.68.11-1,.17a2.58,2.58,0,0,1-.88.14l-.17.14s0,0-.07,0a2.36,2.36,0,0,0-1.09,0c-.17.1-.1.31-.2.41s0,.1,0,.13c0,.41-.14,2-.11,2.42-.17.3,0,.68-.13,1,0,0,0,0,0,.07,0,.38-.14.72-.1,1.09,0,.14-.11.27-.07.41a.55.55,0,0,1-.1.41c0,.06.06,1.42.1,1.46s-.1.07-.1.13a1.11,1.11,0,0,1-.07.58,4.55,4.55,0,0,1-.1,1.16c0,.41-.11.85-.07,1.29a.47.47,0,0,1-.17.34,1.62,1.62,0,0,0,0,.44c0,.21-.1.38-.07.58a2,2,0,0,1,0,.61,5.55,5.55,0,0,0-.07.82,1.36,1.36,0,0,0-.07.54,1.48,1.48,0,0,0,.24.75c.41.07.64-.17.95-.31s.54-.54.78-.81l.31-.38c.2-.3.51-.51.64-.88a2.86,2.86,0,0,1,.38-.88c.07-.52.27-.58.3-.72s.17-.34.27-.47.69-.62.48-.28c-.07.11,0,.28-.13.38a2.49,2.49,0,0,0-.17.47c0,.14-.31.58-.34.72a6.42,6.42,0,0,0-.34,1c-.11.3-.38.47-.51.74s-.45.45-.48.79a2,2,0,0,1-.48.44,1.23,1.23,0,0,0-.44.51,2.21,2.21,0,0,0-.61.24c-.2,0-.41-.07-.58.1a1,1,0,0,1-.51-.48c-.17-.34-.41-.64-.61-1a.84.84,0,0,0-.1-.55,1.19,1.19,0,0,1-.14-.44,2.39,2.39,0,0,0-.07-.75c0-1.15-.13-2.31-.1-3.5.14-.44,0-2.28.1-2.75a9.66,9.66,0,0,1,.11-1.12,8.42,8.42,0,0,0,0-1.23,1.7,1.7,0,0,1,.1-.37,25.17,25.17,0,0,0,.1-2.86c-.06-.1-.2,0-.2-.13s-.2.1-.31.1a2.33,2.33,0,0,0-1,.07.28.28,0,0,1-.31-.07c-.1,0-.41.07-.27.07h-.34c-.07,0-.14-.14-.27,0l.17-.58c.1.1.1,0,.2-.07a16.88,16.88,0,0,0,2.25,0c.13-.17.23-.31.2-.48s.1-.27.17-.44A8.1,8.1,0,0,1,49,6.5a2.64,2.64,0,0,1,.41-.41c.07-.07.17,0,.27,0s.11-.11.17-.11l.45.45a1.27,1.27,0,0,0,.06.68c0,.06,0,.17,0,.27s0,.24,0,.24.14.17,0,.2v.1c.13.41-.07.82,0,1.23v.2c.1.14.23.14.34.2a8.63,8.63,0,0,0,2.27-.23.82.82,0,0,0,.38,0c.1-.07.3.07.44,0s.2,0,.3,0C54.06,9.63,53.92,9.83,53.55,9.86Z"/><path class="cls-1" d="M71,19.72a.62.62,0,0,0-.2.31.79.79,0,0,1-.17.37c-.24.58-.48,1.19-.75,1.77a2.63,2.63,0,0,1-.65,1.19c-.07,0,0,.1,0,.2-.31.24-.55.65-1,.82-.13.48-.64.65-1,.95,0,0,0,0-.07-.07s-.17.14-.34.07a.94.94,0,0,0-.48-.24.9.9,0,0,1-.64-.44c-.07-.1-.17-.13-.21-.27s-.17-.1-.27-.17a.78.78,0,0,1-.17-.54,1.45,1.45,0,0,0-.24-.75c0-.17.07-.34-.07-.48a.33.33,0,0,1,0-.24,5.31,5.31,0,0,0,.14-1.08c.17-.21,0-.51.14-.75a2.19,2.19,0,0,0,.23-.68,10.73,10.73,0,0,1,.31-1.05c.31-.75.48-2,.85-2.72a1,1,0,0,0,.17-.55c0-.13.14-.24,0-.44a1,1,0,0,0-.51-.37,2.26,2.26,0,0,1-.61-.11,4.72,4.72,0,0,1-.64-.17.49.49,0,0,0-.21.41,8.67,8.67,0,0,1-.27,1.63,4.4,4.4,0,0,0-.24,1.3c0,.23-.51,2.1-.54,2.31s-.17.44-.24.64-.07.14-.1.21c-.17.51-.44,1.15-.68,1.76a4,4,0,0,1-.34.65c-.17.2-.27.44-.44.61a.19.19,0,0,1,0,.14c-.2.13-.3.37-.51.47s-.2.21-.34.31v.14a.7.7,0,0,1-.3.13.26.26,0,0,0-.21.24c-.27.1-.54.37-.81.31a3,3,0,0,1-.58-.41.79.79,0,0,1-.27-.31c-.07-.17-.17-.27-.34-.24-.1-.54-.48-1-.65-1.56a11.11,11.11,0,0,1-.17-1.87.57.57,0,0,0-.13.34.94.94,0,0,1-.17.41c-.11.1,0,.27-.11.37a3.86,3.86,0,0,1-.2.92c0,.14-.14.14-.17.27s-.14.34-.14.55a.91.91,0,0,1-.27.51,1,1,0,0,0-.44.57.52.52,0,0,1-.27.28l-.41.13c-.14.07-.27-.1-.41-.07s-.27-.23-.41-.3a3.71,3.71,0,0,1-1-.95c0-.07,0-.14,0-.24a1.07,1.07,0,0,1-.44-.88c0-.41-.14-.79-.14-1.19a.69.69,0,0,1,0-.58c.07-.21-.1-.41,0-.61,0,0,0,0,0-.07a.38.38,0,0,1,0-.31.67.67,0,0,1-.06-.44.36.36,0,0,0,0-.24,4.57,4.57,0,0,1,0-.64.39.39,0,0,0,0-.21.24.24,0,0,0-.07-.2.29.29,0,0,0,.07-.17,9.35,9.35,0,0,1,0-1.4c0-.27,0-.57.07-.85a9.13,9.13,0,0,1,.23-1.7c.17-.54.41-.78,1.23-.78a3.17,3.17,0,0,0,.37.41,7.57,7.57,0,0,1,0,1.26c.17.13-.07.27,0,.41a2.15,2.15,0,0,1,0,.44c-.07.13,0,.3,0,.44a3.29,3.29,0,0,0,0,1c0,.13-.1.23-.07.37a.3.3,0,0,1,0,.34s0,.14,0,.2a3.82,3.82,0,0,0,0,.68,1.29,1.29,0,0,1-.07.51c0,.14.1.34,0,.48s0,.1,0,.14.13.17,0,.3,0,.21,0,.31,0,.27,0,.4.07.31-.07.45a.17.17,0,0,0,0,.17c0,.71,0,1.42.07,2.17a.38.38,0,0,0,.1.31c.11.1.07.24.11.37s.27,0,.34.17c.06-.13.27-.13.54-.27s.31-.41.48-.61a.78.78,0,0,0,.2-.38c0-.17.14-.27.2-.44s.24-.57.34-.92a2.45,2.45,0,0,1,.14-.64c.17-.41.24-.85.41-1.26,0-.13,0-.27.1-.34-.07-.2.17-.3.14-.51,0,0,.06,0,.06-.1-.06-.31.07-.61,0-.92s.1-.34.07-.51a.9.9,0,0,1,0-.54,4.22,4.22,0,0,0,0-.61c.07-.31.07-.65.17-1v-.1a1.5,1.5,0,0,1,.07-.44c-.1-.07,0-.14,0-.17a3.08,3.08,0,0,1,0-.54,1.22,1.22,0,0,0,.07-.48c.14-.37.45-.54.72-.78h.3c0,.07,0,.2.14.2s.37.1.41.17a.29.29,0,0,1,.07.21c-.14.1,0,.2,0,.3A8.61,8.61,0,0,0,59.7,16c-.06.2,0,.44-.1.65s.1.13.07.2,0,.37-.07.54a.59.59,0,0,0,0,.34c0,.17-.1.28-.07.41s.07.27-.07.41v.1a7.45,7.45,0,0,1-.07.95,3.51,3.51,0,0,1,0,.58,3,3,0,0,0-.07.55c0,.1-.07.17-.1.27s0,.13,0,.2c0,.27-.14.55-.07.82-.1.2,0,.44-.07.64s0,.45,0,.68a2.79,2.79,0,0,0,.07,1.16c.06.17.06.41.3.51,0,0,.07-.07.14-.07a1.18,1.18,0,0,0,.85-.31,5.15,5.15,0,0,0,.51-.37,2.68,2.68,0,0,1,.34-.27c.24-.24.37-.55.58-.78l.06-.1a4.23,4.23,0,0,0,.55-.92,13.66,13.66,0,0,1,.51-1.36v-.21a.09.09,0,0,1,0-.06V20.4h0c.17-.57.68-2.31.71-2.55a2,2,0,0,1,.14-.61,15.22,15.22,0,0,1,.34-1.8,1.71,1.71,0,0,1,.13-.44l.1-.34a.83.83,0,0,0,0-.58c0-.1,0-.2,0-.27A.82.82,0,0,1,64,13.3c-.13-.34-.24-.72-.37-1.09a4.36,4.36,0,0,1,0-.65,1.39,1.39,0,0,1,.14-.54.94.94,0,0,1,.92-.65h.27l.41.41c0,.07-.1.21,0,.31-.13.2,0,.44-.07.64v.65a3.53,3.53,0,0,1,0,.65c0,.23.11.4.11.64.17,0,.34.21.57.1,0,.07,0,.17.14.21h.31a.69.69,0,0,0,.17.17h.13c.07.27.38.27.48.47.1,0,.24-.06.3.07s0,.21-.06.27c.1.14.13.28.27.38,0,.13.07.3-.1.41a.45.45,0,0,1,0,.57l.1.11a.18.18,0,0,0-.1.17,1.42,1.42,0,0,1-.14.74c0,.11,0,.17.07.28a13.14,13.14,0,0,0-.38,1.76l-.17.11c0,.54-.27,1-.2,1.46a1.91,1.91,0,0,0-.24,1.19l-.13.13a4.22,4.22,0,0,1-.17.68c-.07.24.06.48-.11.68,0,.07.07.1.11.17-.24.24,0,.45.06.65s.45,0,.58.2c.17,0,.34-.2.55-.13a4,4,0,0,1,.85-.72,2.51,2.51,0,0,0,.71-.74c.07-.14.2-.21.27-.38.14-.44.41-.81.51-1.26,0-.13.21-.2.17-.37.21-.2.21-.54.38-.78a1.07,1.07,0,0,0,.17-.58.42.42,0,0,1,.06-.34c.11-.1,0-.17.07-.31l.27-.23c.07,0,.11.1.21.2S70.89,19.49,71,19.72Z"/><path class="cls-1" d="M72.28,25.37a1,1,0,0,0-.68-.24,3.65,3.65,0,0,0-.44-.44c0-.11,0-.17,0-.21a2.78,2.78,0,0,1-.48-.88c-.07-.24-.2-.41-.27-.65a4.45,4.45,0,0,1-.14-.95c0-.13,0-.27-.1-.37a1,1,0,0,1,.1-.14.48.48,0,0,1,0-.47c.1-.14,0-.38,0-.55a5.2,5.2,0,0,1,.07-.64,1.76,1.76,0,0,1,.14-.62,1,1,0,0,0,0-.3c0-.14.07-.17.07-.31a3.44,3.44,0,0,1,.31-.92,2,2,0,0,0,.1-.4c.17-.11.13-.28.2-.41a5.74,5.74,0,0,1,.41-.78,13.84,13.84,0,0,1,1.05-1.3.62.62,0,0,1,.14-.06,7.43,7.43,0,0,1,.75-.38c0-.1.07-.17.1-.2.24.17.51,0,.78.07a8.37,8.37,0,0,1,1.12.88,1.44,1.44,0,0,0,.31-.54,1.31,1.31,0,0,1,1.05-.68c.11.2.38.2.45.44,0,0,0,.07-.07.1s.07.2.07.31-.07.51.06.78c0,.07,0,.13-.06.2s.06.27.06.48a1.62,1.62,0,0,1,0,.44,2.69,2.69,0,0,0-.06.44c0,.14.06.31-.07.44s0,.07.1.11c-.14.1-.1.27-.1.4a3.21,3.21,0,0,0,0,.62c0,.2-.1.3-.1.47s.06.31-.07.48v.13A12.24,12.24,0,0,0,77,21.35c0,.11-.07.24,0,.35s-.07.2-.07.34a1.23,1.23,0,0,1,0,.33.81.81,0,0,1,0,.41,2.85,2.85,0,0,0-.07.95c0,.24.2.45.2.68,0,0-.1,0,.17.17.38-.1,0,.41.65.21,0,0,.1-.1.14-.1a3.33,3.33,0,0,0,.78-.55A4.7,4.7,0,0,0,80,22.54c.2-.34.4-.71.64-1.08a5.06,5.06,0,0,0,.24-.72l0-.13.45-.07a.15.15,0,0,1-.07,0,3.18,3.18,0,0,1-.31,1c-.17.17-.17.4-.27.61a2.76,2.76,0,0,0-.34.58,7.44,7.44,0,0,1-.92,1.35,2.32,2.32,0,0,1-.61.68c-.14,0-.17.24-.31.28a.46.46,0,0,1-.57.23l-.17.17h-.55c-.07,0-.1-.1-.17-.17s-.37-.06-.58-.17-.17-.3-.3-.47a2,2,0,0,1-.38-.68,11.05,11.05,0,0,0-.3-1.09c-.07-.1,0-.24,0-.37-.21-.17-.14-.24-.24-.58-.1,0-.07-.27-.2-.37a.61.61,0,0,0-.34.47c0,.14-.11.2-.11.34s-.1.17-.06.27a1.58,1.58,0,0,1-.07.34c0,.17,0,.31-.14.41s0,.31-.1.41,0,.07,0,.13a1.54,1.54,0,0,0-.58.89,3.58,3.58,0,0,1-.81.71A1.6,1.6,0,0,1,72.28,25.37Zm.89-.68c.07-.21.3-.24.34-.41s.17-.21.24-.31.06-.3.13-.44.07-.3.21-.41a3.49,3.49,0,0,1,.06-.61c0-.34.14-.61.21-1a4.27,4.27,0,0,0,.2-1.12c0-.07,0-.1,0-.17a2.47,2.47,0,0,0,.24-1,10.88,10.88,0,0,0,.27-1.19,2.1,2.1,0,0,0,.17-.58c0-.2.14-.41.14-.61s-.14-.44.07-.61v-.14a3.4,3.4,0,0,1-.31-.75c0-.1-.14-.07-.17-.17a.85.85,0,0,0-.68-.54,1.69,1.69,0,0,0-.48-.07c-.2.07-.34.27-.51.54.07.24-.44.41-.06.58-.55.17-.51.41-.55.61a5.26,5.26,0,0,0-.24,1.3c.07.06.07.1,0,.17-.1.27,0,.64-.13.91-.27.68-.21.51-.21.79s0,.27-.06.34c.1.1,0,.2,0,.3s-.14.41-.17.58c0,.41-.21.78-.14,1.16.07.17-.07.3.07.47l-.07.07a20,20,0,0,0,0,2,1.32,1.32,0,0,0,.88.64c.1.07.17,0,.27,0A.8.8,0,0,0,73.17,24.69Z"/></g></g></svg>